<?xml version="1.0" encoding="UTF-8"?>
<svg enable-background="new 0 0 1347.773 2569.559" version="1.1" viewBox="0 0 1347.773 2569.559" xmlns="http://www.w3.org/2000/svg">
 <path d="m790.56 95.021c8.09-0.032 15.974 0.827 22.571 6.217 4.229 3.455 4.848 7.327 2.534 12.372-6.275 13.679-7.448 13.931 7.914 21.353 5.624 2.717 10.669 6.416 14.232 12.021 4.426 6.965 10.149 13.014 14.042 20.451 3.172 6.055 8.964 6.636 13.482 10.758 4.862 4.437 9.152 11.633 13.665 16.725 12.106 13.66 24.211 27.319 36.317 40.979 15.427 19.284 32.979 37.213 49.361 55.698 14.484 16.343 30.74 29.309 44.71 45.991 5.796 6.921 13.451 12.256 20.026 18.562 8.13 7.796 16.297 15.436 25.566 21.98 5.606 3.957 10.361 9.286 14.927 14.5 4.18 4.774 9.526 8.159 13.715 12.945 5.194 5.934 11.743 10.421 16.699 16.905 4.932 6.453 12.081 11.279 18.527 16.486 5.925 4.786 7.651 10.998 7.295 18.145-0.614 12.343-7.548 22.182-13.042 32.575-5.307 10.039-11.95 19.023-20.269 26.876-4.414 4.167-5.132 9.827-3.388 15.746 2.553 8.667 1.911 17.113-2.302 25.165-1.428 2.729-3.41 5.198-6.736 5.391-12.602 0.728-20.461 8.555-27.04 18.086-2.398 3.473-4.98 6.73-8.227 9.287-3.665 2.887-5.4 6.572-6.351 10.943-2.641 12.133-12.313 19.449-24.647 18.686-4.979-0.308-8.656-3.376-12.071-6.499-3.747-3.427-7.564-6.145-12.754-7.197-4.356-0.883-8.464-2.958-12.182-5.597-2.959-2.1-6.496-3.56-9.771-1.913-3.364 1.692-3.688 5.538-4.029 9.136-0.725 7.652-1.853 15.301-7.964 20.853-6.301 5.724-3.446 12.472-2.448 19.02 0.221 1.451 0.704 3.022 1.546 4.191 5.268 7.313 6.54 15.832 7.614 24.419 2.085 16.665 7.98 31.855 17.511 45.664 0.845 1.224 1.497 2.59 2.168 3.926 3.421 6.808 6.929 7.619 12.012 1.76 4.649-5.359 9.577-6.241 16.001-4.152 3.075 1 6.577 0.901 9.888 0.922 8.724 0.055 14.326 5.289 19.677 11.236 5.633 6.259 11.272 12.192 18.914 16.6 7.826 4.515 16.272 8.331 23.228 14.281 10.732 9.18 22.643 16.86 28.987 30.763 3.418 7.492 11.485 12.72 16.446 19.689 5.113 7.183 12.073 13.756 12.77 23.222 1.033 14.045 0.282 28.077-7.212 40.523-9.948 16.519-19.38 33.423-26.804 51.246-3.227 7.747-5.202 16.298-8.877 23.757-4.23 8.587-8.101 15.342-6.485 25.442 1.713 10.708 8.163 16.193 15.341 23.34 8.942 8.905 16.801 19.516 25.125 29.046 17.701 20.268 37.517 39.929 53.411 61.594 13.535 18.45 27.802 39.113 29.953 62.559 0.397 4.325 3.194 7.991 3.699 12.39 1.851 16.143 2.853 32.357 4.324 48.525 1.946 21.379-0.868 42.398-2.814 63.516-0.872 9.465 1.033 18.717 3.026 27.706 2.676 12.068 7.209 23.682 12.936 34.789 6.469 12.544 14.323 24.248 21.304 36.462 8.731 15.276 7.024 31.965-3.553 46.218-4.597 6.195-6.364 13.787-8.371 21.204-3.344 12.351 2.056 23.157 5.769 34.196 1.354 4.026 3.711 7.726 5.06 11.879 1.63 5.019 3.564 9.902 7.816 13.655 4.78 4.22 6.915 10.538 11.053 15.361 1.318 1.536 1.132 3.735 0.935 5.78-0.894 9.28-4.185 17.626-9.021 25.576-3.06 5.031-6.667 9.28-11.025 13.268-7.716 7.061-9.672 17.112-12.387 26.743-2.466 8.75-6.597 17.059-13.725 22.665-17.314 13.617-40.854 13.005-61.448 10.159-5.57-0.77-11.266-1.578-16.256-4.169-4.991-2.591-9.227-7.356-9.605-12.967s4.282-11.519 9.892-11.128c5.815 0.406 9.764 6.65 15.512 7.619 5.93 1 11.198-3.942 14.351-9.064s5.537-11.081 10.515-14.456c8.426-5.713 20.957-1.787 29.104-7.89 7.891-5.91 7.453-17.664 6.235-27.447-2.094-16.818-4.187-33.636-6.281-50.454-1.49-11.965-5.975-29.598 0.848-40.615 5.402-8.722 11.831-17.414 14.533-27.045 3.176-11.321 5.018-23.804-2.108-35.048-4.774-7.532-8.418-15.445-9.101-24.491-0.324-4.292-2.847-7.24-5.951-9.987-7.461-6.604-16.087-11.792-23.013-19.036-7.32-7.655-16.068-13.908-21.637-23.295-3.51-5.916-6.567-11.97-8.675-18.466-4.213-12.986-9.103-25.607-15.739-37.636-3.821-6.927-6.815-14.364-10.917-21.183-4.876-8.107-10.151-15.978-14.886-24.164-8.049-13.915-19.571-24.619-31.494-35.004-4.707-4.1-10.473-6.431-15.786-9.519-1.078-0.626-2.16-0.956-3.193 0.045-0.939 0.91-1.073 1.953-0.6 3.193 1.305 3.418 2.246 7.006 3.847 10.275 6.351 12.966 12.719 25.929 19.419 38.716 28.951 55.26 46.888 122.06 50.441 184.36 1.654 29-0.467 58.349-7.417 86.591-3.568 14.5-8.417 28.698-14.68 42.259-5.913 12.803-15.87 23.373-15.213 38.166 0.54 12.147-1.641 23.012-9.192 32.647-1.224 1.561-2.009 3.53-3.415 4.872-4.388 4.186-4.41 9.345-3.557 14.67 1.652 10.313 2.958 20.717 5.324 30.87 3.377 14.486 2.192 29.535 5.316 43.816 2.74 12.524 2.184 25.024 3.325 37.49 2.037 22.249 4.12 42.888 1.684 65.661-2.608 24.381-7.439 48.448-11.566 72.599-6.451 37.755-11.142 75.811-14.057 114-1.418 18.573-0.549 38-3.205 56.389-2.528 17.503-6.615 35.128-7.631 52.925-0.587 10.282-4.028 19.781-6.043 29.658-0.809 3.966-0.861 7.952-1.119 11.918-0.533 8.204-3.717 15.958-4.441 23.941-1.176 12.967-6.02 24.343-8.438 36.925-2.261 11.763-2.578 24.953-10.834 34.469-4.827 5.565-11.678 8.881-18.329 12.049-9.482 4.516-19.014 9.869-28.926 13.097-2.721 0.886-29.422 7.848-29.422 9.19-6.627 1.754-11.279 7.141-12.199 14.492-1.257 10.047-1.547 20.171-3.127 30.232-0.977 6.22 0.403 12.94 1.454 19.315 1.139 6.904 0.359 10.642-5.828 14.346-10.686 6.396-21.642 12.272-33.858 15.479-9.168 2.406-15.16 8.558-19.832 16.803-3.1 5.47-7.183 10.22-7.742 16.895-0.322 3.85 0.58 6.678 3.567 9.231 4.776 4.081 9.478 8.296 13.817 12.833 10.369 10.841 23.231 15.331 37.89 16.25 9.948 0.624 19.929 1.949 29.067 6.271 5.627 2.661 9.819 6.926 10.112 13.754 0.379 8.847-10.835 6.27-16.192 10.594-5.683 4.588-8.63 8.355-15.777 9.771-9.2 1.823-19.506 1.46-28.855 1.549-16.839 0.159-34.561-0.27-51.134-3.53-13.756-2.705-24.11-9.326-37.35 0.604-4.204 3.154-8.403 3.07-13.451 3.096-10.814 0.056-20.847-3.877-31.449-4.522-12.768-0.777-17.639-7.551-15.013-20.146 1.054-5.056-1.821-7.93-7.021-6.927-11.56 2.231-22.997 4.832-34.031 9.146-3.463 1.354-7.544 1.059-11.303 1.74-15.984 2.895-31.822 6.476-47.4 11.077-12.712 3.755-26.07 3.388-38.861 6.523-2.095 0.513-4.328 0.579-6.337 1.299-4.694 1.682-8.757 0.484-12.81-1.963-9.875-5.965-20.871-9.199-31.744-12.695-2.211-0.711-4.626-0.889-6.547-2.322-8.786-6.554-19.427-8.267-29.387-11.899-7.333-2.674-15-4.766-22.024-8.652-8.994-4.976-18.886-8.291-28.097-12.822-10.314-5.073-20.681-4.311-31.688-5.097-11.986-0.856-23.907-5.215-35.977-2.645-6.989 1.488-13.3 5.222-20.169 7.191-11.27 3.231-21.69-5.28-32.949-2.79-4.735 1.047-7.82 4.223-12.76 2.799-5.875-1.693-11.971-9.44-16.226-13.565-8.074-7.826-16.148-15.653-24.222-23.479-4.833-4.685-9.817-9.595-12.134-15.915-4.56-12.432 2.077-25.196 1.763-37.785-0.33-13.21-5.232-27.783-11.316-39.375-2.524-4.81-3.41-10.146-6.153-15.052-3.498-6.254-8.01-11.42-12.665-16.491-6.313-6.877-19.071-19.698-29.529-17.217-3.119 0.74-5.941 2.377-8.933 3.534-28.396 10.973-46.973-11.185-67.132-26.326-5.208-3.912-10.678-8.167-12.901-14.289-2.952-8.129 0.688-16.376 3.279-24.046 1.411-4.177 3.054-8.387 3.456-12.818 0.322-3.546-1.243-8.657 0.271-12.022 4.26-9.468 4.676-22.857 5.924-33.199 1.558-12.913 1.918-26.094-0.942-38.86-3.667-16.367-13.895-32.553-29.171-40.275-14.93-7.548-33.918-4.095-40.684-23.685-1.611-4.663-6.309-7.444-10.235-9.621-13.935-7.727-15.895-11.661-10.875-28.488 2.473-8.292 4.558-16.61 6.356-25.063 20.477-96.272 55.191-189.76 101.55-276.55 13.627-25.512 30.502-49.505 43.412-75.325 3.436-6.676 8.766-12.215 11.988-18.843 4.104-8.444 12.024-14.164 15.221-23.113 1.207-3.379 2.172-5.526-3.048-5.589-5.827-0.071-14.286-11.423-14.676-18.888-0.035-0.663 0.05-1.331 0.06-1.997 0.137-9.305-1.43-11.602-10.742-12.082-23.254-1.198-13.222-32.115-8.462-45 10.296-27.873 36.751-43.196 44.867-71.428 4.896-17.031 7.395-36.031-1.832-51.952-5.472-9.442-13.302-17.248-20.765-25.211-10.133-10.811-16.295-19.871-19.562-34.067-2.879-12.51 5.39-26.271 9.071-37.976 4.731-15.041 10.666-29.704 17.735-43.799 2.78-5.543 5.804-11.26 5.916-17.46 0.153-8.464-5.08-15.45-10.758-21.185-5.623-5.68-10.338-13.377-17.255-17.523-3.195-1.915-4.654-5.481-4.302-9.088 0.685-7.019 2.71-13.397 8.559-18.334 4.81-4.06 10.917-5.789 16.071-9.264 5.67-3.822 8.869-8.974 12.478-14.667 7.078-11.165 16.049-19.207 18.481-32.841 1.571-8.812 1.313-17.833 1.883-26.765 1.691-26.466 10.925-52.387 26.225-74.039 14.286-20.217 30.186-37.766 33.108-63.666 3.313-29.356-17.146-63.376-7.03-91.952 0.691-1.952 0.782-3.866 0.545-5.889-0.896-7.639 0.764-14.968 3.796-21.821 6.118-13.83 8.614-29.745 16.532-42.68 7.94-12.97 20.831-22.409 26.866-36.651 7.501-17.701 11.483-36.696 25.297-51.201 17.729-18.617 30.08-41.155 46.05-61.559 19.983-25.532 39.967-51.063 59.95-76.595 24.503-28.003 46.232-59.068 69.171-88.376 28.946-36.983 59.391-72.594 86.06-111.32 16.064-23.326 30.935-47.473 44.534-72.316 6.923-12.648 13.51-25.479 19.77-38.468 5.817-12.069 7.165-25.152 11.062-37.961 1.915-6.289 2.467-12.999 3.55-19.532 0.598-3.611 0.846-7.277 3.59-10.155 1.634-1.714 1.502-4.016 1.425-6.171-0.32-8.906 1.062-17.588 3.2-26.192 3.932-15.823 11.996-22.957 28.716-23.856 1.327-0.074 2.663-0.012 3.995-0.012zm74.471 319.5c-0.03-7.55 0.261-13.525-2.863-18.699-1.601-2.65-2.456-5.393-3.272-8.273-5.164-18.237-10.993-36.303-17.996-53.874-5.516-13.84-9.001-28.178-13.046-42.379-2.952-10.366-5.438-20.897-7.818-31.441-1.649-7.305-4.608-14.509-7.067-21.728-3.366-9.882-6.272-19.92-9.482-29.856-1.326-4.104-4.27-7.638-4.78-12.007-0.594-5.093-3.188-9.431-4.762-14.147-0.452-1.352-1.264-2.449-2.832-2.36-1.794 0.102-1.851 1.573-2.023 2.926-1.405 11.052-3.046 22.163-1.53 33.262 0.733 5.371-0.011 10.63 0.405 15.854 0.889 11.173-3.891 21.344-4.545 32.368-1.436 24.206-5.601 48.21-8.08 72.375-2.014 19.627-7.441 38.732-11.037 58.131-2.093 11.293-5.852 22.12-9.243 33.083-3.472 11.225-7.456 22.318-10.344 33.758-2.557 10.126-6.215 19.981-9.515 29.912-3.975 11.964-8.147 23.859-13.031 35.494-23.911 56.964-45.776 113.79-75.494 168.23-33.645 61.635-72.468 123.57-119.03 176.38-9.618 10.909-18.39 22.499-28.087 33.315-5.085 5.672-10.013 11.579-15.708 16.59-13.145 11.566-24.622 24.627-35.395 38.313-7.974 10.132-15.344 20.698-22.119 31.74-4.136 6.741-9.265 12.909-12.991 19.999-3.728 7.095-4.361 14.159-0.914 21.532 1.266 2.709 2.356 5.531 3.21 8.396 2.033 6.819-0.855 13.603-6.683 15.755-7.033 2.597-13.408 6.641-19.818 10.26-10.04 5.669-20.122 11.64-28.583 19.784-23.137 22.271-51.207 47.58-55.426 81.462-2.138 17.173 2.781 34.351 4.248 51.594 0.823 9.681 0.313 19.829-2.906 29.069-3.295 9.457-10.809 15.279-14.702 24.18-8.205 18.762-17.097 38.727-7.954 58.786 4.873 10.692 12.805 19.639 20.569 28.459 5.823 6.615 11.731 13.443 14.886 21.672 3.601 9.39 0.964 18.513-2.681 27.399-4.356 10.62-9.823 13.925-18.945 20.562-10.236 7.448-20.327 15.145-29.718 23.647-7.015 6.351-17.318 14.124-21.657 22.594-2.209 4.313-3.178 11.111-0.292 15.401 3.443 5.117 9.854 4.239 14.879 7.325 5.477 3.364 11.17 6.764 12.218 14.114 0.949 6.658-3.858 9.24-8.506 11.402-5.628 2.618-10.415 5.606-9.842 12.645 0.573 7.04 6.316 9.211 11.755 11.454 4.816 1.985 7.88 0.496 11.192-3.457 8.036-9.59 13.238-21.134 20.807-31.103 8.98-11.829 17.96-23.659 26.94-35.489 22.483-29.618 43.647-61.948 69.015-88.974 7.269-7.744 14.821-15.272 22.153-22.972 14.956-15.707 29.816-31.506 44.577-47.396 16.233-17.473 32.348-35.056 48.343-52.747 7.998-8.846 15.965-17.718 23.903-26.618 6.555-7.349 12.302-16.691 19.121-23.51 6.099-8.604 13.454-16.248 21.382-23.178 15.837-13.844 33.947-24.765 51.661-35.983 25.961-16.442 51.301-33.865 75.948-52.218 12.533-9.332 24.886-18.905 37.051-28.711 10.785-8.693 26-17.525 31.87-30.347 1.835-4.01 4.521-7.325 6.854-10.946 3.215-4.991 7.629-9.266 9.449-15.119 2.167-6.97 4.344-13.937 6.419-20.935 3.342-11.273 9.724-22.183 3.617-34.529-3.629-7.337-3.904-15.809-7.286-23.237-6.244-13.71-12.774-27.325-16.285-42.05-0.917-3.844-4.163-6.582-4.281-10.526-0.352-11.786-2.924-23.461-1.445-35.356 0.528-4.25 0.522-8.797-2.325-12.479-3.147-4.071-6.045-8.59-9.991-11.736-9.13-7.278-7.456-19.063-12.55-27.963-1.077-1.882 0.098-4.566 0.987-6.762 0.812-2.007 1.712-3.988 2.378-6.043 3.364-10.38-3.032-20.22-13.553-21.683-4.71-0.655-9.392-2.137-13.852-3.855-14.985-5.771-16.082-22.329-5.221-32.533 5.342-5.019 10.117-11.129 11.767-18.764 2.209-10.221 6.438-19.404 12.726-27.82 6.309-8.444 8.805-17.588 2.179-27.224-1.523-2.214-1.419-4.335-0.182-6.551 1.216-2.179 2.327-4.429 3.689-6.514 4.563-6.986 3.258-14.111-3.626-19.24-6.15-4.582-6.616-10.155-2.119-16.294 8.777-11.982 18.412-23.069 30.158-32.28 3.37-2.643 5.698-6.749 9.253-9 11.277-7.14 21.203-16.042 32.048-23.709 10.431-7.374 20.151-14.956 25.555-27.297 3.974-9.077 8.139-18.136 12.584-27.047 4.53-9.081 8.297-18.693 8.9-29.377 0.499-8.834 1.873-17.778 4.81-26.278 2.282-6.608 5.176-13.059 3.924-18.603zm234.58 1011.6c-0.478-4.194-0.62-8.585-2.122-12.67-6.239-16.967-12.779-33.825-18.832-50.857-2.165-6.093-6.667-10.627-9.449-16.276-1.065-2.162-3.891-4.188-6.177-1.747-2.55 2.723-3.986 6.455-3.513 10.37 3.569 29.532 4.082 59.307 5.735 88.979 0.428 7.682-2.006 35.761 10.519 25.017 9.202-7.894 16.321-21.838 21.597-32.542 1.53-3.102 2.24-6.609 2.242-10.274zm-49.538-552.95c0.892 5.674-1.78 10.417-3.628 15.394-5.119 13.786-10.009 27.634-20.617 38.536-2.209 2.27-3.434 5.936-0.936 8.664 2.357 2.573 4.956 0.274 6.939-1.406 13.811-11.703 29.217-21.238 39.84-36.977 7.29-10.802 14.351-21.264 18.51-33.617 2.569-7.63-1.499-15.298-9.301-16.679-10.699-1.894-19.452-7.101-26.766-14.99-4.501-4.855-6.934-5.237-11.434-1.988-5.513 3.98-6.08 6.081-2.972 11.825 0.762 1.408 0.909 2.818 0.83 4.325-0.12 2.295 0.658 4.29 2.226 5.904 5.73 5.896 6.451 13.505 7.309 21.009zm-27.062-119.56c-0.1-1.633-1.173-3.783-3.885-5.157-4.945-2.505-10.381-3.45-15.65-4.579-6.398-1.37-10.609 4.253-7.872 10.214 2.124 4.626 4.656 9.145 8.062 13.021 2.578 2.934 5.72 3.479 8.766 0.868 3.121-2.674 6.03-5.614 8.857-8.604 1.115-1.18 1.771-2.803 1.722-5.763z"/>
</svg>
