<?xml version="1.0" encoding="UTF-8"?>
<!DOCTYPE svg  PUBLIC '-//W3C//DTD SVG 1.1//EN'  'http://www.w3.org/Graphics/SVG/1.1/DTD/svg11.dtd'>
<svg enable-background="new 0 0 1600 2560" version="1.1" viewBox="0 0 1600 2560" xml:space="preserve" xmlns="http://www.w3.org/2000/svg">
	<path d="m580.93 1573c2.5393 6.631 5.5084 13.214 8.2217 19.634 2.8855 6.8275 4.9367 13.405 5.7526 20.538 0.5255 4.5936-1.7797 9.2778-1.8551 13.306-0.1168 6.2374-2.1359 11.27-4.5312 16.359-6.84 14.533-18.989 24.112-32.529 34.008 0.7309-3.8846 2.8246-5.5208 4.564-7.2059 9.9696-9.6594 17.904-20.463 21.49-34.221 1.7047-6.5403 1.6982-20.349-0.8018-28.253-0.9467-2.9929-3.6584-5.8667-1.4628-9.4152 0.1413-0.2285 0.1387-0.8066-0.0177-0.9214-7.0674-5.1824-9.5097-13.572-14.15-20.427-22.719-33.56-49.843-63.313-79.006-91.268-27.779-26.629-56.837-51.88-84.196-78.987-29.346-29.075-54.705-61.367-79.856-93.969-27.127-35.164-51.132-72.308-73.483-110.61-4.441-7.61-9.6137-14.794-14.467-22.162-1.0758-1.6334-2.7167-3.0194-1.8102-5.3574 0.2808-0.7242 0.438-1.8409-0.8763-1.718-3.4555 0.3231-4.4023-2.6013-5.9584-4.5825-7.0993-9.0388-14.138-18.126-21.084-27.283-1.3122-1.7301-3.5638-3.3125-2.2596-6.1293 0.3033-0.655-0.0493-1.1158-0.6984-1.5803-10.632-7.6067-14.398-19.256-17.919-30.96-1.187-3.9456 0.7614-6.7742 4.5901-8.2167 4.8253-1.818 9.603-3.7955 14.518-5.3319 3.2405-1.0131 3.1326-2.228 1.0732-4.3248-6.0696-6.1798-12.083-12.415-18.155-18.592-10.393-10.572-21.079-20.891-28.967-33.617-7.1187-11.486-6.487-18.805 2.552-28.828 2.2298-2.4724 4.5495-4.8838 7.0063-7.1279 10.579-9.6628 12.413-21.527 8.888-34.756-3.3963-12.745-9.7443-23.618-20.214-31.922-4.0809-3.2366-3.9458-4.0981 0.8104-6.2218 4.9496-2.21 10.592-2.7106 15.491-6.0143-2.2506-1.3448-4.1821-2.5065-6.1211-3.6558-2.4766-1.4678-4.3196-3.373-3.3339-6.4869 1.032-3.2603 3.7034-4.0751 6.7885-3.7404 3.6328 0.3941 7.2405 1.0402 10.878 1.3575 1.7117 0.1493 3.9674 0.5255 4.1264-2.2509 0.1596-2.7866-2.1838-1.9536-3.6032-2.1626-8.5145-1.2532-12.019-4.7322-11.484-11.375 0.3921-4.8663 3.862-7.058 8.1675-9.2114-2.7416-1.4752-5.1394-0.7567-7.4512-0.6691-6.8291 0.2588-11.302-3.8362-11.347-10.435-0.0414-6.0535 4.0518-9.2632 11.104-8.9996 4.4869 0.1678 8.9875-0.068 13.48-5e-4 1.894 0.0285 2.8733-0.7433 2.8478-2.5806-0.0307-2.216-1.8595-1.444-2.9919-1.5356-2.1538-0.1743-4.362-0.3915-6.4847-0.1125-9.8054 1.2885-16.042-6.0701-10.147-17.545-11.664 0-22.717 0.0387-33.77-0.0133-7.6643-0.0361-15.348 0.0947-22.984-0.4172-4.2567-0.2853-6.2282 1.0697-7.4733 5.0866-2.4392 7.8692-2.8343 8.1307-9.9764 3.8311-14.993-9.0258-31.701-10.556-48.512-11.882-7.213-0.5691-14.428-1.1128-21.607-2.6364 9.1716-0.7507 18.332-1.7213 27.517-2.2033 15.93-0.836 30.803-4.8915 44.536-13.168 5.923-3.5693 6.2371-3.3385 7.5166 3.2556 0.661 3.4064 1.8383 4.7533 5.7669 4.7603 22.993 0.0412 45.987 0.4246 68.976 0.8917 3.7198 0.0756 5.4362-0.5473 5.1334-4.7784-0.2462-3.4402 0.5192-6.9562 0.871-10.435 0.9052-8.9515-1.906-16.402-8.916-22.161-4.118-3.383-8.2648-6.7312-12.368-10.133-1.4051-1.1649-2.849-2.327-4.0447-3.6923-3.9119-4.4669-3.8837-4.5668 1.9613-5.7125 4.5993-0.9016 8.348-3.2134 11.53-6.5341 14.073-14.685 14.921-36.497 2.0749-52.186-4.3203-5.2763-9.043-10.22-12.619-16.104-4.7471-7.8109-4.8817-15.662-0.9036-23.764 6.9653-14.188 17.865-25.246 29.046-35.971 11.538-11.067 23.494-21.701 35.362-32.418 2.7471-2.4807 3.5894-4.3367-0.0679-6.7355-2.6399-1.7315-4.6442-4.2443-6.6048-6.7615-3.3006-4.2377-3.8541-8.8978-1.7813-13.611 2.9151-6.6279 5.5458-13.442 11.542-18.286 1.6671-1.347 1.4946-4.4049 3.0325-6.4314 6.0408-7.9598 11.782-16.147 17.816-24.112 27.933-36.873 55.552-73.982 83.958-110.5 47.289-60.796 101.98-114.27 160.52-164.03 23.353-19.85 47.296-39.012 69.754-59.911 6.963-6.4796 13.252-13.572 19.831-20.403 6.111-6.3451 10.501-13.889 15.821-20.665 4.1193-5.2473 4.8639-12.475 10.667-16.36-1.8195-4.018 0.2341-7.9036 0.4645-11.842 0.6213-10.621-2.0044-20.405-6.7739-29.813-2.5941-5.1167-5.6056-10.155-6.3971-16.338 0.8834 0.1606 1.5227 0.0797 1.7394 0.3446 7.9883 9.7645 17.644 18.337 23.119 29.922 4.6597 9.8589 6.3789 19.706 3.4652 31.234-2.4669 9.7601-7.7645 17.357-12.184 25.72-0.835 1.58-1.4223 2.8857-1.1478 4.5877l0.1393-0.0509c-0.9271-2.1682-1.7261-1.6746-2.9991-0.1139-3.5613 4.3663-7.2107 8.6688-10.989 12.849-12.867 14.237-26.858 27.336-41.196 40.054-51.242 45.455-102.24 91.16-148.98 141.36-34.966 37.552-67.01 77.301-91.06 122.91-10.364 19.654-18.706 40.144-21.581 62.427-2.2032 17.074-2.0151 34.178-0.0169 51.264 0.967 8.2681 2.1978 16.509 2.9945 24.792 0.6695 6.9598-1.3409 8.7054-8.3603 7.6462-6.9913-1.055-13.427-3.8354-19.67-7.0043-2.3775-1.2067-4.1282-1.374-6.1746 0.6834-13.623 13.697-27.758 26.881-39.455 42.406-9.5085 12.62-11.492 25.802-4.863 40.274 5.1599 11.264 8.3843 23.129 10.579 35.312 1.0906 6.0528 2.2428 12.119 4.3971 17.926 1.7468 4.7081 4.4073 8.533 9.3823 10.369 6.6871 2.4684 6.7395 2.8154 1.0982 7.6213-1.896 1.6153-4.0054 2.9842-6.0464 4.4243-4.3596 3.076-8.5523 6.3393-12.488 9.9643-2.8795 2.6519-2.9544 4.2917 0.4256 6.8264 9.2514 6.9376 20.741 9.6915 29.976 16.757 4.8276 3.6935 10.591 6.258 15.545 9.9333 1.8412 1.366 3.7848 1.8293 6.0286 1.9326 13.045 0.6003 26.09-0.5968 39.16 0.1881 3.3634 0.202 9.7738 2.824 10.071-5.111 0.0669-1.7865 2.6115-1.7743 4.2247-1.9622 15.554-1.8115 31.127-2.6938 46.72-0.5035 2.2928 0.322 5.3083 2.2421 6.6618 1.3678 6.7023-4.3299 13.622-6.231 21.455-4.3309 18.724-6.2839 38.852-7.8515 56.707-17.17 5.2306-2.7299 11.2-3.3444 17.036-1.5392 2.2993 0.7112 4.4727 0.9321 6.8244 0.5623 14.403-2.2643 29.159-2.4518 43.058-7.693 3.4643-1.3065 6.9191-0.0564 8.5338 3.2781 1.5944 3.2926-1.7092 4.493-3.7986 6.0021-0.6746 0.4872-1.3939 0.9136-2.0597 1.412-7.4413 5.5707-13.749 12.107-18.282 20.709 3.4042 0.4147 5.9828-0.1777 8.3859-1.3921 7.0227-3.5488 11.952-1.5831 13.492 5.963 0.5386 2.6403 1.6144 3.254 3.8568 3.358 5.1588 0.2393 10.311 0.7402 15.471 0.8202 50.321 0.7803 100.64 1.5782 150.96 2.1751 13.359 0.1585 26.701-1.2659 39.559-4.8234 18.813-5.2054 37.67-9.7954 57.177-11.521 13.22-1.1695 26.257-5.0074 39.706-2.4607 0.3265 0.0618 0.6611 0.0865 0.9931 0.1142 9.6771 0.8062 19.438 6.5296 28.982-0.4911 14.403-0.9251 28.266-5.913 42.858-5.6301 2.5936 0.0504 5.8864-0.203 6.5809-3.9811 1.9203 1.6152 3.9642 1.2731 6.0782 0.4403 4.1641-1.6404 8.404-3.1023 12.506-4.8834 8.8934-3.8615 8.7358-3.9235 8.6436-13.56-0.034-3.5526-1.2587-3.7883-4.1993-2.7842-7.8524 2.6811-15.766 5.252-24.245 4.7839-2.3836-0.1315-2.8502 0.8448-2.2357 2.9829 0.9616 3.3461 1.7532 6.7411 2.6168 10.115-2.2541-3.1691-3.3487-6.8723-4.7174-10.437-0.702-1.8281-1.6887-3.0133-3.6055-3.7567-7.5755-2.9379-11.818-8.7523-13.979-16.424-1.2695-4.5072-1.7105-8.9041-4.8594-13.281-6.1145-8.498-7.5198-19.424-11.286-29.194-1.1273-2.9244-2.3987-5.2651-5.1177-6.9793-4.0373-2.5452-5.1122-6.2944-3.649-10.862 2.8502-8.8989-2.5248-15.594-6.3516-22.743-0.0838 0.9095-0.1676 1.819-0.2515 2.7285-5.1959-20.187-10.902-40.099-11.325-61.021-2.237 33.64 6.8391 65.652 13.552 98.023-0.9008-0.6383-1.237-1.3751-1.487-2.1401-10.714-32.78-18.55-66.045-16.929-100.9 0.1228-2.6392 0.3322-5.2969-3.4523-6.9393-0.3044 6.1494-0.5894 11.908-0.9263 18.716-2.1891-7.7772-2.0171-14.719-1.6747-21.633 0.1383-2.793-0.3897-5.144-1.838-7.545-6.3627-10.549-12.587-21.181-18.847-31.792-30.03-50.896-61.087-101.21-88.524-153.59-31.202-59.56-61.82-119.43-94.613-178.14-5.2539-9.4072-10.866-18.692-14.408-28.975 0.1476-0.1141 0.2953-0.2282 0.4431-0.3421 11.526 21.17 22.992 42.373 34.59 63.503 22.104 40.269 43.378 80.978 64.361 121.84 26.71 52.011 56.559 102.23 86.438 152.44 10.046 16.88 19.994 33.818 29.994 50.726 0.7407 1.2522 1.5443 2.4672 2.8655 4.5701 2.0882-9.9099 4.3845-18.814 7.6444-27.432 8.7598-23.159 20.704-44.335 38.708-61.662 6.8793-6.6205 14.401-12.401 23.932-14.771 1.847-0.4594 2.6708-1.8476 3.7589-3.0694 4.7274-5.3082 10.078-10.838 17.104-11.357 7.628-0.5644 14.936-1.5825 22.39-3.2458 4.2101-0.9395 8.9659-2.5052 13.079-1.9495 9.0417 1.2218 17.358-2.0214 26.053-2.5846 9.9611-0.6452 18.885 3.5098 28.249 5.5945 18.148 4.0407 32.935 13.851 45.742 27.032 4.4056 4.5344 9.2351 8.6577 13.634 13.198 20.975 21.649 31.899 47.662 35.236 77.573 1.9558 17.534 1.55 34.892 0.6277 52.351-0.0631 1.1964 0.1891 3.8945-1.4316 3.1831-2.3091-1.0135-0.4836 2.1117-2.1903 1.0106-0.6997-6.6045-1.4315-13.513-2.1633-20.421-0.1541-0.0046-0.3082-0.0092-0.4623-0.0137-0.4572 7.4219-0.7019 14.865-1.4397 22.259-0.5709 5.7223-0.4108 11.649-3.2723 16.953l0.0392 0.1024c-0.2141-1.5739-0.4281-3.1478-0.7407-5.4459-2.6478 5.7554-1.3489 11.893-5.4106 16.27l0.0281 0.0834c0.391-2.5777 0.782-5.1555 1.173-7.7332-0.335-0.0886-0.67-0.1771-1.0051-0.2657-1.1971 3.3417-2.6926 6.6096-3.5399 10.038-3.6959 14.955-9.4421 29.055-17.305 42.279-0.5397 0.9076-0.4341 3.8969-3.0853 2.0689 0.0024 0.0033 0.2063 0.0056 0.2063 0.0056l-0.1024 0.12c-3.145 4.4128-7.0736 8.1059-10.912 11.882l0.0432 0.1088c-0.3937-0.5717-0.7845-0.8641-1.1639 0.0114l0.0378-0.1082c-2.2787 1.0203-3.4781 3.607-6.7622 3.5436-1.3837-0.0266-3.9874 2.3206-4.1028 5.4514-0.3481 9.4475 0.98 18.585 3.991 27.517 0.8971 2.6614 2.4047 4.0442 5.4701 3.9501 5.8199-0.1788 11.264 1.4113 15.915 4.9647 2.5457 1.9452 3.4869 1.0949 4.6022-1.4333 3.5302-8.0021 3.3276-16.157 1.4834-24.454-0.7223-3.2487-1.3035-6.5294-2.0579-9.7701-0.9216-3.9587 0.5481-6.9665 4.3801-7.6135 12.666-2.1384 22.145-9.5696 31.1-17.958 2.2705-2.1266 4.4006-2.7004 7.0354-0.8241 0.9409 0.6702 2.1243 1.0026 3.0553 1.6832 3.8612 2.8222 6.0315 1.6619 8.5457-2.3047 29.425-46.421 59.253-92.588 88.437-139.16 5.3351-8.5137 10.398-17.273 15.554-25.939 1.1467-1.9273 2.1597-3.8474 0.9889-6.463-0.6493-1.4503-0.0436-3.6086 0.366-5.3615 1.868-7.9972 3.7239-15.935 7.1587-23.547 1.9785-4.3842 1.4226-9.7493 2.8527-14.604 2.4283-8.2436 6.6887-15.477 11.094-22.692-0.0016-3e-4 0.0612 0.2233 0.0612 0.2233l-0.1698-0.1276c5.2623-9.3842 11.412-18.128 19.315-27.193-0.431 7.4798-0.9244 13.641-4.4634 19.102-1.9148 2.9546-3.0558 5.7095-2.5798 9.6401 0.4475 3.6958-1.3033 7.6577-2.0881 11.498-0.0013-0.0041-0.1019-0.1264-0.1019-0.1264 1.8649-0.1196 1.7228 0.8057 1.1737 2.1012-0.9384 2.2139-2.5313 4.2159-2.3081 6.8277-0.8516 0.6801-0.8525 1.5128-0.4519 2.4132-0.5175 0.2465-1.0216 0.5013-1.5256 0.7562-0.2158 0.7414-0.4316 1.4828-0.6429 2.2154-0.0486-0.0616-0.1017-0.1143-0.1549-0.167-2e-4 0.09-5e-4 0.1801-7e-4 0.2701 0.2303-0.8085 0.4606-1.6169 0.6938-2.4244 0.5083-0.2378 1.0138-0.4766 1.5192-0.7153 0.1523-0.8151 0.3047-1.6302 0.457-2.4453 2.7357-0.7521 3.3525-3.4247 4.6219-5.3786 7.4957-11.538 15.036-23.056 22.125-34.843 2.505-4.1651 4.4718-2.3168 7.0706-0.7317 2.7362 1.6688 4.9796 3.0399 2.1812 6.7734-1.9019 2.5371-4.4471 4.9737-4.5082 8.572-0.5754 0.2611-1.1442 0.5266-1.7063 0.7834 0.036 0.0506 0.0653 0.11 0.0946 0.1693-0.0026-0.1036-0.0051-0.2071-0.0077-0.3107 0.5076-0.2415 1.015-0.4831 1.5226-0.7247 1.759-1.1953 3.5181-2.3907 5.7057-3.8773-0.4092 8.1484-3.038 15.118-8.002 21.791 3.8112 0.1865 6.3591-0.5724 8.7507-2.2955 2.2816-1.6437 4.8408-1.522 7.3854-0.4774-0.0356-0.0511-0.0784-0.0902-0.1212-0.1294-0.0037 0.0858-0.0073 0.1715-0.011 0.2573 2.7533-3.7337 5.6659-7.3631 8.2023-11.239 1.6184-2.4732 3.1831-2.6875 5.1205-0.7526 2.3599 2.3566 3.7715 1.1339 5.589-0.8643 5.2081-5.7259 9.601-12.249 16.593-17.501-1.2465 7.0504-2.3357 13.243-6.5905 18.343-2.1696 2.6005-3.3314 5.2825-3.4277 8.968-0.0985 3.7746-1.3004 7.7439-4.4429 11.954 6.576-3.3584 8.1864-9.3995 12.086-13.429-0.2279-0.1783 0.5676 0.7468-0.0972 0.0919 6.6483-9.1796 13.749-17.952 22.749-25.457-2.3077 5.0752-0.6294 8.4459 3.6522 10.946 2.1362 1.2476 1.8119 2.7299 0.3655 4.4365-2.1406 2.5255-4.2032 5.1268-6.1442 7.8081-1.0061 1.3898-2.8103 2.5239-2.1263 4.7025-0.5444 0.1246-1.0756 0.2605-1.5938 0.4073 0.0132 0.0109 0.0698 0.1897 0.0698 0.1897l-0.0939-0.3324 1.5537-0.315c0.7952-0.8706 1.1991-2.2278 2.7244-2.1904l-0.1086-0.0981c-2.4911 5.7931-7.4001 9.9884-10.265 15.528-0.9431 1.8238-2.9236 3.2266-2.4215 5.6672-0.7286-0.1776-1.1427 0.1378-1.3223 0.8246-0.3875 0.3063-0.7748 0.6126-1.1622 0.9189l-0.272 0.1992s0.1407-0.2971 0.1478-0.2939c0.3954-0.3111 0.7837-0.6254 1.1741-0.9387 0.4469-0.2659 0.8915-0.5328 1.3362-0.7997 9.8793-12.299 19.907-24.484 29.542-36.971 2.7004-3.5003 4.3944-2.608 6.9938-0.3491 2.4285 2.1105 5.1666 3.5188 1.6145 7.2222-2.8245 2.9447-5.614 6.1026-7.3624 9.9331-0.9764 0.3887-1.8108 0.862-1.2933 2.1806 0.7141-0.6139 1.7002-1.0502 1.1831-2.2734 1.4746 0.5305 1.7355-1.3036 3.7142-1.5829-5.8342 8.0817-11.184 15.826-15.267 24.419 5.0597-0.5458 6.2316-1.5795 15.621-13.66l-0.0322-0.1037c0.39 0.6421 0.7799 0.9571 1.1698-1e-4l-0.0432 0.1105c5.6151-9.796 14.14-16.837 22.685-24.02-1.9049 4.7209-1.2272 10.195-5.0841 14.136-6.2246 6.3603-6.0903 15.402-9.488 22.96-0.0022-0.0042-0.3547-2e-4 -0.3547-2e-4l0.2673-0.119c1.9766 1.1342 0.454 2.2225-0.0879 3.261-0.8043 1.5418-2.5868 2.7052-1.7819 4.8351-0.4191 0.3051-0.8347 0.6123-1.2502 0.9195-0.35 0.334-0.6998 0.668-1.0498 1.002 0 0-0.1198-0.102-0.1157-0.1009 0.3553-0.3348 0.7067-0.6707 1.0603-1.0056 0.4194-0.3035 0.8365-0.6078 1.2537-0.9122 10.49-11.584 21.201-22.979 31.348-34.857 3.4211-4.0046 4.8899-1.386 7.3344 0.4387 2.8743 2.1453 3.934 3.851 0.8335 6.9681-3.4866 3.5054-6.9955 7.1017-9.6052 11.397-0.4718 0.2263-0.9451 0.4506-1.4182 0.6749-0.1975 0.5326-0.3949 1.0652-0.5923 1.5978l-0.2543 0.0149s0.1913-0.1504 0.1823-0.1573c-0.2825-0.6953-0.3365-1.2976 0.5945-1.5095 0.7097 0.2123 1.3787 0.36 1.3918-0.7253 2.4978 0.5277 2.9313-2.7737 5.1448-2.7734l-0.1062-0.1029c-3.7703 7.0562-9.7032 12.445-14.444 18.753-1.4388 1.9144-3.6642 3.3275-4.1854 6.8522 3.2582-1.5727 6.3333-2.4934 8.7028-4.3262 4.0701-3.1481 9.1888-3.7016 13.444-6.2059 1.9725-1.161 2.9415 1.0485 4.5237 0.9447l-0.0886-0.0989c-1.4877 5.7125-4.946 9.9419-9.5195 13.59-8.3163 6.6335-14.925 15.054-22.571 22.35-13.044 12.449-27.016 23.866-45.56 27.348-1.8833 0.3536-3.3147 1.0311-4.7002 2.4344-15.077 15.27-28.991 31.588-43.128 47.704-37.908 43.216-75.775 86.469-113.71 129.66-1.7883 2.0364-3.6108 4.2224-1.0276 6.2709 5.7982 4.5981 4.0519 10.296 3.1019 16.007-0.1799 1.0824-0.968 2.1268 0.5375 4.7151 0.6034-5.5654 3.8228-7.5655 7.8131-8.4101 3.0841-0.6528 6.4039-2.3783 8.8901 1.5191 0.9835 1.5417 2.6757 0.1974 3.5188-0.3165 16.43-10.014 34.649-15.204 53.016-20.086 2.6725-0.7104 5.0038-2.6198 7.6003-3.7211 3.8788-1.6453 8.3187-3.4245 12.058-1.266 7.6057 4.3905 15.181 2.2375 22.735 0.9949 9.3561-1.5392 18.648-3.5302 27.892-5.6572 3.3485-0.7705 6.4553-2.5557 9.7144-3.7651 1.8608-0.6906 3.739-1.4701 5.8073-1.2859 2.7377 0.2437 5.7184 0.8145 6.7212 3.4916 0.9976 2.6637-1.8866 3.9366-3.6025 5.3322-7.3269 5.9597-14.913 11.63-21.327 19.586 2.2579 0.6128 3.92 1.4069 5.6035 1.4553 4.7233 0.136 8.4504 2.3068 11.044 5.8833 2.0204 2.7859 4.5078 3.6656 7.5603 3.9498 10.178 0.9474 17.564 6.4473 22.151 15.12 4.3828 8.2869 9.408 15.938 15.315 23.233 8.6249 10.65 6.0605 24.617-5.8069 31.63-9.1147 5.3864-17.91 10.82-24.163 19.664-1.7457 2.4691-4.7465 3.7247-7.6616 4.467-4.9519 1.261-9.9814 1.875-14.84 3.9076-3.9314 1.6447-8.4467-0.5784-12.681-1.109-2.0275-0.254-3.8101-0.6082-5.7719 0.1964-32.364 13.274-66.188 21.133-100.52 27.178-22.183 3.9067-39.951 15.148-53.398 33.175-6.1746 8.2774-12.192 16.672-18.239 25.044-1.2568 1.7405-2.4745 3.4639-1.6345 5.944 4.3442 12.828 2.9574 25.562-0.8357 38.231-4.4868 14.987-9.3239 29.888-11.654 45.425-1.2135 8.092-1.3978 16.259-1.3718 24.421 0.0293 9.177-0.1967 18.36-1.4117 27.438-0.8955 6.6907-3.8993 13.116-10.959 14.605-5.9872 1.2632-7.6538 5.5604-8.4908 9.6464-2.5673 12.532-5.4397 25.101-5.0984 38.045 0.069 2.6135-0.1079 5.2842 3.594 6.0906 2.3467 0.5114 2.964 3.0927 3.4529 5.1547 2.8542 12.039 7.2688 23.964 3.4523 36.614-0.616 2.0421 0.3738 3.5348 1.0535 5.1917 1.1373 2.7723 2.5435 5.4636 3.3828 8.3221 1.1578 3.9436 2.9167 6.6566 7.4835 7.2894 4.0734 0.5645 6.1992 3.8865 7.0426 7.6161 1.3981 6.1821 3.1582 12.23 5.3743 18.159 0.5244 1.4031 1.2743 3.1804 0.3169 4.3396-3.167 3.8341-0.9529 6.7394 0.8611 10.186 1.825 3.4681 4.0243 5.4476 7.8942 6.6737 10.576 3.3508 13.591 8.563 12.308 19.611-0.7577 6.5216 0.2977 13.413-4.4175 19.118-1.201 1.453 0.1398 3.5153 0.6022 5.2563 4.9403 18.599 14.212 35.538 20.656 53.517 12.948 36.128 31.786 69.64 45.533 105.4 17.073 44.41 26.802 90.567 34.13 137.37 6.9734 44.54 8.9358 89.477 11.104 134.41 1.4052 29.117 2.5645 58.262 9.5538 86.782 0.6481 2.6444 1.748 3.5238 4.1576 4.5864 5.837 2.5742 11.716 1.384 17.602 1.2749 2.8888-0.0535 5.6416 0.1659 8.1414 1.7935 1.7968 1.1698 3.554 3.0768 2.8412 4.8582-3.5985 8.9929-0.2698 17.51 1.2546 26.156 0.3724 2.1117-1.9432 5.0918 1.8958 6.2545 0.4164-2.4961 0.7255-4.9282 1.2418-7.3156 0.8768-4.0547 3.0764-4.9196 6.271-2.2394 1.8829 1.58 3.8523 3.4617 4.8402 5.636 5.3616 11.799 13.878 21.68 19.806 33.116 0.3833 0.7391 0.78 1.4712 1.1748 2.2042 2.6801 4.9773 4.2335 10.077 9.6677 13.927 5.7455 4.0709 8.7391 11.697 10.356 18.941 2.3928 10.724 4.1615 21.586 9.6697 31.344 0.8273 1.4657 1.1936 3.3022-0.0107 4.7296-1.1116 1.3177-2.0029-0.4106-3.646-0.7682 4.3938 14.909 4.2271 30.457 9.6703 44.949 2.3856 6.3508 2.4331 13.101 2.4114 20.018-0.0275 8.7048-0.1918 17.87 4.3827 25.996 0.2362 0.4194 0.4072 0.9724 0.3622 1.4392-0.9838 10.218 3.2312 19.873 3.2278 29.977-0.0017 5.0752 1.0964 9.8494 3.0638 14.546 1.8096 4.3206 4.5632 8.5737 2.0662 13.718-0.6206 1.2786 0.5194 2.7534 1.7158 3.8669 4.6637 4.3411 8.3558 9.115 6.2197 16.114-0.0897 0.2939-0.0139 0.6663 0.0671 0.9807 4.2155 16.344 4.8409 33.567 12.061 49.183 0.7837 1.6948 1.8313 3.1311 2.9507 4.5852 7.7651 10.085 9.9103 20.91 3.9086 32.614-1.3754 2.6824-0.8925 5.23-0.0306 7.7007 4.1909 12.014 8.6951 23.875 14.454 35.287 7.4672 14.799 14.439 29.856 21.304 44.948 3.563 7.8325 5.6812 16.272 9.7645 23.934 1.2197 2.2888 2.4818 4.176 4.751 5.4995 16.149 9.4187 27.616 23.811 39.768 37.488 3.9222 4.4146 5.3551 9.8726 7.0195 15.267 0.1897 0.6147 0.4092 1.5818 0.1002 1.9331-3.5775 4.0696 0.8588 9.4429-2.2413 13.606-0.2882 0.3872 0.3073 1.5093 0.6061 2.2437 2.4418 6.0061 2.0143 8.0466-3.1652 11.232-1.5854 0.9749-1.731 1.6348-1.6484 3.394 0.2852 6.0803-3.7555 9.7827-10.038 9.2402-1.7555-0.1516-2.1166 0.4604-2.9225 1.7026-4.6022 7.093-12.868 10.255-20.918 7.6672-7.4667-2.3994-13.99-6.3323-17.499-13.852-1.7046-3.6521-4.322-5.8186-8.2009-7.3689-12.968-5.1824-22.978-14.08-29.633-26.359-6.8497-12.638-14.579-24.635-23.6-35.828-1.8767-2.3284-3.6067-3.3469-6.7129-2.5383-10.92 2.8403-17.978-3.2642-24.406-11.393-1.5024 1.4875-1.5044 4.792-4.0337 4.2432-2.3789-0.5164-4.0776-2.8374-4.3856-5.0684-1.3009-9.4204-7.8336-14.947-14.055-21.179-9.3171-9.3325-9.9058-21.373-7.7861-33.661 0.5768-3.3435 0.7759-6.1743-1.1956-9.4263-2.4542-4.0481-3.8064-8.5293-2.5654-13.796 0.7831-3.3242-1.2598-7.2161-1.059-10.798 0.3168-5.6545-1.7727-10.069-5.1167-14.313-1.9816-2.5142-2.7627-5.7288-3.3613-8.8127-2.5577-13.175-8.2667-25.27-13.68-37.312-2.8439-6.3264-9.5948-10.455-15.454-14.556-3.1749-2.2224-6.5557-3.9915-7.0872-8.3738-0.0742-0.6111-0.4573-1.5432-0.9108-1.697-9.2676-3.1401-7.6121-11.66-9.0615-18.559-0.3074-1.4629-0.5319-2.9126-1.1628-4.2576-5.8057-12.375-10.472-25.213-15.304-37.976-1.3849-3.6582-2.9828-6.9958-6.0632-9.4375-5.0653-4.0154-7.5229-9.5889-9.4973-15.486-1.6129-4.8174-3.9747-8.8225-8.6309-11.696-3.8929-2.4023-8.4918-5.3838-5.5292-11.58 0.7146-1.4946-0.4896-2.8625-1.2224-4.1531-3.098-5.4568-5.0896-11.236-4.8535-17.588 0.1108-2.9783-0.9756-5.1587-3.5615-6.5876-3.7439-2.0691-6.7723-5.1296-10.77-6.9619-6.9391-3.1802-11.492-12.229-9.6493-20.705 3.0812-14.171-1.7919-26.08-8.6376-37.836-2.7283-4.6852-7.4133-9.0061-7.139-14.548 0.4429-8.9474-5.4729-15.295-7.5709-23.05-1.9741-7.2958-1.6147-15.124-4.908-22.267-0.634-1.3755 1.1996-3.9766 2.0706-5.9342 0.9326-2.0966 1.1051-3.1339-1.6744-4.2711-3.46-1.4154-7.4425-2.3308-9.0253-7.0367-1.325-3.9399-0.7446-6.7858 1.9054-9.4805 2.0504-2.0848 2.6973-4.2927 2.0472-7.2048-1.4502-6.496-1.7268-12.92 2.9294-18.476 0.9401-1.1217 0.6305-2.1268 0.0757-3.1971-6.8445-13.204-9.0519-27.774-12.45-42.003-12.864-53.865-33.497-104.28-63.252-151.3-27.175-42.95-49.707-88.535-68.134-136.01-6.519-16.795-10.853-34.261-15.077-51.747-1.2872-5.3293-2.5952-10.716-5.7897-15.334-2.619-3.7858-4.1372-3.8375-6.324 0.1063-2.5652 4.6263-6.279 7.3359-11.504 7.6317-8.1398 0.4609-16.303 0.751-24.152-4.2734-0.4813 8.318 0.9741 16.108 2.1555 23.836 4.2937 28.084 3.0604 56.11 0.2567 84.222-3.9589 39.696-11.739 78.675-20.902 117.43-3.4443 14.568-2.8127 29.465-3.1184 44.279-0.4091 19.827-0.8674 39.653-1.3154 59.479-0.3394 15.024 0.6927 29.973 2.3982 44.887 1.4933 13.059 0.5933 25.945-2.8377 38.642-0.4305 1.5935-0.9708 2.9854 0.2558 4.6631 5.4576 7.4642 4.5823 16.783 6.9435 25.166 0.9056 3.2151-1.4461 6.3384-4.0966 8.645-1.2453 1.0835-2.494 2.1796-3.6121 3.3893-2.191 2.3707-2.3593 4.2285 0.9857 6.0161 5.4568 2.9159 9.5024 6.8716 8.3401 13.966-0.4604 2.8099 0.916 4.567 3.9035 5.2897 5.1277 1.2402 7.3098 4.7476 6.9658 9.98-0.2075 3.1563-0.3701 6.3282-0.2971 9.4873 0.1168 5.0522-1.0739 8.9615-7.0185 9.465-1.6351 0.1384-2.1119 1.1063-2.1031 2.7319 0.0557 10.22-1.431 20.387 2.3412 30.532 2.2304 5.9983 1.7313 13.045 0.0506 19.249-2.3815 8.7905-0.6379 17.564-1.4058 26.3-0.0973 1.1072 0.5471 1.7813 1.2487 2.552 4.9365 5.4226 5.9761 17.658 2.1575 23.716-0.7755 1.2305-1.877 2.1643-3.11 2.3167-5.0858 0.6277-5.7891 4.4758-6.8812 8.4031-7.4417 26.759-10.971 54.141-13.202 81.733-0.259 3.2046 0.5161 5.8711 2.2316 9.0603 3.1625 5.8806 2.2009 12.935 0.5769 19.505-0.1712 0.6926-0.989 1.6279-1.6299 1.739-5.7307 0.9902-6.1396 5.8398-7.309 10.024-1.572 5.6245-3.377 11.168-5.7726 16.479-4.1539 9.21-4.4935 18.606-4.0617 28.678 0.3912 9.125 2.1891 18.672-2.1255 27.974-1.4367 3.0977 0.3837 8.7625 2.866 12.367 1.6979 2.4656 2.2746 4.7229 1.8968 7.4077-0.8578 6.0969-2.3378 12.158-2.5784 18.273-0.1686 4.2827 0.7954 8.5911-2.1365 12.276-1.713 2.1531-2.3702 4.6863-3.3189 7.1729-3.6656 9.6074-4.0352 19.588-2.7979 29.526 0.8268 6.6399-1.8757 11.659-5.6343 16.158-5.2719 6.3105-8.4095 14.32-15.972 18.922-2.8489 1.7334-2.1039 6.2297-1.9018 9.427 0.8381 13.262-4 23.73-14.625 31.584-1.1432 0.845-1.7593 1.7876-2.0315 3.2192-1.5288 8.0432-7.1791 12.377-14.476 14.176-7.5151 1.8528-14.197-0.3525-18.97-7.0488-2.9539 3.8718-6.5953 8.7993-11.331 6.0532-5.7573-3.3391-11.992-4.8701-17.884-7.4927-4.605-2.0493-8.3983-5.5593-13.204-7.2639-2.5494-0.9041-3.9405-2.6199-4.2763-5.5271-0.5472-4.7385-0.2018-9.2422 1.4784-13.735 5.0008-13.372 11.112-25.872 22.688-35.113 10.98-8.7649 16.748-20.532 17.161-34.626 0.1448-4.9465-0.6464-9.9167-0.9219-14.881-0.0793-1.4307-0.9161-2.0195-2.0331-2.4893-4.212-1.7708-3.9566-4.6294-2.1725-8.1067 2.4947-4.8628 5.1578-9.7869 1.8095-15.376-0.0786-0.1313-0.1215-0.3579-0.0634-0.4866 3.1225-6.9219 0.8339-14.813 3.8986-21.743 0.396-0.8953 1.2743-1.8989 1.1063-2.6741-2.4937-11.5 4.3614-23.72-2.8922-34.893-4.0914-6.302-4.6844-13.732-5.757-20.966-1.6846-11.36-3.4587-22.706-5.2206-34.055-0.1216-0.7834-0.3271-2.1267-0.7119-2.2107-5.6518-1.2349-4.0641-5.7693-4.1218-9.2817-0.1091-6.6384 0.316-13.166 2.4329-19.668 1.6052-4.9297 0.0637-10.275-1.0454-15.298-2.4039-10.888-5.4843-21.639-7.5572-32.584-2.4116-12.735-3.9975-25.624-6.0494-38.43-0.4041-2.522 0.2961-5.8176-3.9166-6.293-1.3149-0.1482-1.4368-2.0979-1.6447-3.4036-1.5664-9.8438-3.594-19.653-1.0257-29.676 0.4304-1.6797-0.1252-3.6372-0.3387-5.4531-2.9523-25.104-2.3187-50.22-0.308-75.343 0.1437-1.7952 0.584-3.5836-1.209-5.0319-0.6744-0.5447-1.1949-1.7861-1.1301-2.6615 0.599-8.0887-0.2225-16.41 3.2775-24.069 2.2258-4.8704 0.9136-10.258 2.5233-15.154 1.1269-3.4269-0.0754-8.573 5.9958-8.7346 1.2368-0.033 0.694-1.2705 0.6672-1.975-0.291-7.6599 4.2658-14.182 4.9746-21.736 0.3938-4.1971 5.3154-5.9897 9.3426-6.1755 6.7001-0.3088 9.5591-6.2397 14.521-9.0243 1.4279-0.8015 0.5988-3.1442 0.4464-4.7501-2.2972-24.207-4.773-48.395-7.4281-72.568-2.8945-26.353-11.534-51.271-18.034-76.722-13.993-54.789-25.006-110.15-29.115-166.59-2.6191-35.973-0.8798-71.948 5.9018-107.52 3.4402-18.047 3.6212-36.454 6.0481-54.611 2.938-21.982 8.7391-43.398 12.947-65.129 1.2339-6.3728 2.3747-12.764 3.478-19.161 0.2213-1.283 0.6324-3.0249 0.0176-3.8833-5.4919-7.6696-2.3644-16.532-3.4734-24.77-0.6738-5.0052 2.2438-9.2017 7.3605-10.596 5.5015-1.499 8.6113-4.9828 10.674-9.9974 1.0066-2.4473 2.4756-4.7178 3.8597-6.9926 1.2989-2.1349 2.2035-3.8409-0.7804-5.603-1.9354-1.1431-1.6191-3.4666-0.8707-5.4674 2.331-6.2322 4.5898-12.493 7.037-18.679 0.9943-2.5134 2.5201-4.7648 5.5124-5.2957 1.4813-0.2626 2.2669-1.0841 2.7908-2.4812 1.8109-4.8295 3.7237-9.6207 5.615-14.42 0.5129-1.3015 0.9632-2.9226-0.188-3.7356-2.9081-2.0536-2.6714-5.183-2.2226-7.6998 1.5831-8.8766 1.7279-18.225 7.0731-26.054 0.8699-1.2742 0.822-2.4498 0.8668-3.7344 0.2768-7.9243-1.1088-15.346-4.4411-22.752-6.4787-14.398-14.052-28.803-15.243-44.692-0.9842-13.137-5.3077-25.329-7.3121-38.082-0.9364-5.9581-5.5843-8.3235-9.2885-11.734-1.3315-1.2256-1.9888-0.1345-2.6964 0.8497-0.9574 1.3315-1.9734 2.621-2.9644 3.9283-0.1466-0.125-0.2932-0.25-0.4397-0.3751 0.2675-0.6024 0.3974-1.3345 0.8239-1.7867 3.2759-3.4735 2.1307-6.4838-0.2013-10.096-2.2078-3.4198-4.0164-5.7468-8.7366-5.1827-3.8408 0.4589-6.8698-2.0632-8.6456-5.6835-1.9636-4.0031-2.6257-8.2759-2.241-12.638 0.9934-11.268 4.5099-21.716 10.027-31.622 3.2032-5.751 3.7292-12.188 2.2768-18.65-0.7795-3.4682-0.2504-6.5386 1.7503-9.4834 2.522-3.7121 6.1419-6.1464 9.9041-8.2217 2.9092-1.6047 2.9873-3.074 1.6189-5.8107-4.2548-8.5093-8.874-16.773-14.596-24.396-10.207-13.599-23.819-21.431-40.506-24.258-13.029-2.2075-26.168-2.8937-39.331-2.8541-39.52 0.1191-78.946-1.3168-118.24-5.8615-18.224-2.1079-36.394-3.5217-54.512 1.8865-12.777 3.8137-25.93 6.4507-39.366 2.8708-2.3278-0.6202-2.363 0.4729-2.9097 2.3768-1.874 6.5272-7.0513 9.3459-10.924 5.5657-4.3488-4.2446-9.5952-4.087-14.304-4.0165-13.435 0.2009-26.87 1.8849-40.306 0.4784-9.2407-0.9673-18.759 0.3878-27.707-2.6195-4.6053-1.5479-8.307-1.1718-12.096 1.6804-3.7508 2.8235-7.5668 3.4293-12.009 0.7867-1.8172-1.081-3.1381-3.5634-5.9883-2.9703-5.4295 1.1298-10.966 0.4765-16.453 0.6624-5.7289 0.1942-11.442-0.3749-16.102-4.0896-3.1234-2.4903-6.0695-2.3491-9.696-1.4427-16.171 4.0417-32.494 7.3031-49.23 7.8209-1.601 0.0496-4.2278 1.1417-4.3542-1.7155-0.1225-2.7687-2.0718-2.6292-3.6645-3.1565-4.2626-1.4115-8.494-3.0014-12.857-4.0025-4.2377-0.9724-5.4415-3.2978-5.3402-7.4302 0.1624-6.624-2.5708-8.6339-9.327-7.0052-6.1392 1.4799-12.179 3.374-18.26 5.0933-13.676 3.8666-27.351 7.7379-41.217 11.661 1.413 2.4163 3.6974 3.2063 5.7121 4.149 4.6582 2.1796 9.4871 3.9924 14.166 6.1306 2.2216 1.0151 3.1414 2.5224 0.547 4.3728-9.4659 6.751-13.377 16.622-15.613 27.525-3.0455 14.851-6.2291 29.634-14.463 42.798-5.8654 9.3771-5.0516 18.898 0.4017 28.358 8.9924 15.599 21.266 28.532 33.289 41.693 1.5448 1.6912 3.0539 1.4482 4.9304 0.8401 6.9636-2.2568 13.94-4.4817 20.958-6.5624 8.8434-2.6222 10.307-1.488 11.314 7.8988 0.716 6.6736-0.1049 13.318-0.0555 19.968 0.0468 6.2985-2.4355 12.142-2.032 18.615 0.4932 7.9111-1.3838 15.947-1.2207 23.908 0.1589 7.7543-0.5657 15.434 0.8167 23.338 4.5978 26.29 12.451 51.463 24.147 75.351 20.156 41.166 46.071 78.728 73.812 115.04 26.797 35.072 58.248 65.886 90.141 96.201 32.163 30.572 63.671 61.687 89.658 97.891 7.1621 9.9779 14.353 19.935 21.531 29.902l-0.1089-0.0857zm818.43-1033.8c-0.1476 0.0111-0.2952 0.0222-0.4427 0.0333 0.1694-0.0673 0.339-0.1345 0.4987-0.1841-0.0526-0.0528-0.1053-0.1055-0.158-0.1583 0.034 0.103 0.068 0.2061 0.102 0.3091zm-522.42 3.0251l-0.251 0.146s0.1381-0.2588 0.1445-0.2596c0.5485-0.2642 1.0969-0.5285 1.6453-0.7927-0.0206-0.8574-0.0413-1.7148-0.0425-2.5695 0.478-0.342 0.956-0.6841 1.434-1.0262 0.5077-0.2253 1.0154-0.4506 1.5108-0.6567-0.0355-0.0529-0.0709-0.1058-0.1064-0.1588 0.0103 0.0986 0.0206 0.1971 0.0308 0.2957-0.4469 0.2225-0.8938 0.4449-1.3333 0.6805-0.4959 0.2841-0.9918 0.5682-1.4878 0.8523 0.0222 0.858 0.0444 1.7161 0.0388 2.5671-0.5277 0.3073-1.0555 0.6146-1.5832 0.9219zm221.85 19.016c0.4821 0.5278 1.0566 0.6713 1.7273 0.4159 0.2729 0.5765 0.5458 1.153 0.8224 1.7491 0.0323 0.8567 0.1865 1.6597 0.9469 2.2181-0.0789 0.8813 0.1333 1.6075 1.0267 1.9909-0.1343 0.9064 0.093 1.6207 1.0189 1.9844 0.2362 0.9058 0.4723 1.8117 0.6954 2.6913 0.0323 0.0356 0.0648 0.0712 0.0972 0.1068-0.0386-0.0693-0.0771-0.1386-0.1156-0.2079-0.2308-0.8486-0.4615-1.6971-0.6924-2.5456-0.3407-0.6592-0.6813-1.3184-1.022-1.9775-0.3503-0.65-0.7006-1.3001-1.0509-1.9501-0.2946-0.7704-0.5891-1.5409-0.8837-2.3114-0.3127-0.5584-0.6256-1.1169-0.9731-1.6468-0.5873-0.1232-1.1744-0.2464-1.7617-0.3696-0.035-0.9653-0.0701-1.9307-0.1051-2.8961-0.8503-0.7016-1.7007-1.4033-2.5492-2.1129l-0.0884-0.3392 0.0295 0.2367c0.6285 1.031 1.0018 2.3702 2.608 2.2208-0.4949 0.9732-0.3468 1.8883 0.2698 2.7431zm-225.61-13.015c-0.3496 0.7026-0.6992 1.4052-1.0355 2.0873-0.045-0.0494-0.09-0.0988-0.1349-0.1483-0.0089 0.0888-0.0178 0.1777-0.0267 0.2665 0.4354-0.7769 0.8708-1.5536 1.2905-2.314-0.0312 0.0361-0.0623 0.0723-0.0934 0.1085zm508.93 1414.3c0.0608-0.0626 0.1217-0.1252 0.1826-0.1877-0.1082 0.0446-0.2164 0.0891-0.3247 0.1335-0.1484-0.1698-0.2968-0.3396-0.4452-0.5093 0.1355-0.0594 0.271-0.1188 0.4066-0.1782 0.0668 0.251 0.1337 0.502 0.1807 0.7417zm-526.24-1377.7c0.3419-0.3704 1.254-0.5698 0.3906-1.3018-0.0945 0.4694-0.189 0.9388-0.2759 1.4171-1.0609 0.922-1.2538 2.0436-0.7643 3.3223-2.0287 0.9088-1.7474 2.9891-2.202 4.6107-1.8146 6.4726-3.4784 12.987-5.1827 19.469l0.1469-0.2649-0.1313 0.1626c0.8694 1.3246 0.5535 3.2576 2.7579 4.645 0.8822-9.9024 2.9019-19.268 4.5007-28.714 1.0086-0.9438 0.7243-2.1812 0.7601-3.3459zm406.32 198.37c3.3049-0.8215 7.041-0.3915 9.6298-3.306 0.3173 0.0205 0.6346 0.0411 0.9519 0.0616-0.0436-0.1789-0.0872-0.3578-0.1309-0.5367-0.2454 0.1918-0.4906 0.3835-0.7358 0.5753-3.4358 0.429-6.7659 1.1653-9.6271 3.2925-1.2517-0.2599-2.4473-0.1193-3.5752 0.5022-3.0649 0.9983-6.2256 1.775-10.166 4.4565 4.6776-0.9644 8.0657-1.2062 10.108-4.5065 1.2755 0.4368 2.4716 0.3514 3.5453-0.5389zm52.289-198.62c-3.2698-1.215-6.4725-0.8134-8.4445 2.0129-4.2904 6.1492-10.054 10.949-14.666 16.785-27.889 35.291-55.667 70.671-83.865 105.71-4.571 5.6806-6.5331 11.283-5.7703 18.226 1.2611-0.1296 1.6017-1.2038 2.1965-1.9544 27.937-35.251 55.87-70.504 83.784-105.77 9.1458-11.556 18.506-22.95 26.836-35.114l-0.2135-0.1189 0.1438 0.2236zm-25.041 6.0211c-0.592-0.4028-1.1868-0.4824-1.8468-0.1194-5.4049 2.9731-10.87 5.8127-16.943 7.2114-1.0598 0.2441-1.7855 0.8849-2.3032 1.7681-3.6246 6.1832-9.0085 10.994-13.132 16.768-22.833 31.977-45.575 64.02-68.348 96.04-3.5795 5.0329-7.1603 10.065-11.368 15.98 5.8264-1.9614 9.6705-4.371 12.81-8.3621 32.847-41.751 65.82-83.402 98.758-125.08 1.0284-1.3013 2.2015-2.5206 2.4064-4.2909l-0.152-0.1783 0.1174 0.2644zm-20.948-9.8825c-0.3728-1.0851-1.1118-2.1906-1.0529-3.2516 0.2137-3.8448-0.9783-4.3419-4.2072-2.4165-3.4175 2.0377-6.949 3.9265-10.785 5.1764-1.6642 0.5422-3.5386 0.6304-4.6882 2.4885-3.3015 5.3364-7.4238 10.172-10.798 15.384-28.942 44.707-57.497 89.665-86.164 134.55-0.9026 1.4133-1.7661 2.8516-3.2089 5.186 6.248-1.6731 11.586-1.4081 15.221-6.5667 23.201-32.934 46.403-65.869 70.024-98.501 12.352-17.064 22.96-35.298 35.696-52.081-0.0911-0.2819-0.182-0.5638-0.2732-0.8456 0.0788 0.2931 0.1573 0.5861 0.2359 0.879zm100.47-18.646c-2.6045 0.8242-4.6345 2.586-6.6237 4.3091-9.792 8.4825-20.191 15.83-33.264 18.325-1.2446 0.2376-2.134 0.8458-2.8486 1.8188-3.5236 4.7975-7.9966 8.8229-11.666 13.412-37.424 46.812-74.569 93.848-111.79 140.82-1.1345 1.4319-2.3818 2.802-2.2345 4.8486 0.4597 6.3858 0.6075 12.808 2.1897 19.996 1.6986-1.8986 2.8976-3.1957 4.0497-4.5331 47.662-55.324 97.244-108.98 143.6-165.44 5.5767-6.793 12.395-12.579 16.62-20.472l0.1334 0.1085c-1.3822-2.1223-0.3008-4.1885 0.226-6.2208 0.61-2.3531 2.3689-4.4459 1.5356-7.099l0.0764 0.1276zm-231.05 538.26c3.3405-0.4069 5.375-1.9315 7.6531-2.8673 4.7786-1.9628 6.1157-5.1909 5.4865-10.182-0.662-5.2512-0.9108-10.578-0.514-15.925 0.6442-8.6848 0.9949-17.391 1.4695-26.089-6.8555 17.696-11.766 35.798-14.095 55.063zm-273.94-521.69c-6.6136 13.04-11.283 43.39-7.3632 48.981 0.7629-16.587 4.2085-32.188 7.3632-48.981zm547.75 1808.9c-3.0736-2.2361-6.4125-3.7698-10.844-4.3145 2.4658 5.7496 6.9188 4.334 10.844 4.3145zm-1062.3-1562.9c3.747 2.1487 6.5049 0.5372 10.559-0.3176-4.1722-1.8328-6.9674-1.0689-10.559 0.3176zm14.791-1.461c2.7207 1.2882 5.4662 0.6318 8.2112 0.0148-2.722-1.1855-5.4597-1.1367-8.2112-0.0148zm-26.715-0.42c-2.2256 0.3832-4.9512-0.7211-6.6617 2.2975 2.9102 0.3755 4.7493-1.2098 6.6617-2.2975zm2.6166 4.3292c2.8058-0.5166 4.6431 0.2083 5.932-2.0618-2.0156-0.2109-3.5834-0.3029-5.932 2.0618zm652.52-339.62c2.1686 0.8685 3.7639-0.1715 5.7036-1.1288-2.2733-0.6528-4.0685-0.5775-5.7036 1.1288zm304.41 284.04c1.442 0.8389 2.7368 0.924 4.2063 0.1466-1.4083-0.9595-2.7125-0.7777-4.2063-0.1466zm-358.2 1571c0.3756-0.5952 0.7722-0.9482 0.7634-1.2903-0.0083-0.3176-0.4495-0.624-0.7001-0.9353-0.2332 0.3113-0.6234 0.6074-0.6552 0.938-0.0315 0.3282 0.2979 0.6909 0.5919 1.2876zm-6.4977 35.326c-0.025 0.5415-0.1314 0.9751-0.0408 1.3621 0.1096 0.4685 0.4268 0.4695 0.6152 0.0183 0.1116-0.2673 0.1956-0.5974 0.1376-0.866-0.0361-0.1675-0.3599-0.2732-0.712-0.5144zm-712.73-1552.8l-0.2224 0.2897 0.2916 0.0986-0.0692-0.3883z"/>
	<path d="m717.99 1296c-4.4303 11.444-10.663 22.014-16.115 32.959-2.8505 5.7224-4.9178 11.881-8.9151 17.008l0.0912 0.0791c0.1127-0.7922 0.0282-1.6827 0.367-2.3622 7.7272-15.492 15.495-30.964 23.29-46.423 0.2545-0.5046 0.873-0.8257 1.322-1.2323l-0.0403-0.0291z"/>
	<path d="m613.95 183.07c2.9391 7.6653 5.8682 15.334 8.8224 22.994 1.1281 2.9247 2.3137 5.8272 3.473 8.7398-0.1477 0.1139-0.2954 0.228-0.443 0.3421-5.5263-10.137-9.5682-20.816-11.753-32.174l-0.099 0.098z"/>
	<path d="m615.96 1495c-3.472 8.2505-7.6135 16.166-12.006 23.955l0.1099 0.1123c2.8148-8.5927 6.9249-16.538 11.995-24.004l-0.0989-0.0633z"/>
	<path d="m686.97 1358c-2.5432 7.8921-6.2479 15.202-11.02 21.976l0.1006 0.0867c2.8904-7.7224 6.5669-15.052 11.004-22.001l-0.0845-0.0624z"/>
	<path d="m729.98 1273c-2.2461 6.0647-4.9454 11.889-9.0148 16.986 0 0 0.0704 0.0565 0.0702 0.0564 2.1802-6.1019 4.8664-11.935 9.0232-16.987l-0.0786-0.055z"/>
	<path d="m823.23 1101.2c-2.5132 5.6012-5.5096 10.928-9.0572 15.941-0.133-0.1108-0.2661-0.2217-0.399-0.3324 2.4646-5.6375 5.5765-10.915 8.9227-16.063 0.178 0.1512 0.3558 0.3024 0.5335 0.454z"/>
	<path d="m740.99 1252c-1.8662 5.4266-4.449 10.471-8.0067 14.994 0 0 0.0552 0.0435 0.0549 0.0433 1.8145-5.4563 4.1506-10.633 8.0253-14.986l-0.0735-0.0516z"/>
	<path d="m802.23 1139.2c-2.2112 5.2349-4.6675 10.337-8.0611 14.934 0 0-0.259-0.2014-0.2589-0.2013 1.91-5.4053 4.6738-10.358 7.9711-15.027l0.3489 0.2942z"/>
	<path d="m809.13 1126.1c-1.6666 4.6976-4.0491 9.0172-6.91 13.084 2e-4 2e-4 -0.3486-0.2939-0.3485-0.2938 1.5661-4.7479 4.1086-8.9808 6.8998-13.083l0.3587 0.2922z"/>
	<path d="m631.96 1464c-1.8228 4.6021-3.5546 9.2534-7.0219 12.965l0.0993 0.0886c1.7852-4.6288 3.5706-9.2576 7.0103-12.994l-0.0877-0.0596z"/>
	<path d="m834.24 1083.2c-1.9058 3.9336-4.1895 7.6244-7.0359 10.954 0 0-0.3814-0.319-0.3813-0.319 1.7434-4.04 4.1957-7.6355 6.9313-11.053 0.1624 0.1389 0.3244 0.2784 0.4859 0.4186z"/>
	<path d="m771.11 1196.1c-1.3113 4.0427-3.3492 7.6874-6.0174 10.987 0 0-0.2267-0.1774-0.2263-0.1771 1.262-4.0691 3.4679-7.6353 5.9039-11.079l0.3398 0.2691z"/>
	<path d="m640.96 1447c-1.2502 4.0693-2.9937 7.8674-6.024 10.958l0.1086 0.1002c1.2568-4.072 3.1132-7.8169 6.0024-10.998l-0.087-0.0604z"/>
	<path d="m648.96 1432c-1.1993 4.1006-3.0492 7.8442-6.021 10.972l0.103 0.0876c1.2681-4.0669 3.0536-7.8512 6.006-10.998l-0.088-0.0614z"/>
	<path d="m656.96 1417c-1.2679 4.0621-2.9955 7.8719-6.02 10.97l0.1018 0.0878c1.3263-4.035 2.9068-7.9313 6.0056-10.998l-0.0874-0.0593z"/>
	<path d="m666.97 1398c-1.3462 4.0179-2.9465 7.8964-6.0226 10.964l0.103 0.0867c1.3073-4.0441 2.9221-7.92 6.0071-10.993l-0.0875-0.0582z"/>
	<path d="m750.01 1235c-1.1063 4.1486-3.2919 7.7371-5.7923 11.162 0 0-0.2562-0.198-0.2561-0.198 1.4046-3.9899 3.0662-7.8405 5.9708-11.018l0.0776 0.0533z"/>
	<path d="m757.99 1220c-1.1731 4.1149-3.2371 7.7665-5.8011 11.158 0 0-0.2673-0.2106-0.2672-0.2104 1.4149-3.9868 3.0497-7.8505 6.1123-10.915l-0.044-0.0331z"/>
	<path d="m610.95 171.1c1.5949 3.8413 2.7425 7.7948 3.0046 11.971 1e-4 1e-4 0.0992-0.0979 0.0992-0.0979-2.2419-3.6922-2.6929-7.83-2.9878-12.007l-0.116 0.1339z"/>
	<path d="m814.17 1117.1c-1.1016 3.3134-2.8763 6.2483-5.0396 8.9647 1e-4 1e-4 -0.3586-0.2921-0.3584-0.292 1.1345-3.2969 2.7946-6.3021 4.999-9.0052 0.1329 0.1108 0.266 0.2217 0.399 0.3325z"/>
	<path d="m777.17 1185.1c-1.2201 3.245-2.6248 6.3857-5.0479 8.9524 0 0-0.1576-0.1263-0.1573-0.1262 0.8379-3.4552 2.7151-6.3613 4.8296-9.1422l0.3756 0.316z"/>
	<path d="m782.08 1176.1c-0.9767 3.3845-2.7679 6.3289-4.9097 9.0839 1e-4 0-0.3756-0.316-0.3755-0.3159 1.1245-3.2972 2.7596-6.3125 4.9726-9.0088l0.3126 0.2408z"/>
	<path d="m788.19 1165.2c-1.1664 3.2755-2.605 6.3917-5.175 8.8461 0 0-0.0315-0.0251-0.0314-0.025 0.73-3.5131 2.7242-6.3545 4.8494-9.1263l0.357 0.3052z"/>
	<path d="m793.14 1156.1c-1.1044 3.3148-2.7665 6.324-4.9551 9.0447 1e-4 1e-4 -0.3569-0.3052-0.3569-0.3052 1.1187-3.3031 2.7089-6.3494 4.9293-9.0525l0.3827 0.313z"/>
	<path d="m764.1 1209.1c-0.8034 2.6346-1.8027 5.1592-3.9532 7.0371 0 0-0.1696-0.1359-0.1694-0.1359 0.6362-2.7195 1.9998-5.0612 3.7436-7.2053l0.379 0.3041z"/>
	<path d="m827.21 1094.2c-0.8877 2.5909-2.1351 4.9786-3.9736 7.0323-0.1777-0.1516-0.3555-0.3029-0.5334-0.454 1.0248-2.5088 2.048-5.0184 4.1257-6.8973l0.3813 0.319z"/>
	<path d="m585.92 1560c0.06 1.9329-0.4485 3.635-1.9945 4.9163 0 0 0.1229 0.1416 0.1229 0.1417 0.2543-1.8298 0.5991-3.6233 2.0055-4.9901l-0.1339-0.0679z"/>
	<path d="m592.94 1543c0.0193 1.9286-0.6216 3.5935-1.985 4.97l0.1128 0.1184c-0.085-1.9678 0.5541-3.6478 1.9908-5.011l-0.1186-0.0774z"/>
	<path d="m587.94 1555c-0.1173 1.8887-0.5856 3.6359-2.0135 4.9965-1e-4 1e-4 0.1338 0.068 0.1338 0.068 0.1066-1.8905 0.6566-3.6036 2-4.9993l-0.1203-0.0652z"/>
	<path d="m595.93 1535.9c-0.0428 1.9075-0.5575 3.6287-1.9724 4.9944l0.1089 0.113c-0.1682-2.0022 0.6733-3.6044 1.9885-5.0189l-0.125-0.0885z"/>
	<path d="m599.93 1526.9c0.1454 1.9833-0.777 3.5421-1.9832 4.988l0.116 0.1219c-0.0034-1.938 0.562-3.6511 1.9861-5.0248l-0.1189-0.0851z"/>
	<path d="m589.92 1549.9c0.0238 1.9457-0.6899 3.6006-1.9819 5.0277 0 1e-4 0.1202 0.0653 0.1202 0.0653 0.0836-1.9004 0.6708-3.5997 1.9981-5.0034l-0.1364-0.0896z"/>
	<path d="m670.97 1390c0.0847 1.7068-0.4744 3.0874-2.0125 3.9719l0.0996 0.0918c-0.161-1.7473 0.3445-3.1615 1.9999-4.0011l-0.087-0.0626z"/>
	<path d="m1252 528.71c-0.0905-0.3055-0.208-0.5579-0.2236-0.8166-0.0077-0.1277 0.1725-0.2667 0.2677-0.4006 0.1846 0.145 0.547 0.371 0.5239 0.4216-0.1244 0.2729-0.344 0.5025-0.568 0.7956z"/>
	<path d="m668.95 1393.9c0.0772 1.7097-0.5073 3.094-1.9862 4.0386-1e-4 0 0.0873 0.0582 0.0873 0.0582-0.2234-1.7789 0.3995-3.1355 1.9985-4.005l-0.0996-0.0918z"/>
	<path d="m609.91 167.04c1.2474 1.1247 0.91 2.6542 1.0383 4.0648 1e-4 1e-4 0.1161-0.1337 0.1161-0.1338-1.4801-1.0363-0.6995-2.6489-1.0152-3.982l-0.1392 0.051z"/>
	<path d="m836.15 1080.1c-0.1657 1.321-0.8138 2.3433-1.9116 3.0872-0.1613-0.1399-0.3233-0.2794-0.4858-0.4183 0.209-1.2999 0.8915-2.2953 1.9576-3.0439 0.1467 0.125 0.2933 0.25 0.4398 0.375z"/>
	<path d="m1109.7 680.53v2.5536c-0.943-0.9911 0.1915-1.666 0.0498-2.4368-0.0106-0.0144-0.0498-0.1168-0.0498-0.1168z"/>
	<path d="m1447 530c0.0828-0.9523 0.8413-1.1727 1.5638-1.4199 0.0073-0.0025 0.1874 0.2924 0.1464 0.3888-0.3364 0.7938-0.89 1.2157-1.7977 0.9335-0.0011-0.0014 0.0875 0.0976 0.0875 0.0976z"/>
	<path d="m1103.6 691.45c0.063 0.4758 0.126 0.9517 0.189 1.4274-0.0367-0.275-0.0782-0.5495-0.1086-0.8252-0.0176-0.1597-0.0173-0.3213-0.0386-0.5004-0.0136-0.0183-0.0417-0.1018-0.0418-0.1018z"/>
	<path d="m583.93 1564.9c-0.0947 1.0836 0.0917 2.26-0.9955 3.0159l0.1241 0.14c0.1809-1.0544 0.0192-2.2218 0.9943-3.0143l-0.1229-0.1416z"/>
	<path d="m582.93 1567.9c-0.1199 1.0748 0.1644 2.2823-0.9902 3.0177 0 0 0.1188 0.1255 0.1189 0.1255 0.1193-1.0715-0.2764-2.3137 0.9954-3.0032l-0.1241-0.14z"/>
	<path d="m601.94 1523c0.0164 0.8309 0.1215 1.7069-0.9969 1.9609l0.1165 0.1134c0.0089-0.8282-0.0902-1.7106 0.9998-1.9978l-0.1194-0.0765z"/>
	<path d="m600.94 1524.9c-0.0345 0.8239 0.2619 1.8135-1.0107 2.0166 1e-4 1e-4 0.119 0.0853 0.119 0.0853-0.0103-0.8385-0.0087-1.6709 1.0082-1.9885l-0.1165-0.1134z"/>
	<path d="m597.95 1531.9c-0.0421 0.8126 0.0848 1.7092-0.996 2.0062l0.1058 0.1007c-0.0369-0.8503-0.2005-1.765 1.0062-1.985l-0.116-0.1219z"/>
	<path d="m596.95 1533.9c-0.0325 0.8251 0.2481 1.8101-1.0224 2.0033 1e-4 0 0.1251 0.0885 0.1251 0.0885-0.0189-0.8417-0.0674-1.6982 1.0031-1.9911l-0.1058-0.1007z"/>
	<path d="m593.96 1540.9c-0.0786 0.8059 0.0865 1.7347-1.0202 2.0221 0 1e-4 0.1187 0.0775 0.1187 0.0775 0.0413-0.8125-0.1747-1.7559 1.0105-1.9866l-0.109-0.113z"/>
	<path d="m590.95 1547.9c-0.0934 0.8002 0.122 1.7582-1.0313 2.0162 0 1e-4 0.1364 0.0897 0.1364 0.0897 0.0862-0.7891-0.0903-1.7114 1.0076-1.9875l-0.1127-0.1184z"/>
	<path d="m581.94 1570.9c-0.0933 0.8076 0.1284 1.7712-1.0188 2.0576-3e-4 5e-4 0.1081 0.0865 0.1081 0.0865 0.1574-0.7676 0.0149-1.6882 1.0295-2.0187l-0.1188-0.1254z"/>
	<path d="m660.94 1408.9c0.1866 0.9237 0.2081 1.7654-0.9945 1.9974l0.0989 0.0874c-0.1122-0.8884-0.0952-1.7124 0.9986-1.9982l-0.103-0.0866z"/>
	<path d="m794.16 1154.1c-0.0372 0.8185-0.128 1.6095-1.0198 1.9899 2e-4 2e-4 -0.3826-0.3127-0.3825-0.3127 0.146-0.7692 0.2242-1.5797 1.1432-1.8785l0.2591 0.2013z"/>
	<path d="m783.01 1174c0.1663 0.902 0.079 1.6881-0.936 2.0505 7e-4 6e-4 -0.3119-0.2402-0.3115-0.24 0.1367-0.7898 0.1573-1.6565 1.2161-1.8357l0.0314 0.0252z"/>
	<path d="m772.12 1194.1c4e-4 0.8352-0.1067 1.6156-1.0145 1.9871 0 0-0.3398-0.269-0.3395-0.2688 0.1509-0.7755 0.2054-1.6136 1.1964-1.8446l0.1576 0.1263z"/>
	<path d="m765.09 1207.1c0.0425 0.8528-0.065 1.6317-0.9884 2.009 6e-4 5e-4 -0.3784-0.3036-0.3782-0.3035 0.1781-0.7498 0.2186-1.5829 1.14-1.8829l0.2266 0.1774z"/>
	<path d="m760.15 1216.1c-0.0694 0.8221-0.0134 1.7242-1.1794 1.8457 0 0 0.0861 0.0688 0.0859 0.0687-0.2217-0.9221-0.1332-1.7045 0.9239-2.0503l0.1696 0.1359z"/>
	<path d="m758.97 1218c0.1089 0.8859 0.1412 1.7347-0.98 2.0255-2e-4 -2e-4 0.0437 0.0328 0.0433 0.0327-0.1169-0.8987-0.1475-1.7528 1.0228-1.9894l-0.0861-0.0688z"/>
	<path d="m752.19 1231.1c-0.0767 0.812-0.102 1.6548-1.1349 1.8938 0 0-0.1428-0.106-0.1422-0.1056-0.0334-0.8529 0.0056-1.6694 1.0097-1.9988l0.2674 0.2106z"/>
	<path d="m751.05 1233c0.0594 0.8713 0.0359 1.6986-1.045 1.9628 2e-4 1e-4 -0.0774-0.0531-0.0753-0.0518-0.1169-0.886-0.0217-1.6699 0.9775-2.017l0.1428 0.106z"/>
	<path d="m744.22 1246.2c-0.0989 0.7887-0.1598 1.5977-1.0496 1.9636 0 0-0.2397-0.1863-0.2395-0.1862-0.0126-0.8451 0.038-1.657 1.0329-1.9755l0.2562 0.1981z"/>
	<path d="m742.11 1250.1c-0.0057 0.8519-0.0621 1.674-1.1252 1.8999-3e-4 -2e-4 0.0733 0.0514 0.0732 0.0514-0.3205-0.9292-0.1775-1.6908 0.7807-2.1572l0.2713 0.2059z"/>
	<path d="m732.98 1267c0.1534 0.9086 0.1555 1.7419-0.9954 2.002 0 0 0.0689 0.054 0.0687 0.0538-0.2209-0.9385-0.1949-1.7562 0.9819-2.0123l-0.0552-0.0435z"/>
	<path d="m731.98 1269c0.1246 0.8751 0.0693 1.6755-0.8743 2.1075 0 0-0.3384-0.2686-0.3381-0.2683 0.205-0.7545 0.0841-1.7428 1.2813-1.7853l-0.0689-0.0539z"/>
	<path d="m731.11 1271.1c0.0073 0.8593-0.0963 1.6525-1.1273 1.8938-3e-4 -2e-4 0.0782 0.0548 0.0782 0.0548-0.3403-0.9241-0.199-1.6937 0.7106-2.2172l0.3385 0.2686z"/>
	<path d="m720.97 1290c0.1592 0.9138 0.2066 1.771-1.0077 1.989 0 0 0.0931 0.0768 0.093 0.0767-0.127-0.8929-0.1812-1.7502 0.985-2.0092l-0.0703-0.0565z"/>
	<path d="m719.96 1292c0.1675 0.913 0.1473 1.7352-0.9778 2.0237 0 0 0.0608 0.0471 0.0605 0.0469-0.1294-0.9009-0.1993-1.7716 1.0103-1.9938l-0.093-0.0768z"/>
	<path d="m718.98 1294c0.1655 0.9138 0.1011 1.7148-0.9889 2.0115-2e-4 -1e-4 0.0401 0.0289 0.0397 0.0287-0.14-0.906-0.2305-1.787 1.01-1.993l-0.0608-0.0472z"/>
	<path d="m692.96 1346c0.1168 0.8859 0.1368 1.7262-0.9598 2.0416 0 0-0.0192-0.0148-0.0189-0.0145-0.0816-0.8899-0.2501-1.8275 1.0699-1.948l-0.0912-0.0791z"/>
	<path d="m692 1348c0.0959 0.8871 0.1318 1.7422-1.0394 1.9559 0 0 0.0927 0.0775 0.0926 0.0775-0.1798-0.9042-0.2717-1.7686 0.9276-2.0482l0.0192 0.0148z"/>
	<path d="m690.96 1350c0.0894 0.8757 0.2053 1.7642-0.9742 2.0315 0 0 0.0336 0.0253 0.0333 0.0251-0.1231-0.9039-0.1765-1.7715 1.0335-1.9791l-0.0926-0.0775z"/>
	<path d="m689.99 1352c0.1059 0.8907 0.174 1.7616-1.0299 1.9663 0 0 0.0947 0.0787 0.0946 0.0787-0.1418-0.8962-0.2113-1.7577 0.9689-2.0198l-0.0336-0.0252z"/>
	<path d="m688.96 1354c0.1261 0.8984 0.1771 1.7588-1.0094 1.9921l0.0994 0.0848c-0.0698-0.8695-0.1995-1.7692 1.0046-1.9982l-0.0946-0.0787z"/>
	<path d="m687.95 1355.9c0.1224 0.8922 0.2767 1.8-0.9822 2.0214-5e-4 -5e-4 0.084 0.0619 0.0839 0.0619-0.1199-0.892-0.1602-1.7444 0.9977-1.9984l-0.0994-0.0849z"/>
	<path d="m675.95 1379.9c0.1151 0.8876 0.2972 1.8075-0.9768 2.0249 0 0 0.0739 0.0577 0.0737 0.0576-0.1759-0.9221-0.0836-1.7092 1.0037-1.9958l-0.1006-0.0867z"/>
	<path d="m674.97 1382c0.1203 0.8938 0.1867 1.7606-1.0038 1.9949 0 0 0.0861 0.0698 0.0859 0.0698-0.1636-0.9133-0.1431-1.7355 0.9918-2.007l-0.0739-0.0577z"/>
	<path d="m673.97 1384c0.1268 0.8988 0.1385 1.7389-1.0116 1.9879l0.0975 0.0826c-0.1034-0.8853-0.2237-1.7789 1.0001-2.0007l-0.086-0.0698z"/>
	<path d="m672.96 1386c0.1634 0.9127 0.1226 1.7247-0.99 2.0085l0.0897 0.0751c-0.1639-0.9146-0.2137-1.7723 0.9979-2.001l-0.0976-0.0826z"/>
	<path d="m671.97 1388c0.0911 0.8809 0.1749 1.7581-1 2.0089-4e-4 -2e-4 0.0867 0.0624 0.0867 0.0624-0.0979-0.8826-0.2661-1.8005 1.003-1.9962l-0.0897-0.0751z"/>
	<path d="m659.95 1410.9c0.0736 0.8689 0.2582 1.7927-0.9913 2.0087l0.0959 0.0819c-0.1808-0.922-0.071-1.6997 0.9943-2.0032l-0.0989-0.0874z"/>
	<path d="m658.96 1413c0.1087 0.8878 0.1252 1.7297-0.9965 2.0065l0.0923 0.0791c-0.1558-0.9121-0.1343-1.7356 1.0001-2.0037l-0.0959-0.0819z"/>
	<path d="m657.96 1415c0.1296 0.901 0.0592 1.703-0.998 2.0168-1e-4 0 0.0873 0.0592 0.0873 0.0592-0.1385-0.9032-0.2527-1.7942 1.0031-1.9969l-0.0924-0.0791z"/>
	<path d="m650.94 1427.9c0.1779 0.9192 0.1725 1.7477-0.9913 2.0027l0.0975 0.0857c-0.1144-0.8889-0.1166-1.7222 0.9956-2.0006l-0.1018-0.0878z"/>
	<path d="m649.95 1429.9c0.1137 0.8911 0.142 1.7405-0.9883 2.0244-2e-4 -1e-4 0.0878 0.0613 0.0878 0.0613-0.1555-0.9103-0.1521-1.7412 0.998-2l-0.0975-0.0857z"/>
	<path d="m642.94 1442.9c0.1996 0.9299 0.1411 1.7318-0.9924 2.0002l0.0967 0.0872c-0.0897-0.8777-0.0865-1.7089 0.9987-1.9998l-0.103-0.0876z"/>
	<path d="m641.95 1444.9c0.0984 0.8846 0.1037 1.724-0.9878 2.0298-2e-4 -1e-4 0.0868 0.0603 0.0868 0.0603-0.0995-0.8828-0.1416-1.7372 0.9977-2.0029l-0.0967-0.0872z"/>
	<path d="m634.94 1457.9c0.0912 0.8781 0.1684 1.749-0.9967 2.0013l0.1093 0.1006c-0.0193-0.842-0.0264-1.6781 0.9961-2.0017l-0.1087-0.1002z"/>
	<path d="m633.94 1459.9c0.0862 0.8766 0.1531 1.7437-0.9924 2.0131l0.098 0.0873c-0.0696-0.8694-0.0591-1.6986 1.0037-1.9998l-0.1093-0.1006z"/>
	<path d="m632.95 1461.9c0.1451 0.9059 0.085 1.712-0.9852 2.0275 0 1e-4 0.0877 0.0598 0.0877 0.0598-0.1256-0.8944-0.1942-1.7604 0.9955-2l-0.098-0.0873z"/>
	<path d="m624.94 1476.9c0.0931 0.8813 0.252 1.7961-1.0092 1.9912l0.114 0.101c-0.0083-0.8365-0.0111-1.6703 0.9944-2.0035l-0.0992-0.0887z"/>
	<path d="m623.93 1478.9c0.119 0.8901 0.3011 1.8112-0.9857 2.0131l0.1006 0.0869c-0.1006-0.8831-0.0334-1.6823 0.9991-1.999l-0.114-0.101z"/>
	<path d="m622.95 1480.9c0.1259 0.8943 0.2101 1.7678-0.9988 1.9932l0.103 0.0957c-0.081-0.8729-0.0717-1.7009 0.9965-2.002l-0.1007-0.0869z"/>
	<path d="m621.95 1482.9c0.0327 0.8499 0.1821 1.7578-0.997 2.0051l0.0999 0.0929c-0.074-0.871-0.0538-1.6947 1.0001-2.0023l-0.103-0.0957z"/>
	<path d="m620.95 1484.9c0.0491 0.8552 0.1509 1.7367-0.9935 1.9985l0.0971 0.0936c-0.1115-0.8875-0.1161-1.7217 0.9963-1.9993l-0.0999-0.0928z"/>
	<path d="m619.96 1486.9c-0.0095 0.8319 0.0732 1.71-1.0046 2.0073l0.0959 0.0884c-0.0604-0.8661-0.0638-1.7036 1.0058-2.0021l-0.0971-0.0936z"/>
	<path d="m618.95 1488.9c0.1081 0.8828 0.0089 1.6631-0.9886 1.9993l0.0946 0.0933c-0.108-0.8844-0.2198-1.7706 0.9899-2.0042l-0.0959-0.0884z"/>
	<path d="m617.96 1490.9c-0.0082 0.8309-0.0595 1.64-1.0139 1.9885l0.11 0.1099c0.0297-0.8193-0.2269-1.7811 0.9985-2.0051l-0.0946-0.0933z"/>
	<path d="m616.95 1492.9c0.0182 0.8507-0.0361 1.6661-0.9921 2.0441-1e-4 2e-4 0.0989 0.0636 0.0989 0.0637-0.0485-0.8583-0.1763-1.7562 1.0032-1.9979l-0.11-0.1099z"/>
	<path d="m743.17 1248.1c-0.0305 0.8252-0.1478 1.6034-1.0551 1.9553 4e-4 2e-4 -0.2709-0.2057-0.2706-0.2053 0.0714-0.8083 0.0848-1.6492 1.0859-1.9363l0.2398 0.1863z"/>
	<path d="m603.95 1518.9c-0.0305 0.8184 0.0881 1.7104-0.9926 2.0103l0.0963 0.0935c-0.0759-0.8717-0.1678-1.7515 1.0063-1.9915l-0.11-0.1123z"/>
	<path d="m602.96 1520.9c0.0022 0.8464-0.0045 1.6884-1.0218 2.019 0 2e-4 0.1193 0.0768 0.1193 0.0768 0.0575-0.8048-0.1956-1.7645 0.9987-2.0023l-0.0962-0.0935z"/>
	<path d="m1375.1 502.13c0.0092-0.1311 0.0183-0.2621 0.0275-0.3932-0.0463 0.0972-0.0925 0.1943-0.1375 0.2933 0.0014 0.0018 0.11 0.0999 0.11 0.0999z"/>
	<path d="m1396.9 512.05c0.3643 0.0026 0.7285 0.0051 1.0935 0.0072 9e-4 -5e-4 0.0441-0.111 0.0438-0.1112-0.39-1e-4 -0.7798 1e-4 -1.1696 2e-4l0.0323 0.1038z"/>
	<path d="m1069 749.93c-0.3605 0.0037-0.7208 0.0073-1.0822 0.0115-7e-4 5e-4 -0.0386 0.1087-0.0383 0.1089 0.3879-0.0037 0.7759-0.0076 1.1637-0.0116l-0.0432-0.1088z"/>
	<path d="m1439 514.08c0.0186-0.1087 0.0371-0.2175 0.0557-0.3262-0.0541 0.0742-0.1083 0.1484-0.1621 0.223 2e-4 3e-4 0.1064 0.1032 0.1064 0.1032z"/>
	<path d="m919.96 801.91c0.3578 1.0638 0.7156 2.1277 1.0734 3.1917l-1.0734-3.1917z"/>
</svg>
