<?xml version="1.0" encoding="UTF-8"?>
<svg enable-background="new 0 0 1872.825 1668.816" version="1.1" viewBox="0 0 1872.825 1668.816" xmlns="http://www.w3.org/2000/svg">
 <path d="m1115.7 34.408c36.565 6.835 67.963 28.645 77.975 66.626 3.856 21.401-1.872 26.645-5.338 35.878 0.766 5.338 1.532 10.698 3.224 15.837 40.771-2.979 111.42 71.508 237.86 116.44 93.33 33.347 121.57 28.601 121.34 44.142 2.075 1.838 4.648 1.233 7.099 0.689 22.274 3.059 179.58 290.82 190.04 309.86 4.901 8.684 9.09 17.943 10.576 27.883 1.47 26.778 9.862 50.201 10.691 89.593 0.494 8.307-0.845 47.783-8.01 56.326-1.241 1.072-3.017 0.95-4.503 1.248 1.976-5.53 1.229-6.744 1.271-36.338-72.272-27.764-49.141-23.172-108.18-24.161-7.375-0.521-14.803 0.352-22.148-0.659-7.346-0.953-16.432-4.996-35.358-7.612-7.597 2.274-15.094 4.955-22.507 7.788-11.479 29.683-8.898 18.819-9.756 37.808-0.237 10.254 1.968 20.455 0.85 30.709 0.351 7.467 7.98 21.905 4.235 32.379-2.535-10.997-5.231-21.987-8.256-32.869-10.285-5.047-17.3-14.474-24.805-22.775-3.393-4.258-7.773-7.536-11.526-11.434-3.4-3.775-8.424-5.33-12.46-8.256-22.529-13.655-16.089-16.25-44.348-22.982-20.141 16.473-16.628 10.357-21.742 58.991 1.099 20.796 7.409 61.156 7.099 81.958-0.347 7.01 5.422 27.463 5.131 39.095 0.053 2.343-1.042 4.488-2.374 6.349 0.062-7.641-4.813-34.893-6.349-42.082-2.048-4.54-35.498-69.08-50.72-88.367-37.416-44.973-28.699-36.101-63.716-67.17-5.1 0.957-10.239 1.669-15.316 2.696 1.34 9.243 3.523 18.387 3.929 27.745 0.049 1-1.828 96.47-11.526 117.25-1.064 0.038-2.106 0.077-3.132 0.115 2.336-9.741 2.037-19.881 3.086-29.806-27.15-35.083-1.349-9.219-58.432-35.542-3.132 1.348-6.494 2.198-9.481 3.86 18.457 98.981 13.567 46.127 19.49 112.52 0.605 7.681 3.684 15.117 2.948 22.913-5.139-4.878-6.356-12.322-7.627-18.969-6.721-30.813 10.04 4.354-24.177-79.66-1.327 23.189 2.462 34.58-1.891 44.149-4.152-14.538 0.402-23.125-7.842-48.698-2.029-6.709-2.742-13.708-3.27-20.662-17.666-34.212-17.974-30.423-29.116-43.552-16.472 32.978-11.699 57.171-25.479 70.892 13.506 29.25 18.426 41.109 18.426 41.109-3.701-2.147-26.031-37.37-26.788-38.597-26.255-1.521-45.065-28.384-91.469-34.554-20.441 37.787-19.936 54.872-32.271 60.461 0 0 6.759 24.055 8.531 37.877-1.072-1.493-2.06-3.063-2.581-4.825-2.964-10.767-8.179-20.708-11.878-31.215-11.917-2.945-42.454-30.989-53.117-33.259-31.158-7.398-38.782-11.645-74.92-11.181-107.99 46.714-57.507 28.931-142.17 74.56-3.575 1.267-31.232 6.469-34.891 7.467-28.634 6.356-18.91 3.255-37.142 14.007 3.193 4.641 6.563 9.174 9.994 13.655 4.794-2.925 7.934-8.547 13.831-9.488-1.179 5.59-1.578 11.296-2.466 16.932 6.165-3.301 13.884-1.884 19.636-6.111 4.212-2.964 7.628-6.9 11.832-9.879 2.887-2.045 5.368-5.139 9.175-5.345-0.373 10.029-19.135 39.126-26.582 49.173 0.628 0.919 1.271 1.853 1.915 2.803 7.335-4.699 34.23-16.693 35.963-16.733-0.745 7.521-15.881 26.448-22.17 36.445 2.366 3.454 4.733 6.908 7.275 10.247 4.056-3.962 44.502-44.059 49.908-44.854 0.836 8.239-22.63 53.073-29.247 66.58 2.059-1.61 11.835-8.973 14.872-9.55-1.333 5.445-3.04 10.806-4.848 16.12 7.076-6.229 29.545-21.24 34.722-22.27-0.625 6.081-13.573 30.429-22.936 41.936 2.573 2.144 5.215 4.204 7.941 6.172 7.567-6.514 14.347-15.323 20.195-17.974-0.674 6.28-1.011 12.59-1.455 18.908 12.346-14.07 40.347-37.383 45.191-38.061-0.188 10.237-17.509 45.762-22.033 54.932 1.853 0.322 4.166 2.083 5.828 0.398 5.659-4.582 21.296-15.604 24.024-16.825-1.884 8.424-8.723 14.382-12.651 21.803 3.99 1.103 7.85 2.627 11.763 3.99 3.877-7.245 18.46-16.676 20.922-17.292 0.766 8.087 0.513 16.381-1.409 24.315 1.279 0.559 2.573 1.133 3.875 1.715 4.726-14.259 21.331-43.443 30.939-45.597 0.554 3.903-2.163 36.133-5.039 55.108 9.851-13.169 12.63-17.775 17.261-20.792 1.47 5.437 1.792 11.127 2.336 16.725 0.574 3.776-0.85 7.405-2.006 10.928 4.235 2.198 8.432 4.472 12.513 6.961 1.53-1.812 22.465-27.117 28.756-30.158 1.804 5.79-7.302 29.354-10.3 38.375 10.777-6.791 9.466-7.204 13.823-8.638 1.012 5.352-4.993 15.469-5.56 18.38 3.163 2.627 6.624 4.871 9.818 7.482 4.367-5.148 28.717-32.974 35.35-34.37 0.312 8.433-12.426 39.176-18.403 48.591 2.435 2.359 4.978 4.61 7.344 7.045 4.22-3.002 8.148-6.609 13.042-8.5-1.363 5.162-4.595 9.542-7.352 14.03 0.766 0.659 1.555 1.355 2.351 2.045 4.275-2.771 22.748-13.762 25.931-14.405-1.719 6.126-11.029 16.839-16.572 23.656 6.578 6.647 13.18 13.279 19.697 19.995 11.122-11.999 14.273-15.958 18.977-17.89-2.627 9.144-5.927 18.257-10.66 26.566 0.865 0.827 1.746 1.67 2.635 2.527 6.892-7.312 21.58-17.359 23.848-18.027-0.405 4.841-5.933 22.595-11.411 30.939 15.992 17.004 12.225 12.654 25.41 23.419 4.016-3.284 26.388-20.993 31.475-21.864-0.635 8.029-11.037 24.223-16.044 33.91 2.619 2.091 5.315 4.089 8.026 6.096 2.788-1.731 5.614-3.446 8.692-4.633-0.322 3.293-1.049 6.532-1.838 9.756 10.867 7.88 21.902 15.531 32.999 23.097 4.266-3.661 9.328-6.586 14.727-8.179-0.766 5.261-1.378 10.706-3.806 15.516 3.852 2.535 7.689 5.116 11.541 7.673 5.206-5.568 16.343-11.206 20.463-12.575 0.113 2.971-1.126 15.34-5.016 22.637 10.821 7.007 21.741 13.854 32.785 20.501 3.01-2.719 5.828-5.797 9.511-7.612-0.352 3.967-1.7 7.735-3.01 11.472 9.167 5.353 18.341 10.691 27.5 16.052 3.768-4.197 7.589-8.554 12.452-11.495-0.398 5.644-2.167 11.089-3.913 16.442 165.6 97.198 253.85 118.07 368.04 132.62 7.758 0.797 15.592 1.792 23.396 0.881 26.374-2.507 28.938-3.764 31.927-8.187 4.507-6.275 21.953-24.444 41.905-59.221 22.792-41.516 51.591-81.279 81.705-131.05 3.593-5.694 6.047-15.221 17.844-12.69 2.902 0.934 4.158 4.25 4.151 7.084-0.391 3.76-2.68 6.9-4.419 10.139-67.178 127.66-96.029 223.82-119.66 229.48-14.688 4.534-27.738 13.172-42.648 17.078-20.62 5.462-85.342 3.848-105.9-2.466-58.63 0-132.31 6.847-337.16-87.808-10.755-5.169-122.34-55.789-194.82-106.87-31.063-22.168-113.28-102.67-138.23-113.06-27.902 24.048-62.112 37.827-99.526 32.555-18.854-2.343-8.633 1.416-38.429-1.715 47.235 22.328 28.747 9.183 48.652 18.035 9.502 4.312 13.977 18.359 9.68 18.441-5.641-0.686-5.706-8.491-26.421-7.643-2.351 5.208-6.502 9.381-8.554 14.765 2.747 3.054 38.622 41.681 54.235 50.299 5.453 2.611 10.844 5.767 14.819 10.423 4.456 4.593 9.796 22.53 4.373 22.974-4.472-1.294-6.739-5.836-10.392-8.378-3.752-2.887-8.309-4.273-12.605-6.081-4.703 7.445-14.857 33.633-22.301 46.133-9.212 15.786-21.821 38.19-14.037 54.886 13.438 27.769 8.782 33.111 11.349 46.194 1.455 2.688 3.155 5.292 3.829 8.34 22.406 7.482 25.567 17.158 25.111 32.08 6.404 8.256 4.668 20.986 2.313 25.349-0.957-0.337-1.899-0.651-2.834-0.95-1.708-4.174-2.818-8.654-5.843-12.146-6.854 3.73-15.309 4.044-22.538 1.21-8.049-3.347-16.58-5.345-24.659-8.623-11.435 6.116-26.186 21.297-32.333 22.446-7.26 1.761-15.14-0.521-22.101 2.696-5.082 2.354-21.496 8.457-28.917 5.146-1.899-1.325-2.65-3.699-3.821-5.583-2.834 2.558-3.975 6.303-6.195 9.312-0.689 1.179-2.259 0.804-3.362 1.164-0.712-2.971-0.46-6.035-0.077-9.014-7.245 4.436-22.63 15.802-33.007 10.017-2.06-1.371-1.348-4.166-1.815-6.219-8.679 3.408-9.491 14.038-15.569 12.935-0.222-4.917 1.501-9.573 2.994-14.152-13.224 3.012-11.658-0.585-12.72-4.097-1.346 0.234-9.022 0.361-14.214 8.983-1.248 1.823-2.795 4.189-5.345 3.921-0.699-3.898 1.091-21.707 20.057-29.285 1.256-3.5 4.059-6.065 6.885-8.317 18.417-14.565 28.623-13.099 36.024-15.255 4.449-1.149 5.682-6.142 8.386-9.266 6.684-7.504 5.103-9.729 23.135-7.068 1.547-2.788 1.922-6.157 3.998-8.654 3.002-3.722 7.321-6.678 8.462-11.594-12.46 5.33-26.168 6.088-39.217 9.19-41.796 11.804-26.826 4.916-61.418 6.777-7.16 0.72-14.252 2.673-21.473 2.466-0.942-1.654-1.585-3.438-1.999-5.269-2.835-0.495-9.867-1.026-14.244 1.93-4.097 0.467-6.05 4.794-9.933 5.728 1.914-10.16 13.498-17.365 14.895-19.276 3.247-4.58 8.141-7.697 13.226-9.879 2.719-11.01 20.984-14.583 27.455-17.729 8.539-5.575 19.031-6.303 28.887-7.428 3.806-0.988 7.382-3.094 11.441-2.971 2.696-0.237 5.652 0.59 8.164-0.743 2.014-1.026 4.112-1.853 6.287-2.481 2.013-40.951-2.177-25.708 8.631-58.623 10.3-31.587 2.552-2.318 13.93-37.326 5.774-18.334 9.182-37.288 14.252-55.805-13.956-11.644-33.75-21.32-50.735-33.696-10.766-7.69-13.427-5.075-49.793-18.426-28.448-10.229-48.353-12.793-71.726-44.647-3.758-5.15-15.575-26.317-14.742-39.753 0.973-18.931 11.192-18.363 14.053-26.122 3.484-9.156 16.871-27.225 33.612-39.263-28.433-13.54-28.775-39.145-42.273-61.771-3.402 1.764-13.628-1.097-19.015-9.205-6.513-9.55-7.698-20.741-12.33-27.539-1.547 1.401-2.772 4.174-5.299 3.523-2.251-0.207-3.599-2.282-5.131-3.676-10.89-10.877-9.304-29.467-16.22-36.062-1.57 2.267-3.844 3.791-6.525 4.434-10.423-9.497-9.072-22.701-13.877-29.683-4.77 4.506-4.489 6.624-8.815 2.627-8.652-9.806-9.768-24.176-13.425-28.251-2.091 1.792-3.484 4.993-6.418 5.422-2.987-0.881-4.855-3.538-6.877-5.705-1.608-0.444-3.768-0.054-4.924-1.432-0.046-1.493 0.835-2.742 1.486-3.99-0.628-1.31-1.256-2.604-1.892-3.883-24.959 3.461-37.377 31.701-149.4 32.815-41.495-2.714-43.599-1.108-50.069 11.832 16.797 16.969 10.309 24.741 9.55 28.251-0.253 5.047 0.398 10.392-1.83 15.109-3.062 7.063-12.734 12.946-20.708 12.705-0.146-3.929 4.151-5.506 5.56-8.769 2.504-3.737 0.375-8.255-0.835-12.069-4.143-5.299-7.934-10.92-11.863-16.404-3.959-5.468-4.832-12.812-10.124-17.353-3.144-3.501-12.797 3.579-18.946 0.406-12.276-6.599-21.466-2.41-29.583-4.733-45.183-12.964-9.096-23.351-55.629-10.231-3.048 0.429-4.656-2.696-5.59-5.054-11.107 6.502-7.781 7.469-10.691 13.509-4.526-5.521-3.906-13.808-1.218-20.041-15.16 6.953-9.387 10.504-14.045 13.953-3.485-6.065-4.218-20.623 9.22-29.959 3.941-2.583 2.418-9.453 12.238-15.378 3.362-2.144 7.038-4.12 11.135-4.105 7.766-10.62 10.338-0.658 35.136-9.986 5.051-2.453 5.713 5.924 9.113 7.903 5.169 2.887 11.64 1.409 16.672 4.725 12.087-6.596 14.141 3.343 20.103 5.943 3.484-0.842 7.137-0.651 10.584-1.669 3.821-1.049 7.405-2.941 11.357-3.469 44.31-4.35 33.705 2.847 56.073-3.806 14.351-4.557 29.231-7.505 43.123-13.455 44.494-18.83 42.364-27.009 80.924-36.614-25.874-22.749-48.963-46.533-70.708-80.87-5.059 17.196-22.775 20.442-29.959 19.436-8e-3 -0.651-0.031-1.953-0.038-2.611 4.893-4.956 13.562-5.993 11.977-23.021-2.383-2.968-10.447-21.613-12.452-34.079-3.668 0.827-7.903 1.991-11.158-0.613-4.266-3.63-10.086-5.33-15.638-4.649-8.523 0.732-26.083-10.515-28.557-13.838-2.183-2.343-3.837-5.437-6.709-6.984-16.609-0.484-29.247 12.048-34.906 0.75-14.804 7.944-9.808 10.117-15.002 13.823-3.188-4.592-1.311-15.446 1.371-20.401-2.864 0.919-5.836 0.237-8.194-1.555-5.92 1.968-12.146 4.296-16.182 9.32-1.792 2.06-2.634 5.437-5.843 5.644-1.728-6.642-0.146-18.066 8.171-27.171-1.915 1.616-3.699 3.699-6.433 3.729-2.028-12.612 16.844-30.523 29.384-28.703 2.129-2.849 5.047-5.376 8.623-6.027 26.632 4.403 30.954-8.685 37.395 1.409 0.95 2.198 1.149 4.649 2.045 6.885 3.73 0.681 6.938 2.742 10.43 4.043 4.725 1.34 8.432-2.887 12.927-3.132 3.27 0.391 7.298 1.287 8.776 4.626 1.164 1.761 1.692 4.748 4.197 5.016 29.281-3.568 32.268-8.953 38.605-4.74 9.014 5.598 19.367 9.075 27.455 16.113 11.72 11.527 1.99 24.06 44.969 56.885 11.985 9.282 25.057 16.986 37.67 25.349 0.796-1.662 1.532-3.347 2.221-5.047-2.313-1.248-4.725-2.32-6.969-3.676 1.732-8.032 14.503-12.091 17.889-18.027-2.443-1.601-4.978-3.056-7.344-4.763 3.482-10.488 19.604-14.297 23.756-22.469-2.198-1.738-4.679-3.063-7.153-4.342 4.867-12.701 23.696-16.158 26.29-26.183-2.558-0.965-5.192-1.731-7.704-2.795 1.564-15.589 19.817-27.208 17.958-39.692-2.726-0.23-5.514-0.168-8.141-1.026 2.084-16.801 20.596-28.006 20.868-42.196-2.634-0.168-5.276-0.36-7.819-1.087 0.994-15.329 20.599-31.369 21.68-42.84-2.803 0.061-5.613 0.153-8.393-0.245 0.829-17.537 23.32-33.489 21.642-45.39-2.558 0.666-5.162 1.639-7.827 1.019-0.689-13.299 13.769-22.435 11.426-33.841-2.091 1.011-4.25 1.93-6.571 2.244-3.224-10.216 6.387-19.184 4.319-29.377-2.244 0.682-4.273 2.06-6.609 2.412-4.292-1.68 3.607-15.057 1.731-20.976-1.424 1.003-2.841 2.014-4.273 3.01-3.852-5.598-0.398-13.103-4.319-18.602-1.463 1.118-2.872 2.305-4.281 3.5-3.767-6.147-2.073-14.868-5.116-15.638-1.478 0.95-2.55 2.382-3.821 3.576-5.23-4.777-4.901-11.467-8.975-15.462-0.85 0.904-1.7 1.815-2.55 2.726-5.567-3.684-7.245-10.637-11.809-15.209-0.842 0.728-1.639 1.524-2.573 2.137-4.365-2.405-7.574-6.318-10.645-10.147-6.318 1.264-10.714-4.74-16.488-6.027-0.352 1.003-0.36 3.745-2.167 3.017-5.422-1.708-9.948-5.422-14.137-9.144-0.084 1.018-0.176 2.052-0.268 3.086-4.503 0.061-8.577-2.045-12.835-3.178-0.092 0.597-0.283 1.792-0.375 2.389-3.201 1.532-6.816 1.179-10.254 1.271 0.113 5.955-7.419 5.822-13.004 8.631 0.015 5.008-4.48 8.056-8.194 10.538-12.366 7.627-15.262 21.588-20.891 27.393-4.998 9.455-10.864 24.029-26.329 21.405-6.777 1.432-12.881 5.108-19.613 6.77-17.077 4.249-45.292 21.052-57.337 37.035-21.84 28.452-36.667 18.116-56.747 34.393 0.59-8.003 4.174-15.914 10.116-21.366-1.738-3.071-2.91-6.532-2.627-10.101-10.89-0.16-14.772-3.729-19.858-4.564 4.352 5.152 2.673 5.533 14.604 13.027 1.593 0.942 2.887 2.305 3.615 4.021-14.868 1.171-22.537-5.409-31.689-8.501-2.19 2.428-4.626 4.626-6.816 7.053 0.758 3.102 1.8 6.127 3.094 9.052-2.994 1.532-6.992 1.486-9.473-0.996-1.486-1.225-1.532-3.255-1.922-4.985-9.307-10.047-13.24-19.889-5.874-31.016 2.719-3.324 2.68-7.85 4.61-11.564 2.305-6.134 6.486-11.457 8.118-17.851 0.85-3.768-0.345-8.723 3.4-11.196 2.618-17.158 12.173-9.684 20.309-10.875 1.645-0.812 47.162-29.634 47.197-29.66 3.27-2.457 13.849-17.144 15.492-19.804-1.96-4.817-8.278-7.566-7.39-13.494-2.129-2.588-3.791-5.59-4.066-8.983 0.574-0.927 1.149-1.846 1.723-2.765 2.971 1.187 5.116 3.676 7.957 5.108 1.026-0.735 2.083-1.432 3.048-2.236-0.835-3.883-0.873-7.888 0.513-11.648-2.198-4.495-4.894-10.691-0.996-15.018 2.604 2.045 4.181 4.993 6.211 7.543 3.201-3.615 6.954-6.663 10.89-9.435-1.57-4.717-2.336-11.365 2.68-14.282 2.19 2.895 2.964 6.525 4.909 9.565 7.129-3.251 5.069-0.652 13.586-7.191-0.168-2.068-1.815-4.013-0.582-6.065 1.532 0.421 2.864 1.317 4.22 2.121 3.4-5.1 7.053-10.208 12.123-13.777 2.489-1.601 3.959-5.69 7.505-4.641 13.237-16.004 6.395-12.348 41.637-41.806 3.416-2.665 4.878-6.908 7.727-10.04 0.728-1.087 2.994-0.475 2.497 1.019-3.578 20.625-6.962 20.066-23.22 43.797 0.176 1.103 0.345 2.213 0.498 3.324 0.467-0.751 0.942-1.501 1.424-2.244 5.112 6.058 11.532 25.565 12.399 28.014 1.019-0.406 2.037-0.819 3.056-1.218-1.581-6.036-1.845-17.763 1.861-23.893 5.747 3.414 10.233 12.384 12.774 18.717 3.86-1.279 7.827-2.213 11.855-2.78 1.587-26.64 2.544-28.983 5.047-32.386 8.238 5.291 13.268 18.737 15.439 28.695 1.509-0.13 3.025-0.245 4.541-0.345 0.249-9.056 4.277-19.937 6.846-23.273 4.112 7 6.486 15.117 6.241 23.273 4.197 0.368 8.393 0.812 12.567 1.409 1.704-7.821 12.251-25.588 12.942-21.228 1.999 7.696 2.887 15.822 1.539 23.717 0.666 0.13 1.999 0.406 2.665 0.544 2.336-4.35 5.629-8.156 9.42-11.303 0.682 4.289 0.528 8.684-0.574 12.896 6.096 1.279 12.161 2.711 18.127 4.534 8.243-15.502 3.233-8.099 25.678-31.008 0.942-1.072 2.274-1.608 3.63-1.937 1.514 8.491-1.41 14.93-7.926 39.876 3.76 1.386 7.482 2.895 11.204 4.411 8.055-14.493 20.6-29.043 24.269-29.836 1.405 10.331-3.092 29.083-5.95 39.171 5.682 3.216 11.533 6.134 17.055 9.619 1.018-0.971 21.315-22.006 33.451-22.676 0.812 3.645-0.322 7.314-0.123 10.99 0.775 19.616 0.598 20.123-8.164 32.003 1.386 1.394 2.78 2.788 4.166 4.197 13.367-10.742 23.526-15.074 29.262-16.266 0.161 3.462-1.478 6.601-2.466 9.833-5.341 14.587-7.394 15.249-13.134 22.017 2.833 3.599 5.728 7.145 8.677 10.652 7.045-3.898 14.834-6.747 22.837-7.781-1.841 4.385-10.467 12.981-15.722 16.909 1.884 2.811 3.73 5.652 5.545 8.516 54.32-11.781 61.249-17.659 67.798-14.91 0.804 1.853-0.973 3.906-2.052 5.414-24.974 26.741-17.073 19.3-48.461 42.495 1.455 2.849 2.818 5.744 4.128 8.661 4.024-0.712 28.854-6.223 37.502-1.478-1.82 6.08-21.322 18.047-30.602 24.292 0.888 6.793 2.045 13.547 3.132 20.317 9.196-1.252 26.569-2.07 33.535 0.973-4.434 4.598-19.893 14.287-30.793 17.698 0.559 5.851 1.164 11.702 1.233 17.591 42.732-0.747 46.442-2.867 53.216 1.616-2.9 3.937-33.623 22.565-40.121 26.022-4.434 2.144-9.32 3.086-14.076 4.235-0.222 3.224-0.322 6.463-0.513 9.695 7.773-0.325 5.391 2.33 21.228 1.769-1.002 0.766-16.494 8.966-22.431 10.032-0.613 4.717-1.149 9.45-1.509 14.198 19.157-0.536 36.924-2.15 41.967 0.873-2.406 2.361-27.304 14.685-40.718 17.415 0.743 4.511 1.424 9.021 2.052 13.555 6.164 0.461 8.966 1.714 25.004 10.032-4.77 4.126-18.148 5.994-21.987 6.349 0.636 3.507 1.593 6.946 2.558 10.384 11.341-1.107 31.731-1.684 41.714 3.484-0.602 0.902-16.205 13.971-21.81 17.514-3.316 2.091-7.038 3.4-10.691 4.763 1.294 3.446 2.504 6.923 3.775 10.392 4.878-0.582 9.802-0.023 14.566 1.095-3.446 3.515-7.658 6.28-12.062 8.439 1.447 3.206 9.687 14.553 11.372 16.189 5.483-0.59 10.913 0.337 16.358 0.873 5.603-3.373 18.579-18.966 30.043-28.128 11.772-9.495 26.864-15.577 31.689-19.796 19.854-15.301 57.176-32.627 81.161-41.239 22.854-8.28 23.551-8.131 25.295-9.933 39.183-39.07 22.747-31.576 53.492-63.716 19.912-19.3 61.767-34.78 71.221-42.886 15.934-17.77 14.692-8.798 25.578-26.413 5.154-14.221 8.064-29.124 12.697-43.506 2.13-6.885 48.028-135.94 32.264-175.54-1.968-5.514-4.84-11.418-2.734-17.353 1.524-0.276 3.04-0.574 4.58-0.881-3.911-6.045-12.959-10.149-8.34-24.031 5.185-15.076 11.274-14.83 20.891-14.864 2.129-6.701 5.039-14.275 1.723-21.091-8.089-11.765-24.638-26.588-28.496-29.675-6.257-4.8-13.217-5.421-16.917-10.836 45.447 3.533 77.503 32.306 81.314 49.548 3.909 16.296 0.561 17.614-2.382 26.75 5.326 16.673 5.985 9.203 4.878 20.47 14.612 6.208 34.187 23.891 45.512 35.649 5.226-21.936 20.279-86.375 12.284-108.91-1.539-5.859-4.442-12.031-2.42-18.119 0.636-2.098 3.193-2.206 4.894-2.979-9.771-8.535-15.82-12.839-9.511-26.796 11.389-23.853 19.61-13.735 28.588-20.325 9.167-20.617 13.33-28.809-18.548-67.599-2.933-3.722-6.9-6.379-10.676-9.144-2.545-1.873-5.241-3.78-6.696-6.667m-825.89 286.84c-1.378 1.524-0.743 3.875 0.046 5.537 2.045 2.994 5.912 3.01 9.029 4.074-2.144-6.425-1.516-13.18-0.957-19.789-2.252 3.745-5.415 6.786-8.118 10.178m-68.05 129.84c-0.107 0.59-0.306 1.761-0.414 2.351-1.524-0.077-3.04-0.199-4.541-0.414-1.279 0.452-2.55 0.934-3.814 1.417 1.041 1.202 2.091 2.397 3.147 3.599 3.768-2.604 7.421-5.399 10.545-8.761-1.653 0.559-3.3 1.164-4.923 1.808m-19.108 8.309c0.375 1.47 0.712 2.956 0.98 4.465-1.287-0.436-2.565-0.865-3.86-1.287-0.888 0.314-1.8 0.59-2.711 0.827-2.29 1.478-4.426 3.178-6.617 4.809 1.31 1.915 2.596 3.844 3.768 5.858 7.076-4.074 13.157-9.565 19.697-14.397-1.861-1.049-3.691-2.152-5.445-3.354-1.982 0.927-3.935 1.938-5.812 3.079m-23.342 16.886c1.524 1.876 3.37 3.454 5.292 4.917 2.788-2.55 5.805-4.832 9.006-6.831-2.918-0.996-6.004-1.241-9.006-1.846-1.777 1.233-3.546 2.481-5.292 3.76m-11.893 7.98c-0.153 0.896-0.306 1.8-0.459 2.711-0.567 0.031-1.7 0.107-2.267 0.146 1.432 2.374 2.428 5.008 2.504 7.811-3.155-0.628-6.042-2.083-8.761-3.752-1.96 1.371-4.082 2.872-3.584 5.629 2.979 2.098 5.874 4.335 9.083 6.073 3.033-3.01 6.448-5.636 9.197-8.929 2.818-2.443 2.397-6.525 4.013-9.649-1.846-0.858-3.615-1.892-5.522-2.596-1.508 0.664-2.833 1.652-4.204 2.556m11.013 0.444c0.161 0.965 0.329 1.938 0.498 2.925 0.567-0.804 1.141-1.601 1.715-2.389-0.552-0.13-1.654-0.398-2.213-0.536m5.713 11.051c1.256 1.187 2.818 1.807 4.557 1.593-0.046-1.271-0.069-2.527-0.061-3.783-1.693 0.175-3.034 1.431-4.496 2.19m388.78 647.4c1.149-0.061 1.417-2.121 0.176-2.229-1.079 0.07-1.401 2.099-0.176 2.229m179.5 246.74c-5.588 12.108-15.313 38.4-13.279 51.463 0.735 4.924 3.308 9.335 6.333 13.218 4.266-13.746 5.69-28.121 7.88-42.281 0.766-5.996 2.872-11.702 3.653-17.683-1.478-1.63-3.01-3.2-4.587-4.717z"/>
</svg>
