<?xml version='1.0' encoding='utf-8'?>
<svg xmlns="http://www.w3.org/2000/svg" version="1.1" width="600px" height="976px" viewBox="0 0 600 976"> <g id="layer1"> <g style="fill:rgb(0,0,0); fill-opacity:1.0; stroke-linejoin: miter"> <path d="M364.57422,379.58203L364.76483,380.91638C364.86017,381.67896,364.8125,382.3938,364.66953,382.58435C364.55304,382.70087,364.4484,382.75406,364.35886,382.75406C364.00885,382.75406,363.88937,381.941,364.19296,380.91638L364.57422,379.58203 Z M383.11404,387.4453C383.35013,387.4472,383.2068,387.87543,382.73126,388.39844C382.3297,388.84015,381.9282,389.14648,381.72617,389.14648C381.68842,389.14648,381.65765,389.13577,381.63513,389.11328C381.30197,388.82773,382.49008,387.44867,383.11023,387.4453 Z M340.26953,389.82813C341.175,389.8758,341.22266,389.8758,340.41248,390.35236C339.98358,390.6383,339.69763,391.01953,339.84064,391.30548C340.03125,391.54376,339.79297,391.73438,339.4117,391.73438C338.64923,391.73438,338.36328,390.73364,338.9828,390.16174C339.1258,389.97107,339.7453,389.82813,340.26953,389.82813 Z M329.84586,406.09192C330.28284,406.09192,330.54767,406.20016,330.54767,406.41248C330.54767,406.79376,327.45,407.9375,326.54453,407.9375C325.73438,407.9375,326.40155,406.98438,327.59296,406.60315C328.49142,406.25964,329.30197,406.09192,329.84586,406.09192 Z M319.3961,430.33594C319.77734,430.33594,319.96796,430.5266,319.825,430.8125C319.682,431.05078,319.20544,431.28906,318.82422,431.28906C318.44296,431.28906,318.25232,431.05078,318.39532,430.8125C318.53827,430.5266,319.01483,430.33594,319.3961,430.33594 Z M320.16473,432.03995C320.7738,432.03995,320.85913,432.99695,320.2539,434.4344C319.8837,435.33347,319.80695,435.8804,319.98294,436.0182L319.97974,436.0182Q319.3586,436.549,318.71313,437.0781Q317.68445,437.9307,316.46033,438.84055L316.46033,438.84055C316.1201,438.60947,315.85452,438.27393,315.66672,437.84705L315.66354,437.84705Q315.7225,437.25018,315.7709,436.65063Q315.86377,435.68936,315.70813,433.75333Q315.69995,433.6458,315.68915,433.53687L315.686,433.53687C315.92484,432.83185,316.28253,432.71875,317.34686,432.71875C318.20468,432.71875,319.20544,432.52814,319.58673,432.2422C319.8128,432.10458,320.00644,432.03995,320.16473,432.03995 Z M365.2779,425.31424C365.29724,425.31424,365.31686,425.3201,365.33673,425.33203C365.575,425.47498,366.67108,425.61798,367.81482,425.61798C369.3875,425.66565,370.57892,426.18982,373.10468,427.8578C374.86798,429.0492,376.29767,430.193,376.29767,430.3836C376.29767,430.7649,366.95703,439.53357,366.3375,439.77185C366.31906,439.77844,366.30038,439.78168,366.28146,439.78168C365.61572,439.78168,364.6682,435.7706,364.6219,432.48047C364.53052,428.41592,364.8331,425.31424,365.2779,425.31424 Z M247.9931,521.82355C248.06215,521.82355,248.14534,521.91425,248.2453,522.0742C248.5789,522.6461,248.81718,524.6,248.76953,526.8875C248.72186,529.03204,248.48358,531.1766,248.19766,531.65314C248.12036,531.782,248.0539,531.85046,247.99686,531.85046C247.73747,531.85046,247.67343,530.434,247.67343,526.83984C247.67343,523.1115,247.73296,521.82355,247.9931,521.82355 Z M338.48914,342.19635L338.07794,347.48804L338.07794,347.48804L336.65164,348.06454Q335.8073,348.3888,334.9475,348.63565Q330.46286,349.89178,328.54572,350.0062Q326.91153,350.1596,325.9638,350.1596Q325.36325,350.1596,325.03833,350.098Q324.6377,350.047,323.98486,349.8533Q322.27582,349.05634,319.97382,348.5309Q318.65155,348.48935,314.7259,347.58145L312.46948,347.479Q312.45032,347.4786,312.43042,347.4786Q311.64743,347.4786,309.74426,348.11478Q308.87167,348.3242,305.5735,349.9814Q304.96292,350.23886,303.32294,350.576Q301.24646,350.95172,300.74808,350.95172Q300.6065,350.95172,300.5923,350.9214L295.20654,349.7819Q293.8757,350.07605,293.1542,351.23117Q292.21326,352.96182,292.18912,354.5202Q292.06076,355.6587,292.66556,361.15894Q292.7104,363.14447,292.60706,364.0401Q292.47784,365.68005,290.99835,368.4915L289.02182,371.4565L288.3439,372.18536Q286.99283,373.28363,286.32077,373.50833Q284.83298,374.0478,283.34988,374.1302Q283.01178,374.21033,282.758,374.40118Q280.875,376.13718,280.07986,377.91132Q279.89148,378.4908,280.5301,379.2261L284.12643,383.1669L285.1813,384.1036Q287.22342,385.71964,288.02283,385.73407Q288.61752,385.84808,289.28293,385.84808Q290.7334,385.84808,292.5198,385.30637L297.98242,383.66885L301.6668,382.30463Q302.1169,382.17432,304.22867,380.871Q306.2296,380.16614,306.4208,379.9365L309.5906,377.19717Q309.91498,376.9235,310.25174,376.74432Q312.66653,375.8747,314.12756,375.8747Q314.24817,375.8747,314.3623,375.8806Q316.1491,376.5106,318.13254,378.005Q318.33282,378.13733,318.60706,378.4433Q319.68488,380.09332,320.23663,380.5086Q320.89337,381.10208,322.47873,381.82602L324.48367,382.31693L326.07977,382.4306Q328.97162,383.0241,329.92432,383.0241Q329.93796,383.0241,329.95117,383.024L332.39124,383.57385Q333.3597,383.74188,333.90524,383.81293L333.90192,383.81293C334.16858,384.37564,334.56216,384.9926,334.932,385.39612C334.99936,385.46722,335.06174,385.53598,335.11932,385.60397L335.116,385.60397L334.43335,394.3885L334.43335,394.3885C333.41864,394.2981,331.519,393.00232,331.3578,392.1156C331.26447,391.57898,331.21683,391.30508,331.18692,391.30508C331.15576,391.30508,331.14383,391.6028,331.1195,392.21094C331.02423,393.73596,331.40546,394.30786,333.3117,395.261C333.68893,395.46066,334.0455,395.69135,334.31885,395.90494L334.31552,395.90494L334.22354,397.08856L334.22018,397.08856C333.83524,397.23422,333.3026,397.3187,332.7177,397.3187C332.28033,397.3187,331.81372,397.27145,331.3578,397.16724L329.83282,396.83362L331.02423,397.83435L332.21564,398.8352L329.59454,398.8828L326.97345,398.93048L328.1172,399.83594C328.7367,400.36017,329.54688,400.78906,329.88046,400.78906C330.45233,400.78906,330.40466,401.02734,329.7375,402.02814C329.2514,402.80014,329.05695,403.10895,329.20566,403.10895C329.30478,403.10895,329.5564,402.9717,329.97577,402.74298C330.46887,402.4775,331.02234,402.33273,331.3959,402.33273C331.4917,402.33273,331.57565,402.34225,331.64374,402.3617C331.97736,402.45703,331.5008,402.886,330.64294,403.36255C329.9655,403.7148,329.48837,403.88217,329.06262,403.88217C328.7396,403.88217,328.44614,403.78583,328.1172,403.60083C327.76083,403.432,327.53735,403.33704,327.4148,403.33618L327.4115,403.33618C327.22647,403.33746,327.27762,403.56018,327.45,404.0774C327.6883,404.83984,327.35468,405.41174,326.06796,406.55548C325.11484,407.3656,324.4953,408.27112,324.63828,408.5094C324.78125,408.72382,325.46033,408.83105,326.33374,408.83105C326.6249,408.83105,326.93765,408.81912,327.25937,408.7953C327.96765,408.7166,328.60373,408.68124,329.0325,408.68124C329.38266,408.68124,329.59454,408.70483,329.59454,408.74768C329.59454,408.84302,328.92734,409.31958,328.06952,409.84375L326.54453,410.74927L327.73593,411.22583C328.8797,411.7024,328.8797,411.7024,327.45,411.7024C327.40082,411.70547,327.34964,411.70694,327.29672,411.70694C326.5298,411.70694,325.4023,411.39487,324.73358,411.08282C324.1826,410.7999,323.7712,410.6705,323.5125,410.66998L323.50928,410.66998C322.94397,410.67114,323.11523,411.29315,324.1617,412.27423C325.2578,413.27502,325.2578,413.41797,324.4953,413.70392C324.01874,413.89453,322.875,414.0852,321.96954,414.0852C320.20624,414.1328,318.15704,415.22888,318.15704,416.1344C318.15704,416.28934,318.20844,416.36203,318.30646,416.36203C318.4195,416.36203,318.5945,416.26538,318.82422,416.08673C319.20544,415.75317,320.6828,415.41956,322.06482,415.2766C323.44687,415.1336,324.87656,414.943,325.21014,414.84766C325.34357,414.79578,325.45163,414.77155,325.53506,414.77124L325.5383,414.77124C325.98657,414.77292,325.71213,415.4744,324.82892,416.27734C324.3047,416.7539,323.6375,417.84998,323.3039,418.7555C322.86282,419.93173,322.67688,420.25742,321.95895,420.25742C321.74603,420.25742,321.48636,420.2288,321.15936,420.18518C320.80896,420.12537,320.51834,420.09772,320.28833,420.0976L320.28513,420.0976C319.23608,420.09818,319.4536,420.67334,321.01642,421.3766C321.82654,421.7102,322.4461,422.28204,322.4461,422.66333C322.4461,423.04456,321.4453,424.28357,320.20624,425.47498C318.66995,426.90155,318.2286,427.34546,318.64514,427.34546C318.7713,427.34546,318.97617,427.30475,319.2531,427.23828C319.48865,427.17462,319.69275,427.1458,319.86536,427.14566L319.86856,427.14566C320.98456,427.1468,320.77942,428.34796,319.2531,429.0492C318.4906,429.3352,317.82343,429.76404,317.68048,429.90704C317.53748,430.09766,317.01328,430.33594,316.48907,430.43127C316.4397,430.43832,316.39087,430.442,316.34232,430.442C315.73465,430.442,315.17242,429.86835,314.20154,428.1914C313.80176,427.44516,313.4616,426.92252,313.26443,426.69843L313.2613,426.69843Q313.0411,426.29373,312.80127,425.87814Q312.02606,424.60394,311.31012,423.95285L308.3255,422.3141Q307.52487,421.77362,306.51123,420.52316Q306.50687,420.52466,306.502,420.52466Q306.28052,420.52466,305.03006,417.4258L305.0331,417.4258C305.09146,417.44818,305.15,417.4593,305.20807,417.4593C305.5143,417.4593,305.8088,417.15097,306.0047,416.5633C306.24054,415.78827,305.4996,414.60825,304.6915,414.11816L304.68845,414.11816Q305.1348,414.0437,305.65482,413.93958Q306.76636,413.72025,307.33078,413.3772Q307.6842,413.1504,308.13144,412.78946L308.12836,412.78946C309.44742,412.26907,310.53204,411.2996,310.53204,410.511C310.53204,410.29385,310.44162,410.0877,310.27853,409.9004L310.27542,409.9004Q310.30054,409.58524,310.26776,409.25015L310.20422,407.60666L309.88037,403.93857L309.77032,403.0417Q309.74255,402.7817,309.55835,402.08762Q309.49783,401.5263,309.4304,401.2181L309.18472,400.19885L309.1816,400.19885C309.8853,399.8181,309.61172,398.57806,308.53046,397.97736C308.45337,397.9378,308.37723,397.89984,308.30215,397.8634L308.29907,397.8634Q308.214,397.76578,308.11404,397.65564Q307.76633,397.23328,307.5601,397.19333L307.26346,397.1173L307.2604,397.1173Q307.04453,394.86758,306.9782,394.6154L306.5004,392.69247Q306.5509,392.62045,305.68704,390.98584Q305.5408,390.7618,305.30188,390.72363L305.27094,390.71802Q305.01273,390.70703,304.76797,390.70703Q303.6416,390.70703,302.80063,390.93985Q300.15793,391.64655,298.63553,392.2954L296.76764,392.78397L295.63922,393.28992L294.0866,393.8412Q293.63226,394.01352,293.32513,394.24548L292.12552,395.2696Q291.57266,395.7366,291.3127,396.30115Q291.14194,396.6627,291.09592,396.9997L290.8579,399.30643Q290.8664,399.51477,290.90842,399.6861L291.24298,401.06674L291.39606,402.42484L291.61917,403.31384Q291.61722,403.48804,291.9101,404.1158L291.90717,404.1158L291.89966,404.1276Q291.74463,404.28284,291.52063,405.46835L291.35803,408.62677Q290.9101,411.02225,290.89447,412.1237L290.89157,412.1237C290.6202,412.2028,290.39905,412.24423,290.25638,412.24423C289.98013,412.24423,289.9983,412.08878,290.51642,411.75C291.02747,411.40933,290.97714,411.2494,290.59506,411.249L290.59216,411.249C290.118,411.2495,289.13828,411.4934,288.08594,411.94067L286.46564,412.6078L288.7531,412.9414C289.54294,413.06296,290.29404,413.24255,290.77188,413.41852L290.76898,413.41852Q289.70123,413.90872,287.58945,415.26373Q286.40286,416.10034,285.98184,416.7921L284.4386,419.83423L283.0598,422.01556Q282.48367,424.84238,282.4892,427.2801Q282.47784,428.54047,283.65707,432.50894Q283.74857,432.8703,284.12875,433.5479L284.21985,433.70126L284.217,433.70126C285.05905,437.40912,286.42117,441.15,287.51404,442.34534C287.54837,442.38397,287.58118,442.42117,287.61243,442.45706L287.60956,442.45706Q287.30658,444.0702,286.89557,445.56372L286.8927,445.56372C286.33997,446.52554,285.60828,447.88754,284.98828,449.16016C284.03516,450.97107,283.17734,452.59143,283.03436,452.73438C283.02625,452.7425,283.01468,452.74646,282.99994,452.74646C282.84164,452.74646,282.31848,452.2882,281.79532,451.59064C281.1711,450.8307,280.90237,450.50354,280.4522,450.50354C280.1119,450.50354,279.6679,450.6905,278.88828,451.0188C278.29807,451.26587,277.86203,451.3706,277.58813,451.3706C276.9111,451.3706,277.2249,450.73053,278.65,450.01794C279.69754,449.4466,279.69843,449.39853,278.79526,449.39844L278.79245,449.39844C277.79175,449.39883,276.50522,450.5902,275.12344,452.8297C274.69452,453.4969,273.83673,454.16406,273.26483,454.2594C270.7867,454.59302,271.93048,458.9297,275.40936,462.59924L277.74454,465.07736L276.41016,465.36328C273.36017,465.98282,271.16797,466.69766,270.5008,467.2219C270.11954,467.55548,268.26093,468.69922,266.40234,469.79532C260.6836,473.13126,255.63202,478.46875,253.58281,483.37735C253.1539,484.47345,252.43906,485.09296,251.10468,485.56952C246.7203,487.1422,241.47812,492.8133,237.23672,500.5336C234.56796,505.39453,232.80469,510.06485,229.94531,520.07263C227.4672,528.84143,225.03671,533.4164,220.93828,537.2289C219.22266,538.7539,217.36406,540.27893,216.79218,540.5648C216.17265,540.85077,215.69609,541.23206,215.69609,541.47034C215.69609,541.60675,215.81203,541.676,216.04825,541.676C216.47221,541.676,217.28365,541.4528,218.50781,540.9938C218.63649,540.95087,218.73943,540.92944,218.81406,540.92944C218.98817,540.92944,219.0082,541.0462,218.8414,541.27966C218.59853,541.68445,218.59221,541.8747,218.77383,541.8747C219.1268,541.8747,220.18954,541.15625,221.60547,539.89764C222.66699,538.9635,223.5772,538.2942,223.76303,538.2942C223.78577,538.2942,223.79765,538.30426,223.79765,538.325C223.79765,538.5156,222.79688,539.80237,221.60547,541.23206C219.03203,544.2344,214.21875,548.2375,210.16797,550.71564C208.70316,551.59454,208.13348,552.0365,208.44891,552.0365C208.8005,552.0365,210.25188,551.4873,212.78906,550.382C214.26134,549.72473,215.00842,549.4156,215.21434,549.4145L215.2165,549.4145C215.38004,549.41534,215.1897,549.61786,214.74297,550.0008C214.11282,550.5197,213.91515,550.7792,214.10507,550.7792C214.15932,550.7792,214.24522,550.758,214.36171,550.71564C214.67259,550.6232,214.89607,550.5782,215.0358,550.57794L215.03795,550.57794C215.68607,550.57904,214.51073,551.55536,211.88359,553.2414C210.025,554.38513,208.54765,555.3859,208.54765,555.48126C208.54765,555.52515,208.59258,555.54596,208.67735,555.54596C209.88171,555.54596,219.12788,551.3497,221.84375,549.52423C225.41357,547.11566,228.01299,545.5611,228.48592,545.5611C228.537,545.5611,228.56328,545.5792,228.56328,545.6164C228.56328,546.09296,225.84686,548.90466,224.1789,550.14374C223.52336,550.6354,223.29616,550.81146,223.49724,550.81146C223.58853,550.81146,223.7681,550.77515,224.03593,550.71564C227.32422,549.90546,229.13516,548.90466,232.42343,545.9977C234.47266,544.2344,236.3789,542.8047,236.61719,542.8047C236.90312,542.8047,237.37968,542.3281,237.66562,541.7086C238.4233,540.3195,240.0361,538.41,240.40231,538.41C240.45071,538.41,240.47734,538.4433,240.47734,538.5156C240.47734,539.9453,237.8086,543.71014,235.42578,545.6164C234.04375,546.8078,232.9953,547.85626,233.09062,547.95154C233.10965,547.9706,233.14043,547.97974,233.18199,547.97974C233.97336,547.97974,238.67574,544.65393,240.66797,542.66174C241.85938,541.42267,243.38437,539.03986,244.52812,536.51404C245.57602,534.2278,246.57628,532.36993,246.72008,532.3204L246.72255,532.3204C247.05132,532.3431,246.48085,537.37555,245.95781,538.9922C245.79404,539.56537,245.77097,539.92755,245.85837,539.92755C245.87271,539.92755,245.89001,539.9178,245.91016,539.89764C246.10077,539.70703,246.5297,538.46796,246.91093,537.08594C247.29218,535.7039,247.91171,534.22656,248.34062,533.75C250.29453,531.60547,250.72343,524.1234,249.10312,520.07263C248.5789,518.6906,247.7211,515.9266,247.19687,513.8773C245.00468,505.20392,245.95781,495.38672,249.3414,492.2414L250.58047,491.09766L250.15155,493.95703C249.96094,495.5297,249.77031,499.38983,249.77031,502.53516C249.77031,508.87344,250.38983,510.97034,253.34453,514.73517C255.63202,517.59454,260.7789,519.9297,265.54453,520.2633C270.5961,520.64453,271.1203,520.9305,270.88202,523.40857C270.73907,524.5047,270.40546,526.3633,270.11954,527.5547C269.8336,528.7461,269.3094,531.1289,268.88046,532.8922C268.4039,535.08435,267.45078,537.1336,265.97345,539.3734C263.01874,543.8055,262.82813,545.28284,264.82968,549.0C265.97345,551.14453,267.78436,553.2414,271.6922,556.8633C275.31406,560.2469,277.4586,562.67737,278.60236,564.72656C281.46173,569.6828,281.7,569.96875,284.22577,569.96875C287.08514,569.96875,287.4664,570.2547,287.89532,572.6852C288.51483,576.6406,291.85077,578.97577,296.75937,579.02344C301.47736,579.02344,302.0492,577.26013,298.76093,572.97107C297.85547,571.77966,296.90234,570.30237,296.6164,569.6828C296.33044,569.0633,295.37732,568.3008,294.51953,567.96716C293.6617,567.6813,292.8039,567.0617,292.66095,566.6805C291.89844,564.72656,289.182,561.34296,287.75232,560.6758C285.6078,559.6273,277.83984,552.5742,276.17188,550.09607C275.12344,548.6188,274.78986,547.5703,274.78986,545.8547C274.78986,543.8055,275.17108,543.04297,278.2211,538.5633C284.05832,529.9242,291.77164,520.919,293.24533,520.919C293.27557,520.919,293.3032,520.9228,293.32813,520.9305C293.61407,521.02576,292.7086,522.7414,291.32654,524.6953C289.8492,526.7445,288.18124,529.88983,287.3711,532.08203C286.22736,535.22736,285.46484,536.41876,282.79608,539.27814C281.0328,541.1367,279.22186,543.47186,278.84064,544.425C278.1258,546.09296,278.1258,546.33124,279.07892,548.3328C280.175,550.525,282.65314,552.8125,287.65704,556.14844C292.85156,559.6273,294.32892,560.96173,295.32968,563.10626C296.15982,564.80426,297.01984,565.606,298.14633,565.606C298.44254,565.606,298.75717,565.55054,299.09454,565.4414C299.28516,565.37787,299.49167,565.34875,299.70346,565.34875C300.76248,565.34875,301.95392,566.07684,301.95392,566.8711C301.95392,567.2523,302.3828,567.77655,302.90704,568.0625C303.43124,568.34845,303.86017,568.8727,303.86017,569.20624C303.86017,569.96875,305.57578,571.5414,307.4344,572.4945C308.9249,573.2172,310.67227,573.576,312.215,573.576C313.9277,573.576,315.38818,573.1338,315.96484,572.2562C316.5367,571.3031,315.25,568.11017,313.58203,566.58514C312.9625,566.0133,312.4383,565.2508,312.4383,564.9172C312.4383,563.5828,307.4344,559.96094,301.8109,557.1969C295.04376,553.90857,290.99298,550.525,290.99298,548.1898C290.99298,547.475,290.7547,545.9977,290.46875,544.9969L289.94452,543.1383L294.5672,538.8016C297.33124,536.22815,301.47736,533.03516,304.8133,530.8906C311.5328,526.60156,313.10547,525.2672,315.96484,521.3117C318.72888,517.5469,319.34845,515.4977,318.58594,512.54297C318.3,511.35156,318.15704,510.2555,318.3,510.06485C318.35638,510.00845,318.6278,509.98172,319.04114,509.98172C319.67566,509.98172,320.64468,510.04474,321.6836,510.16016L324.78125,510.49377L324.59064,512.44763C323.92343,518.1664,320.0633,561.3906,319.9203,564.25C319.85562,565.8027,320.18616,566.6089,320.8672,566.6089C321.18948,566.6089,321.59027,566.42834,322.06482,566.0609C322.6844,565.53674,323.0656,562.8203,324.0664,551.8594C326.92578,519.882,327.73593,511.54218,327.8789,511.0656C328.02185,510.7797,330.16638,510.4461,333.26404,510.2555C336.1234,510.1125,339.9359,509.54065,341.84216,508.96875C343.7484,508.44452,345.75,508.01563,346.27423,508.01563C347.32263,508.01563,352.70782,505.4422,353.13672,504.72736C353.4257,504.27786,358.40887,503.9365,362.44595,503.9365C364.4009,503.9365,366.134,504.01654,367.0047,504.20313C368.33905,504.48907,372.91406,504.8703,377.2508,505.10858C388.6883,505.7758,388.45,505.4422,381.73047,511.39923L376.15466,516.35547L371.48438,516.35547C367.4336,516.35547,366.76642,516.26013,366.57578,515.4977C366.48047,515.0211,365.90857,514.6875,365.2414,514.6875C364.66953,514.6875,363.7164,514.3539,363.23984,513.97266C362.63354,513.5107,361.81732,513.29364,360.89322,513.29364C358.76663,513.29364,356.06863,514.4432,354.04218,516.40314C351.1828,519.1195,351.23047,520.4539,354.28046,521.7406C355.51953,522.26483,357.90234,522.83673,359.5703,522.9797C361.3336,523.1703,363.66876,523.8375,365.05078,524.55237C366.3401,525.212,367.02573,525.4943,367.6774,525.4943C368.0615,525.4943,368.4338,525.39624,368.91095,525.21954C369.72107,524.9336,371.10312,524.6953,371.96094,524.6953C374.4867,524.6953,376.72656,523.40857,380.53906,519.78674C385.87656,514.63983,388.73593,512.54297,392.5008,511.11328C394.35938,510.39844,396.075,509.4453,396.3133,508.96875C397.98126,505.82343,395.3125,501.01016,390.59454,498.62735L388.92657,497.8172L391.5953,497.43594C393.07263,497.2453,395.4078,496.67346,396.8375,496.14923C398.53342,495.4874,399.76257,495.1487,400.74316,495.1487C402.02213,495.1487,402.87817,495.72485,403.7953,496.91174C405.84454,499.53284,405.84454,499.58047,406.5594,504.0125C407.22656,507.96796,407.22656,508.1586,406.22577,509.49298C405.36798,510.63672,405.27264,511.01797,405.79688,512.1141C406.08282,512.8289,406.1781,513.59143,405.93982,513.925C405.70154,514.21094,405.51093,515.5453,405.46326,516.8797C405.41562,518.7383,405.60626,519.64374,406.36874,520.59686C407.70313,522.26483,410.6578,523.7422,412.70703,523.7422C414.13672,523.7422,414.47028,523.5516,414.70856,522.5031C414.89923,521.83594,414.85156,519.9297,414.66095,518.35706C414.47028,516.7367,414.32733,514.2586,414.375,512.8766C414.47028,510.16016,413.6125,507.15784,410.84845,500.6289C409.94296,498.53204,409.08514,495.625,408.89453,494.1953C408.51328,491.193,407.65546,489.1914,406.5594,488.7625C406.13046,488.61954,404.9867,488.47656,404.03357,488.47656C403.08044,488.47656,398.9344,487.95233,394.8836,487.28516C388.31946,486.2243,383.32358,485.69385,380.23282,485.69385C378.88065,485.69385,377.8931,485.79538,377.29843,485.99844C376.8022,486.18225,376.4477,486.28098,376.15295,486.28098C375.6835,486.28098,375.36566,486.0305,374.86798,485.47424C374.29608,484.90234,374.01013,484.13983,374.20078,483.71094C376.39294,478.08752,376.91718,475.65704,376.96484,470.3672C377.0125,464.31485,376.01172,460.26404,373.58124,456.68982C372.91406,455.6891,372.05624,454.02112,371.675,452.97266C371.3414,451.9242,370.72186,450.6375,370.34064,450.06567C370.00702,449.54138,369.0539,447.44458,368.29138,445.443L366.90936,441.86877L372.29453,436.48364L377.6797,431.09845L379.4906,432.33752C380.4914,432.95703,381.8734,433.86255,382.58826,434.29138C383.3031,434.72034,384.44687,436.0547,385.11407,437.1985C385.82892,438.3899,386.78204,439.48596,387.30624,439.6289C387.57538,439.7186,387.9263,439.75818,388.3056,439.75818C389.53836,439.75818,391.0711,439.34018,391.0711,438.86646C391.0711,438.62817,391.5,438.4375,392.02423,438.4375C392.54843,438.4375,393.26328,437.8656,393.64453,437.10315C394.02576,436.3883,395.1219,435.1969,396.075,434.4344C397.79062,433.09998,397.83826,433.05237,397.64764,430.14532C397.5047,427.38123,397.40936,427.19067,395.83673,426.4281C395.2781,426.14883,394.53012,425.92365,393.6864,425.7742L393.68246,425.7742Q393.57538,425.13254,393.2777,423.96323Q392.71347,422.5831,391.31424,420.11987L389.1999,415.73355L388.2989,413.67767Q387.6085,411.84128,387.31784,409.62204L386.57468,407.32224L385.92996,404.79422L385.70032,404.26456L385.23584,401.56055Q385.21396,401.39612,385.00797,400.95486Q384.74655,400.162,382.9991,397.3744L382.9953,397.3744C383.35556,397.35968,383.72388,397.35168,384.09106,397.35168C384.27386,397.35168,384.4564,397.35367,384.6375,397.3578C388.0211,397.3578,388.16406,397.31018,385.97186,397.02423C383.54138,396.73828,381.53986,395.49927,381.53986,394.26013C381.53986,393.84317,382.30994,393.6282,383.16785,393.6282C383.9768,393.6282,384.86383,393.81934,385.25702,394.21252C385.47147,394.42697,385.65018,394.53418,385.8289,394.53418C386.0076,394.53418,386.1863,394.42697,386.40076,394.21252C386.87732,393.73596,386.63904,393.49768,385.44763,393.06873C384.4945,392.6875,384.01794,392.21094,384.16095,391.8297C384.27905,391.53445,384.2325,391.40384,383.98737,391.40384C383.83682,391.40384,383.61136,391.4531,383.3031,391.54376L382.2547,391.8297L383.35077,390.6859C384.0656,389.8758,384.39923,388.92267,384.39923,387.636C384.39923,386.78992,384.2751,386.25418,384.12698,386.25418C384.09155,386.25418,384.05475,386.28485,384.01794,386.34924C383.81116,386.67093,383.22766,386.82642,382.67883,386.82642C382.08936,386.82642,381.53986,386.64706,381.53986,386.30157C381.53986,386.0633,381.92108,385.44373,382.39764,384.91956C382.8845,384.3414,383.0605,384.1324,382.82645,384.13126L382.8226,384.13126C382.68884,384.1319,382.42596,384.19763,382.01642,384.30005C381.70496,384.3813,381.48587,384.43173,381.36676,384.43173C381.06665,384.43173,381.40128,384.11148,382.49298,383.15625C383.55786,382.2315,383.9471,381.76813,383.6511,381.76614L383.64725,381.76614C383.437,381.76755,382.8945,381.9926,382.01642,382.4414C381.40588,382.74667,381.05606,382.9216,380.85562,382.9216C380.58673,382.9216,380.58673,382.60675,380.58673,381.8695C380.58673,381.24203,380.53052,380.95178,380.40634,380.95178C380.3325,380.95178,380.2346,381.0545,380.11017,381.25C379.9613,381.5052,379.8504,381.63702,379.7478,381.63702C379.6205,381.63702,379.506,381.434,379.34766,381.01172C378.824,379.63126,376.5886,376.49142,376.10864,376.48438L376.10486,376.48438C375.8699,376.48697,376.0607,376.91476,376.48828,377.3899C377.39374,378.39063,377.39374,381.77423,376.48828,382.06018C376.4521,382.07224,376.4154,382.07806,376.37842,382.07806C375.6847,382.07806,374.88004,380.02664,375.10626,378.53357C375.1967,377.90054,375.24423,377.5678,375.18777,377.56088L375.18402,377.56088C375.11786,377.56842,374.92743,377.9612,374.53436,378.77185C374.1068,379.58426,373.60254,380.1281,373.22803,380.1281C373.18512,380.1281,373.1439,380.12097,373.10468,380.10626C373.03232,380.07913,372.96512,380.0657,372.90372,380.0657C372.6416,380.0657,372.48517,380.3101,372.48517,380.77344C372.48517,381.26117,372.27893,381.66635,372.01993,381.72043L372.01993,381.72043L371.72656,381.3066L371.68738,381.25137Q371.6649,381.28235,371.6426,381.3134L371.6426,381.3134C371.54886,380.9521,371.52487,380.3697,371.57968,379.6297C371.68738,378.4666,371.59064,377.90707,371.3643,377.90707C371.0898,377.90707,370.6247,378.72983,370.10236,380.29688C369.62704,381.72275,369.21738,382.45972,368.95993,382.45972C368.7785,382.45972,368.67267,382.09387,368.67267,381.34534C368.67267,380.58282,369.10156,379.39142,369.67343,378.67657C370.1965,378.01083,370.43488,377.43997,370.15182,377.4375L370.14813,377.4375C369.8614,377.43997,369.2436,378.01096,368.8156,378.72424L367.95782,380.011L367.67188,378.6289L367.33826,377.19922L367.29062,378.8672L367.1953,380.53516L365.76563,378.72424C364.80347,377.56964,363.79373,376.89075,363.35843,376.88885L363.3548,376.88885C363.03906,376.89023,363.03104,377.25345,363.57343,378.057C364.19296,379.05786,364.19296,379.2484,363.28748,380.29688L362.33435,381.48828L362.6203,380.0586C362.72784,379.44913,362.78146,379.10938,362.74057,379.1002L362.73694,379.1002C362.72302,379.10297,362.7004,379.13596,362.66797,379.2008C362.4879,379.60593,362.2228,379.79846,361.99313,379.79846C361.73657,379.79846,361.52423,379.55814,361.52423,379.10547C361.52423,378.15283,359.42947,376.00998,358.52322,376.0078L358.51965,376.0078C357.95,376.00867,357.95087,376.34387,358.6172,378.24768C359.18906,379.96326,359.2367,380.48755,358.8078,380.6305C358.4742,380.77344,358.1883,381.25,358.1883,381.77423C358.1883,382.2508,357.99765,382.6797,357.71173,382.6797C357.47345,382.6797,357.23517,382.2508,357.23517,381.77423C357.23517,381.25,357.04453,380.6781,356.7586,380.53516C356.71225,380.50735,356.66586,380.49396,356.62128,380.49396C356.4366,380.49396,356.28204,380.72324,356.28204,381.10706C356.28204,381.63123,355.94843,382.4414,355.5672,382.96564C355.24774,383.38336,355.08032,383.5857,354.98657,383.5857C354.8985,383.5857,354.87543,383.40717,354.85236,383.0609C354.85236,382.64908,354.70526,382.4431,354.41107,382.4431C354.3308,382.4431,354.23962,382.45844,354.1375,382.48907C354.00195,382.54453,353.8863,382.5705,353.79025,382.5705C353.14355,382.5705,353.38608,381.39258,354.42343,380.10626C355.37534,378.86877,355.37656,378.8672,354.47455,378.8672L354.471,378.8672C353.8515,378.86722,353.27963,379.39145,352.85077,380.29688C352.44775,381.2104,352.12048,381.65433,351.74942,381.65433C351.46228,381.65433,351.1489,381.38852,350.7539,380.86877C350.50427,380.55676,350.35452,380.38092,350.26108,380.38092C350.1404,380.38092,350.1136,380.67398,350.08673,381.34534L350.08673,382.63208L348.5617,381.77423C347.21976,381.0026,345.5944,380.46713,344.89935,380.46713C344.60706,380.46713,344.47928,380.56183,344.60626,380.77344C344.7492,381.01172,345.08282,381.25,345.36874,381.25C345.98828,381.25,349.1336,383.2992,349.1336,383.72815C349.1336,383.96643,348.8,384.10938,348.32343,384.10938C347.65625,384.10938,347.65625,384.2047,348.41876,385.0625C348.89532,385.58673,349.1336,386.15857,348.94296,386.34924C348.867,386.4252,348.78015,386.46,348.68744,386.46C348.19833,386.46,347.54572,385.49213,347.46564,384.4906C347.42035,383.83414,347.22452,383.51102,346.99054,383.51102C346.73193,383.51102,346.4267,383.9057,346.22656,384.68127L345.9406,385.77734L345.41638,384.58594C345.2133,384.1188,345.08807,383.8594,345.01126,383.8594C344.90787,383.8594,344.89218,384.32962,344.89218,385.39612C344.84454,386.53986,344.6539,387.4453,344.41562,387.4453C344.17734,387.4453,343.3672,386.73047,342.7,385.87268L341.41327,384.34766L341.69922,386.30157C341.98517,388.16016,341.88983,388.3031,340.65076,388.54138C340.25717,388.62012,339.8636,388.65552,339.5575,388.65552C339.30765,388.65552,339.11612,388.63193,339.03046,388.5891C338.95386,388.53165,338.90805,387.9431,338.88992,386.99054L338.8865,386.99054L341.93582,347.7718L341.9324,347.7718Q342.0736,347.14267,342.1973,346.53564L342.22134,346.48825L342.03406,346.50842L342.03406,346.50842L342.3395,342.5797L342.34082,342.49594L338.50348,342.19748L338.48914,342.19635 Z"/> </g> </g> </svg>