<?xml version="1.0" encoding="UTF-8"?>
<!DOCTYPE svg  PUBLIC '-//W3C//DTD SVG 1.1//EN'  'http://www.w3.org/Graphics/SVG/1.1/DTD/svg11.dtd'>
<svg enable-background="new 169.8983 180.5981 1701.1017 1714.2031" version="1.1" viewBox="169.8983 180.5981 1701.1017 1714.2031" xml:space="preserve" xmlns="http://www.w3.org/2000/svg">
<path d="m1823.9 973.48c-3.4526 0.5303-6.3506 0.6476-8.9255 0.3821-0.1963-0.2861-0.3674-0.66-0.5452-1.0583-0.4365-0.9786-0.9824-2.182-2.2549-2.2402-0.2251-0.3651-0.4397-0.7408-0.6582-1.149-0.5886-1.0993-1.2168-2.2132-2.2314-2.9731l0.5371-1.9731-1.3105 0.3256c-0.2876-0.3158-0.6716-0.7374-0.9482-1.0461-0.2424-2.5768-1.4502-4.8593-2.626-7.0665-0.6436-1.209-1.3096-2.4585-1.7832-3.7134l-0.1396-0.3706-0.7739 0.1017 0.1216-1.6735-0.0352-0.0991c-2.4541-6.8833-4.1182-14.142-5.7275-21.162-1.03-4.4929-2.0955-9.1372-3.3564-13.632 0.2124-2.3481 0.4756-4.1525 0.8516-5.8292l0.0225-0.104-1e-3 -0.0057c1.6929-7.1532-1.2983-13.272-4.1943-19.19-1.6396-3.3477-3.334-6.8096-4.1475-10.41l-0.0273-0.1235-0.084-0.0952c-0.4141-0.4736-0.5898-1.2563-0.7607-2.0137-0.2456-1.0901-0.5313-2.3038-1.6116-2.7574l-0.0691-0.3358c-0.4902-2.4022-1.0515-5.1163-2.7793-6.8474-0.166-0.2759-0.2751-0.8079-0.3799-1.325-0.2114-1.042-0.481-2.3168-1.5254-2.4117-3.4541-9.3307-9.4646-17.611-14.338-23.799l-0.2168-0.2764-0.334 0.1113c-1.0518 0.3506-1.8896 1.1636-2.4893 2.4155-1.2412 2.5941-1.166 6.4831-0.3916 8.6627 0.0327 0.7006-0.0916 1.632-0.2246 2.6201-0.3113 2.3002-0.6362 4.8671 0.9001 5.858-0.0594 3.0976-0.0751 5.9283 0.217 8.871-0.672 1.4565-0.2327 3.3749 0.2031 5.2363 0.3525 1.5073 0.7178 3.0654 0.2246 3.7368-0.1082 0.1464-0.2695 0.2527-0.4766 0.3279-0.0552-1.6125-1.4155-2.5427-2.5371-3.3069-0.1926-0.1313-0.3876-0.2702-0.5845-0.4119-0.217-2.2571-2.1851-4.1878-4.1648-4.9136-0.1371-0.775-0.6063-1.6709-1.8486-2.1693-0.2793-2.2831-2.3256-4.231-4.2813-4.8873-0.5896-2.007-2.6628-3.895-4.7551-4.3156-1.6577-2.2977-3.8224-4.0015-6.1398-4.8389-0.369-1.1599-1.7657-1.7677-2.8823-1.9456-0.0707-1.0098-1.0861-1.4962-1.7987-1.8317-0.376-0.1772-0.7646-0.3604-0.9668-0.5645l-0.1289-0.0947c-3.3828-1.7212-6.415-4.1172-9.3486-6.4346-2.8054-2.2166-5.7086-4.5049-8.9282-6.2211-2.0157-2.3666-5.0686-4.5865-8.0175-5.8291-2.9384-2.8904-6.6998-5.0894-10.34-7.215-2.5938-1.5142-5.2754-3.0796-7.6914-4.9229-1.1191-0.5508-2.1729-1.3311-3.1924-2.0859-1.7573-1.3006-3.5757-2.6364-5.8488-2.9329-0.2325-0.2-0.4659-0.4188-0.7059-0.6497-0.8629-0.8304-1.8391-1.7561-3.1084-1.8455-0.4835-0.3062-0.9725-0.6255-1.4717-0.9514-3.1746-2.0775-6.7961-4.4371-10.629-4.2899l0.0461-0.7413-0.3164-0.1416c-1.3018-0.5811-2.6074-1.2803-3.8691-1.9561-2.7828-1.4897-5.6598-3.0232-8.8275-3.5117-1.2419-1.2286-2.6532-1.9088-3.9928-1.9088-4e-3 0-0.0077 3e-4 -0.0117 3e-4 -0.4741-1.8081-2.67-2.5113-4.6455-3.1253-0.9116-0.2829-1.7711-0.552-2.3586-0.8948-1.8352-1.8711-4.5386-2.8158-6.9304-3.6472-0.347-0.1209-0.6871-0.2397-1.0204-0.3591-2.1605-2.0558-5.4344-3.6821-9.0211-4.4745l-1.7437-0.786c-13.108-5.9185-26.662-12.034-41.239-13.638l-0.9592-0.7869-0.1326 0.0032c-1.3181-0.2565-2.6362-0.5189-3.9553-0.7815-8.3898-1.6703-17.061-3.387-25.797-3.5017l-0.0198-0.9788-0.4727-0.0161c-2.002-0.0698-4.127-0.1025-6.6865-0.1025-1.9063 0-3.8096 0.0181-5.71 0.0361-1.8887 0.0181-3.7734 0.0356-5.6514 0.0356h-0.5947l0.1033 0.5908c-0.2732-0.1025-0.5613-0.2112-0.823-0.3101l-0.2092-0.0787 0.1506-1.1591-0.5566-0.0127c-5.3408-0.1191-10.737-0.1289-16.04-0.0303l-0.4951 0.0093 0.0095 0.9355c-5.0894-0.1096-10.174 0.6833-15.092 1.4604-1.751 0.2769-3.501 0.5532-5.249 0.7896l-0.1777 0.0244-0.8552 0.9868c-20.124 1.9928-40.094 7.6536-59.408 13.13l-2.9016 0.8224c3.9399-4.6019 7.699-9.4435 11.334-14.143 3.4785-4.498 7.0762-9.1494 10.845-13.589 1.251-1.7954 2.7744-3.4702 4.248-5.0903 2.318-2.5465 4.7083-5.1814 6.1841-8.4377 4.379-4.061 8.1096-8.8732 11.717-13.529 2.884-3.7222 5.8679-7.5664 9.1606-11 1.7185-0.1971 3.4956-0.2341 5.2183-0.2667 2.4103-0.0458 4.9004-0.103 7.406-0.6125 0.9572 0.4036 2.5391 0.8499 4.0598 0.8499 1.8838 0 2.7605-0.6918 3.1683-1.3806 0.8624-0.0017 1.7465 0.0864 2.608 0.1868 1.3661 0.1592 2.864 0.2664 4.0708 0.0964 0.623 0.8073 1.8077 0.9143 2.689 0.9143 0.7676 0 1.6318-0.0884 2.4678-0.1743 1.4851-0.1521 3.0151-0.2537 3.8019 0.0015 0.7682 0.5745 1.7806 0.8745 3.0272 0.8745 2.4646 0 5.5692-1.2 7.4507-2.8665 3.2611-1.1914 6.6235-2.5704 9.0281-5.0002l2.24-0.0996-0.2223-0.7714c1.0414-0.4321 2.016-0.9852 2.9576-1.5299 1.8496-1.0688 3.5967-2.0781 5.7139-2.0781 0.5928 0 1.1863 0.0935 1.7971 0.2523l0.0134 0.0685 0.3315 0.014 0.7329 0.2189-0.0369-0.1866c0.6331 0.0314 1.4185 0.0736 1.9758 0.1041l0.0093 0.0176 0.2925-1e-3 0.8628 0.0483-0.027-0.0508c1.295-0.0033 2.9524-0.0054 4.6168-0.0073 2.0391-0.0024 4.0791-0.0049 5.4385-0.0098l0.498-2e-3v-0.8728c0.2727 0.0426 0.5336 0.071 0.7686 0.071 1.2144 0 1.7975-0.5549 2.0803-1.136 1.3411 0.0581 2.6128-0.3588 3.6316-1.1732 0.1584 0.0099 0.3169 0.0211 0.4736 0.0211 1.6533 0 3.2061-0.5337 4.707-1.0503 1.5156-0.521 2.9473-1.0132 4.4873-1.0132l0.7207 0.0215 0.0938-0.908c3.0725-0.1224 6.0444-0.9778 8.9219-1.8152 1.7617-0.5127 3.584-1.043 5.3994-1.3921l0.0042-7e-4c6.6382-1.0037 13.286-2.5935 19.714-4.1316 5.7148-1.3672 11.623-2.7808 17.501-3.7759l0.3867-0.0654 0.0433-0.7961c0.6537-0.061 1.3419-0.1138 2.0651-0.1658 3.946-0.2837 8.3942-0.6167 10.744-2.8582l1.5427-0.2014c5.0852-0.6567 10.842-1.4045 15.37-3.6935 7.7926-1.1515 15.529-3.3043 23.011-5.3871 6.4453-1.7944 13.109-3.6499 19.772-4.8535l0.3213-0.0581 0.2158-0.9004c0.6127-0.1461 1.366-0.2156 2.167-0.2837 1.9067-0.1614 3.8594-0.3433 4.6488-1.6566 7.0366-0.916 12.921-2.2838 17.494-4.0687 0.311 0.0337 0.6245 0.0583 0.936 0.0583 3.2559 0 6.0117-1.8164 8.6777-3.5732 0.9004-0.5933 1.751-1.1538 2.6914-1.6968 0.8145-0.6841 1.8818-1.1528 3.0127-1.6489 1.7725-0.7781 3.5903-1.5933 4.4673-3.3224 2.6323-0.184 6.5726-2.1886 6.9741-5.0726l0.0732-0.5239-0.5273-0.0435c-0.6484-0.0527-1.3203-0.0796-1.998-0.0796-3.6133 0-7.1719 0.7554-10.613 1.4858-2.2314 0.4741-4.5381 0.9639-6.8193 1.2358l-0.1689 0.0518c-0.9277 0.4771-2.3076 0.5557-3.6416 0.6323-1.9946 0.1139-4.0425 0.2471-5.1538 1.6311-0.363 0.0308-0.8552 0.0691-1.2544 0.098l-0.0479-0.1051-0.3684 0.1343-0.6501 0.0439 0.0701 0.1539c-5.4213 1.9406-11.104 3.3861-16.609 4.7758-4.8816 1.2321-9.9264 2.5074-14.778 4.1328-3.0245-0.1565-5.7556-1.7883-8.5741-5.1193l-0.0135-0.4315-0.0642 0.0154c-0.0408-0.2771-0.083-0.5492-0.1213-0.8357-0.2574-1.908-0.5547-4.0579-1.7615-5.5383-0.1785-2.0176-0.418-4.0459-0.6506-6.0085-0.2256-1.9092-0.46-3.8833-0.6348-5.8296l-0.0498-0.5537-0.2427 0.0481c0.5115-1.0951 0.176-2.3196-0.1392-3.4373-0.1982-0.7036-0.3857-1.3687-0.3799-2.0415-0.1895-1.9077-0.3896-3.814-0.5898-5.7192-0.6692-6.3707-1.3606-12.958-1.6324-19.456 0.4086-1.1926 0.4365-2.0095 0.069-2.5466-0.1218-0.1785-0.3374-0.3783-0.6833-0.4904 0.187-3.4691-0.241-6.9125-0.6614-10.247-0.3018-2.3887-0.6133-4.8584-0.6895-7.2974 0.0081-0.0557 0.0054-0.115 0.0125-0.1711 0.0349-0.2791 0.0544-0.5669 0.0624-0.8616 0.0037-0.1449 0.0028-0.2902-4e-4 -0.437-0.0056-0.2777-0.0239-0.5627-0.0552-0.855-0.0071-0.0653-0.0039-0.1283-0.0125-0.1938l-0.0045 2e-4c-0.0021-0.0166-0.0021-0.032-0.0043-0.0486-0.9502-4.1084-0.873-8.4761-0.7988-12.7 0.0117-0.6523 0.0234-1.3027 0.0313-1.9517l0.0059-0.501-0.9805-0.0098c0.0452-2.5284 0.0321-5.085 0.0156-7.564-0.0134-1.9418-0.0255-3.8816-0.0105-5.8162 0.2677-0.4969 0.7102-1.3303 0.9484-1.7871 1.9391-2.2256 2.1857-5.7 2.4186-9.0657 0.106-1.5317 0.2065-2.9786 0.4602-4.2686 0.2097-0.7524 0.459-1.5404 0.7166-2.3516 1.3516-4.2705 2.8838-9.1104 0.1377-12.81l-0.1152-0.1558-0.1895-0.0371c-0.3994-0.0781-0.8018-0.1177-1.1953-0.1177-4.252 0-7.209 4.5239-9.3672 7.8271-0.2839 0.4343-0.5537 0.8457-0.8134 1.2285-1.0494 0.9441-2.1741 1.8716-3.2628 2.7676-1.9429 1.5996-3.9485 3.2552-5.6432 5.1011-4.4305 1.8811-8.4327 5.4006-11.03 8.0525-2.6265 1.79-5.5364 3.3835-8.3521 4.9246-4.7534 2.6021-9.667 5.2944-13.517 9.0695-7.2743 3.2308-13.191 8.2435-16.919 11.938-1.5306 0.1113-2.5564 1.068-3.5449 2.0034-0.4824 0.457-0.9375 0.8882-1.4961 1.2554-1.7373 1.4785-3.623 2.873-5.4482 4.2222-3.7682 2.7854-7.6567 5.6692-10.588 9.5398-3.2845 0.5197-5.4434 3.8665-7.0273 6.3402-0.2488 0.1996-0.6469 0.5134-0.8988 0.7086-2.4425 0.6021-5.2299 2.5845-6.0656 5.3079-5.6494 3.8013-11.11 8.8164-15.04 13.81-2.5564 0.0424-4.1262 2.191-5.5315 4.1125-0.5168 0.7073-1.0067 1.3718-1.5122 1.903-0.8306 0.4388-1.5001 1.0741-1.9675 1.8473-2.8071 0.6506-4.6362 2.9521-6.0498 5.1759-0.8345 0.4222-1.5018 1.0513-1.9535 1.8268-2.464 0.7225-5.1178 2.6963-5.8038 5.2473-3.0688-0.1162-5.0352 3.0729-6.2067 5.0229-0.2301 0.197-0.5719 0.5026-0.821 0.7292-2.6565 0.0515-4.3636 2.6577-5.184 4.3206-0.2118 0.1157-0.585 0.197-0.9272 0.2683-0.6885 0.1426-1.4004 0.2896-1.7393 0.8252-0.1082 0.1709-0.1449 0.3723-0.1466 0.5925-4.2296 3.2496-8.4789 6.6226-12.591 9.8884-11.551 9.1733-23.494 18.66-36.314 26.414l-0.2002 0.1211-0.1165 0.78c-0.5366 0.3186-1.1528 0.6277-1.8142 0.9514-2.0693 1.0125-4.3792 2.1647-4.9203 4.2168-0.5807 0.167-1.2438 0.3281-1.9586 0.4966-2.7566 0.6497-5.837 1.3956-6.9714 3.2338-2.2002-0.1079-4.2263 0.6838-6.1799 1.4576-0.5674 0.2242-1.132 0.4453-1.6974 0.6453-2.7806-0.1768-5.84-0.2595-9.6171-0.2595-1.8594 0-3.7148 0.0186-5.5654 0.0371l-1.8801 0.0178c-0.6196-0.0234-1.2384-0.0369-1.8562-0.0369-1.4482 0-2.7715 0.0779-4.049 0.2195l-0.0028-0.0056-0.1106 0.0156c-0.0791 9e-3 -0.1633 0.012-0.2419 0.0215l-0.1602 0.0194c-0.3439-0.8413-1.0151-1.3002-1.9297-1.3002-0.4404 0-0.9484 0.1107-1.4331 0.2976-6.3962-1.0029-13.326 0.6182-21.347 5.0413l-0.292 0.1606 0.0778 0.7161c-2.4901 1.2251-5.7825 3.2327-8.1801 6.1039-0.8094-0.2014-1.7126 9e-4 -2.2288 0.5658-0.2452 0.2692-0.3906 0.592-0.4451 0.9268-1.3718 0.1204-2.4834 0.8357-3.1797 2.0498-3.4829 1.2126-6.0192 3.5912-8.468 5.8994-1.4619 1.377-2.9717 2.8003-4.665 3.9512-4.4175 0.7885-8.1738 3.3005-10.654 5.3763-0.5869 0.0812-1.1819 0.16-1.7874 0.2394-4.8977 0.6433-10.44 1.3777-14.42 4.3282-4.6306 0.8202-8.9006 2.9281-13.03 4.9706-2.5176 1.2456-5.1211 2.5332-7.8252 3.5298-5.1836 2.8057-10.692 5.2476-16.02 7.6094-6.3052 2.7952-12.823 5.6865-18.923 9.2527-4.6287 0.9294-9.8977 3.1968-14.123 6.0774-9.7289 3.5793-17.34 6.7209-23.943 9.8823-3.7981 0.7141-6.584 1.8416-8.3011 3.3476-2.505-0.1471-5.9111 1.301-7.5809 2.7203-1.4186-0.098-2.7225 0.3617-3.9683 0.8086-0.332 0.1196-0.6631 0.2388-1.0205 0.355-13.215 5.0542-26.883 9.3765-38.942 13.19l-0.2881 0.0908-0.1188 0.66c-0.4911-0.1807-1.0519-0.2841-1.6478-0.2841-1.7156 0-3.4856 0.79-3.9111 2.2944-0.4319-0.055-0.8682-0.0923-1.3076-0.0923-2.7764 0-5.3623 1.0942-7.8623 2.1523-2.2051 0.9331-4.4863 1.8984-6.8506 2.0767l-0.5664 0.0425 0.1875 0.9189c-0.069-1e-3 -0.1356-0.0059-0.2051-0.0059-2.5305 0-4.8728 0.6306-6.5525 1.7837-0.3705 0.0744-0.7546 0.1477-1.1526 0.2236-2.8462 0.5406-6.0498 1.1609-7.886 2.8487-2.6841 0.0138-5.2966 0.6371-7.824 1.2421-2.793 0.6689-5.6777 1.353-8.6055 1.1958l-0.0908-0.0054-0.0869 0.0273c-1.3789 0.4331-2.9023 0.6338-4.375 0.8276-2.303 0.303-4.679 0.6214-6.7279 1.8082-0.2589-0.0046-0.5192-0.0079-0.7828-0.0079-6.11 0-10.677 1.2906-13.594 3.8236-1.24 0.0763-2.7014 0.6658-3.1567 2.0452-2.0854 0.5328-3.8655 2.2052-5.3057 3.5721l-0.437 0.4106c-4.3796 2.4578-8.3916 5.1386-11.981 8.0076-1.9341-2e-4 -3.8679-0.0048-5.801-9e-3 -1.9863-0.0049-3.9717-0.0093-5.957-0.0093-4.4453 0-7.8579 0.024-11.065 0.0785-3.0111-0.1086-6.3535-0.1257-9.5077-0.067l-0.019-0.9207-0.4775-0.0122c-2.4121-0.0601-5.0635-0.0884-8.3418-0.0884-1.6445 0-3.2891 0.0068-4.9336 0.0132-3.4482 0.0142-6.8943 0.0251-10.334-0.0223l-0.0557-0.1739c2.0569-0.4611 3.9502-1.8754 5.0862-3.8253 3.4194-0.8752 6.8212-3.5645 8.6808-5.834 1.9253 0.1893 2.9126-1.4462 3.2697-2.1363 3.2104-1.1622 8.8396-3.2695 10.889-7.2813 0.2556 0.0639 0.5272 0.1071 0.8297 0.1071 1.3135 0 2.7627-0.6162 3.5225-1.498 0.365-0.4236 0.5696-0.8952 0.6061-1.3843 2.8309-0.5348 5.241-2.2566 7.5707-3.9394 1.6797-1.2129 3.416-2.4678 5.2676-3.2241l0.3516-0.1436-0.0983-0.8376c3.3295-0.4583 6.9545-2.3518 9.0449-4.7592l0.4059-0.1185c1.7957-0.519 3.8022-1.1207 4.7131-3.0262 0.1025 0.0084 0.1962 0.0292 0.3044 0.0292 1.7131 0 4.075-1.0742 4.4683-2.8513 1.1165-0.1086 2.3879-0.4052 2.8804-1.1712 0.1086-0.1694 0.2007-0.4189 0.1963-0.7286 0.0596-0.017 0.1155-0.0339 0.1758-0.0512 1.371-0.391 3.0396-0.8812 3.9275-2.2407 0.1216 0.0122 0.2344 0.0361 0.3645 0.0361 1.7548 0 4.1781-1.1182 4.4824-2.9626 0.604-0.2294 1.4828-0.5652 2.0035-0.7678 2.5004-0.1153 4.5519-1.4376 6.5355-2.7222 0.8311-0.5386 1.6162-1.0474 2.4668-1.4922 5.1514-3.1843 12.384-8.2231 15.918-15.258 12.751-7.1311 24.501-11.107 35.914-12.154l0.0043 0.0022 0.1431-0.0176 1.7065-0.1528-0.1459-0.0753c0.6212-0.0917 1.2428-0.1752 1.8646-0.2728 0.8352-0.1315 1.6738-0.2627 2.519-0.3806l0.0161 0.0027 0.623-0.1328c3.3684-0.7151 7.5437-1.6105 9.5245-4.5571 0.4308-0.3239 0.845-0.6758 1.2567-1.0298 1.2861-1.1064 2.501-2.1514 4.2148-2.1514l0.7617 0.0215-0.189-0.955c0.4753 0.017 0.965 0.0297 1.478 0.0297 5.2297 0 8.7582-1.0375 10.534-3.0634 0.5533 0.1466 1.1212 0.2357 1.7369 0.2352 1.4414 0 2.8652-0.4019 4.2422-0.7905 1.1426-0.3218 2.2207-0.6265 3.3594-0.7256 2.0898-0.4404 4.1777-0.9063 6.2676-1.3721 5.5488-1.2383 11.287-2.5181 17.005-3.2817l0.4609-0.0615-0.0481-0.7974c4.5765-0.2725 10.836-1.0538 15.813-3.2006 0.1581 0.026 0.3208 0.0537 0.5083 0.0868 0.8789 0.1548 2.082 0.3667 3.1758 0.3667 1.63 0 2.6509-0.4795 3.0447-1.4258 1.6395 0.1309 3.3284 0.2041 5.0364 0.2041 2.616 0 5.3743-0.1567 8.198-0.4635l0.05 0.0099 0.1191-0.0361c2.999-0.9082 5.7275-2.7197 8.3652-4.4717 2.3535-1.563 4.7881-3.1797 7.4287-4.1577 5.1201-2.2124 10.246-4.646 15.204-6.999 8.3105-3.9448 16.905-8.0244 25.695-11.169l0.332-0.1187v-0.6022l0.2715-0.0839c1.9623-0.5986 4.3774-1.3481 5.6404-3.0691 3.1968-0.5151 6.076-1.9878 8.8596-3.4187 0.9902-0.5088 2.0137-1.0347 3.04-1.5103 3.458-1.707 6.9014-3.4429 10.346-5.1787 6.667-3.3604 13.562-6.8354 20.454-10.036l0.2383-0.1108 0.1182-0.7681c0.2357-0.0706 0.4703-0.1409 0.7295-0.2153 2.2905-0.6584 5.3931-1.5562 6.3162-3.7992 6.7756-2.7924 13.335-6.3258 19.681-9.7462 4.5549-2.4559 9.2659-4.9944 14.008-7.2322 2.6273-0.8142 4.3944-2.1636 5.2633-4.002 2.5005-1.6099 4.1335-3.989 4.8672-7.0718 0.8-0.095 1.6752-0.5563 2.0645-1.9543 2.7056-1.5082 4.0922-3.1672 4.2371-5.0582l0.9578-0.8627c0.188-0.1487 0.3838-0.2955 0.5818-0.4438 0.9639-0.7231 2.04-1.5425 2.5339-2.7797 1.2646-0.5658 2.1379-3.2924 2.01-4.882-0.1235-1.5425-1.1008-2.26-2.5636-1.8008-2.6656-0.2972-5.0416 0.771-7.327 1.8066-1.1875 0.5376-2.416 1.0938-3.6504 1.4346l-0.2637 0.0728-0.2615 0.845c-1.7705 0.4956-3.5125 1.1477-5.1995 1.7844-2.3398 0.8828-4.7588 1.7959-7.2461 2.2686l-0.2891 0.0552-0.2568 0.7794c-0.5863 0.2241-1.2227 0.4323-1.9004 0.6488-2.2351 0.7126-4.7415 1.5283-6.0417 3.3606l-0.4136-0.0112-0.0261-0.155-0.4661 0.1414-0.5271-0.0144 0.0265 0.1565c-6.2289 1.8407-13.186 2.7424-21.263 2.7424-1.5513 0-3.1902-0.0361-4.926-0.0999-0.5084-0.6692-1.3979-1.0271-2.699-1.0271-1.376 0-2.7251 0.3746-3.2532 0.54-0.8269-0.1372-1.6667-0.3402-2.4802-0.5405-1.4727-0.3623-2.9951-0.7373-4.5557-0.7373-0.459 0-0.9092 0.0332-1.3389 0.0977l-0.0596 9e-3 -2.1924-0.2019 0.1523-0.8862-0.5547-0.0352c-1.1543-0.0732-2.333-0.2788-3.4727-0.4775-1.459-0.2544-2.9678-0.5176-4.4785-0.5176-0.8376 0-1.604 0.0874-2.3445 0.25l-0.4885-0.1736c-1.1785-2.0825-4.4683-2.386-7.4004-2.6394-1.3984-0.121-2.7174-0.2358-3.7021-0.5193-0.9028-0.3516-1.8195-0.7217-2.749-1.0974-3.8831-1.5706-7.8967-3.189-12.097-3.9067-2.2003-1.677-6.3958-4.4155-10.869-4.8877l-0.1895-0.7324-0.1846-0.1045c-1.0586-0.6001-2.1172-1.2383-3.1797-1.8799-3.106-1.8728-6.3159-3.7991-9.7283-4.8855-0.1356-2.0834-2.5508-3.0076-4.6985-3.8279-1.2615-0.4817-2.4503-0.9374-3.0627-1.5446-0.2197-0.2668-0.4294-0.5553-0.6404-0.8466-0.8417-1.1626-1.797-2.4692-3.5166-2.5228-3.3314-3.3307-7.0183-6.4569-10.589-9.4801-3.1194-2.6411-6.3442-5.3723-9.2722-8.197-2.4847-3.4858-5.4351-6.6652-8.2893-9.74-1.6221-1.7473-3.2996-3.5537-4.8525-5.3782-2.2839-3.1714-4.7618-6.4712-7.7158-9.0062-0.912-2.5115-2.6963-4.5339-4.4287-6.4877-1.3994-1.5801-2.8477-3.2139-3.7861-5.0737l-0.0645-0.0981c-1.4053-1.6587-2.6133-3.6035-3.7822-5.4844-1.7319-2.7874-3.5264-5.6643-6.0264-7.7549-0.8108-2.5111-3.0439-8.2615-7.1165-10.884l-0.8054-2.002-0.0264-0.0194c-3.1455-5.8607-6.5916-11.716-9.9268-17.379-5.0117-8.5117-10.194-17.314-14.486-26.357l-0.0762-0.1592-0.7333-0.355 0.1356-0.4927-0.1074-0.1831c-1.4736-2.4961-2.8223-5.1958-4.126-7.8066-1.7356-3.4741-3.5304-7.0643-5.6365-10.205-1.9371-5.1967-4.6378-10.26-7.2522-15.156-0.5435-1.0183-1.082-2.032-1.6146-3.0446l0.0238-0.0087-0.2994-0.5112-0.1957-0.373-0.0032 0.0012c-0.3518-0.6746-0.6621-1.4596-0.9841-2.2908-0.6694-1.7253-1.3672-3.4945-2.5703-4.3757-0.259-1.9344-1.325-3.528-2.3652-5.0676l-0.1443-0.2144c-3.2688-7.8433-6.9741-16.72-11.843-24.184-0.9066-5.2684-3.953-10.335-6.6483-14.808l-0.3625-0.5885c-1.1379-4.0519-3.012-7.9281-4.825-11.678-1.4697-3.0391-2.9893-6.1812-4.1016-9.3887l-0.1582-0.4546-0.4414 0.134c-0.2512-1.8687-1.0906-3.5377-1.9102-5.155-0.4521-0.8916-0.9189-1.8135-1.2744-2.7622-2.6904-6.1201-5.3594-12.25-8.0283-18.379-5.6396-12.949-11.47-26.339-17.415-39.417l-0.0771-0.1704-0.9736-0.4435c-1.2727-4.5209-3.3931-8.9706-5.4492-13.276-1.1187-2.3406-2.2723-4.7592-3.2637-7.1389 0.1746-0.8557-0.033-1.9814-0.5723-2.8972-0.3411-0.5795-0.7717-0.9789-1.2334-1.176-2.335-7.7328-5.0166-15.494-7.6123-23.002-0.9072-2.6265-1.8154-5.252-2.71-7.8804l-0.1064-0.3115-0.679-0.0344c0.1792-1.5596-0.4762-2.9116-1.1189-4.2219-0.4072-0.8286-0.791-1.6113-0.9756-2.46-1.3418-5.0308-4.167-9.9253-8.1699-14.155l-0.2529-0.1768-0.2471 0.0269c-0.2471 0-0.6396-0.0483-1.0713-0.0991-0.5654-0.0659-1.2051-0.1411-1.71-0.1411-0.3096 0-1.0332 0-1.2461 0.5288-0.1229 0.3053 0.0023 0.5894 0.1687 0.811-0.2734 0.5564-0.6545 1.3483-0.865 1.7871l-0.0732 0.1509 0.0176 0.0867c-0.7194 5.2007-0.5803 10.53-0.4434 15.686 0.083 3.1299 0.168 6.3662 0.0586 9.5259l-0.0176 0.5225h0.0071c-0.1515 6.6625-0.0715 11.861 0.2615 16.769l0.0037 7e-4 -0.0681 0.413c-1.4884 1.4403-1.2697 3.4343-1.0625 5.205 0.0195 0.1666 0.0356 0.3225 0.0531 0.4825l-0.7279 0.3807-0.0596 0.2051c-5.8936 20.357-22.905 33.42-39.357 46.054-2.8916 2.2202-5.8818 4.5166-8.7139 6.7852l-0.2178 0.1738 0.0879 0.7009c-0.4581 0.2935-0.9414 0.5769-1.4561 0.8718-1.8798 1.0776-3.8096 2.2001-4.6677 4.2029-2.0583 0.5107-3.5538 1.9727-4.9954 3.3982-0.9375 0.9277-1.8242 1.8037-2.9229 2.481-2.6465 2.3794-5.5664 4.7168-8.3896 6.9771-4.345 3.4783-8.8374 7.0753-12.415 10.896-5.592 3.9559-10.719 8.636-15.678 13.163-2.9976 2.7368-6.0972 5.5664-9.2993 8.2358-2.042 2.082-4.3364 4.0728-6.5552 5.998-3.7952 3.2922-7.7161 6.6978-10.594 10.731-6.493 3.9114-11.62 9.7412-16.577 15.383-0.5857 0.6667-1.1685 1.3292-1.7498 1.9854-1.8064 0.6692-3.9409 2.7053-4.3127 4.5894-4.2915 2.9172-8.7793 7.2853-12.052 11.738-4.3024 3.1736-7.8574 7.259-11.294 11.212-2.3213 2.6694-4.7212 5.4297-7.3745 7.9282-0.9312 1.2114-2.2207 2.3096-3.4678 3.3721-2.2961 1.9553-4.6566 3.9833-5.2578 6.9688-6.0208 4.7439-11.306 10.749-16.416 16.562-2.7686 3.1489-5.6309 6.4048-8.5488 9.3823l0.0029 0.0037-0.0347 0.032c-0.9365 1.1567-2.0898 2.312-3.2051 3.4287-1.6272 1.629-3.301 3.314-4.4277 5.1077-1.762 0.9373-3.1007 2.4197-4.3901 3.863-0.5273 0.5908-1.0732 1.2012-1.6289 1.7485l-0.0757 0.0957c-1.5771 2.5767-3.8101 4.7197-5.9702 6.793-1.9897 1.9102-4.0425 3.8872-5.6024 6.21-3.7361 2.2944-7.0677 5.9983-8.5702 9.5122-1.793 0.8774-3.3569 2.4404-4.1831 4.1682l-0.5842 0.0432-0.1323 0.1362c-4.3633 4.501-8.9204 8.9897-13.328 13.331-7.0787 6.9725-14.395 14.182-21.114 21.639-0.7372 0.0881-1.6034 0.5413-2.1013 1.9779-0.6483 0.0596-1.5271 0.4142-1.7886 1.7799-2.5392 1.8721-4.7346 4.196-6.855 6.4512-2.1611 2.2983-4.396 4.6753-6.9868 6.5405-2.4585 1.8555-4.647 4.0645-6.7632 6.2002-2.4658 2.4888-5.0151 5.0625-7.9736 7.0435l-0.1289 0.125c-1.3262 1.8599-3.2886 3.355-5.186 4.8013-2.1484 1.6372-4.365 3.3315-5.6718 5.5685-6.6732 5.2537-13.644 11.236-20.166 17.306-1.7623 1.448-3.561 2.892-5.3703 4.3438-5.8043 4.6582-11.8 9.4751-16.964 14.769-0.1936-0.0486-0.3871-0.082-0.5784-0.082-1.6074 0-2.6362 1.6377-3.3872 2.8335l-0.1036 0.1643c-0.1599 0.1842-0.4084 0.4835-0.6098 0.7268l-0.0541 0.0667c-1.9423 0.0911-3.7062 1.5753-5.1182 4.3204-6.4901 4.0585-12.542 9.026-18.394 13.832-2.9863 2.4526-6.0747 4.9888-9.1938 7.3804-3.0874 2.6377-6.4556 5.189-9.7129 7.6563-4.6649 3.5334-9.4846 7.1865-13.574 11.164-1.4249 0.2489-3.329 1.4418-4.0406 2.8295-1.1996 0.5826-2.1963 1.4862-3.1564 2.3701-1.1377 1.0469-2.2134 2.0371-3.6055 2.5298-1.603 0.0078-2.5889 0.3345-3.0996 1.0254-0.6558 0.8867-0.2886 2.084 0.0352 3.1406 0.1055 0.3452 0.207 0.6753 0.2715 0.9795-0.6342 0.6418-1.3632 1.2917-2.1473 1.9303-0.9076-0.3273-1.8153-0.6136-2.7018-0.84l-0.2075-0.0532-0.1812 0.1138c-3.9079 2.447-7.5052 5.4735-11.15 8.6212-0.982 0.3353-1.7051 1.0372-2.1415 2.0497-2.5954 0.8369-5.4048 2.9263-6.9603 5.1863-4.442 2.0388-9.0096 5.4615-11.971 8.9751-8.5692 5.6411-16.883 11.965-24.924 18.082-8.0313 6.1099-16.336 12.427-24.892 18.062l-0.1318 0.0869-0.2982 0.7537c-1.002 0.6863-2.1313 1.2828-3.3312 1.9089-2.4782 1.2925-5.0309 2.6335-6.4232 4.8999-0.2523 0.134-0.5176 0.2683-0.7975 0.4077-1.6991 0.8452-3.7595 1.8945-4.1024 3.8889l-1.632 0.0349-0.1279 0.0957c-2.5 1.8647-5.1611 3.604-7.7344 5.2856-3.1699 2.0718-6.4482 4.2144-9.4775 6.624l-0.1992 0.1582 0.0309 0.7336-1.5245 0.1565-0.106 0.0752c-12.634 8.9771-26.802 15.843-40.503 22.484l-2.0508 0.9952c-0.5671-1.0362-1.9052-1.0436-2.3926-1.0436-0.6309 0-1.3276 0.082-2.002 0.1616-0.6372 0.0747-1.2959 0.1523-1.8521 0.1523-1.0532 0-1.3174-0.2788-1.4243-0.4888l-0.1157-0.2271-0.2515-0.0396c-12.441-1.9673-25.211-2.5161-37.56-3.0469-7.5161-0.3228-15.289-0.6567-22.885-1.3076l-0.5371-0.0464-0.0058 0.5868c-0.978-0.5943-2.1552-0.8832-3.6363-0.8832-1.1919 0-2.436 0.1816-3.6392 0.3574-1.6216 0.2364-3.1984 0.4359-4.3832 0.2593l-0.4944-0.1118c-0.5244-1.406-2.3074-1.4248-2.929-1.4248-0.8564 0-1.8081 0.1172-2.729 0.2305-1.0712 0.132-2.064 0.257-2.7886 0.1768-2.4481-1.1803-5.1288-1.4281-7.7236-1.6636-1.0352-0.0938-2.106-0.1909-3.1719-0.3521-5.1504-0.356-10.33-1.2715-15.338-2.1567-4.7033-0.8312-9.5633-1.6837-14.429-2.0811-0.598-1.2319-2.1892-1.248-2.9067-1.248-0.3384 0-0.6826 0.0146-1.0166 0.0288-0.4905 0.0215-0.9493 0.0362-1.329-0.0015-0.5995-0.6284-1.6028-0.9633-3.0328-0.9633-1.3574 0-2.8054 0.2786-3.819 0.5221-7.67-1.2998-15.331-1.8268-22.606-2.2409l-0.0894-0.9252-0.418-0.0337c-3.4595-0.2759-6.9736-0.8579-10.372-1.4209-3.7021-0.6131-7.53-1.2464-11.391-1.4863l-2e-4 -2e-3c-0.9907 0.085-2.1079-0.0737-3.3042-0.2422-1.001-0.1411-2.0366-0.2871-3.0244-0.2871-1.8955 0-3.2139 0.5483-4.1494 1.7261l-0.083 0.1543c-0.6543 1.9829 1.0879 3.1069 2.3604 3.9277 0.2412 0.1558 0.4746 0.3062 0.7607 0.5015 0.8208 0.3872 1.6567 0.835 2.4653 1.2681 2.351 1.2596 4.7825 2.5536 7.5148 2.7963 1.5038 1.4066 3.6494 2.1095 5.7313 2.7838 0.7882 0.2552 1.5325 0.4966 2.2292 0.7711l0.3016 0.1298c4.1262 1.7751 8.3924 3.6102 12.732 5.088l0.4567 0.2241c3.3483 1.6436 6.8104 3.3377 10.528 4.0181 1.4364 1.3641 3.173 2.0894 5.0374 2.0894l0.0181-3e-4 1.9085 0.728c3.2986 2.6961 8.3751 4.716 13.018 5.1921l0.4763 0.5456 0.1802 0.0278c8.9269 1.3718 17.941 2.0892 26.795 2.1346 0.7842 0.4399 1.6146 0.6749 2.4738 0.7008 0.9537 0.5526 1.9095 1.1807 2.8347 1.7916 2.1929 1.4481 4.4611 2.9355 7.0917 3.6581 0.6024 1.3478 1.8411 2.0092 3.0494 2.6412 0.7642 0.3999 1.4863 0.7778 2.0171 1.3125l0.1016 0.0786c4.3623 2.5649 8.6504 5.4233 12.798 8.1875 3.7802 2.5192 7.6847 5.1131 11.655 7.5008-2.6071 1.8448-5.5396 4.1506-5.6093 7.6706l-0.0049 0.2412 0.1865 0.1543c1.8291 1.5107 3.8276 2.3091 5.7788 2.3091 0.584 0 1.1674-0.0784 1.738-0.2201l1.5959-0.295c2.9081-0.5411 5.913-1.0967 8.8958-1.3246 4.7378 3.421 10.593 7.6308 16.529 10.565l0.425 0.8214 0.1045 0.0713c13.336 9.103 27.33 17.831 39.681 25.534l0.1304 0.0796c1.2415 0.7574 2.5281 1.5298 4.0217 1.7993 3.5714 3.4218 8.4381 5.3466 13.15 7.2042 1.3433 0.5295 2.6131 1.0314 3.8571 1.5666 1.4681 2.0512 4.6039 2.6104 7.1453 3.0526 0.329 0.0575 0.6439 0.1132 0.9493 0.1703 1.9868 1.915 5.3416 2.198 8.0571 2.4176 0.645 0.0518 1.2603 0.1016 1.8188 0.1694l0.0182 0.0023c1.3555 0.255 2.8104 0.3864 4.3289 0.3864 1.3538 0 2.7601-0.1002 4.2892-0.3013l2.5848 0.4106-0.4142-0.9091c3.4968-0.5953 6.9394-1.5855 10.273-2.5591 1.1062-0.323 2.2123-0.6441 3.3209-0.9529l0.0141 0.0091 0.2125-0.074 0.1874-0.0519c0.7852-0.254 1.6703-0.4197 2.6148-0.5861 1.9536-0.3443 3.9637-0.7091 5.2026-2.0012 10.402-2.1872 20.875-4.983 31.004-7.6882 7.7087-2.0589 15.677-4.185 23.575-6.0333 7.9075 9.0458 15.305 18.872 22.46 28.379 4.0083 5.3262 8.1531 10.833 12.307 16.091 0.7136 1.918 1.7249 3.4836 3.0007 4.6716 0.0431 1.0269 0.7421 1.7401 1.3718 2.371 0.248 0.248 0.4763 0.4843 0.6644 0.7271 0.1218 0.9861 0.7771 1.704 1.3654 2.3388 0.294 0.3169 0.5717 0.6169 0.7811 0.9366 0.8267 1.353 1.6598 2.7089 2.4952 4.0683 4.29 6.9805 8.7261 14.199 12.582 21.551l0.0928 0.125c0.2524 0.2471 0.3394 0.7993 0.4238 1.3335 0.1368 0.8687 0.3327 2.0341 1.519 2.1277 0.0042 0.033 0.0081 0.0591 0.0123 0.093 0.1555 1.2515 0.3763 2.9235 1.4528 3.5646 1.1534 2.6351 2.0738 5.4769 2.9618 8.2289 1.1572 3.5867 2.3573 7.2908 4.1447 10.679-0.1738 2.0443 0.259 4.0189 0.6819 5.9296 0.2183 0.9873 0.4443 2.0068 0.5781 3.0127l0.0591 0.4434 0.9854-0.0214 0.0562 0.2902c-0.051 0.6054-0.1426 1.2461-0.2378 1.9031-0.3892 2.6929-0.8201 5.7299 1.2974 7.8031-0.9079 4.2343-1.3219 7.5281-1.3324 10.613l-0.0216 0.0435c-0.8823 1.7737-1.7834 3.6058-2.002 5.6146-0.5947 0.0565-1.1389 0.3644-1.6035 0.9059-0.7037 0.8191-1.1453 2.1256-1.1069 3.1819-4.4921 2.5195-8.429 7.4551-11.042 11.033l-0.144 0.0636-0.0027 0.0278c-3.1778 1.7108-7.3667 4.3593-9.8813 7.5122-1.8101 1.121-3.4852 2.7853-5.2639 5.2335-0.1484 0.1876-0.4005 0.5013-0.5941 0.7394-3.0314 0.0657-4.9559 3.4009-5.4635 6.5056l-0.0928 0.5684 0.5757 0.0127c0.2744 0.0059 0.5825 0.0117 0.9111 0.0117 1.9165 0 4.4827-0.2112 5.2924-1.8306 3.6315-1.3141 7.0988-3.1345 10.451-4.9009 3.9604-2.0859 8.0552-4.2432 12.409-5.541l0.2671-0.0801 0.1801-0.6683c1.6412-0.4426 3.2166-1.1271 4.7404-1.7985 1.2021-0.5293 2.4453-1.0771 3.769-1.5186 0.3906-0.2021 0.8706-0.3506 1.3784-0.5088 1.172-0.3644 2.5939-0.8195 3.0986-2.1763l0.0068 5e-4 0.0305-0.1012c2.23-0.4052 4.3623-1.1409 6.3391-2.2065 2.8338-1.1434 5.9108-1.9808 8.8868-2.7899 2.255-0.6134 4.3842-1.1943 6.4059-1.8939 1.1577-0.2234 2.7476-0.1553 4.41-0.0319 0.8716 0.0645 1.7734 0.1318 2.6533 0.1318 2.0825 0 3.5736-0.3912 4.7907-1.24 1.875 0.1113 3.8671 0.1667 6.0882 0.1667 2.4468 0 4.9346-0.0679 7.05-0.1339 1.1891 0.1101 2.4683 0.1613 4.0237 0.1613 0.9404 0 1.8823-0.0176 2.8281-0.0361 0.9478-0.0176 1.8994-0.0361 2.8579-0.0361l0.2155 4e-4c2.059 0.0476 4.2816 0.0719 6.7938 0.0719 2.6865 0 5.3755-0.0264 8.0684-0.0527l3.158-0.0287c1.084 0.0514 2.2188 0.0756 3.5676 0.0756 1.1196 0 2.2388-0.0166 3.3652-0.0332 1.0051-0.0145 2.0159-0.03 3.0386-0.0331 3.4026 0.0684 6.9756 0.1024 10.62 0.1024l1.0444-0.0037c0.3186 0.9978 1.4375 1.2621 3.1245 0.661 1.2329 0.1833 2.5692 0.2743 4.0854 0.2743 1.415 0 2.855-0.0762 4.2471-0.1494 0.696-0.0367 1.3945-0.0729 2.0959-0.1007 0.3307 0.0723 0.6804 0.2484 1.0505 0.4406 0.5684 0.2939 1.1563 0.5986 1.8276 0.5986 0.2228 0 0.4353-0.0414 0.6235-0.1028 1.2188 0.2084 2.5126 0.3079 4.063 0.3079 1.1479 0 2.3184-0.0537 3.4502-0.1055 0.6655-0.0313 1.3345-0.0615 2.0078-0.082l0.0554-0.0017 0.4294 0.1084c0.5898 1.2271 2.2291 1.2468 2.8066 1.2468h0.0049c0.7793 0 1.6563-0.0977 2.5049-0.1924 1.3352-0.1479 2.7-0.252 3.4811-0.068l0.0756 0.9918 0.4517 0.0049c3.332 0.0352 6.7046 0.4678 9.9663 0.8857 2.1907 0.2813 4.4558 0.5709 6.6982 0.741 2.6682 0.3835 5.3809 0.8641 8.0039 1.3293 5.2083 0.9222 10.59 1.8713 15.963 2.1351l0.3652 0.7604 0.3057 0.0078c3.2002 0.082 6.3984 0.8477 9.4907 1.5879 3.3169 0.7939 6.7466 1.6152 10.23 1.6152 0.2192 0 0.4482-0.0093 0.6746-0.0165 0.9883 1.829 4.1929 1.8671 7.0417 1.8993 1.1689 0.014 2.2683 0.0294 3.0891 0.1627 1.1436 1.0569 2.6769 1.6058 4.5842 1.6058 0.428 0 0.8813-0.0302 1.3281-0.0813 1.4984 0.212 3.0165 0.6283 4.4854 1.0325 2.1743 0.5977 4.4229 1.2158 6.7275 1.2158 0.3992 0 0.7914-0.0275 1.1764-0.0643 1.9552 1.2806 4.2175 1.3059 6.4095 1.3202l0.1838 0.0013c1.2639 1.6595 4.2891 1.7499 6.9929 1.8131 1.0049 0.0242 1.9519 0.051 2.749 0.1493l0.021 0.8663 0.4648 0.0215c2.6772 0.1279 5.3574 0.7129 7.9497 1.2783 1.8906 0.4124 3.8423 0.8306 5.8062 1.0852 0.0282 0.1494 0.087 0.2678 0.1489 0.3542 0.311 0.4326 0.9219 0.4873 1.4189 0.4873 0.4619 0 1.0063-0.0566 1.5322-0.1123 0.5005-0.0537 1.0181-0.1084 1.4272-0.1084 0.2467 0 0.3826 0.021 0.4773 0.043 1.441 1.6071 4.5577 1.8263 7.3318 2.0078 0.5608 0.0375 1.0889 0.075 1.5801 0.1208 0.552 0.9293 1.6323 0.9417 2.0659 0.9417 0.2524 0 0.5137-0.0156 0.7739-0.0303 0.4604-0.0269 0.9146-0.0366 1.2239 0.0173 1.1427 1.3373 3.4482 1.5702 5.6936 1.7825 0.8579 0.0815 1.6628 0.1616 2.3464 0.2987 0.9799 0.8545 2.4064 1.4147 3.976 1.5437 0.5741 0.1479 1.1476 0.3337 1.724 0.5199 1.3394 0.4336 2.7241 0.8818 4.1719 0.8818 0.438 0 0.8647-0.0511 1.2787-0.1342 1.7142 1.1696 3.9781 1.873 6.6132 2.0524 0.2957 1.0109 1.3987 1.174 2.2327 1.2947 0.4795 0.0693 0.9746 0.1406 1.2651 0.334l0.1567 0.0684c2.6284 0.6484 5.2021 1.7002 7.6909 2.7168 2.1658 0.8857 4.4036 1.795 6.6698 2.4392 0.9435 1.733 2.9991 2.3713 5.0016 2.9778 1.058 0.3207 2.134 0.6599 2.9844 1.1465-0.6775 1.8699-2.2092 3.2233-3.8369 4.6445-1.5669 1.3669-3.1775 2.7836-3.9268 4.7076-2.1732 1.2991-5.2059 3.6334-6.7512 5.5496-2.8701 2.0298-5.9216 4.5149-7.166 7.6006-2.2775 0.3979-4.3193 3.0342-5.1016 4.8989-2.9459 1.1447-5.1677 4.2656-6.9578 6.798l-0.0105 0.016c-1.4287 0.6609-2.5023 1.7909-3.5334 2.8951-0.457 0.4893-0.8887 0.9512-1.4033 1.4316-1.543 1.9307-3.499 3.6768-5.3906 5.3662-3.1147 2.7803-6.3354 5.6563-7.9404 9.5137l-0.252 0.6055 0.8743 0.1113-0.344 0.5215 0.197-0.064c-0.1638 0.3313-0.3259 0.6714-0.4875 1.0278-0.3916-0.1445-0.7905-0.2168-1.1899-0.2168-2.5549 0-4.5503 2.9557-5.5544 4.818-1.1802 0.6403-4.1527 2.3503-4.2974 5.1243-1.7612 1.2848-3.7319 2.7418-4.7021 4.8812-1.8159 0.8523-3.3906 2.4105-4.306 4.2465l-0.4447-0.0651-0.1738 0.2734c-3.0386 4.7832-6.6113 9.333-10.066 13.733-4.6298 5.8961-9.4115 11.994-13.008 18.761l-0.8259 0.2332-0.1025 0.1523c-4.459 6.6113-9.522 13.31-15.098 19.978-0.5508 0.9473-1.335 1.79-2.165 2.6816-1.3577 1.459-2.7495 2.9707-3.1201 5.0223-2.7283 1.7526-4.9655 4.8179-5.8257 8.031-2.8972 1.5647-5.2327 5.6074-6.1183 8.9619-1.3219 0.6027-1.6241 1.4805-1.5826 2.2122-1.3516 1.1647-2.4937 3.005-2.3685 4.8425-0.6345 0.1523-1.224 0.5352-1.725 1.1449-0.835 1.0154-1.3167 2.5604-1.2111 3.7858-1.9645 1.9506-5.3202 5.4009-5.059 9.3303-5.5703 6.1058-9.9124 13.26-14.108 20.184-1.5356 2.5332-3.1235 5.1523-4.7813 7.7422-0.6792 1.5283-1.6104 2.999-2.5112 4.4209-1.4302 2.2571-2.8992 4.5934-3.4983 7.3561-1.8455 1.2318-2.5256 3.7933-3.0667 5.8744l-0.0795 0.3027c-4.2623 6.2229-7.5194 11.668-9.9564 16.64-1.1671 0.3411-1.9253 1.5176-2.0693 3.2267-3.4131 3.6044-6.9778 7.8186-6.8011 12.425-0.1211 0.2463-0.2826 0.5701-0.4501 0.9048l-0.3257 0.6541c-1.05-0.0216-1.7234 0.7552-2.3086 1.4368-0.2373 0.2764-0.4619 0.5381-0.6914 0.7246l-0.1079 0.1221c-1.3633 2.1719-2.71 4.3516-4.0557 6.5313-3.0435 4.9268-6.1904 10.022-9.4507 14.88-0.6357 0.79-1.4067 1.5137-2.1519 2.2129-1.4861 1.3947-3.0134 2.8411-3.7009 4.9531-1.0183 0.6503-2.2356 1.6868-2.7385 3.1086-2.6625 1.3345-4.9264 4.0117-6.0991 7.2312-0.1118 0.1254-0.2576 0.2863-0.4102 0.4541l-0.4004 0.4453c-3.4574 2.2445-6.4102 5.379-9.2656 8.4121-2.9302 3.1133-5.9604 6.332-9.5518 8.6152l-0.146 0.1416c-2.3677 3.4922-5.5405 5.9492-8.9331 6.9189l-0.6338 0.1807 0.5507 0.8956c-0.8986 0.974-2.1278 1.4558-3.4281 1.9559-1.4604 0.5615-2.9707 1.1426-4.0293 2.4395-10.673 10.312-24.165 17.013-37.213 23.493-2.4722 1.2275-4.9404 2.4531-7.4106 3.7139-0.8013 0.4668-1.6558 0.8584-2.5601 1.2725-2.0063 0.9191-4.0753 1.8746-5.4944 3.6882-1.9091 0.8253-3.8135 1.6744-5.72 2.5256-8.9258 3.9844-18.155 8.1045-28.002 9.6514l-0.5415 0.085 0.2177 0.8616c-0.2172-0.0123-0.4314-0.0383-0.6498-0.0383-2.8877 0-5.6011 1.0527-8.2256 2.0713-1.9004 0.7373-3.8652 1.499-5.8462 1.832l-0.124 0.0381c-0.8872 0.4043-1.917 0.6406-3.0073 0.8916-1.7971 0.4131-3.6505 0.8457-4.9854 2.0576-2.8352 0.3539-5.6932 0.8879-8.4589 1.4063-2.4497 0.459-4.981 0.9346-7.4824 1.2793-0.0853-0.0332-0.1621-0.0546-0.2448-0.0841-0.0934-0.0337-0.1849-0.0652-0.2747-0.0944-0.1693-0.0541-0.3304-0.0974-0.4877-0.1353-0.3831-0.0958-0.7419-0.1619-1.046-0.1619-0.1112 0-0.1945 0.0221-0.2913 0.0338-0.0198 0.0021-0.0395 0.0043-0.0588 0.0068-0.1349 0.0197-0.2596 0.0447-0.3679 0.083-0.0305 0.0101-0.0576 0.0236-0.0867 0.035-0.0946 0.0398-0.1862 0.0792-0.2606 0.1294-0.0395 0.0254-0.0724 0.0571-0.1083 0.0861-0.0583 0.0488-0.1165 0.0952-0.1613 0.1471-0.0294 0.0334-0.054 0.0709-0.08 0.1074-0.0233 0.0334-0.0555 0.0673-0.0744 0.0999-0.01 0.0173-0.0111 0.0399-0.0203 0.0577-0.0162 0.031-0.0393 0.0559-0.0534 0.0887-2.6045 0.207-4.9639 0.1973-7.2129-0.0264l-0.6025-0.0605 0.1311 1.4417c-2.3026 0.0143-4.6263 0.0406-6.9277 0.1433-0.9506-0.1178-1.9003-0.23-2.8299-0.3242l-0.1431-1e-3 -0.0444 0.0029c-0.2661 0-0.6216-0.0635-0.998-0.1309-0.4531-0.0801-0.9214-0.1641-1.3633-0.1641-1.1158 0-1.5282 0.584-1.6762 1.1133-0.6948 0.068-1.6584 0.0017-2.6783-0.0977-0.7495-0.0723-1.5249-0.1465-2.2363-0.1465-1.0096 0-2.3619 0.144-2.9764 1.2167l-0.6953 0.0139c-2.6859-0.1393-5.3737-0.1362-7.9865 0.0107-3.4631-0.1947-7.2524-0.1075-11.26 0.2581-4.4082-0.33-8.689-0.7438-12.051-1.0831l0.0154-0.0461-0.6649-0.0194-0.3702-0.0382-9e-3 0.0271-6.212-0.1818 0.0194-0.8453-0.4678-0.04c-1.583-0.1367-3.1919-0.332-4.748-0.5205-2.9189-0.3545-5.938-0.7207-8.9424-0.7207-0.6669 0-1.3141 0.0223-1.9375 0.0577-0.2523-0.7057-0.9742-1.0685-2.1699-1.0685-0.6714 0-1.4458 0.1016-2.1948 0.2002-0.707 0.0938-1.4385 0.1895-2.0273 0.1895-1.0352 0-1.1255-0.291-1.1553-0.3867l-0.0908-0.2939-0.3022-0.0518c-14.878-2.5488-29.389-7.3916-43.421-12.075-3.629-1.2108-7.2584-2.4204-10.897-3.595-0.3195-1.0677-2.0439-1.2882-3.4683-1.4626-0.5046-0.0621-0.9767-0.1223-1.3232-0.2063-1.6993-2.3827-5.6395-3.7959-8.9756-4.0516 0.0122-0.1829-0.0141-0.3555-0.0918-0.5135-0.312-0.6348-1.1895-0.7539-2.0386-0.8682-0.3522-0.0477-0.7652-0.1064-1.0187-0.1967-0.2784-1.8987-2.7413-2.5829-4.7435-3.1364-0.4659-0.129-0.9-0.2495-1.2678-0.377-6.6707-4.6703-13.881-8.8329-20.857-12.856-3.9357-2.2716-8.0037-4.6193-11.924-7.0291-0.4794-1.0823-1.4348-1.6964-2.3776-2.2747-0.5269-0.3232-1.0244-0.6289-1.4795-1.0576-6.7954-4.623-12.945-10.301-18.891-15.791-2.1331-1.97-4.3366-4.0022-6.5301-5.9495l3e-4 -0.0076-0.1841-0.1582c-0.0087-0.0074-0.018-0.016-0.0267-0.0234l-0.7521-0.667-1e-4 0.0033c-3.7807-3.3375-8.3143-7.9077-13.512-13.634-2.8448-3.332-5.618-6.8552-8.3-10.262-3.6045-4.5791-7.332-9.3145-11.315-13.694l-0.1021-0.085c-2.5889-1.6455-4.0688-4.2861-5.6362-7.0811-1.3068-2.3312-2.6629-4.736-4.7148-6.4777-0.1594-0.989-0.5468-1.861-1.1495-2.5867-0.1942-2.0267-1.3669-3.6401-2.5096-5.1993-0.6577-0.8975-1.2793-1.7461-1.7598-2.7324-1.0586-1.4971-1.8208-3.2461-2.5576-4.9375-0.7965-1.8279-1.626-3.7119-2.8334-5.3158l-0.0172-0.1998-0.0751-0.0245c-0.4061-1.2227-1.0284-2.6738-2.1843-3.7244l-0.0019-0.0099c-0.5761-2.9725-1.5238-7.837-4.2508-8.8347 0.4232-2.6079-0.9894-5.4902-2.7639-7.184-0.0188-1.8459-0.7497-3.4829-1.4653-5.0653-0.3638-0.8047-0.7397-1.6367-1.0259-2.5273-0.8071-1.7207-1.438-3.5811-2.0483-5.3809-0.907-2.6744-1.8483-5.437-3.4108-7.885-0.0579-2.9355-0.9515-5.7501-1.8201-8.4734-0.5615-1.7598-1.1421-3.5801-1.4717-5.3789l-0.0518-0.2842-1.0342-0.3698c0.0448-4.649-1.2457-10.276-3.5816-15.534-0.3986-2.2535-0.6422-4.6633-0.8778-6.9951-0.4359-4.3217-0.8889-8.7897-2.3453-12.616-0.2261-2.3457-0.5067-4.7369-0.7782-7.0508-0.8334-7.0967-1.6854-14.429-1.1412-21.679l0.0089-2e-4 0.0188-0.4637 0.0452-0.5372-0.03 6e-4c0.1215-3.4304 0.0798-6.9054 0.0339-10.273-0.0142-1.0765-0.0288-2.1503-0.0381-3.2191 0.1496-4.0494 0.0878-8.1085 0.0148-12.057l0.0497 0.0265-0.0646-0.8761-0.0057-0.288-0.0083-0.0043c-0.4039-6.0537 0.519-12.131 1.418-18.011 0.6649-4.3474 1.3448-8.8367 1.4913-13.347l0.9057 0.1736 0.0562-0.542c0.3623-3.4736 1.2041-6.9541 2.0186-10.319 0.9617-3.9744 1.9465-8.0798 2.1728-12.247 0.3621-0.0491 0.6008-0.2142 0.7359-0.3634 0.5137-0.5645 0.4185-1.5664 0.3262-2.5352-0.0358-0.3782-0.0704-0.7814-0.0598-1.0988 0.403-6e-4 0.6498-0.1857 0.7858-0.3417 0.4771-0.5449 0.3452-1.5332 0.2051-2.5791-0.0499-0.3741-0.1069-0.8101-0.108-1.1179l0.8712-0.1506 0.042-0.373c0.5156-4.585 1.8848-9.084 3.209-13.435 1.0359-3.4043 2.1038-6.9235 2.7619-10.468 1.4106-1.8497 2.1658-4.2996 2.0794-6.6754l0.7837-0.0681 0.0977-0.3242c0.8472-2.8096 2.0591-5.6426 3.231-8.3828 1.2433-2.9067 2.5214-5.8998 3.3594-8.8621l0.0083 0.0183 0.3185-1.2694c2.5948-2.7117 4.103-6.5203 5.5575-10.21 0.5483-1.3901 1.0689-2.7018 1.6373-3.9425 1.6967-0.8093 2.3273-2.8467 2.9262-4.8329 0.3511-1.1638 0.683-2.2639 1.2051-3.0487 2.5846-3.4387 5.4336-7.5427 7.076-11.969 1.1473-0.7611 1.8536-1.8485 2.0132-3.0989 2.2834-1.9352 3.7119-4.7804 4.7065-7.1256l0.6769-0.2068 0.0991-0.1582c3.0215-4.8086 6.6694-9.3135 10.197-13.67 2.7999-3.4586 5.6931-7.0333 8.2438-10.726 0.217-0.1784 0.4524-0.354 0.6956-0.5328 0.8892-0.6548 1.879-1.396 2.2203-2.5937 4.2381-3.3363 7.0488-6.2314 8.8256-9.0895 2.4221-1.104 4.934-3.7587 6.6079-5.5345l0.0778-0.0823c1.5921-1.3547 3.3201-2.6667 4.9925-3.9352 2.5374-1.9247 5.1572-3.9168 7.4312-6.1463 3.1226-1.0306 5.407-2.7161 6.8019-5.0076 3.7458-0.9288 7.1603-3.4883 10.083-5.8578 0.9658-0.1029 2.1468-0.4709 2.7445-1.2319 0.2426-0.3093 0.3738-0.6657 0.3917-1.0464 0.7035-0.2996 1.4933-0.5613 2.3422-0.8296 2.2252-0.7024 4.5089-1.4401 5.7042-3.1675 0.0549 0.0023 0.1061 0.0098 0.1625 0.0098 1.7574 0 4.2593-1.1245 4.6619-2.9755 0.7551-0.3094 1.5435-0.6158 2.3547-0.9283 3.8895-1.5003 8.2919-3.2016 10.762-6.1889 4.7744-3.5988 5.1688-11.846 2.3221-16.846-0.8477-1.5142-2.2651-2.25-4.333-2.25-1.0977 0-2.2549 0.1938-3.3745 0.3818-1.3311 0.2231-2.5698 0.4346-3.5703 0.2969l-0.1172-0.0166-0.1123 0.0381c-2.3794 0.8066-5.0352 1.1543-7.603 1.4907-3.7476 0.4907-7.6194 1.0029-10.838 2.9371-4.3444 0.3574-8.448 1.9534-12.417 3.5004-1.7427 0.6792-3.5449 1.3818-5.3252 1.96l-0.3848 0.125 0.0795 0.7627-1.6757-0.1514-0.1128 0.0459c-17.766 7.2051-32.23 15.043-44.22 23.962l-0.1797 0.1338-0.02 0.2231c-0.0684 0.7607-1.0771 1.1797-2.146 1.623-1.098 0.4558-2.3184 0.972-2.5481 2.0492-2.5322 0.8228-4.7847 2.6298-6.2286 5.0221-0.2444 0.2189-0.6289 0.5729-0.8922 0.8156-1.1557 0.0758-2.1104 0.5622-2.7886 1.4393-2.6274 2.5986-5.5679 5.0205-8.4111 7.3623-5.1661 4.2544-10.498 8.6578-14.291 14.361-1.103-0.0472-1.8173 0.7371-2.4337 1.4282-0.2749 0.3081-0.5342 0.5991-0.8677 0.8521-0.6973 0.7056-1.4028 1.4136-2.1133 2.1265-5.9653 5.9854-12.122 12.173-15.887 19.425l-0.0092-0.0055-0.2417 0.4805c-0.9951 1.9807-2.2681 3.6078-3.7729 4.8588l-0.8272-0.1938-0.1968 0.252c-16.449 21.079-29.225 43.382-37.987 66.331-0.4189 1.4756-1.1831 2.9082-1.9219 4.292-1.1724 2.1968-2.3672 4.4691-2.3446 7.0979-0.9258 0.3468-1.2554 1.2982-1.5265 2.0828-0.1411 0.4082-0.2744 0.7939-0.4658 1.0684l-0.0605 0.1182c-0.5234 1.4629-1.1411 2.9424-1.7383 4.374-1.4135 3.3865-2.8699 6.8882-3.2985 10.621-1.3576 1.734-1.9975 4.2103-2.6121 6.6116-0.4971 1.9434-1.0117 3.9531-1.8975 5.5479l-0.0439 0.1064c-0.814 2.8613-1.7407 5.7744-2.6362 8.5908-2.4521 7.7104-4.9702 15.678-5.6354 23.913l-0.8959-0.2238-0.0854 0.5381c-0.687 4.3135-1.5737 8.6777-2.4312 12.899-1.6972 8.3563-3.4445 16.992-3.7524 25.715l-0.9044 0.0504-0.0083 0.4648c-0.0483 2.7676-0.3486 5.583-0.6392 8.3047-0.1284 1.2001-0.2546 2.4014-0.3635 3.6067l-0.0076 0.0095-0.0081 0.147-0.1467 1.6519 0.0781-0.0979c-0.1147 2.761-0.1254 5.4624-0.1075 7.9347-0.3479 0.0597-0.5734 0.2261-0.7006 0.379-0.5391 0.6484-0.3242 1.8066-0.0972 3.0332 0.1196 0.6445 0.2432 1.3105 0.188 1.6631l-0.0112 0.0732 0.0042 0.03c-0.4386 8.0084-0.3595 16.168-0.282 24.06 0.0454 4.6455 0.0923 9.4482 0.0332 14.168l-0.0063 0.501 0.9742 0.0098c-0.038 3.0994 0.0683 6.2284 0.3426 9.797 0.0078 0.2252-0.0958 0.6689-0.1967 1.0985-0.2412 1.0293-0.4907 2.0928 0.0024 2.7148 0.1326 0.1675 0.402 0.3445 0.799 0.387 0.0083 5.0726 0.6907 10.069 1.4017 14.764l-0.0053 0.0673 0.0488 0.1143c0.2524 0.5889 0.1797 2.0674 0.1157 3.3711-0.1099 2.2324-0.1333 3.6338 0.4668 4.2646 0.2195 0.2308 0.5063 0.3218 0.8279 0.2964 2.1975 17.187 6.5533 33.728 10.538 47.668l0.1245 0.4346 0.7173-0.1289c-0.4443 2.5669 0.5837 4.9448 1.5976 7.25 0.2656 0.603 0.5289 1.202 0.7613 1.7985 6.7286 21.316 15.355 41.758 25.658 60.786 1.6328 2.5791 3.1235 5.3613 4.5654 8.0518 2.4261 4.5269 4.9359 9.205 8.2159 13.112 0.1513 0.3186 0.2516 0.7755 0.3568 1.2621 0.2465 1.1401 0.562 2.5255 1.8176 2.808 1.0662 1.5275 2.0755 3.1526 3.0506 4.7291 1.9689 3.1847 4.0074 6.4731 6.673 9.1862 0.1045 1.3771 0.9438 2.6021 2.2041 3.2357 0.3209 2.3405 2.21 4.1923 3.9003 5.8291 0.6905 0.6696 1.3372 1.3026 1.866 1.9401 0.0758 0.5184 0.2057 1.349 0.2795 1.7904l0.0898 0.5371 0.8367-0.2139c0.3566 0.9176 1.0158 1.5588 1.9767 1.9048 0.9152 2.2509 2.5359 4.2701 4.8242 6.0089l0.3209 2.1927 0.9388-0.1071c0.594 1.0762 1.5178 2.579 2.8756 2.7906 2.8579 4.5209 5.816 7.8407 9.0307 10.137l-0.0858 2.4761 0.9883-0.4161c0.5043 1.1678 1.3126 1.5701 2.0034 1.6774 2.3782 3.1813 5.307 5.9813 8.1475 8.686 2.1211 2.0186 4.3145 4.1074 6.249 6.333l1.4751 0.7246c0.504 0.2302 1.0093 0.4607 1.3696 0.6273 0.7999 0.8459 1.5941 1.7632 2.3624 2.653 2.4732 2.865 5.0333 5.8221 8.5613 7.3947l0.369 0.3798-0.1104 0.0137 0.8184 0.7148 0.166 0.1709 0.0276-0.0034c21.683 18.91 41.921 33.2 61.863 43.681 5.7303 4.354 12.638 8.1017 19.986 10.844 3.7516 3.2809 9.1859 5.2284 13.1 6.2826l0.1051 0.0283 1.6281 0.7826c0.1224 0.2451 0.2723 0.4681 0.4614 0.6566l-0.1599 0.4221 0.3243-0.2715c0.9385 0.7979 2.4208 1.0723 3.4931 1.2695l0.0143 0.0027c1.0187 1.8065 3.8064 1.9719 4.6761 1.9719 0.1368 0 0.2665-0.0057 0.3962-0.0115 0.3061 0.1515 0.7339 0.3568 1.1458 0.5544l0.673 0.3245 0.2958 0.8337 0.2417 0.0732c1.9824 0.5996 3.9492 1.4541 5.8511 2.2813 2.8218 1.2261 5.7386 2.4889 8.8248 2.988 0.1474 0.1143 0.2964 0.2406 0.4531 0.3792 0.5801 0.5117 1.3018 1.1494 2.187 1.1494 0.1071 0 0.2092-0.0267 0.3136-0.0447 0.3711 0.1566 0.743 0.3179 1.1166 0.4812 2.2189 0.9677 4.5128 1.9623 7.0227 2.0293l0.1736 0.1084c2.3003 1.3389 4.9077 2.8564 7.7192 2.8564 0.2847 0 0.5651-0.0188 0.8363-0.0488l-0.1151 0.7559 0.5117 0.0615c1.1802 0.1426 2.3623 0.5732 3.5059 0.9893 1.4688 0.5342 2.9878 1.0869 4.5947 1.0869 0.1718 0 0.3421-0.0115 0.512-0.0242l-0.2141 0.8318 0.5444 0.085c2.9517 0.46 5.8652 1.3535 8.6826 2.2168 2.9481 0.9042 5.995 1.823 9.142 2.2871 0.0291 0.1626 0.0935 0.2891 0.1607 0.3799 0.3159 0.4277 0.9189 0.4824 1.4087 0.4824 0.4575 0 0.9956-0.0586 1.5161-0.1143 0.4971-0.0537 1.0107-0.1094 1.4189-0.1094 0.224 0 0.3693 0.0172 0.4672 0.0375 1.1334 1.4573 3.7653 1.6975 6.1129 1.9 0.6155 0.0525 1.1861 0.1073 1.7042 0.1766l0.1512 0.8546 0.3682 0.041c4.7476 0.5215 9.5464 1.4453 14.187 2.3369 7.1592 1.377 14.562 2.8008 21.994 2.8008 0.4157 0 0.8334-0.0092 1.2508-0.0179l0.1252 0.8773 0.4063 0.0254c3.605 0.2246 7.2686 0.5186 10.812 0.8027 5.3859 0.4326 10.946 0.873 16.441 1.0874l-0.0042 0.0122 0.6685 0.0183c0.0019 1e-4 0.0039 2e-4 0.0058 2e-4l0.3716 0.0127 0.0013-4e-3c6.0137 0.1604 12.207 0.2394 18.924 0.2394 7.8011 0 16.047-0.1041 25.941-0.3265 0.6259 0.2079 1.1546 0.3177 1.596 0.3177 0.7745 0 1.305-0.3519 1.5416-0.9559 3.9318-0.0179 7.9084-0.1531 11.83-0.4124l0.1744 0.0265 0.8584-0.7339c0.4595 0.0181 0.9181 0.0298 1.375 0.0298 1.4004 0 2.8145-0.0732 4.1816-0.1436 0.8115-0.042 1.6265-0.084 2.4482-0.1123 0.0496 0.0039 0.0936 0.0015 0.1422 0.0042 0.0796 0.0045 0.1567 0.0055 0.2338 0.0068 0.178 0.0029 0.347-0.0045 0.5087-0.0203 0.0425-0.0043 0.092 4e-4 0.1335-0.0054 0.6211 0.2109 1.1392 0.3135 1.5801 0.3135 0.7743-7e-4 1.3052-0.3553 1.5427-0.9645l0.074 6e-4c3.1309 0 6.2734-0.3936 9.313-0.7744 1.7329-0.2178 3.5244-0.4414 5.2886-0.5898l0.4385-0.0361 0.0403-0.9275c0.9966 0.3168 2.2984 0.5857 3.4475 0.5857 2.0048 0 2.816-0.7693 3.1289-1.5414 3.3956-0.0355 6.8383-0.4281 10.243-1.1833 0.3278-0.0383 0.6749-0.0675 1.0325-0.0966 1.7072-0.1421 3.6245-0.3119 4.8488-1.4945 0.2505 0.0099 0.5009 0.0189 0.7503 0.0189 3.082 0 6.1074-0.7197 9.0337-1.415 1.333-0.3174 2.7114-0.6455 4.0664-0.8975l0.4985-0.0918-0.1733-0.8668c0.6921 0.0863 1.3969 0.1451 2.084 0.1451 1.9528 0 4.4963-0.3666 5.8383-2.0028 0.2006 6e-3 0.4011 0.0126 0.6031 0.0126 4.253 0 9.4454-1.4153 14.262-3.8817 0.4137-0.0631 0.9238-0.1047 1.4839-0.1495 2.1467-0.1699 5.0079-0.4036 5.5083-2.1614 0.3958 0.0465 0.8035 0.0784 1.231 0.0784 3.0261 0 6.624-1.1758 8.8308-2.8676 2.9827-0.1727 6.2346-1.2323 8.9712-2.9258l0.3625-0.0573c2.6792-0.4191 5.9816-0.95 7.7452-2.991 1.5237-0.0914 2.8225-0.4204 3.9169-1.0012 2.4067-1.0137 4.9414-1.9404 7.3931-2.8369 5.3461-1.9546 10.871-3.9783 15.642-7.0807 2.4464-0.2296 5.5245-1.1913 7.1066-3.215 0.4922-0.2064 1.3083-0.5496 1.7922-0.7557 0.0577 0.0018 0.1156 0.0045 0.1729 0.0045 1.8125 0 3.3613-0.8242 4.8589-1.6211 0.3447-0.1836 0.6885-0.3662 1.0908-0.5713 1.6484-1.1123 3.6538-1.9463 5.5938-2.7529 2.7017-1.1229 5.4885-2.2885 7.4487-4.244 2.87-0.6105 4.9092-1.6428 6.0811-3.0664 0.137 0.0157 0.2661 0.0419 0.4141 0.0419 1.739 0 4.137-1.1007 4.4645-2.9202 3.6964-0.9314 7.5778-3.0454 10.981-6.0011 0.6099-0.2911 1.3582-0.5336 2.1541-0.7877 1.9883-0.6366 4.208-1.3677 5.0337-3.2018 1.4888-0.0598 2.7109-0.9021 3.8911-1.726 0.6655-0.4639 1.2944-0.9023 2.0239-1.2295 2.7695-1.8301 5.6724-3.6191 8.4795-5.3486 6.3252-3.8981 12.864-7.9292 18.472-12.781 0.9977-0.2548 1.7052-0.8993 2.0925-1.8666 0.4442-0.1067 1.072-0.2603 1.4189-0.3452l0.1289-0.0313 0.0957-0.0908c2.1968-2.082 4.7012-3.9375 7.1235-5.7305 2.8234-2.0914 5.7405-4.2549 8.2009-6.7963 0.8635-0.4373 1.5225-1.1211 1.9576-1.9976 1.9069-0.1617 3.5774-1.5908 5.089-4.3608 0.0205 5e-4 0.0405 0.0062 0.061 0.0062 0.9507 0 1.7617-0.6084 2.4775-1.1465 0.1899-0.1426 0.375-0.2822 0.5537-0.4014l0.0811-0.0674c1.8638-1.9141 3.9619-3.6797 5.9907-5.3877 3.0464-2.5643 6.1858-5.2191 8.6519-8.4559l0.0879 0.0624 0.1672-0.3381c2.7749-0.774 4.7323-3.1254 6.6199-5.4138 0.7368-0.8942 1.4365-1.7325 2.1625-2.4584 2.8259-0.2557 4.5228-3.1719 5.0729-4.2965 2.2659-1.1495 4.0137-3.2133 5.7012-5.2178 0.7388-0.8771 1.4458-1.7064 2.2286-2.5146 2.7526-0.3737 4.5477-2.7928 6.1302-4.9463 0.3234-0.4408 0.6367-0.8646 0.9473-1.2566 1.5332-0.6061 2.6692-1.9796 3.2799-3.1791 1.1897-0.2078 2.0081-1.3695 2.7328-2.4149 0.3196-0.4611 0.6235-0.8872 0.9326-1.2136 3.1663-0.7135 5.4404-3.7378 7.2725-6.1809 0.2673-0.3569 0.526-0.7008 0.7795-1.0281 3.6279-2.5903 6.85-6.1022 9.9651-9.5012 1.0374-1.1323 2.0642-2.2527 3.0908-3.3212 0.8427-0.7654 1.7151-1.5448 2.5986-2.3341 3.1304-2.7969 6.364-5.6871 8.9045-8.5063 2.7073-1.3795 4.7893-3.96 6.4725-6.3328 0.1761-0.1143 0.3658-0.2295 0.5682-0.3494 1.0009-0.5933 2.2136-1.3259 2.4053-2.5543 0.8845-0.4058 1.5823-1.0562 2.0447-1.9087 2.7166-0.7083 4.4922-2.9312 6.0669-5.1759l0.8904-0.8903c1.189-0.2985 1.8879-1.3424 2.5039-2.2765 0.1421-0.2156 0.288-0.4298 0.4446-0.6464 0.3628 0.0049 0.7261 0.0087 1.0906 0.0087 0.6934 0 1.3933-0.0114 2.0959-0.0261l0.3015 0.6755 0.2285 0.0625c2.4004 0.6572 4.793 1.6494 7.1064 2.6094 3.6858 1.5298 7.4941 3.0933 11.525 3.4144l-0.1919 0.8033 0.4854 0.1172c2.6709 0.6455 5.3193 1.584 7.8789 2.4912 2.9402 1.0424 5.979 2.1167 9.1025 2.7719 1.193 0.723 2.4362 1.3521 3.6194 1.9347 0.2805 0.5198 0.7191 1.363 0.991 1.8861-0.21 2.0465 0.8792 3.6604 1.9443 5.2189 0.832 1.2188 1.6182 2.3701 1.8379 3.7207l0.0195 0.1221 0.0742 0.0986c0.2148 0.2842 0.3467 0.8252 0.4736 1.3477 0.2268 0.9302 0.5071 2.0573 1.4615 2.3204 0.0715 0.2461 0.1429 0.4918 0.2123 0.744 0.4264 1.5461 0.8748 3.1378 1.938 4.3558-0.2537 0.7135-0.4851 1.4612-0.6873 2.2358l-0.2908 0.2589c-0.3359 0.3007-0.7307 0.6532-0.9839 0.8737-6.5115 3.2661-13.192 9.765-17.45 16.981-4.4348 6.8176-8.7131 14.125-8.4783 22.026l-0.8911-0.1528-0.0791 0.5c-1.5918 10.102-1.3486 20.485-1.1123 30.525 0.1045 4.4635 0.2117 9.0778 0.1569 13.6-1.2346 1.9388-1.7468 4.1945-1.5383 6.7113-0.1649 0.0454-0.3142 0.1282-0.433 0.2638-0.4736 0.541-0.373 1.5898-0.1514 3.2529 0.0646 0.4814 0.1259 0.9628 0.1464 1.3446l-0.8583-0.1464-0.0879 0.4873c-0.4648 2.5703-1.4121 5.0615-2.3291 7.4697-0.6648 1.7478-1.3494 3.5551-1.8552 5.395-0.3337 0.3787-0.692 0.7517-1.0569 1.1284-1.3059 1.3446-2.6451 2.7388-3.0586 4.6434-1.6688 1.1627-3.0635 2.6843-4.4072 4.1652l-0.6704 0.7344c-1.3036 0.8018-2.7859 1.5104-4.2212 2.1943-2.2838 1.0898-4.6357 2.2214-6.439 3.79-1.3011 0.208-2.545 0.64-3.7476 1.0625l-0.6426 0.223c-3.2417-0.5908-6.2039-0.2003-8.6667 1.1588-2.5902 0.2777-5.02 2.6195-6.0198 4.8699-0.7192 0.1057-1.4065 0.5256-1.96 1.2473-0.8474 1.1036-1.2535 2.6967-0.999 3.8473-0.6973 3.7264 0.3772 7.3127 1.4229 10.782 0.2422 0.8027 0.4824 1.6025 0.7002 2.3994l0.1279 0.4678 0.7759-0.1864c0.212 2.2482 1.0552 8.4105 3.9688 10.673 4e-3 2.4596 0.6329 6.8444 2.9812 8.0524-0.2952 1.7983 0.4431 3.3647 1.1726 4.879 0.46 0.9561 0.8955 1.8604 1.0859 2.8203l0.0469 0.1328c0.2803 0.5391 0.4502 1.2148 0.6299 1.9316 0.3182 1.2648 0.6858 2.6791 1.8027 3.452 0.1096 1.4779 0.3737 3.8843 1.974 5.0074 0.1412 0.4998 0.2391 1.0862 0.3365 1.7144 0.2454 1.5835 0.5344 3.3542 1.761 4.2482 0.0554 0.5441 0.1007 1.0995 0.1423 1.6678 0.1855 2.514 0.3899 5.1052 1.8328 7.2539 0.0325 0.3621 0.0292 0.7534 0.0237 1.1699-0.0201 1.2987-0.026 2.7532 1.2107 3.7443 0.0369 0.3058-0.0571 0.8827-0.1414 1.368-0.1826 1.0605-0.3545 2.0625 0.1338 2.6426 0.1411 0.1685 0.4298 0.3464 0.8516 0.3639 0.0215 0.4111-0.0273 0.9319-0.0771 1.4427-0.1152 1.1924-0.2344 2.4248 0.3857 3.1582 0.1838 0.217 0.4326 0.348 0.71 0.4391-0.0017 0.3148-0.0225 0.6543-0.0547 1.0219-0.1149 1.2914-0.2385 2.8702 0.9595 3.7552-0.0969 2.9606 0.2483 5.9177 0.5903 8.7789 0.3704 3.0925 0.7456 6.2854 0.5483 9.4541h-0.0015l-0.0242 0.4545-0.0442 0.5485 0.0237-7e-4c-0.1555 3.3596-0.1074 6.6359-0.0491 10.092l0.0449 2.8818h0.96c-0.0341 3.8768 0.0282 7.2299 0.4063 10.772h5e-4c0.1582 1.8956 0.6401 3.8359 1.106 5.7119 0.2578 1.0361 0.5244 2.1084 0.7305 3.1523l0.1367 0.6973 0.7151-0.4286c0.0598 0.2179 0.1188 0.428 0.1794 0.6532 0.9202 3.3953 2.0649 7.6047 4.8571 9.3199 0.5615 0.7651 0.4574 2.2338 0.3529 3.6586-0.1152 1.5693-0.2246 3.0508 0.5371 3.8701 0.2583 0.2787 0.594 0.4536 1.0005 0.5251 0.036 0.8417 0.0972 2.0458 0.131 2.7163-0.349 3.386-0.1322 6.6301 0.099 10.062l0.0703 1.047-2e-3 0.0155 0.0088 0.0635c0.0381 0.2803 0.0605 0.6123 0.0859 0.9688 0.1035 1.4722 0.2594 3.4318 1.5996 4.0306 0.6782 2.8301 2.6968 6.4469 5.052 7.8832 0.3857 0.5474 0.7976 1.0826 1.2146 1.6184 1.4834 1.9102 2.8848 3.7129 3.0742 6.1406l0.04 0.5195 0.7305-0.0876c-0.333 1.9895 0.3511 3.8346 1.0225 5.6248 0.2676 0.7139 0.5449 1.4531 0.7432 2.1777l0.0771 0.1592c0.6719 0.9336 0.7979 2.6123 0.9189 4.2363 0.1819 2.4319 0.3904 4.9246 2.3267 5.8279 0.1238 0.4489 0.4116 1.1945 1.1157 1.1936 0.4771 0 0.9272-0.3766 1.438-1.174l0.8794-0.2762 0.0918-0.2051c3.9869-8.8683 5.3452-19.368 4.0392-31.209 0.0677-0.3364 0.1693-0.8588 0.2502-1.2853h0.1647l-0.0388-0.2596c0.5042-0.3274 0.9115-0.7616 1.207-1.3119 0.8035 0.8369 2.0671 1.2015 3.1345 1.5032 0.2092 0.0586 0.4055 0.1182 0.6014 0.1779 0.5374 1.4465 2.015 2.0325 3.3572 2.097 1.5541 1.6062 4.2167 3.4586 6.9335 3.7314l0.2397 0.2573c0.1609 0.1707 0.3213 0.3422 0.4546 0.4877 0.0428 0.6313-0.103 1.5671-0.2524 2.486-0.2939 1.8184-0.5732 3.5361 0.1816 4.4219 0.2021 0.2383 0.5791 0.5225 1.2217 0.5225 0.3633 0 0.7734-0.0869 1.2539-0.2646l0.1299-0.0479 0.0869-0.1084c0.3525-0.4414 0.6504-0.9531 0.9375-1.4492 0.688-1.1862 1.296-2.2075 2.562-2.3213 0.6956 0.9152 1.321 1.923 1.9224 2.9063 0.8789 1.4399 1.7925 2.9236 2.9788 4.1851 0.3774 2.3962 2.4092 4.5956 3.7937 5.8453-0.0828 1.5659 1.1301 2.379 2.2373 3.0125 0.1372 1.5475-0.455 2.918-1.0889 4.3624-0.3848 0.8757-0.7706 1.7803-0.9988 2.739l-0.0247-0.031 9e-4 0.131c-0.0016 0.0074-0.0035 0.0149-0.0052 0.0223-1.6848 0.7286-1.1956 3.1633-0.7573 5.3281 0.2783 1.375 0.5938 2.9336 0.1904 3.4785l-0.2051 0.2764 0.1846 0.291c0.5166 0.8076 0.9287 1.7607 1.3652 2.7705 0.9906 2.2885 2.026 4.6401 4.4153 5.6422 0.3154 0.8663 0.6302 1.7494 0.9458 2.6648-0.2788 2.8519-0.2908 5.5934-0.0356 8.8536-0.2205 2.2557-1.1282 4.2855-2.0911 6.4341-0.9067 2.0234-1.8396 4.1162-2.1296 6.3955-0.8516 0.9272-1.1578 2.0922-0.8987 3.4717l0.1523 0.8115 0.6484-0.5107c2.7544-2.1665 6.5156-5.1315 8.2317-9.0809 0.1907-0.2456 0.5066-0.6659 0.7219-0.9542 1.5282-0.415 2.2114-1.9146 2.7573-3.1416 0.165-0.3691 0.3223-0.7246 0.5186-1.0771 0.1982-0.458 0.4033-0.917 0.6094-1.3779 1.3484-3.017 2.7275-6.1365 2.4607-9.587 1.1046-0.901 1.0397-2.3759 0.9709-3.6932-0.021-0.4026-0.0283-0.7743-0.0146-1.1222l0.959 0.0558-0.0791-0.5996c-0.458-3.4541 0.7227-6.4395 1.9727-9.6006 0.396-1.0016 0.8044-2.0376 1.1536-3.0806 2.0559-3.6758 2.8589-8.1278 3.6326-12.435 0.3259-1.8173 0.6702-3.683 1.0957-5.4355l0.0508-0.0049 0.0334-0.3716 0.1638-0.6519-0.1223 0.0142c0.1708-2.3591 0.1331-4.778 0.0862-7.1265-0.0176-0.9139-0.031-1.8126-0.0359-2.7028l0.1794-0.015-0.1855-0.5287v-0.4586l-0.1821 0.0151c-1.4103-3.6196-4.5483-6.411-7.7654-8.8815l-0.3552-0.33c-0.208-0.1915-0.4215-0.3893-0.5923-0.5502-0.1375-1.91-1.5682-3.625-4.267-5.1011-0.3268-1.1467-1.0165-1.9376-2.0597-2.3512-1.0859-1.6035-3.1396-2.2361-5.1357-2.8413-1.0251-0.3107-1.9927-0.6042-2.8004-1.0155l-1.9-1.0342c-0.6697-1.1827-1.7285-1.9081-2.7654-2.5988-0.7041-0.4697-1.3701-0.9131-1.8525-1.4287-0.3662-0.54-0.7031-1.1016-1.04-1.6631-0.6143-1.0219-1.254-2.0734-2.0596-2.9937-0.069-1.5618-1.1525-2.5416-2.124-3.4038-0.3447-0.3076-0.6709-0.5967-0.9648-0.9209-6.5742-6.6416-9.2979-15.33-10.424-21.449l-0.0488-0.2637-0.834-0.3561c0.0199-2.8228-0.5623-5.6311-1.1328-8.351-0.3843-1.8314-0.7773-3.7249-0.9948-5.6719 0.5175-2.8408 0.4371-5.8635 0.2448-8.7437l0.085 0.0034-0.1243-0.5928-0.03-0.415-0.0439-0.0018c-0.7169-3.58-1.0079-7.4604-0.8438-11.557l0.0205-0.5303-0.0107 2e-4c0.1941-6.8024 0.0486-13.623-0.1322-20.073l1.0463 0.2645 0.0068-0.6357c0.1038-9.939 0.8625-18.964 2.3052-27.57l0.7124 0.3741-0.0176-0.8408c-0.0586-2.7324 1.0098-5.1553 2.1416-7.7197 0.7114-1.6125 1.439-3.2816 1.8647-5.066 2.8198-3.13 4.6313-7.5973 6.3813-11.922 0.5251-1.2969 1.0249-2.5209 1.541-3.6952l0.0615 0.0057 0.0715-0.2789c2.0748-2.127 5.428-6.106 5.7693-9.8627 1.7939-1.02 3.2684-3.0435 4.4949-6.184 1.6102-1.0355 2.5525-2.797 3.4592-4.5074 0.6807-1.2852 1.3232-2.499 2.2197-3.4072l0.1074-0.1631c0.4893-1.2002 1.3818-2.1973 2.3271-3.2529 1.2097-1.351 2.4501-2.7511 2.7737-4.6128 1.8098-1.4816 4.8015-4.3617 5.8992-7.9031 1.2715-0.7822 2.121-1.9392 2.9307-3.071 0.5474-0.7645 1.0739-1.485 1.7134-2.0934 4.0278 0.9856 8.085 2.3169 12.01 3.61 5.01 1.6506 10.188 3.3506 15.42 4.3723l0.1078 0.8777 0.3242 0.0879c3.293 0.8936 6.5479 2.2051 9.6953 3.4746 3.2583 1.3131 6.6257 2.6637 10.055 3.5653 0.6696 1.8242 2.8464 2.4684 4.9736 3.0773 1.1493 0.3293 2.2355 0.6418 2.9985 1.1172 2.8835 2.5449 6.6511 3.9163 10.018 4.9867 0.292 1.8428 2.7078 2.9586 4.4705 2.9586 0.1733 0 0.3269-0.0273 0.485-0.049 4.9575 3.839 11.048 6.7339 16.919 9.2869 0.6781 1.282 1.6794 1.9642 2.9141 1.9642 0.0935 0 0.197-0.0195 0.2947-0.0275 1.8657 3.5608 6.6453 5.0793 11.122 6.0873l1.7075 0.7393c0.7799 1.1938 2.1816 1.781 4.291 1.781 1.501 0 3.1768-0.2793 4.7969-0.5498 2.0625-0.3457 4.0557-0.6367 5.1895-0.3779l0.8662 0.1973-0.4084-1.2222c0.6331 0.0161 1.3601 0.1113 2.1262 0.2104 0.9189 0.1182 1.8682 0.2402 2.75 0.2402 0.6199 0 2.4075-0.0187 3.2532-1.407 0.2323 0.0077 0.4644 0.0164 0.698 0.0164 2.1328 0 4.3164-0.3066 6.4297-0.6035 2.1025-0.2949 4.2773-0.6006 6.3887-0.6006l0.0912 0.0011 0.0856 0.079 0.1973-0.0757 1.0192 0.012c0.3159 0.167 0.606 0.4742 0.933 0.8342 0.5452 0.5999 1.219 1.3289 2.246 1.5195 1.8297 2.5156 4.766 4.1367 7.5499 4.1367 0.7261 0 1.4397-0.1145 2.125-0.3251l0.1055-4e-3c0.8662 0 1.6113 0.4795 2.4004 0.9883 0.8311 0.5361 1.6914 1.0898 2.7441 1.0898 0.0435 0 0.092-0.0035 0.1393-0.0062 2.1827 2.4559 5.1954 4.1584 8.1185 5.7992l0.5811 0.3282-0.082 0.2147 0.3644 0.0325c0.5319 1.1907 1.3893 1.5769 2.0992 1.6654 1.116 1.016 2.6033 1.1595 3.7932 1.1595 0.1807 0 0.3604-0.0029 0.54-0.0078l0.7178-0.0205-0.2676-0.666c-0.1279-0.3184-0.2139-0.7646-0.3047-1.2363-0.2114-1.1022-0.4763-2.4375-1.5154-2.8496l-0.217-2.1729-1.0115-0.0555c-1.4636-4.3043-4.1672-8.0371-6.7922-11.647-1.1519-1.5829-2.3413-3.2206-3.3966-4.8689l-0.0546-0.176c-0.4941-1.5986-1.0518-3.4043-2.5508-4.4414-0.627-1.3779-1.9443-1.873-3.1104-2.3115-1.4128-0.5309-2.2874-0.9287-2.3846-2.198l0.3373-1.4969c4.3005-2.2194 7.5549-5.9563 10.699-9.5804 0.7981-0.921 1.5889-1.8315 2.3884-2.7068 2.3851-0.9652 3.837-3.6045 4.8357-5.8516l1.1615-1.1683c2.1182-1.666 4.9364-2.257 8.3275-1.7555l0.114 0.1091 0.171-0.0702 1.4384 0.2255-0.6218-0.5953c0.2861-0.1322 0.5745-0.257 0.8591-0.3959 0.5811-0.2822 1.1787-0.5742 1.7891-0.8066 0.7168 0.6719 1.3926 1.4336 2.0469 2.1729 1.6267 1.8364 3.3142 3.7234 5.838 4.5439 0.9233 2.0608 3.1304 2.082 4.2235 2.082h0.0068c0.2346 0 0.4701-0.0057 0.7046-0.0111l0.0122 1.184 0.6777-0.2715c1.1719-0.4688 2.3486-0.6963 3.5977-0.6963 2.312 0 4.5088 0.7778 6.8446 1.6202 1.6488 2.097 4.2362 3.4216 6.7472 4.6991 0.8701 0.4426 1.6919 0.863 2.4755 1.3116l0.0065 0.0096-0.1167-0.0127 0.7639 0.9747 0.0828 0.1229 0.0149 0.0016 0.3953 0.5043c1.4343 1.8585 3.062 3.9515 5.7288 4.5125l1.0967 0.9786c-0.0497 0.3862 0.035 0.7539 0.2566 1.0597 0.3154 0.4365 0.8604 0.6973 1.459 0.6973 0.8096 0 1.4746-0.4736 1.7354-1.2344l0.0605-0.1748-0.0684-0.1719c-0.2676-0.6729-0.4971-1.3945-0.7412-2.1592-0.7018-2.2051-1.4355-4.4763-3.1592-5.8684-2.6089-9.3104-10.549-16.43-16.956-22.159-1.3099-1.8741-2.6438-3.1945-4.0701-4.0421-0.9922-1.7827-2.7603-2.8274-4.4771-3.8333-0.5342-0.313-1.0315-0.6139-1.5105-0.9296-0.1429-1.0988-1.1143-1.6663-1.9153-2.1251-0.0574-0.0327-0.1069-0.0652-0.1632-0.0977 2.4073-0.3137 5.004-0.688 7.1447-1.7402l0.2949 0.0527-0.1404-0.13c0.6423-0.329 1.231-0.735 1.7682-1.2091 1.5862 0.266 2.4562 1.5934 3.3673 3.0071 0.3584 0.5566 0.7295 1.1318 1.165 1.6572l0.1045 0.1123c2.2039 2.3792 4.9401 5.326 8.6094 5.4039 0.3247 0.6134 1.092 0.9281 2.3018 0.9281 2.7819 0 7.3613-1.6122 8.2903-1.9498 0.3796 0.0714 0.7368 0.1139 1.0525 0.1139 1.3276 0 1.9277-0.6218 2.1987-1.2571l0.9404-0.0594-0.0024 0.1476 0.603-0.1855 0.4009-0.0254 0.0017-0.0985 0.2737-0.0842 0.4346 0.2218c2.4207 1.2401 4.9221 2.5135 7.572 3.0001 0.605 1.4347 2.0265 2.233 3.4143 2.9979 0.7356 0.4055 1.4268 0.7909 1.9839 1.2554l0.0601 0.0903c1.4521 2.1844 3.4294 5.1411 5.6677 6.6202 0.2705 1.6804 2.1097 3.204 3.9739 3.204 0.1133 0 0.2256-0.0059 0.3379-0.0176l0.5879-0.0605-0.3672-1.335c-0.7915-2.907-1.6938-6.1862-3.7639-8.4377l-0.1511-2.2498-0.863 0.2535c-2.5913-6.0337-6.6858-11.107-11.587-14.318-2.4001-2.6776-6.0461-4.4863-9.2683-6.0819-0.4319-0.214-0.8582-0.4253-1.2778-0.6366-1.5945-1.8029-3.8347-2.9622-6.0044-4.0802-1.5352-0.79-3.1221-1.6084-4.4355-2.6475-3.5127-2.5146-8.168-5.4004-13.028-5.4004-1.7078 0-3.3386 0.3746-4.856 1.0995-2.979-0.2695-5.6716-0.2284-8.1279 0.121l-0.0181-0.0115-0.2024 0.0375-0.5542 0.0823c-1.4573-0.2944-3.0437-0.441-4.8499-0.441-1.2686 0-2.6584 0.0732-4.3391 0.2236l-0.0437-0.0381-0.2141 0.0601-1.1345 0.105 0.2217 0.1898c-4.4546 1.4432-8.824 4.2162-12.119 7.7361-0.2996 0.1779-0.641 0.3463-0.9949 0.5204-1.1812 0.5814-2.4965 1.2374-2.9419 2.4803-1.9385-0.0035-3.7157-0.7612-5.5698-1.5653-1.6221-0.7041-3.2998-1.4316-5.1299-1.6113l-0.0898-0.0088-0.0869 0.0234c-1.4326 0.3799-2.915 0.5654-4.5332 0.5654-3.2871 0-6.6172-0.7861-9.8369-1.5459-1.0801-0.2549-2.1563-0.5088-3.2295-0.7344l-0.0566-0.0117-0.0198 4e-4c-1.7444-0.2498-3.6797-0.3715-5.9187-0.3715-1.7468 0-3.4478 0.0697-5.3152 0.1553-0.8208-0.5585-1.7134-0.8795-2.6746-0.9634-1.2961-1.9388-4.4592-2.0198-6.8645-2.0408l0.4158-0.9138-0.8037 0.0244c-2.4492 0.0771-4.9023-0.2471-7.2754-0.5586-2.5436-0.3333-5.1753-0.675-7.8185-0.5334-0.8813-0.6025-2.0345-1.2537-3.3475-1.2537-0.1233 0-0.248 0.0068-0.382 0.0215-0.5812-0.9803-1.9025-1.2189-3.1893-1.4453-0.9111-0.1602-1.8525-0.3252-2.4268-0.7451l-0.1143-0.0615c-4.0234-1.5625-8.0791-3.3262-12.002-5.0313-5.2649-2.2896-10.707-4.6512-16.131-6.5573-0.7839-1.4635-2.2307-1.954-3.5173-2.3832-0.3232-0.1084-0.6455-0.2158-1.0039-0.3525-2.8564-0.8135-5.46-2.5283-7.9775-4.1875-2.311-1.5236-4.7015-3.0917-7.2556-3.9315-0.8063-1.5403-1.7947-2.2891-2.9492-2.2517 0.2615-0.8341 0.7249-1.5961 1.2185-2.39 0.5225-0.8401 1.0503-1.7136 1.3523-2.7271 2.7666-1.2362 4.1501-5.7018 4.8499-8.1293 2.6299-0.5731 4.0066-4.5596 4.4092-5.9539l0.7007-0.9047c2.2283-1.0164 3.7913-3.8209 4.2194-6.1344 1.8615-0.6697 3.2411-2.4757 4.4598-4.0912 0.1985-0.2626 0.3906-0.5127 0.5822-0.7588h0.038l0.1259-0.2126 0.6261-0.7874h-0.1604c0.1511-0.2563 0.2988-0.5062 0.4364-0.7394 0.3655-0.099 0.8854-0.2335 1.2347-0.3231l0.2832-0.0732 0.1025-0.123c1.623-1.9365 3.5703-3.7188 5.4521-5.4414 3.297-3.0183 6.699-6.1429 8.6292-10.285 2.0298-1.0382 3.926-2.9147 5.1323-5.0784 1.3414-0.5278 2.5367-1.6555 3.0952-2.9143 3.9635-1.1187 7.088-5.4707 9.0366-9.0006 2.2751-2.0188 3.5737-3.9495 3.9802-5.9191 1.8229-1.0675 2.3127-3.0566 2.7729-4.9924 0.2236-0.9404 0.4346-1.8281 0.791-2.5869l0.0449-0.1611c0.4409-4.2711 1.243-12.159-3.4966-16.016 0.0151-1.5013-1.2158-2.1108-2.228-2.5983-1.1797-0.5674-1.9004-0.9717-1.8623-2.0713l0.0068-0.2051-0.1396-0.1514c-1.0205-1.1016-1.4219-2.4697-1.8457-3.918-0.5469-1.8643-1.1113-3.791-3.0781-5.0723-0.5371-1.4248-1.7422-2.1934-2.8096-2.876-1.1592-0.7402-2.1611-1.3799-2.3701-2.6934l-0.0615-0.3828-0.011-1e-3c-0.3816-2.076-1.8046-3.719-2.8984-4.8005-1.3712-1.7908-2.6143-3.8802-3.8162-5.9006-1.7678-2.9744-3.597-6.0449-5.9385-8.38-0.6062-2.4922-2.0994-5.0374-4.0359-6.8906 0.1484-1.6862-1.08-3.0343-1.9918-3.9683-0.3217-2.1296-1.3263-6.8756-4.0531-9.1006-1.1313-5.1099-3.4116-10.8-5.325-14.762l0.0161 0.0017-0.4111-0.8203c-0.4072-0.8096-0.7256-1.8125-1.0342-2.7832-0.5499-1.7307-1.1245-3.5087-2.2683-4.5756-0.0986-2.8994-1.4094-5.3884-2.6877-7.7955-1.1544-2.1727-2.2391-4.2389-2.4902-6.5616l0.9131 0.1808 0.083-0.5107c1.5791-9.6875 2.1992-19.659 2.7988-29.302 0.1602-2.5752 0.3193-5.1475 0.4971-7.7139l0.0371-0.5449-0.9875 0.02c0.0188-1.1157-0.1309-2.2056-0.4575-3.2717 1.2491-1.2412 2.7651-2.3323 4.2429-3.384 2.2305-1.5883 4.5315-3.2334 5.9591-5.4562 6.4581-4.0249 12.469-9.2587 18.284-14.323 2.1664-1.8871 4.2134-3.6692 6.2678-5.3789 1.5142-0.9216 4.9806-3.3022 6.2296-6.4005 0.0085 0 0.0175 0.0011 0.026 0.0011 2.6787 0 4.4658-2.293 6.042-4.3164 0.7134-0.9148 1.3907-1.7761 2.1135-2.424 0.8345-0.1051 2.2716-0.2952 3.0269-0.3983 14.186-1.1917 28.795-3.2261 42.924-5.1934 4.6638-0.6503 9.3186-1.2983 13.954-1.916l0.0132 0.0029 0.1035-0.0205c5.0273-1.001 10.194-1.751 15.191-2.4775 4.8624-0.7059 9.8892-1.4364 14.795-2.3979 4.9727-0.6185 10.1-1.4067 14.906-2.1678l0.052 0.0082 0.123-0.0459c0.7725-0.2881 1.5439-0.4287 2.3613-0.4287 1.9785 0 3.8486 0.8232 5.8291 1.6953 0.9915 0.4364 2.0164 0.8713 3.0593 1.2109 0.1458 1.2751 1.7994 1.5415 2.9417 1.7158 0.4081 0.062 0.7896 0.1232 1.0721 0.2076 1.1122 1.6453 3.2737 2.3085 5.1964 2.8871 0.322 0.0967 0.6345 0.1912 0.9341 0.2883 3.3772 2.505 7.7961 4.6918 13.89 6.8744 2.6943 2.3611 6.3121 3.796 9.8152 5.181 0.8003 0.3165 1.5908 0.6292 2.3562 0.9484l0.3098 0.1512c0.4836 0.2352 1.1394 0.5547 1.5188 0.748 0.3844 0.2726 0.7817 0.5747 1.1931 0.8877 1.873 1.4277 3.9951 3.0449 6.4092 3.0449 0.2131 0 0.4236-0.0369 0.6353-0.0627 1.1638 2.5449 4.2141 3.6473 7.1909 4.6995 1.3486 0.4756 2.6221 0.9258 3.6406 1.4893l0.0012-0.0016 0.031 0.024c5.2935 3.4468 10.768 6.9962 16.804 8.7792l-0.0366 0.881 0.2598 0.1514c5.6514 3.3018 11.793 5.8564 17.141 8.0049 3.3193 1.0537 6.6201 2.3965 9.8115 3.6953 4.7677 1.9402 9.6973 3.9442 14.915 5.0574l-0.0011 9e-3c1.3193 0.2861 2.6924 0.4248 4.1963 0.4248 2.835 0 5.6943-0.5059 8.46-0.9951 1.9121-0.3389 3.8896-0.6885 5.8135-0.8594l0.1162-0.0244c0.8223-0.2793 1.5176 0.3076 2.2676 0.9678 0.3289 0.2899 0.6719 0.5808 1.04 0.814l0.2334 0.5288c0.1758 0.3618 0.3641 0.7509 0.5013 1.0403l-0.0013 0.0076 0.0708 0.1394 0.564 1.2034 0.0182-0.0641c0.1903 0.3712 0.3771 0.7333 0.5096 0.9852 0.9213 2.7596 2.2454 5.4214 3.5278 7.9949l0.031 0.0623c-0.0865 1.7256 1.0918 3.2562 2.4041 4.0995 0.1663 1.25 0.8411 2.6965 2.2534 3.2377v0.542l0.2539 0.1436c3.7754 2.1289 6 5.7119 8.3555 9.5059 2.2836 3.679 4.6558 7.4696 8.5562 9.7844-0.0209 0.5 0.1411 0.8455 0.3091 1.0515 0.2891 0.3555 0.7402 0.5518 1.2695 0.5518 0.6289 0 1.2646-0.2891 1.6592-0.7539 0.3701-0.4355 0.5195-1.0068 0.4189-1.6123-0.1504-0.8525-0.2979-1.709-0.4453-2.5693-1.1307-6.5741-2.3042-13.368-4.9519-19.568 0.6079-2.2668 0.0872-5.6118-1.5115-6.9923 0.3645-1.9133-0.3608-2.8612-1.0845-3.3043-0.1567-0.2783-0.2725-0.7635-0.3828-1.2432-0.2451-1.0635-0.5498-2.3867-1.6875-2.3867-0.0287 0-0.0598 0.0111-0.0891 0.0129l-0.9535-0.9272c-0.2281-2.5468-1.2321-4.9119-2.8702-6.8351 2.0292-0.8917 4.2737-1.1899 6.6863-0.865l0.2041 0.0323 0.1719-0.1348c0.1606-0.1265 0.4548-0.3676 0.6626-0.5396 5.6606-0.501 12.048-1.4293 16.895-4.3644 0.3981 0.1455 0.848 0.2379 1.3759 0.2379 1.6643 0 3.6771-0.7615 4.3955-1.9265 0.4626 0.0645 0.9226 0.1062 1.3691 0.1062 1.5385 0 3.6267-0.394 4.9448-2.1266l0.2886 0.0016 2.3779-0.0098c0.5874 0 1.1851 0.0084 1.8027 0.0259 0.1162 0.5415 0.2065 1.0995 0.292 1.6909 0.2727 1.8831 0.5635 3.825 2.0435 5.2955 0.752 2.6676 3.98 5.2598 6.6659 6.1099 0.4236 0.5211 0.7897 1.114 1.1715 1.745 0.7241 1.1984 1.4791 2.4279 2.6597 3.1454 0.589 0.9886 0.9658 2.2203 1.3599 3.5275 0.6022 1.9918 1.2346 4.0367 2.7141 5.2772-0.228 0.7594-0.2166 1.3417 0.0662 1.7491 0.2598 0.374 0.6953 0.5635 1.2949 0.5635 0.3066 0 0.6523-0.0479 1.0596-0.1455l0.3135-0.0762 0.0605-0.3154c0.8557-4.4532 1.2566-8.687 1.2227-12.615l0.0801 0.0148c0.2551 0.349 0.4839 0.7683 0.7197 1.2227 0.5295 1.0188 1.1301 2.1545 2.2722 2.588 0.3849 2.2151 1.4312 5.5521 2.7559 6.8851 0.1494 3.6902 0.6836 7.4156 1.2043 11.021l0.1467 1.0195c-0.321 0.5917-0.3413 1.2397-0.0178 1.8525 0.4736 0.8965 1.6016 1.5723 2.624 1.5723 0.6426 0 1.168-0.2676 1.4795-0.7539 0.5234-0.8145 0.3945-2.1211-0.3818-3.8857 1.9072-5.6204 2.493-11.75 1.7466-18.223l0.0015-0.01-0.0088-0.0674c-0.5989-4.5092-1.4583-9.6569-4.0134-13.839 0.0201-1.0029 0.021-5.6992-1.6072-7.0372-0.0488-0.4661-0.0941-0.9591-0.1401-1.4775-0.3071-3.4388-0.6857-7.6643-2.8369-9.479 0.0549-0.0656 0.1085-0.1294 0.165-0.1968 0.0942-0.1134 0.1885-0.2263 0.2775-0.3325 0.641 0.2598 1.3025 0.4731 1.9501 0.6694 1.1416 0.3457 2.2256 0.6748 3.1699 1.2852-0.0605 0.1943-0.1279 0.3945-0.1973 0.5996-0.4695 1.3889-1.088 3.2695 0.3958 4.4336 0.262 3.0082 1.4236 6.1445 3.9441 6.1445 0.1411 0 0.2917-0.0376 0.4385-0.0574 0.8723 1.7317 2.9458 2.3578 4.9717 2.95 1.5371 0.4492 3.126 0.9141 4.0518 1.8125 3.166 3.7881 4.8789 8.374 4.8242 12.914l-0.0068 0.5654 0.8379-0.0929c-0.0083 0.5886-0.1071 1.3047-0.2119 2.0558-0.2432 1.7344-0.4941 3.5283 0.3203 4.4648 0.3438 0.3945 0.8301 0.5947 1.4453 0.5947 0.335 0 0.7188-0.0615 1.1416-0.1807l0.3428-0.0977 0.0195-0.3555c0.0686-1.2158-0.0361-2.4088-0.3093-3.5929 0.0906-0.1981 0.2002-0.4352 0.3207-0.6945l0.1156 0.4749 0.504-1.7994 0.0575-0.1224-0.0128-0.0524c2.2269-8.1132 0.6832-17.682-4.1437-25.639-0.7433-1.9495-1.5795-3.9467-2.3884-5.8789-1.1904-2.8447-2.4229-5.7861-3.4189-8.7051l-0.0479-0.1396-0.2588-0.2051c-3.1826-2.5148-6.4763-5.1039-10.581-5.8396-1.1986-1.842-3.6764-2.7468-5.8833-3.5393-0.3711-0.134-0.7263-0.2629-1.0663-0.3925l-1.0919-0.4171c-2.9824-1.1533-6.0898-2.3447-9.3818-2.0342l-0.4883 0.0469 0.0691 0.8981c-3.6921 0.3849-7.043 2.9413-8.9149 5.1661l-2.3873 0.1252c-0.0548-0.1473-0.1328-0.3024-0.2708-0.4668-0.8311-0.9893-2.9482-1.6533-4.4043-1.6533-0.8135 0-1.4111 0.1943-1.7773 0.5771-0.1199 0.1252-0.2046 0.2722-0.2668 0.4299-2.1628-0.3593-4.0448-0.0233-5.4739 0.9969-0.4003-0.0457-0.8091-0.0802-1.23-0.0802-1.6982 0-3.3594 0.3662-4.9658 0.7197-2.2393 0.4941-4.6621 0.9385-6.749 0.499l-0.4805-0.1016-0.2485 1.0741-1.9878 0.1689c-2.3368-0.2661-4.822-0.5262-7.2705-0.5262-3.1025 0-5.7086 0.4302-7.9717 1.3041l-3.9395 0.0065c-10.386 0-21.44-0.1526-32.379-1.9744l-0.7218-0.2433c-0.9591-1.1892-3.0878-1.8995-4.6844-1.8995-0.3885 0-0.7386 0.0509-1.0634 0.1292-3.1722-2.1322-7.1495-3.6229-10.978-4.9594-1.3911-2.0032-3.6616-3.1965-5.8662-4.3466-1.2107-0.6313-2.3535-1.2305-3.3577-1.9512-1.1538-1.5686-2.8204-2.9335-4.5906-4.374-2.0344-1.656-4.1262-3.3646-5.5067-5.4741 1.4952-0.0389 2.8062-0.7731 4.0731-1.4897 0.1163-0.0658 0.2322-0.1294 0.3481-0.1945l-0.1479 0.5197 0.6504 0.0117c2.6475 0.0479 7.8662 0.125 10.659 0.166l0.0146 2e-4c0.7036 0.8796 1.7483 1.2756 3.137 1.1582 1.4655 1.4158 3.5912 2.106 4.8345 2.4031 0.8984 0.9618 2.1875 1.4585 3.9141 1.5194 0.0175 0.2051 0.0811 0.3867 0.1965 0.5402 0.3486 0.4619 0.9941 0.4639 1.21 0.4639h0.0029c0.4658 0 1.001-0.0928 1.5195-0.1816 0.4854-0.085 0.9316-0.1711 1.2195-0.141l0.095 0.0082 0.3564 0.0635 0.0103-0.0217c1.2665 0.1241 2.5754 0.3187 3.8491 0.5159 1.8643 0.2878 3.7872 0.576 5.6865 0.6536 0.3391 1.1628 1.8718 1.2141 3.1357 1.2498 0.6914 0.0195 1.4063 0.0391 1.8398 0.2158l0.1152 0.0469 0.0027-2e-4c1.7192 0.7238 5.4155 1.7268 7.9211 1.7268 1.542 0 2.4434-0.3701 2.7568-1.1318 0.3867-0.9404-0.2617-2.2031-2.04-3.9736-4.0953-6.1343-10.852-9.7816-16.833-12.994-2.823-3.549-7.7178-7.4906-13.244-8.1819-0.8079-1.1848-2.2539-1.6989-3.5444-2.1484-0.5435-0.1882-1.0536-0.369-1.5061-0.5861-0.1517-0.1567-0.3506-0.3577-0.5527-0.5592l0.3938-0.2112c4.4934-2.4622 10.062-5.52 12.007-10.508 1.4622-0.5233 2.7729-1.7438 3.3569-3.1378 1.4821-1.0789 2.1133-3.0852 2.6663-4.8693 0.1252-0.4044 0.2483-0.7925 0.3765-1.1627 0.4088-0.3291 0.8539-0.4916 1.394-0.4916 0.5596 0 1.1582 0.1592 1.793 0.3281 1.1711 0.3125 2.4839 0.5321 3.5857 0.1063l0.4902 0.1855 0.9651 0.7296 0.137-0.0492c2.7053 0.3434 4.8069 0.7611 6.7195 1.3346-0.2783 1.4011 0.825 2.3812 1.7393 3.1833 0.3828 0.3369 0.7441 0.6543 0.9932 0.9766l0.0947 0.0938c0.5537 0.417 1.1104 0.9033 1.6992 1.418 1.8018 1.5762 3.8401 3.3389 6.3821 3.4564l-0.2639 0.4606 0.5693 0.1982c1.5908 0.5527 3.2695 0.8008 4.8926 1.04 2.5283 0.373 4.915 0.7256 7.0029 2.1328l0.1123 0.0566c1.1074 0.3926 2.1221 1.0684 3.1963 1.7832 1.417 0.9431 2.8835 1.9089 4.6423 2.2065 2.2797 3.0841 5.7711 7.0737 10.119 7.0737 0.0996 0 0.1992-2e-3 0.2988-0.0059l0.6387-0.0273-0.1797-0.6123c-0.124-0.4268-0.2451-0.8652-0.3691-1.3105-0.7715-2.7805-1.6506-5.9218-3.7339-7.9144-1.9436-5.8245-6.3621-11.618-13.134-17.225-0.2616-1.0547-1.2585-1.5961-2.1531-2.0721-0.4028-0.2144-0.782-0.4203-1.0706-0.6514 0.1077-1.7571-2.3491-3.2709-3.4839-3.8728-0.0122-1.8815-0.7108-3.807-2.1355-5.8682 0.1809-1.6775-0.8855-2.8007-1.8452-3.7913l-0.3584-0.3768c-0.3772-0.5162-0.7612-1.0531-1.1553-1.6036-2.3962-3.3524-5.1062-7.1111-8.459-9.1934 0.4771-0.5559 1.2231-0.8015 2.2412-0.7427 0.5137 0.6445 1.1458 0.9741 1.9375 0.9741 0.6475 0 1.3086-0.2139 1.9482-0.4199 0.6117-0.1973 1.2302-0.3887 1.8032-0.3796 1.4751 5.2936 3.7578 8.6587 6.9312 10.225 3.5127 2.332 7.5928 2.6133 11.539 2.8857 3.1523 0.2169 6.4031 0.4546 9.2886 1.7491l-0.0366 0.0887 0.3302 0.0791c0.6007 1.3743 1.974 2.0164 3.203 2.5781 0.4031 0.1837 0.7805 0.3613 1.1294 0.5549 0.8784 1.9366 1.9331 3.8158 3.5824 4.7794 0.2192 1.9236 1.5914 3.5598 3.045 5.0702-0.3188 1.6406 1.1021 2.6644 2.1738 3.4177 0.3076 0.2158 0.6064 0.4248 0.8564 0.6396l1.126 0.9658-0.3115-1.4512c-0.1104-0.5088-0.0137-1.4219 0.0791-2.3047 0.1602-1.5244 0.3115-2.9648-0.3213-3.667-0.145-0.1614-0.3203-0.2822-0.546-0.3461-1.2531-10.343-7.4921-20.576-17.19-28.18l0.186-1.4816-0.5979 0.7465c-0.2938-0.485-0.723-0.8738-1.2697-1.1752l0.2689-0.8652-0.7549 0.4559c-1.0857-1.3346-2.3184-2.8187-3.988-3.5825-1.3679-2.2222-3.3679-4.094-5.3069-5.9027-1.3164-1.2285-2.6787-2.499-3.8037-3.8525l-0.084-0.0996-0.1221-0.0469c-4.1846-1.6025-7.999-2.3809-11.66-2.3809-0.9711 0-1.9258 0.0708-2.8445 0.1813l0.1443-0.9293-0.5479-0.0332c-2.5848-0.1595-5.3059-0.1127-8.3342 0.1348l-0.6006-0.0818c-0.5979-1.0828-2.2024-1.4866-3.5984-1.4866-1.2773 0-2.9033 0.348-3.6178 1.2852-4.0355-0.3066-7.4161 2.137-10.461 4.8135-0.5059 0.1104-1.1084-0.0811-1.7334-0.3018-0.7852-0.2751-1.6748-0.5111-2.4902-0.2841-1.5664-1.0997-4.4199-1.504-6.4766-1.504-0.9443 0-3.9524 0.0985-5.0012 1.2961-1.2677 0.0325-2.2866 0.687-3.2712 1.325-0.3164 0.2051-0.6309 0.4082-1.001 0.6191-2.7617 2.0166-6.0488 3.1211-9.2285 4.1895-3.1934 1.0723-6.4951 2.1816-9.3369 4.2178l-0.1016 0.0967c-2.0635 2.6104-4.7754 4.7344-7.3984 6.7891-2.3176 1.8148-4.7024 3.6951-6.5889 5.8741l-0.2869-0.0223 0.0408-1.3987-0.7461 0.3691c-1.5313 0.7578-3.3398 1.377-5.0898 1.9756-2.5098 0.8586-5.0991 1.749-6.9692 3.08-0.3783 0.0876-1.0771 0.0269-1.8022-0.0604-0.4951-0.0586-1.0078-0.1201-1.4756-0.1201-1.2844 0-1.7759 0.5342-1.9385 1.1123-1.5325 0.1208-3.068 0.3201-4.5566 0.5225-2.2588 0.3066-4.5957 0.624-6.8965 0.624-0.7197 0-1.4209-0.0313-2.083-0.0938l-0.5996-0.0557 0.0896 0.9851c-0.1548 0.0143-0.3186 0.0292-0.4841 0.0442-0.217 0.0201-0.4241 0.0396-0.6187 0.0582-0.7074-1.1438-1.6301-2.0991-2.5347-3.0162-0.2113-0.2141-0.4213-0.4271-0.6274-0.6412-0.4165-0.8661-1.2482-1.6044-2.0659-2.3148-0.6055-0.5283-1.1787-1.0264-1.5498-1.543l-0.0122-0.017c-2.0715-3.3153-5.1992-5.7892-8.2261-8.1813-1.6946-1.3387-3.4465-2.7244-4.9434-4.2139-1.8572-2.5747-4.4143-5.6176-7.8026-6.6907-0.8407-1.4543-1.9181-2.957-3.5126-3.557-0.6743-1.1978-0.3785-2.4563-0.0559-3.7875 0.1724-0.7095 0.3484-1.4371 0.3875-2.1848l0.7522 0.2727 0.1328-0.5391c0.2754-1.1152 0.6924-2.7842 1.1094-4.4541 0.3936-1.5724 0.7852-3.1387 1.0369-4.182 2.2462-0.6547 4.2292-2.4009 5.8959-5.2115 2.5499-1.7441 4.9982-3.6729 5.8833-5.9613 12.82-11.356 21.288-29.674 23.234-50.258 0.25-1.7119 0.4121-3.499 0.5684-5.2266 0.4697-5.1973 0.9551-10.571 3.9453-14.995 1.2119-2.4639 1.3359-5.1846 1.4561-7.8164 0.0703-1.5313 0.1426-3.1152 0.4072-4.4932 0.1777-0.4287 0.3613-0.8574 0.5449-1.2871 0.8121-1.8981 1.6387-3.8615 2.0551-5.9396 2.052-0.9084 3.5349-3.3577 4.8444-5.5438 0.304-0.5071 0.5952-0.9923 0.8806-1.4346 2.801-1.7894 6.2759-4.8087 7.9185-8.0718 1.907-0.3043 3.2676-2.2894 4.2505-4.0707 4.2002-3.0879 8.0762-6.7626 11.824-10.32 3.3115-3.144 6.7363-6.395 10.438-9.2871 2.2383-2.5981 4.9141-4.855 7.502-7.0376 3.2026-2.7009 6.5073-5.497 9.0848-9.0126 2.6012-0.1443 4.3146-2.7202 5.1444-4.3592 4.6128-3.2437 9.6765-6.9933 12.602-10.364 1.6858-0.3327 2.9182-1.4146 4.106-2.4695 0.7646-0.6787 1.4863-1.3198 2.3213-1.7734l0.0918-0.0645c1.1709-1.0342 2.5977-1.8594 3.9775-2.6577 1.7275-0.9993 3.4991-2.0435 4.8638-3.5176 0.1626 0.0232 0.3185 0.0557 0.4976 0.0557 1.7341 0 4.1216-1.1082 4.4351-2.939 2.5297-0.7183 5.606-1.8135 7.9492-3.8962 1.9272-0.2249 5.9834-0.9698 6.8899-3.2985 0.332 0.054 0.6683 0.0912 1.01 0.0912 1.7979 0 3.4824-0.7378 5.1113-1.4512 0.7024-0.3073 1.3689-0.5931 2.0413-0.8289l0.0808 0.0384 0.1781-0.1328 1.0983-0.3672-0.332-0.1581c0.2751 0.0505 0.5662 0.0853 0.8877 0.0853 1.8047 0 3.9934-0.816 4.7307-2.1476 3.4204-6e-3 6.7678-0.8768 10.005-1.7196 2.407-0.6264 4.896-1.2747 7.3802-1.5541 1.0751-0.1112 2.1384-0.2492 3.2008-0.3878 2.2988-0.2988 4.6755-0.6079 7.1886-0.609 2.6566 0.2734 5.3695 0.4132 8.0673 0.4132 1.417 0 2.8584-0.0381 4.2842-0.1138l9e-4 -1e-4c5.1399-0.1962 10.181 1.0065 15.057 2.1695 3.1726 0.7567 6.4524 1.5361 9.7415 1.931 2.7515 1.7808 5.4053 2.7817 7.8564 2.9773 1.6085 1.7342 4.3711 2.9222 7.1504 3.0617l1.8022 0.8593c2.1525 2.1522 4.6705 3.6146 7.115 4.1388 0.4058 0.3272 0.8135 0.6633 1.2271 1.0046 2.3311 1.9275 4.7439 3.9136 7.6431 4.9216 2.2212 2.1641 4.6611 4.3256 7.0229 6.4163 1.5872 1.4054 3.2263 2.8591 4.8557 4.3536 0.8169 2.3887 2.3275 4.5076 3.7927 6.5561 1.9502 2.7273 3.9595 5.5487 4.301 9.0054-0.1836 0.332-0.438 0.7852-0.6741 1.2036l-0.3472 0.6212c-1.4604 0.8442-2.9631 1.8908-4.6887 3.2637-0.9709-0.3312-2.3833-0.6554-3.7717-0.6554-1.3921 0-2.4236 0.3547-3.063 0.9952-0.8562-0.2642-1.733-0.5706-2.6587-0.8985-2.7012-0.957-5.4941-1.9468-8.25-1.9468-1.9209 0-3.5771 0.4814-5.0605 1.4722-0.877 0.2603-1.4844 0.9839-1.6309 1.9531-0.1514 1.0026 0.2556 2.0016 0.949 2.5054 0.254 2.7042 1.1235 7.325 4.0149 9.9904-0.0078 1.2919 0.7418 2.407 2.0969 3.1204 0.2007 1.1709 0.8184 2.1373 1.4324 3.0669 0.2955 0.4473 0.5715 0.876 0.8169 1.3411-0.2637 3.5336 1.283 7.7698 3.8135 10.442l0.0366 0.2067c0.239 1.3704 0.5459 3.0509 1.8536 3.8904 0.7089 2.0934 1.5687 4.1725 2.4032 6.1843 1.6611 4.0037 3.3727 8.1428 3.9109 12.515-0.1577 0.2083-0.3438 0.4567-0.5408 0.72-0.1938 0.2606-0.3776 0.5059-0.5294 0.7065l-0.6151 0.1832c-1.9872 0.5746-4.2174 1.2332-5.4314 2.8957-0.9124 0.0659-1.2523 0.6595-1.2542 1.2244-0.0042 1.0065 0.9961 2.3801 2.0806 2.7468-7e-3 0.7599 0.2847 1.5649 0.8677 2.2796 0.7988 0.9795 1.9473 1.5869 2.9971 1.5869 0.0575 0 0.1135-0.0104 0.1705-0.0139l0.9271 1.0383c0.892 2.3701 1.9236 4.7413 2.9238 7.0352 0.6924 1.5869 1.3848 3.1738 2.0361 4.7705l0.0469 0.1152 0.0957 0.0801c1.0156 0.8477 0.7803 2.9746 0.5527 5.0313-0.2737 2.4784-0.5565 5.0365 1.3518 5.906-0.0161 3.1094 0.269 6.236 0.5515 9.262 0.2842 3.0537 0.5791 6.2109 0.5547 9.333l-0.0039 0.5039h0.9253c-0.0452 3.9103 0.2546 7.8483 0.5542 11.662 0.3555 4.5264 0.7227 9.2061 0.4951 13.833l-0.0264 0.5244h0.972c-0.0614 2.0844-0.0431 3.8618 0.0627 5.5249-0.1166 4.5743-0.1149 9.2183-0.1139 13.71 1e-3 2.2548-7e-4 4.5138-0.0144 6.7759l-0.8987-0.1343 0.0283 0.6064c0.3135 6.8779-0.8799 13.769-2.0332 20.432-0.2495 1.4406-0.496 2.8805-0.7305 4.3217-0.481 0.0581-0.8994 0.2932-1.2393 0.693-0.8806 1.0358-1.0714 3.078-0.9407 4.4469-2.4633 0.7872-3.5693 3.4189-4.5369 5.7777-0.4512 1.1016-0.8779 2.1416-1.4121 2.9775l-0.2617 0.4111 0.4033 0.2725c2.6846 1.8135 5.8232 2.127 8.8574 2.4297 1.6914 0.1688 3.4402 0.3445 5.0674 0.7803 0.4319 0.2032 1.1616 0.5416 1.709 0.7949l0.1592 0.0736 0.2158 0.8512 0.292 0.0713c3.9551 0.9678 7.4238 3.167 10.778 5.293 1.5717 0.9971 3.1987 2.0166 4.8706 2.9218-0.0374 0.4619 0.1143 0.804 0.2759 1.0206 0.6445 0.8691 2.1475 0.998 2.9854 0.998 0.24 0 0.4745-0.0118 0.6936-0.0315 0.0374 0.1084 0.0854 0.2139 0.157 0.3108 0.6084 0.8213 2.2285 0.9102 2.8975 0.9102 1.6338 0 3.3203-0.4445 3.8779-1.4115 0.2471 0.0522 0.4978 0.0873 0.7529 0.0873 1.2744 0 2.4629-0.6475 3.5801-1.2549l0.165-0.1455c0.4619-0.6367 0.9463-1.2686 1.4326-1.9043 2.0537-2.6818 4.1678-5.4567 4.865-8.8763l0.5139-0.3229c0.4565-0.2998 0.9697-0.637 1.3473-0.8816 0.1669 0.0463 0.339 0.0779 0.5209 0.0779 1.2676 0 2.7432-1.2266 2.7695-2.3027 0.0068-0.2754-0.0859-1.1797-1.5596-1.2529l-0.0684-0.0039-0.0664 0.0156c-0.2939 0.0664-0.5391 0.0996-0.7295 0.0996-0.2363 0-0.2988-0.0518-0.2988-0.0518-0.1133-0.1621 0.1846-0.9883 0.3271-1.3848 0.0918-0.2542 0.1788-0.5128 0.2554-0.7688 0.4158-0.0791 0.8768-0.1393 1.3765-0.197 1.6943-0.1946 3.5867-0.4276 4.4656-1.7335 0.7904-0.0128 2.0533-0.0381 2.718-0.0565l0.3486-0.0098 0.1113-0.3301c0.2969-0.8789 0.2754-1.5361-0.0654-2.0107-0.4482-0.625-1.2949-0.7051-1.9824-0.7051-0.334 0-0.6885 0.0225-1.0361 0.0439-0.3174 0.0195-0.6289 0.04-0.9141 0.04-0.0669 0-0.1329-0.0015-0.2048-0.0044-0.1909-0.1868-0.384-0.3693-0.5745-0.5396-0.8325-0.7438-1.4404-1.306-1.3176-2.5214 0.427-0.1561 0.7627-0.4126 0.9934-0.7745 0.3462-0.5425 0.4302-1.2872 0.29-2.2048l0.8262-0.01-0.0957-0.5752c-0.1582-0.9561-0.0586-1.6523 0.2969-2.0713 0.3799-0.4482 1.1211-0.666 2.2656-0.666 0.9063 0 1.9727 0.1348 3.0039 0.2646 1.0703 0.1348 2.1768 0.2734 3.1602 0.2734 0.928 0 1.6481-0.1335 2.2131-0.3932l1.3279 0.2076-0.0625-0.6426c-0.0071-0.0721-0.0251-0.1387-0.0356-0.2092l0.3257-0.1755-0.3633-0.0449c-0.6116-3.0005-4.3296-4.3767-7.083-5.3906-0.382-0.1401-0.7366-0.2739-1.0803-0.4073-0.2935-0.7816-0.5735-1.5535-0.8466-2.3296 0.854-0.7504 1.1237-2.0178 1.4025-3.3558 0.2529-1.2107 0.5282-2.446 1.2386-3.2855 1.5071-0.0382 2.9813-0.1082 4.4674-0.1823 1.5234-0.0752 3.0615-0.1514 4.6689-0.1904l2e-4 -0.0017 1.4802 0.2585-0.165-0.7266c-0.7021-3.1074-4.4658-4.3779-7.2139-5.3047l-0.0221-0.0057-0.4877-1.1056c-0.1323-0.3025-0.2625-0.5963-0.3933-0.8934l0.6931-0.0568 0.0342-0.4229c0.0967-1.168 0.5879-2.2295 1.1084-3.3545 0.5852-1.2639 1.1833-2.5668 1.1829-4.0356l6.7285-0.3976 1.3806 0.317-0.0088-0.6367c-0.0264-1.9805-1.624-2.6777-3.0332-3.293-0.9243-0.4041-1.7847-0.8022-2.307-1.4874 0.4457-1.0427 0.9052-2.0786 1.3666-3.1112 0.6411-1.4325 1.2959-2.9111 1.8995-4.3933l0.2518 0.0623-0.0099-0.142 1.7168 0.026c0.1766 0.5383 0.3518 1.0789 0.5265 1.6248 1.1954 3.7284 2.4347 7.5808 4.7021 10.825l0.1074 0.6151c0.4539 2.6554 1.0254 5.9298 2.7548 7.6281 0.0565 0.3812 0.0999 0.7937 0.1427 1.2255 0.1821 1.8301 0.4011 3.8821 1.7959 4.9545 2.2104 11.089 4.2152 20.413 6.126 28.491 0.1133 0.5645 0.1641 1.3076 0.2178 2.0938 0.1427 2.1011 0.3197 4.4456 1.7795 5.2312 0.3992 1.7655 1.4833 2.0549 2.1169 2.0549h1e-3c1.0166 0 2.2471-0.6914 3.292-1.8486 0.9288-1.0297 1.4764-2.1729 1.5203-3.1217 0.4958-0.2299 0.8491-0.6173 1.0188-1.1547 0.1462-0.4642 0.1584-1.0264 0.0459-1.6842l0.8896 0.026-0.0117-0.5264c-0.2559-11.559-1.6094-23.978-4.2578-39.085l-0.0947-0.542-0.8945 0.2462c-0.0867-3.7191-1.1138-7.3534-2.1201-10.873-0.7168-2.5039-1.457-5.0938-1.8369-7.668l-0.0527-0.3506-0.8596-0.1656c-0.0328-0.3466 0.0321-0.9399 0.0823-1.3705 0.1172-1.0068 0.209-1.8027-0.1816-2.2422-0.1444-0.1617-0.3406-0.2429-0.5593-0.2549-0.3003-1.6246-0.8291-3.1759-1.3538-4.6768-0.156-0.4474-0.3118-0.8931-0.4615-1.3412-0.2479-2.6234-1.1156-5.1101-2.3885-6.8667-0.1143-1.2559-0.4333-2.4424-0.7485-3.589l-0.1211-0.4434c-0.0996-0.3594 0.0576-0.8359 0.21-1.2969 0.2041-0.6162 0.415-1.2529 0.1123-1.835-0.1434-0.2762-0.3818-0.4906-0.7188-0.6517l0.0585-0.573c2.152-1.6049 2.6656-5.0797 2.9911-7.4535 0.967-1.8474 1.3679-3.9916 1.2026-6.3782 3.7223-0.0106 5.6465 3.1113 7.0021 6.2672-0.0498 0.0587-0.101 0.119-0.1537 0.1808-0.1011 0.1185-0.1953 0.2299-0.2749 0.326l-0.6187 0.3126c-1.8057 0.9209-3.5117 1.791-5.4434 2.0703l-0.3604 0.0527-0.0615 0.3574c-0.126 0.7373-1e-3 1.3359 0.374 1.7803 0.665 0.79 1.9473 0.8984 3.2344 0.8984 0.3877 0 0.79-0.0107 1.1934-0.0215 0.3975-0.0117 0.7959-0.0225 1.1846-0.0225 1.0293 0 2.2568 0.0742 2.708 0.6436 0.1982 0.5732 0.4688 1.1699 0.7305 1.7471 0.5879 1.2969 1.1963 2.6387 0.8486 3.4668-0.1525 0.3628-0.4974 0.6382-1.0527 0.8445-1.7783 0.2966-3.4631 0.9327-5.0928 1.551-0.6191 0.2354-1.2373 0.4697-1.8584 0.6846l-0.415 0.1445 0.0898 0.4297c0.4141 1.9902 2.1094 2.2207 3.3477 2.2207 0.4199 0 0.8496-0.0283 1.2646-0.0557 0.2498-0.0167 0.4858-0.0278 0.7188-0.0364 0.6338 0.7076 1.5292 1.0715 2.7559 1.0715 0.5244 0 1.0426-0.0594 1.4993-0.1172 2.2971 0.2275 3.0325 2.6735 3.7419 5.042 0.2205 0.7377 0.4419 1.4248 0.6968 2.0614-0.755 0.4126-1.5361 0.8158-2.3315 1.2218-2.7197 1.3849-5.5201 2.8229-7.5364 4.9354l-0.1218-0.0311-0.1458 0.3053-0.3284 0.3623-0.2446 0.0541 0.1508 0.0494-0.0853 0.0941 0.2168 0.0553c-0.2041 0.4355-0.4385 0.9399-0.5742 1.2386l-0.2715 0.5977 0.6484 0.1035c0.9629 0.1523 1.9834 0.2266 3.1191 0.2266 1.709 0 3.4482-0.1709 5.1309-0.3359 1.6592-0.1631 3.374-0.332 5.0342-0.332 1.2083 0 2.2844 0.0939 3.2864 0.2756 0.0479 0.172 0.0957 0.3409 0.1443 0.5212 0.4446 1.6541 0.9841 3.6617 2.5945 4.5782-0.812 0.7682-1.6207 1.5646-2.5305 2.4744-1.6426 0.2821-3.1586 1.5623-4.0817 2.7401-0.8026 0.4681-1.7133 0.8595-2.6796 1.2717-2.1836 0.9287-4.4404 1.8906-5.5 3.8691l-0.4414 0.8242 1.4227-0.1545 0.1964 0.8196 0.3086 0.0664c3.166 0.6738 6.4492 1.002 10.038 1.002 3.1912 0 6.6699-0.2747 10.596-0.8229 0.3057 1.4807 1.3843 1.7301 2.0491 1.7301 0.0022 0 0.0046-5e-4 0.0067-5e-4l0.0206 0.0962c0.3169 1.3986 0.5793 2.6102-0.4177 3.5406-1.66 0.0864-3.116 0.896-4.5227 1.6879-0.6563 0.3691-1.2764 0.7178-1.8174 0.96-2.1641 0.4951-2.54 1.2891-2.4746 1.8672 0.0801 0.7109 0.9189 1.2266 1.9941 1.2266 0.3757 0 0.7451-0.0848 1.1006-0.2092 1.5035 1.662 4.2527 1.8274 6.9717 1.8274l1.2402-0.0029c0.709 0 1.458 0.0078 2.126 0.0664l0.1631 0.0146 0.1396-0.085c0.3525-0.2129 0.666-0.3164 0.9609-0.3164 0.7461 0 1.3818 0.7168 2.0547 1.4766 0.7224 0.8147 1.5348 1.7203 2.6678 1.8965-0.3868 1.2646-1.421 2.0525-2.5106 2.8799-0.6689 0.5085-1.3519 1.0398-1.9059 1.692-0.6556 0.0248-1.3629 0.5491-1.8724 1.434-0.4375 0.7588-0.751 1.8389-0.3145 2.5947 0.1494 0.2578 0.5215 0.6895 1.3457 0.6895 1.0332 0 2.5635-0.6885 4.5508-2.0449h5.6293c0.149 0.1476 0.3219 0.3171 0.5045 0.4961l0.62 0.6155 0.5085 0.5579c-0.2111 0.1658-0.421 0.3333-0.6334 0.4966-0.7705 0.5898-1.5664 1.2002-2.2549 1.9189l-0.7617 0.793 1.0986 0.0518c1.1182 0.0537 2.2646 0.0811 3.4082 0.0811 0.5466 0 1.0959-0.0071 1.6453-0.0194l0.9189 0.6125 0.0715 0.0631c0.8896 0.7822 1.7295 1.6797 2.541 2.5488 1.7212 1.8422 3.5046 3.7417 5.9585 4.796 1.1108 1.5322 2.8606 2.306 4.5591 3.0497 0.3313 0.1449 0.646 0.2994 0.9685 0.4489l-0.2556 0.1996 1.0464 0.1703 0.2163 0.1119 0.0911-0.0713c0.3984 0.0542 0.8057 0.0879 1.2175 0.0879 2.1338 0 4.8713-0.8029 6.2876-3.0339 3.8037-2.0858 6.0537-6.3301 8.2261-10.443 0.9004-1.7053 1.7527-3.3154 2.6899-4.7274 0.6206-0.5569 2.2603-2.2277 1.9429-4.0109 2.3459-2.1436 3.78-5.2976 4.8667-8.1554 1.302-0.9091 1.3-2.4368 1.241-3.7281l0.7195-0.1907 0.0762-0.2773c2.2188-8.1143 4.3926-17.566 2.0938-27.06l-0.082-0.3389-0.8828-0.1016c-0.1406-2.7706-1.5354-5.7792-2.9763-7.5271 0.2849-1.24 0.2571-2.0825-0.1125-2.6018-0.1548-0.2164-0.3787-0.3455-0.6289-0.4314-0.8848-2.1084-1.3323-4.4089-1.3142-6.8502 0.21-3.0078 0.156-6.0712 0.1033-9.0338-0.0303-1.668-0.0605-3.3926-0.043-5.0723l0.0068-0.6348-1.0586 0.2445c-0.0557-2.9712-0.408-6.2052-2.1294-8.5625-0.3875-1.3268-0.8481-2.6338-1.2954-3.8978l-0.2935-0.8363c0.4541-0.2506 1.0063-0.5198 1.5884-0.8024 2.5408-1.2332 5.6816-2.7642 5.8467-5.0979 0.2427-0.4297 0.6252-1.0978 0.9355-1.6394l0.2422-0.4231c2.5898-1.4517 3.2712-7.3353 2.9229-10.404 0.1104-0.5042 0.2839-1.0108 0.4697-1.5477 0.4524-1.3009 0.9121-2.645 0.4736-4.0624 0.6272-4.0137 0.4072-8.1295 0.1924-12.11-0.0483-0.8979-0.0913-1.7896-0.1299-2.6799 0.0293 0.0018 0.0623 0.0119 0.0908 0.0119 0.3135 0 0.5859-0.1123 0.7871-0.3262 0.4814-0.5107 0.4268-1.438 0.3691-2.4194-0.0303-0.5131-0.0623-1.1318 0.0315-1.4236 1.5498-1.2972 2.0813-3.5307 2.5437-5.5154 0.1318-0.5667 0.2617-1.1177 0.4106-1.6331 1.7246-1.7285 2.4346-5.5369 2.9517-8.3464l0.0969-0.5223c1.678-1.4178 1.8398-4.2227 1.9597-6.5021 0.0146-0.2817 0.0293-0.5537 0.0459-0.811l0.04-0.6216-0.6166 0.0964zm-109.69 71.661c0.0835-0.5433 0.084-1.1821 0.0767-1.8662-0.0098-0.9561-0.0225-2.1465 0.3047-2.4775 0.0791-0.0781 0.1843-0.2916 1.1525 0.3051 0.2474 1.365 0.4807 2.8557-0.1368 3.6373-0.271 0.3435-0.7184 0.5487-1.3396 0.6382l-0.0575-0.2369zm-287.64-263.14c-0.0145-0.0049-0.0288-0.0097-0.0435-0.0146 0.0112-0.0131 0.0222-0.0264 0.0334-0.0394l0.0101 0.054z"/>
</svg>
