<?xml version="1.0" encoding="UTF-8"?>
<!DOCTYPE svg  PUBLIC '-//W3C//DTD SVG 1.1//EN'  'http://www.w3.org/Graphics/SVG/1.1/DTD/svg11.dtd'>
<svg enable-background="new 99.0848 24.1608 1361.9153 1871.4348" version="1.1" viewBox="99.0848 24.1608 1361.9153 1871.4348" xml:space="preserve" xmlns="http://www.w3.org/2000/svg">
<path d="m838.26 68.27c1.45-2.44 5.25-2.84 7.18-0.76 2.6 2.04 1.57 5.66 1.8 8.5 0.19 3.09-0.53 6.1-0.92 9.13-0.02 3.71-2.14 6.95-2.3 10.64-5.24 11.83-7.22 24.79-11.31 37.03-1.85 4.2-4.3 8.13-5.64 12.55-2.54 11.61-3.77 23.47-6.23 35.1-1.44 6.76-1.15 13.69-1.09 20.57 0.4 6.47-2.78 12.35-4.41 18.45-2.23 4.39-0.79 9.52-2.6801 14.01-2.1 5.62-2.91 11.61-3.4 17.56-0.79-0.25-1.57-0.49-2.34-0.74-0.35 1.44-0.69 2.9-0.66 4.39 0.27-1.27 1.59-3.92 2.2-1.26-1.83 12.4-4.23 24.71-6.14 37.1-1.32 5.07-0.39 10.36-1.55 15.45-0.52 6.6-0.16 13.24-0.22 19.86-0.1 4.88-3.09 9.18-2.87 14.12 0.01 5.53-2.05 10.77-2.27 16.27-2.46 8.84-2.91 18.09-5.3199 26.93-0.29 5.95-1.4901 11.85-1.16 17.82 0.19 3.6 0.37 7.25-0.37 10.8-2.48 8.37-4.39 16.91-6.24 25.43-3.02 8-2.84 16.73-5.17 24.9-1.28 4.44 0.06 9.19-1.44 13.6-1.75 5.04-3.68 10.07-4.35 15.39-0.96 8.72-4.54 16.82-7.4 25.02-1.86 9.89-2.41 19.96-3.64 29.93 0.59 2.3 0.99 5.07 2.93 6.67 9.48 6.54 16.25 17.93 15.05 29.68-0.45 5.88-4.65 10.67-4.79 16.58-1.66 9.53-6.8 17.9-9.45 27.12-1.19 4.42-3.23 8.54-4.95 12.78 6.39 3.86 9.7 11.68 7.87 18.94 8.63 7.66 20.48 10.83 31.82 11.46 5.59 0.79 10.99 2.53 16.55 3.4901 7.2401 0.71 13.05 6.35 16.29 12.55 2.38 2.17 5.92 2.27 8.86 3.36 3.13 0.77 5.75 2.8 8.74 3.88 5.67 0.25 11.6 0.03 16.92 2.38 3.46 2.04 6.48 4.8 8.94 7.97 2.56 3.39 6.12 5.83 8.88 9.06 1.84 2.23 4.21 4.17 7.09 4.83 5.35 1.22 10.69 2.84 15.38 5.76 4.23 1.09 8.5 2.29 12.16 4.81 3.58 1.98 6.01 5.37 9.13 7.92 4.17 1.6 7.42 4.73 11.43 6.62 8 4.52 12.87 12.43 18.63 19.28 2.48-1.58 4.74-3.49 6.73-5.67 4.28-5.03 11.07-6.27 16.65-9.3 4.86-2.74 11.15-2.06 15.6-5.44 4.3199-7.33 11.78-11.62 18.29-16.7 9.53-5.57 20.98-4.4301 31.2-7.84 2.3099-1.64 3.95-4.21 6.7-5.21 7.02-2.8 14.77-2.32 22.01-4.24 3.46-1.24 7.74 3.12 10.36-0.45 3.75-3.59 6.6-8.13 11.02-11.02 3.4401-2.2 6.7001-4.72 10.31-6.66 2.08-1.05 3.3999-3.03 4.86-4.75-3.4401-6.39-5.85-14.55-1.8401-21.25 3.15-4.47 7.8201-8.03 13.26-9.16-0.97-4.96-2.48-9.79-3.49-14.74-0.3099-7.22-0.4399-14.65 1.8401-21.59 1.84-3.87 2.5699-8.21 4.99-11.81 2.1899-3.02 1.6899-6.93 2.9099-10.33 1.37-4.03-0.01-8.44 1.64-12.41 1.2001-3.41 2.0601-6.92 2.62-10.49-1.4199-1.65-2.97-3.23-3.99-5.16-0.1599-5.67 1.42-11.8-1.45-17.07-3.3101-3.3799-8.9-3.17-11.99-6.91-2.3301-2.8-4.78-6.53-3.28-10.28 1.39-2.7599 3.26-5.42 5.63-7.4 7.55-2.59 14.92 2.98 22.57 1.73 8.14-1.25 15.75-4.92 22.41-9.68 3.08-2.82 6.47-5.93 6.96-10.33-2.11-2.35-5.9299-2.01-8.3099-4.07-3.29-2.71-5.9301-6.22-9.8101-8.17-7.6399-5.2-17.56-8.31-26.58-5.03-3.75 1.02-7.45 3.51-11.46 2.33-2.55-1.45-4.25-3.94-6.24-6.03-2.5-2.69-2.7301-6.6-3.03-10.07-0.4301-4.91 4.99-7.48 9.11-7.92 2.4399-0.47 6.3 0.2 7.08-2.98 0.92-3.54 1.5801-7.2 3.8-10.24 1.8-3.47 6.92-5.91 10.16-2.85 5.24 5.05 6.6899 12.55 10.23 18.68 3.26 4.46 8.23 7.36 13.38 9.17-1.8-10.83-2.66-21.86-2.3101-32.84-5.74-1.16-10.48-4.82-14.9-8.45-6.3899-5.29-10.3-13.35-11.01-21.55-0.4-6.85 4.95-11.82 9.3199-16.3 6.6899-5.65 16.28-6.09 24.57-4.74 0.14-11.76-1.3899-23.44-3.33-35.01-0.8099-5.11-3.45-9.71-4.1-14.85-0.9301-7.05-5.47-13.53-4.58-20.78 2.22-3.95 5.6499-7.03 8.6599-10.38 2.29-2.65 5.8401-3.5 8.9401-4.87 9.15-3.19 18.5-5.8 27.89-8.23 4.1699-1.16 8.7-1.43 12.95-0.44 9.03 3.3 18.87 3.5 27.85 7.03 5.8201 2.11 13.07 4.25 15.53 10.59 0.9 2.22 2.1899 4.24 3.5699 6.2-2.48 6.32-6.8899 11.74-9.0299 18.2-0.4601 5.6 0.33 11.32-1.2301 16.8-1.1399 15.82-2.59 31.69-2.0299 47.58 9.1599-0.33 18.43 0.15 27.36 2.33 5.01 0.96 8.5599 5.83 8.77 10.8 1.27 6.75-0.67 14.11-5.64 18.96-4.04 5.32-11.01 6.64-17.12 8.12 0.35 4.33 1.08 8.63 1.36 12.96-0.62 7.03-1.27 14.05-1.77 21.07 8.65 0.15 16.99-5.05 21.03-12.66 3.8099-5.51 5.48-12.74 11.39-16.58 6.0699-4.57 16-0.22 16.86 7.32 0.4299 2.36-0.76 4.53-2.3101 6.2-2.98 3.33-6 7.04-6.7 11.58 1.26 5.34 6.84 9.15 6.01 15.05 0.5399 4.61-3.89 9.21-8.54 8.59-5.77-0.63-11.25-3.2-17.12-3.07-4.7 0.02-9.41-0.09-14.07 0.44-3.63 0.35-6.7001 2.51-9.87 4.11-1.92 0.69-1.8101 2.93-2.1001 4.58 6.14 2.3 9.29 8.37 14.49 11.99 3.3 2.82 7.76 3.46 11.45 5.62 3.7999 1.89 8.52 3.58 12.54 1.29 3.9099-1.5 8.6399-4.25 12.65-1.56 2.78 1.6 6.24 4.18 5.67 7.83-1.38 4.93-4.25 9.47-8.3101 12.62-2.5199 1.94-5.3099 5.2401-3.3799 8.54 1.9099 3.47 1.98 7.37 0.5099 11.02 1.79 7.9-4.1499 14.34-5.25 21.76 2.8-0.54 5.76-1.83 8.63-0.74 5.87 1.54 9.79 8.62 7.2101 14.31-1.62 4.69-6.7201 6.28-10.53 8.68 3.05 2.3 6.52 4.68 7.79 8.48 3.1499 8.15-6.37 17.78-14.55 14.57-2.88-0.78-4.49-3.69-7.27-4.58-4.33-0.47-8.6799 0.36-12.84 1.34-2.1901 2.12-3.41 5.22-6.1801 6.72-2.51 1.47-5.48 1.5-8.2799 1.72-1.38 1.65-2.8601 3.25-3.76 5.21-0.2201 4.43-1.74 8.65-3.4301 12.7-2.65 4.17-8.27 4.07-11.62 7.36-7.02 6.02-8.54 16.39-16.33 21.7-5.05 4.14-8.9701 11.19-16.25 11.33-7.98-0.34-16.11 0.85-23.95-0.96-1.8199-0.22-3.52 0.57-5.21 1.03-1.35 6.1801-5.66 11.06-8.9399 16.28-2.4901 7.98-7.1901 15.01-10.12 22.82-1.75 5.11-5.23 9.35-8.08 13.87-4.36 6.64-11.27 10.76-16.96 16.09-4.1801 3.8-9.75 6.39-12.23 11.74-1.1001 7.5699 1.26 15.03 0.7999 22.6-0.02 17.33 0 34.67-0.02 52 0 6.18-0.08 12.45 1.26 18.51 1.8401 2.24 4.2201 4.15 5.1901 6.99 2.9399 5.74 2 12.31 2.16 18.51 0.09 8.32-0.2201 16.66 0.12 24.97 2.2599 8.83 3.3999 17.91 4.6399 26.93 0.14 19.02-0.09 38.05 0.1101 57.08-0.1101 5.42 1.4099 10.69 2.08 16.04 1.1899 5.78 0.58 11.69 0.73 17.55 0 24.8-0.02 49.61 0 74.42-0.08 3.92 0.4 7.9301-0.73 11.76-2.79 9.09-1.54 18.94-4.91 27.9-3.2899 9.33-5.71 19.05-6.37 28.94-1.4199 4.64-3.4399 9.12-3.9199 14.03-3.64 12-5.3201 24.87-12.27 35.6-2.3 5.9401-5.76 11.33-9.78 16.26-2.7 4.17-5.64 8.3201-9.77 11.2-3 1.9801-5.4 4.91-8.77 6.29-10.73 3.11-21.99 2.05-33 2.1901-4.95-0.17-9.22 2.8999-14.04 3.49-2.62 0.4299-5.4801-0.02-7.8 1.52-3.87 2.1799-8.64 3.5199-12.98 1.96-6.6-2.1901-13.34-4-19.79-6.6-5.4-3-9.69-7.67-13.09-12.74-5.55-6.3401-12.07-12.4-14.29-20.82-4.02-7.7999-6.61-16.28-11.16-23.81-3.47-6.66-7.82-12.77-12.06-18.95-5.81-6.48-9.3-14.65-10.91-23.11-5.77-12.56-14.24-23.63-21.96-35.01-5.2-4.86-8.73-11.26-14.39-15.64-1.91-1.72-3.66-3.61-5.43-5.45 1.4 5.74 1.63 11.73 3.52 17.36 1.35 4.13 1.72 8.48 2.46 12.75 0.52 4.48 4.48 7.75 4.6 12.35 0.36 6.51 1.08 13.13 3.74 19.15 2.53 7.89 5.15 15.77 8.96 23.15 2.83 9.08 6.4901 17.99 12.47 25.49 6.71-2.47 14.96 0.0599 18.65 6.29 2.9901 4.5699 2.52 10.28 2.34 15.49-0.05 3.9099-2.54 7.0499-4.12 10.44-1.42 5.53-2.42 11.89 0.87 17 2.74 3.9401 1.94 9 3.78 13.3 1.81 4.72 3.0699 9.73 5.8 14.05 4.32 7.4801 4.2 16.5 7.88 24.19 6.26 6.04 11.6 13.36 13.85 21.9 3.36 8.9299 5.56 18.38 10.57 26.6 5.33 9.24 11.59 17.94 16.79 27.27 4.52 8.26 10.92 15.27 15.5 23.5 3.05 4.5 5.26 9.9199 9.99 12.98 3.97 2.79 5.98 7.34 9.04 10.97 2.78 3.83 6.3 7.03 9.42 10.59 4.5299 4.4401 11.05 5.9701 15.65 10.36 6.12 3.8401 10.31 10.54 10.89 17.76 0.0701 4.6801-0.99 9.29-1.24 13.97-0.21 4.6-2.62 8.63-3.59 13.05-0.12 4.04 0.3099 8.14-0.55 12.13-0.88 3.9401-0.1699 7.98-0.5299 11.97-1.8101 10.3 0.3799 21.15-3.6001 31.09-2.4299 5.9199-3.5599 12.24-5.62 18.29-1.71 5.53-2.24 11.37-4.37 16.78-0.99 5.25-1.6899 10.74-4.75 15.31-1.9099 2.1499 0.86 4.22 2 5.97 5.39 6.3099 9.36 13.85 15.9 19.11 2.83 2.26 4.54 5.52 6.76 8.26 8.04 2.9301 14.04 9.2 20.7 14.29 5.0601 2.46 10.15 4.98 14.76 8.26 4.2201 3.48 5.7101 9.25 5.3401 14.55-0.39 7.73 0.58 15.56 3.3199 22.83 1.97 4.5499 5.48 8.34 6.92 13.16 0.86 2.6901 1.75 5.4 2.84 8.05 6.3199 1.26 11.69-3.48 17.96-2.92 6.03-0.35 11.72 2.88 15.53 7.37 2.41 3.73 4.24 7.8101 6.33 11.73 2.5601 2.2101 6.0901 2.99 8.5601 5.37 1.86 1.8501 3.03 4.2301 4.5499 6.3601 2.0901-1.9401 3.41-4.53 5.6001-6.38 3.9299-4.52 5.86-10.63 5.08-16.6-1.47 0.66-2.89 1.39-4.35 2.03 0.22-2.4299 0.49-4.9 1.5499-7.1 1.25-2.54 0.4701-5.48 0.5601-8.1801-1.27 0.02-2.52 0.0601-3.75 0.14 0.34-1.01 0.6899-2.01 1.05-2.99-1.14 0.5701-2.26 1.15-3.3601 1.76 0.7201-2.35 1.41-4.71 1.3601-7.1799-1.14-0.79-2.3-1.54-3.42-2.26 2.7-5.9501 6.25-11.52 7.9399-17.89-1.13 0.1-2.25 0.22-3.36 0.35 1.49-3.0601 1.9501-6.8101 4.7201-9.04 2.35-1.84 3.21-4.74 4.59-7.26-1.27 0.3101-2.53 0.61-3.78 0.9301 1.01-2.75 3.0601-4.8101 5.11-6.79 3.74-3.27 3.05-8.9199 6.42-12.46-0.61-1.37-1.2101-2.71-1.79-4.05 1.76-2.01 4.25-3.61 4.88-6.35-1.39 0.34-2.76 0.72-4.12 1.12 2.74-5.15 4.64-10.67 6.8-16.06 0.22-1.7201-0.37-3.42-0.17-5.11 2.17-2.9701 3.89-6.3 6.62-8.8201-1.2-0.59-2.4-1.1899-3.5599-1.76 1.99-2.5 3.49-5.5699 6.48-7.03-0.5-0.2699-1.48-0.8099-1.98-1.08 2.45-2.91 3.73-6.62 7.1399-8.67-0.9399 0.05-1.86 0.13-2.76 0.25 0.29-1.5499 0.2201-3.11-0.75-4.38 2.8501-3.9299 4.9301-8.49 8.67-11.71 2.33-1.9399 3.4301-4.83 4.0601-7.7 1.14-0.48 2.2799-0.9601 3.4299-1.4301-0.5499-1.6899-1.13-3.3199-1.77-4.9399 2.63-0.26 4.91-1.49 6.0901-3.9601-1.8101-0.09-3.61-0.1699-5.39-0.24 4.24-1.5 7.33-4.9 11.29-6.9299-0.49-0.48-1.49-1.4401-1.98-1.92 2.51-0.01 5.0801-0.15 7.4501-1.14-0.8301-0.4299-2.5-1.2899-3.3301-1.71 0.0701-0.48 0.2101-1.4401 0.28-1.92 3.1801-1.01 4.17-4.27 5.38-7.01 4.46 0.55 7.99-2.6499 11.14-5.33 3.4299-2.17 7.28-3.6901 10.94-5.28 2.2001-3.2999 6.1901-3.96 9.64-5.3099 4.3101-2.14 9.54 0.72 13.63-2.27 0.98-2.63 0.29-5.6 0.36-8.3301-0.4199-3.6399 1.3-7.0199 1.6801-10.57 0.86-6.65 6.1799-11.88 7.27-18.34-2.52-3.52-5.35-7.02-6.79-11.11-0.17-4.05-1.51-7.92-1.65-11.94-0.1899-2.45 1.62-4.48 1.62-6.84-0.5599-2.08-1.6799-3.99-1.97-6.11-0.63-3.5 4.61-4.3 4.09-7.78-0.6799-1.8199-2.88-2.54-3.6-4.3199-1.51-3.9801-2.53-8.17-4.13-12.07-5.76-6.92-8.24-16.06-8.26-24.94 0.1901-3 0.92-6.86 4.38-7.62 4.9401-2.0801 9.28 2.0399 13.53 3.9199 3.88 1.47 6.45 4.9 9.87 7.12 3.62 2.26 6.1 5.8401 9.4 8.51 1.71-1.03 3.34-2.1899 5.14-3.0699 2.5299-0.4501 4.77 1.2999 7.08 2.1 0.47-1.26 0.92-2.51 1.37-3.75 2.28 0.02 4.55 0.64 6.84 0.4399 1.6101-1.3199 3.16-3.12 5.49-2.8099 2.25 0.35 3.8401-1.15 5.53-2.37 2.5801 0.52 5.22 2.02 7.9 1.14 4.6901-5.73 5.21-14.15 11.47-18.66 4.2201-2.73 5.5-8.65 10.4-10.57 3.15-1.4301 6.48 0.5499 8.65 2.8099 2.42 3.51 3.6899 7.66 4.6 11.8 0.7 3.37 2.36 6.5599 2.29 10.09 0.21 3.09-1.1 6.16-0.22 9.24 0.7699 4.2-0.4501 8.37-2.29 12.13-1.03 2.96 2.09 4.77 3.21 7.17 3.49 4.7999 3.3 10.9 4.24 16.51 0.5801 2.76-0.47 5.3899-1.89 7.71 1.29 1.28 2.8201 2.48 3.51 4.27 1.15 6.0499-2.1899 11.97-0.7 18.01 0.73 5.01 4.83 8.6799 5.75 13.65 2.49 6.3601-0.78 13.61 2.09 19.84 2.9501 3.83 1.88 8.83 1.75 13.29 1.1901 5.6001 4.6801 10.35 7.88 14.99 1.63 2.96 2.6901 6.2 4.1 9.2799 0.1001 6.7101 3.4501 13.19 1.73 19.94 0.4501 8.99 1.1001 18.45-2.4099 26.99 1.11 4.66 0.47 9.5599-1.67 13.85-1.51 2.84-5.42 3.83-5.92 7.28-3.34 11.78-8.49 22.96-11.3 34.9 1.04 6.59 0.51 13.33 1.77 19.93 1.12 5.17-2.4701 9.84-1.85 15 0.7999 6.91-1.16 13.82 0.1 20.74 1.7799 10.01 0.84 20.22-0.36 30.24-0.5701 5.0801 1.1899 9.87 3.1599 14.45 0.4601 4.85 0.25 9.76 0.8 14.64 2.6-0.49 5.84-1.5901 7.85 0.85 3.08 3.41 7.71 6.12 8.13 11.17 1.0601 3.5601-1.61 7.4401-5.3099 7.7301-6.02 0.9199-12.09 1.58-18.15 2.0699-3.4501 0.53-6.25-1.83-8.97-3.49-2.0701 1.6-3.1801 4.71-6.0601 5.04-7.87 1.34-15.84 1.98-23.75 2.9099-4.34 0.5801-9.14-1.76-10.14-6.26-7.58 0.7301-14.9 3.13-21.92 5.9601-4.9199 0.8099-9.9399 0.36-14.89 0.6899-6.4301 0.39-13.24-1.02-19.26 1.91-2.48 1.15-5.2001 1.53-7.89 1.78-6.63 0.64-13.26 1.83-19.93 1.37-3.87-0.49-7.6599-2.1801-11.6-1.49-8.42 1.1599-16.85 2.8999-25.38 2.35-7.6799 0.0499-15.34 0.98-23.03 0.72-3.5499-0.02-5.1899-4.6799-8.89-3.75-8.71 0.5701-17.49-1.39-26.13 0.16-4.74 0.1-9.2999-1.5801-14.02-1.78-4.65 0.04-9.14-2.59-13.59-0.1799-0.01-1.8301 0.0801-3.6001 0.28-5.3701-8.72 3.28-15.91 9.7401-24.94 12.3-7.5 2.97-15.68 3.62-23.67 3.39-13.11-0.24-26.28 0.64-39.34-0.88-8.0801-1.73-16.39-0.9-24.59-1.02-5.63-0.09-10.18 3.53-14.95 5.96-4.89 3.1101-10.48 5.15-14.77 9.13-5.13 3.8301-9.37 8.7101-14.37 12.67-5.83 3.08-10.98 7.39-17.18 9.75-5.16 1.49-10.57 0.5-15.83 0.84-5.06 0.36-9.9399-1.23-14.59-3-3.06-1.24-5.62-3.5399-8.87-4.2999-3.04-0.8401-5.96-2.3401-7.99-4.79-1.56-1.98-3.87-3.48-6.47-3.25-6.11 0.3101-11.97-1.85-18.05-1.95-3.73-0.03-7.21-1.49-10.82-2.2201-3.33-0.97-6.96-0.59-10.12-2.11-3.66-1.5299-6.83-4-10.46-5.5499-6.5699-2.11-11.36-7.38-17.3-10.66-4.28-2.26-8.04-5.45-12.57-7.22-0.86 5.1899-2.68 10.86-7.54 13.63-6.3 4.2-14.17 2.3099-21.06 0.97-4.67-0.95-8.45-4.05-12.95-5.4401-4.62-1.35-8.39-4.61-13.11-5.7-3.04-0.67-5.63-2.42-8.35-3.8099-6.41-2.4501-12.56-5.52-18.7-8.55-5.67 3.23-12.37 4.62-17.28 9.1-3.74 3.0601-8.09 5.25-12.13 7.89-4.04 2.6-9.2 2.95-12.85 6.22-2.56 2.16-5.29 4.2101-8.51 5.28-3.91 1.35-8.13 3.17-12.3 1.9301-5.6-1.2001-10.95-4.3401-13.45-9.66-5.59-2.6801-9.02 3.84-13.84 5.29-6.29 2-12.52 5.3899-19.31 4.7699-5.45-1-11.09-0.6699-16.36-2.5699-9.72-0.48-19.03-3.88-27.73-8.1-3.22-1.6901-6.38-4.25-10.26-3.65-8.14-0.65-13.8 7.35-21.92 6.7-8.34-0.1799-16.7 0.26-25.03-0.21-5.93-1.41-12.75-2.89-16.52-8.15-1.83-2.4-3.66-4.78-5.63-7.0399-9.7 5.48-19.71 10.41-29.22 16.22-3.07 1.78-6.9 1.98-9.63 4.38-4.8 4.09-10.35 7.1599-15.83 10.22-5.41 4.04-11.44 7.11-17.02 10.9-2.93 2.0699-6.63 2.11-9.99 2.99-7.79 2.47-16.04 1.01-24.05 1.39-5.85 0.6-11.33-1.78-17.01-2.64-5.47-1.8201-10.91-3.76-16.27-5.84-4.73-0.54-9.5 0.37-14.06 1.5399-8.31 3.25-17.54 2.51-26.13 0.86-8.24-2.0499-16.47-5.5-22.53-11.61-3.54-5-6.51-10.4-8.91-16-5.72-3.48-12.55-4.21-19.1-3.99-3.86 2.98-8.54 5.75-13.62 4.87-6.14-0.6899-11.52-5.24-13.08-11.23-2.03-6.12 1.25-12.38 4.81-17.19 3.66-3.38 5.87-8.37 10.65-10.38 4.4-2.01 9.13-3.77 14.04-3.5601 6.28 0.17 12.65-0.5 18.84 0.86 4.09 0.5801 7.99 2.36 12.19 2.0601 3.36-0.25 7.15 0.83 10.1-1.25 4.04-2.4301 8.83-3.38 12.6-6.29 7.31-5.33 16.32-8.78 21.79-16.29 3.06-3.7999 7.69-5.72 11.88-7.97 3.91-7 6.33-15.37 13.54-19.84 1.02-5.42 0.21-11.12 0.45-16.63-0.04-9 0.08-17.98-0.04-26.97-0.38-8.0701 3.56-15.49 7.59-22.21 2.99-5.4299 6.91-10.29 11.04-14.89 6.11-4.7 14.1-5.5499 20.99-8.6599-0.76-3.7001-2.08-7.22-3.42-10.72-2.64-6.5601-1.4-13.75-1.63-20.62 0.44-3.7699-2.55-6.5499-4.2-9.61-2.34-2.6799-5.57-4.4199-7.95-7.0699-3.72-3.46-4.5-8.72-7.15-12.86-3.03-6.79-6.11-14.35-4.07-21.88 1.7-5.48 0.93-11.25 2.15-16.81 1.62-11.8 4.98-23.35 9.84-34.21 2.14-4.25 1.51-9.25 3.56-13.51 1.81-4.1899 4.04-8.21 5.52-12.54 1.4-4.48 4.69-7.98 6.79-12.1 4.16-6.76 6.97-14.19 10.92-21.05 3.85-9.77 9.38-18.92 11.73-29.25 0.91-4.4801 2.55-8.79 3.47-13.26 0.49-7.16 2.39-14.13 4.58-20.92 0.61-3.4 1.23-6.8099 2.85-9.89 1.3-4.2 1.67-8.64 2.61-12.91-0.47-4.86-0.6-9.7799 0.25-14.59 0.67-3.66 0.14-7.53 1.66-11.02 1.45-3.4099 1.63-7.25 3.55-10.46 2.93-4.6899 1.95-10.48 3.43-15.62 2.91-9.91 5.75-19.89 7.23-30.12 0.74-3.27-1.44-6.17-1.76-9.33-1.02-4.67 0.91-9.3 0.34-13.97-0.01-3.6899 1.52-7.22 1.32-10.92-0.11-4.39 1.25-8.66 0.97-13.05 0.27-10.07-0.75-20.22 0.94-30.19-0.04-9.14 4.43-17.65 3.87-26.81-0.01-7-0.05-14-0.01-21-0.06-5.4 1.88-10.58 1.92-15.97-0.27-7.5801 0.93-15.19 3.09-22.43 2.91-12.69 1.31-25.78 1.87-38.66 0.87-5.6001 0.98-11.29 0.73-16.93-0.14-4.35 0.78-8.71 0.04-13.02-0.23-2.34-1.08-4.8199 0.16-7-2.01-4.5499-1.01-9.8-2.9-14.41-1.98-4.2-1.83-8.98-3.7-13.2-2.61 4.31-5.86 8.2-8.74 12.34-1.76 2.93-3.39 5.95-5.28 8.81-2.89 3.51-6.18 6.9-7.68 11.3-1.11 2.62-1.59 5.4901-2.99 8-3.9 6.04-4.22 13.65-8.27 19.64-1.24 3.86-3.72 7.12-5.03 10.94-3.97 10.02-10.59 18.57-17.1 27.01-2.8 3.6-4.78 7.77-5.98 12.17-0.92 3.5801-4.12 5.75-6.24 8.5801-3.16 3.7999-6.01 8.5-11.01 10.04-6.01 2.03-12.33 3.8601-18.73 3.2301-1.13-0.02-2.65-0.5901-3.33 0.7-3.52 4.89-7.33 10.58-13.5 12.21-7.22 1.39-15.62 1.48-21.5-3.58-5.39-2.7-10.9-5.1801-16.48-7.4301-8.46-5.3999-17.59-10.02-24.65-17.28-5.29-6.6801-11.37-12.74-18.03-18.04-3.19-3.39-7.47-6.23-8.81-10.94-1.72-4.96-3.64-10.17-2.61-15.5 0.98-5.21 1-10.75 3.47-15.55 3.06-6.53 4.03-13.74 6.43-20.49 1.93-5.1801 2.93-10.7 5.42-15.67 2.93-6.02 3.7-12.75 6.16-18.94 3.72-8.12 4.6-17.16 7.65-25.51 0.85-2.44 1.77-4.85 2.25-7.39 0.65-4.25 3.48-7.81 3.95-12.11 1.59-6.5699 0.27-13.37 1.62-19.97-0.95-6.53-3.8-12.67-7.05-18.36-2.67-3.66-5.63-7.13-7.99-10.99-1.45-3.41-2.92-6.8701-5.38-9.69-3.17-3.67-4.34-8.69-8-11.98-3.85-3.55-6.98-7.77-10.18-11.88-4.76-6.3-7.23-13.88-11.19-20.63-2.35-7.24-7.69-12.93-12.42-18.7-0.24 5.24 0.36 10.55-0.81 15.73-0.51 7.97-0.63 16.12-2.93 23.84-0.59 4.61-2.53 8.95-2.33 13.67-1.61 6.83-2.88 13.87-5.99 20.24-1.13 2.3-1.13 4.94-1.68 7.41-1.6 5.4901 1.19 10.95 1.14 16.49-0.15 6.28 0.48 12.62-0.63 18.86-0.69 5.01 0.09 10.05 0.23 15.08-0.33 7.41 2.64 14.51 2.35 21.92-0.13 5.65 0.41 11.37-0.75 16.95-0.51 3.78-2.04 7.31-2.69 11.06-1.73 7.91 0.32 16.11-1.41 24.03-0.74 5.42 0.23 10.94-0.57 16.38-1.41 9.27-4.8 18.21-5.25 27.64-0.39 3.62-1.24 7.28-0.23 10.9 1.2 4.8099-0.71 9.52-1.6 14.2-1.3 8.5601-2.23 17.21-1.88 25.89-0.4 15.25 1.57 30.96-3.5 45.67-1.09 4.87-2.74 9.6-4.03 14.42 0.13 5.9-2.6 11.42-2.15 17.35 0.23 3.6201-1.22 7.02-1.87 10.52-0.06 41.01 0 82.03-0.03 123.04 0.04 2.91-0.5 5.78-0.99 8.64-1.09 7.4-5.29 13.92-6.15 21.37-1.72 5.15-1.48 10.63-2.59 15.91-1.44 10.77-5.24 21.08-5.97 31.97-0.94 12.12-3.88 24-4.42 36.16 0.15 6.08-1.9 11.96-2 18.04-0.12 3.05-1.37 5.88-1.77 8.89-0.75 12.03-3.25 23.85-4 35.89-0.18 3.8101-2.13 7.3-1.96 11.17-0.48 4.97-1.17 9.9399-0.92 14.97 0.33 6.08-1.85 11.93-1.9 18.01-0.06 3.76-1.95 7.21-1.87 11-0.04 2.85-0.73 5.65-1.52 8.39-2.58 16.07-0.65 32.41-1.55 48.58-1.4 6.24-0.29 12.67-1 18.97-0.27 3.12-2.41 5.6001-3.4 8.49-0.78 8.51-1.36 17.05-1.7 25.6-1.19 8.63-2.15 17.29-2.84 25.98-1.17 10.34-2.75 20.65-4.35 30.92 0.05 21.85 0.01 43.71 0.03 65.56 0.64 8.27-4.04 15.56-6.25 23.26-1.76 6.24-5.41 12.5-11.46 15.37-3.37 1.6799-7.31 1.88-10.87 0.7-2.38-0.98-4.85-0.08-7.25 0.27-8 0.5701-15.58-6.0499-16.17-14.06-0.28-6.3501-0.12-12.72-0.12-19.07-0.15-3.9199 1.76-7.47 2.14-11.3 0.52-4.5 2.11-8.77 2.76-13.23 1.35-6.58 1.59-13.45 4.19-19.71 2.49-5.7 2.72-12.03 4.99-17.8 0.74-6.61 0.13-13.31 0.33-19.95 0.24-7.47-0.84-15.14 1.33-22.41 1.39-4.0199 2.65-8.08 4.18-12.04 1.9-4.66 4.81-8.87 6.4-13.64 1.36-7.5601-0.04-15.31 0.77-22.91 0.9-4.91 2.68-9.65 5.17-13.96 3-6.05-0.05-12.67 0.38-18.99 0.31-11.34-0.79-22.76 0.91-34.02 0.29-4.85-0.39-9.74 0.55-14.53 1.13-5.95-0.17-12.06 0.92-18.02 0.83-4.1599 0.02-8.49 1.28-12.58 1.6-4.74 0.96-9.87 2.35-14.66 1.73-5.9399 2.46-12.1 2.91-18.24 0.33-4.0699 2.02-8.1 1.19-12.2-1.1-7.2101-0.39-14.53-0.58-21.79 0.14-5.27-0.47-10.62 0.62-15.81 3.73-12.41 6.52-25.08 10.58-37.4 0.55-2.6001 0.24-5.3 0.9-7.88 0.51-2.55 2.06-4.89 1.85-7.55-0.51-5.47-0.86-11.04 0.04-16.47 1.56-5.11 3.83-10.03 4.56-15.35 0.42-3.63 2.43-6.87 2.6-10.52 0.19-4.02 1.09-7.97 1.05-11.99 0.3-5.38-0.8-10.89 0.87-16.12 1.54-5.16 2.48-10.46 3.38-15.74 2.04-7.2001 3.14-14.7 2.79-22.18-0.29-5.21 1.01-10.38 0.27-15.56-0.61-3.0801 0.73-6.25-0.48-9.2301-1.86-5.5699-0.95-11.47-1.16-17.21-0.15-7 0.59-14.07-0.83-20.98-0.24-4.54-0.41-9.16 0.47-13.64 0.8-4.77 0.11-9.62 0.41-14.42 0.3-4.83 3.3-9.1 2.92-14.01 0.84-7.36 2.44-14.63 3.74-21.91 0.08-6.7001 0.44-13.44-0.9-20.04 0.41-12.04-1.15-24.24 1.43-36.1 0.5-3.33 0.85-6.72 2.11-9.86 2.29-5.6901 1.42-12.21 4.37-17.66 1.4-2.77 2.84-5.53 3.88-8.45-1.72-6.8-1.44-13.9-0.95-20.83 1.09-3.6699-0.37-7.33-0.26-11.02 0.03-4.71-0.15-9.4199 0.04-14.11 0.21-5 3.34-9.09 5.64-13.31 0.19-3.66-2-6.9501-1.85-10.63 0.17-4.12-1.9-7.86-1.88-11.94-0.4-11.1 1.88-22.05 2.76-33.07 0.07-5.14-0.36-10.35 0.76-15.41 1.53-6.18-0.89-12.39-0.77-18.59 0.07-6.02-0.13-12.05 0.08-18.06 0.14-4.48 2.92-8.38 2.86-12.86-0.03-21.05-0.07-42.09 0.01-63.13 0.93-4.7 0.6-9.58 2.03-14.17 1.31-3.89 0.48-8.16 2.09-11.99 1.53-7.17 1.15-14.6 1.2-21.89 0.63-7.35 2.6-14.53 2.97-21.91 1.38-7.96 0.48-16.04 0.83-24.06 0.79-8.33 3.34-16.51 2.84-24.95-0.42-5.38 2-10.37 2.5-15.65 1.74-5.71 4.04-11.29 4.21-17.36-0.14-6.91 3.26-13.38 2.89-20.3-0.02-6.69 2.31-13.54 0.18-20.1-1.4-4.04-1.11-8.34-1.09-12.53 0.27-9.35-0.71-18.77 0.9-28.02 0.21-12.6-0.07-25.2 0.11-37.8 0.13-3.42 2.12-6.61 1.74-10.04-3.86-3.97-7.41-8.27-10.52-12.85-3.91-7.91-1.06-18.13 5.85-23.44-1.93-6.11-7.56-9.54-12.66-12.79-2.69-1.62-4.08-4.57-6.16-6.8-2.33-2.97-5.52-5.4-6.88-9.03-1.23-3.53-2-7.23-1.88-10.98-2.42-1.62-4.96-3.49-5.91-6.36-2.34-5.49 1.15-12.41 6.83-14.01 2.02-0.74 4.2-0.56 6.31-0.7-1.44-4.43-5.17-7.8-5.67-12.6-2.17-6.14 2.39-12.84 8.54-14.11-3.64-6.73-3.38-15.58 2.02-21.32-2.77-4.01-4.5-9.06-2.84-13.87 1.35-5.77 6.64-9.55 12.05-11.15 5.35-1.34 9.2-5.54 14.03-7.9 4.64-2.3 9.11-5.42 14.46-5.64-0.14-9.81-0.2-19.63-0.17-29.45-0.1-5.08 1.74-9.96 1.82-15.02-6.46-1.66-12.41-4.81-17.57-9-4.49-3.74-6.41-10.34-4.62-15.9 1.53-4.83 0.99-10.02 2.73-14.81-3.84-2.98-7.35-6.46-9.61-10.8-6.25-3.7-13.98-7.94-15.11-15.87-2.06-7.32 0.48-15.47 5.64-20.91 1.85-2.21 4.36-3.69 6.47-5.61 1.25-1.84 1.34-4.18 1.71-6.3 1.32-14.06 9.7-26.68 20.24-35.67 5.4-2.71 9.15-7.59 14.18-10.84 2.69-1.72 5.86-2.62 8.35-4.65 2.55-2.76 4.55-6.12 7.75-8.22 5.02-2.95 11.35-4.57 16.92-2.14 5.71 2.08 8.03 8.11 11.8 12.34 5.46 3.65 11.46 6.39 16.98 9.93 2.62 2.02 4.63 4.72 7.31 6.69 3.84 2.8 7.24 6.34 9.37 10.63 1.31 2.84 4.12 4.76 5.05 7.82 1.81 5.52 0.99 11.43 1.16 17.14 0.3 8.25-0.78 16.65-3.96 24.32-1.73 4.15-1.69 8.88-4.12 12.77-2.41 5.41-5.45 10.47-8.46 15.57-2.59 3.76-4.42 8-7.55 11.38-3.13 6.53-8.7 11.48-14.71 15.33-3.56 1.67-6.37 4.48-9.39 6.93-0.52 3.27 1.62 6.71 0.26 10.03-1.67 4.3-0.53 8.96-1.61 13.35-2.05 6.49-3.85 13.05-5.96 19.53-0.43 9.25 0.53 18.64-0.97 27.84-0.31 5.67-1.61 11.72 1.15 17.04 1.79 4.03 5.74 6.3 8.47 9.61 2.99-5.07 8.57-9.14 14.72-8.16 6.14 0.22 11.29 4.81 13.11 10.52 1.45 8-0.78 16.06-3.52 23.54-1.27 3.57-4.77 6.91-3.3 10.95 0.55 3.45 1.5 6.88 1.43 10.41-0.05 5.39 0.5 10.98-1.67 16.07-2.07 6.12-7.32 10.14-12.06 14.15 0.58 1.9 1.24 3.78 2.09 5.59 2.24 4.62 2.1 10.08 4.99 14.44 6.79-1.13 15.04-0.87 19.67 5.04 2.96 4.36 7.05 7.75 11.39 10.69 4.6 2.79 9.89 4.4 14.15 7.75 3.21 2.8 5.81 6.37 9.68 8.34 4.92 2.58 8.98 6.47 13.89 9.06 7.53 4.36 12.43 11.73 17.48 18.57 6.72 7.4 12.92 15.37 17.55 24.25 1.26 4.35 3.22 8.48 6.49 11.71 5.22 0.35 10.62-0.61 15.63 1.28 3.57 1.31 7.73 1.68 10.54 4.5099 3.76 3.67 7.12 7.84 9.38 12.61 2.85 4.09 6.83 7.36 9.19 11.81 3.02 5.76 7.62 10.42 12.08 15.06 7.82-0.07 15.66-2.16 23.46-0.5 3.77 0.93 7.58 1.7 11.3 2.83 2.9301-3.29 4.36-7.6299 7.5601-10.7 3.5-4.19 9.17-5.09 14.21-6.16-0.2-3.8-1.24-7.53-0.97-11.36 0.24-5.9-0.8-12.03 1.36-17.69 2.19-5.83 3.42-12.11 6.76-17.45 2.81-4.91 4.85-10.24 8.26-14.79 2.95-7.46 7.37-15.06 15.29-18.02-4.88-6.32-3.76-14.62-3.79-22.06 0.19-5.18 2.95-9.79 6.8199-13.09-1.62-2.19-3.14-4.46-4.81-6.6-6.21-1.49-11.96-6.2-13.08-12.72-1.39-4.98 1.15-9.78 2.57-14.43 1.97-4.98 1.52-11.26 6.14-14.85 3.9-3.05 5.12-8.08 8.27-11.75 2.25-2.77 2.85-6.39 4.7-9.38 3.23-5.5 3.8-12.19 7.52-17.44 1.35-2.83 1.43-6.15 3.1-8.88 2.87-5 3.46-11.15 7.36-15.57 4.85-5.16 8.16-11.5 11.3-17.78 3.2-5.01 6.75-9.8 10.79-14.17 4.38-5.69 8.33-11.69 12.56-17.48 4.31-7.72 10.87-13.77 16.11-20.84 5.69-5.91 9.33-13.35 14.19-19.9 4.07-5.08 7.94-10.38 10.61-16.35 5.49-7.75 9.78-16.26 14.52-24.48 5.81-7.51 11.33-15.24 17.46-22.5 2.1899-3.1 4.85-5.85 8.02-7.95 0.78-5.45 3.43-10.77 7.79-14.21 3.85-2.46 3.6299-7.54 5.83-11.14 2.12-3.38 2.9-7.47 5.52-10.56 3.34-4.91 6.66-9.86 11.06-13.9 3.38-7.37 8.21-13.98 11.82-21.25 3.63-4.7 7.36-9.37 10.49-14.43 2.07-4.6 4.43-9.08 6.07-13.87 2.43-6.96 6.76-13.02 11.38-18.69 3.15-4.41 6.67-8.76 8.07-14.12 0.69-2.85 2.7-5.02 4.64-7.1 1.36-1.4 1.15-3.54 1.88-5.26 0.81-2.88 3.51-4.48 5.56-6.4 3.46-3.13 3.96-8.4 7.9-11.12 2.97-1.83 3.86-5.38 6.25-7.74 2.89-2.83 3.48-7.06 5.65-10.34 3.5803-4.89 6.0703-10.48 9.5503-15.43m-541.97 336.92c-1.58 0.37-1.81 3.12-0.11 3.48 1.43-0.26 1.63-3.25 0.11-3.48m889.2 37.5c-2.91 1.75-6.17 2.57-9.4299 3.34-3.5701 0.74-5.3401 4.58-4.9301 7.95 0.26 4.28 0.1 9.39 3.1801 12.73 2.6699 2.86 6.46 0.95 9.72 0.62 2.35-0.52 4.58 0.66 6.9 0.84 2.4399-0.91 4.98-1.62 7.3099-2.83 2.24-3.09 2.3201-7.12 3.67-10.6 1.2999-3.36 1.1-7.64-1.0901-10.57-3.8399-4.5-10.37-2.56-15.33-1.48m32.04-0.16c-1.26 2.79-3.05 5.83-1.9401 8.99 1.3 3.84 1.75 8.3 4.4 11.47 3.92 1.63 7.54 4.55 11.97 4.54 4.7001-0.35 9.5801-1.28 13.51-4.03 2.55-5.03 2.28-11.06 0.25-16.21-4.45-1.61-9.0399-2.79-13.42-4.54-4.68-2.07-9.92-0.94-14.77-0.22m-16.09 27.91c-2.98 4.21-3.59 9.51-3.9399 14.52 2.05 1.59 5.4 1.07 7.59 2.94 3.3-2.99 2.15-7.96 2.3301-11.93-1.2201-4.37-0.9-8.9-1.4801-13.34-1.54 2.58-2.7501 5.36-4.5001 7.81m8.6101-7.67c-0.92 3.07-1.3601 6.33-0.49 9.47 1.25 5.09 0.59 10.35 0.8999 15.53 2.88-0.35 5.55-1.96 8.52-0.9-0.12-2.31-0.2-4.62-0.21-6.92 0.3701-6.74-3.5699-13.13-8.7199-17.18m-39.29 18.5c1.6799 3.3 5.0599 5.79 5.22 9.75 0.5801 1.85-0.1699 4.78 2.35 5.27 0.04-3.2-0.1699-6.48-1.25-9.51-1.41-2.5-4.0199-3.95-6.32-5.51m64.56 15.99c1.75-2.13 2.2101-4.94 3.64-7.26 1.61-2.66 3.1801-5.36 4.73-8.06-5.5098 2.86-9.5098 8.97-8.37 15.32m-42.93 13.25c-1.61-0.05-3.2001-0.12-4.77-0.2 0.03-2.54 1.33-5.32-0.5-7.52-0.95 2.16-2.09 4.23-2.97 6.41-0.2001 2.06 0.08 4.13 0.41 6.17 0.47 0.16 1.4099 0.48 1.8799 0.63 0.16-1.28 0.3501-2.55 0.5701-3.81 1.29 0.12 2.58 0.24 3.9 0.36 0.4299 2.01 0.5499 4.06 0.58 6.12 0.3-0.02 0.89-0.04 1.1901-0.06 0.09-2.12 0.08-4.26 0.4099-6.36 1.53 0.18 3.8-0.69 4.6 1.2 1.2301 2.37 0.7101 5.27 1.3401 7.85 1.9399-2.54 1.51-5.97 2.85-8.78 1.23 0.17 2.48 0.37 3.74 0.58 0.04 2.75 0.04 5.4901 0.09 8.25 0.78-0.12 2.3501-0.35 3.13-0.46 0.23-2.92 0.23-5.86 0.4401-8.78 1.8099 0.15 3.5499 0.7 5.03 1.8-0.0701 2.2401-0.2101 4.48-0.02 6.72 1.6799-1.96 0.5299-4.59 0.4199-6.85 1.9401-0.73 4.41-1.23 5.9501 0.62 0.7 2.04 0.61 4.24 0.95 6.36 1.3201-0.29 2.66-0.57 4.02-0.85 0.1-2.44 0.14-4.87 0.23-7.3 1.29 0.08 2.59 0.2 3.9 0.35 0.41 2.44 0.38 5.07 1.79 7.22 0.2799-2.56 0.22-5.13 0.45-7.69 1.11 1.11 1.95 2.45 2.8 3.79 0.1499-1.58-0.16-3.29 0.5699-4.75 1.53-1.22 3.21-2.24 4.77-3.44-1.02-2.08-2.4501-3.89-4.11-5.49-0.12 2.27-0.1901 4.56-0.92 6.74-4.98-1.03-9.38 2.54-14.25 2.05-0.16-2.7-0.16-5.4-0.1899-8.09-1.17 0.02-2.3301 0.05-3.4801 0.09-0.5399 2.8-0.96 5.61-1.5099 8.41-1.3401-0.22-2.66-0.44-3.9601-0.67 0.0701-2.72 0.1901-5.45 0.1-8.17-0.49 0.11-1.49 0.33-1.98 0.44-0.48 2.38-0.1899 4.83-0.2999 7.24-1.6001 0.08-3.36 0.64-4.77-0.36-1.64-1.9-0.85-4.52-0.92-6.78-1.39-0.11-2.77-0.23-4.14-0.36-0.14 2.51-0.14 5.03-0.1799 7.56-2.2001 0.18-4.4 0.06-6.54-0.4 0.54-2.72 1.14-5.44 1.34-8.21-2.0003 2.31-1.6303 5.58-1.9403 8.42m52.8 17.1c-4.2699 6.38-8.0099 13.91-15.64 16.87-5.9801 0.54-12.19-0.92-18.01 1.01-3.9701 1.52-8.29 0.78-12.41 0.55-4.05-1.99-7.96-4.29-12.07-6.14-2.88-1.1801-3.8-4.41-5.53-6.7-2.0901 0.28-4.4 0.85-5.5701 2.78-3.02 4.46-6.34 8.7-9.76 12.86 1.64 2.83 3.6001 5.78 3.5601 9.19-0.16 5 0.9 10.42-1.87 14.92-1.4301 3.35-5.61 4.89-6.15 8.66-0.97 3.38-0.59 6.94-0.62 10.42-0.02 3.75 1.99 7.1899 1.89 10.95 0.11 2.37-0.41 4.96 1.05 7.04 4.09 7.03 12.01 11.1 19.94 11.95 3.75 0.26 7.17 2.15 10.95 2.23 2.66-0.68 5.14-2.62 8.03-2.06 4.86 1.02 9.91 1.23 14.84 0.62 3.7001-1.19 7.0901-3.27 10.99-3.89-4.42-6.35-4.14-14.48-3.66-21.85 1.0399-4.54 4.33-8.93 9-10.14 5.27-1.55 11.25 2.03 12.8 7.21 1.8201 4.27-1.76 8.69 0.26 13.01 5.61-2.34 9.8401-7.69 16.1-8.87 1.5699-3.53 3.6-6.87 6.6599-9.31 2.47-1.86 1.91-5.19 2.0901-7.88 0.2-5.27 3.86-9.42 5.5699-14.22-3.75-3.06-7.76-6.06-10.07-10.43-3.6001-5.27-5.55-11.45-9.26-16.64-3.2901-4.9799-7.1301-10.32-13.11-12.14m125.56 1198.4c0.05 4.5801 0.96 9.2001 3.22 13.24 1.97 6.5 5.4601 12.8 4.7101 19.83-0.7301 4 2.86 7.02 2.7799 10.94 0.02 1.47-0.14 2.97-0.23 4.49 1.96 0.41 3.91 0.86 5.92 1.2001 0.74-4.14-0.62-8.03-1.67-11.94-0.78-2.26 0.47-4.3099 1.74-6.0499-2.5699-5.52-3.5399-11.84-1.7899-17.74-1.67-2.6399-3.4601-5.3199-4.05-8.4199-0.8199-3.52-0.21-7.17-1.11-10.65-0.87-3.77-0.59-8.04-3.21-11.17-3.2001 4.9399-4.3201 10.81-6.3101 16.27m-1025.5 43.95c-1.5 0.3099-1.27 2.87 0.42 1.87 1.58-0.27 1.22-2.91-0.42-1.87z"/>
<path d="m296.29 405.19c1.52 0.23 1.32 3.22-0.11 3.48-1.7-0.36-1.47-3.11 0.11-3.48z" fill="#fff" stroke="#fff" stroke-width=".0938"/>
<path d="m345.23 1769.9c1.64-1.04 2 1.6 0.42 1.87-1.69 1-1.92-1.56-0.42-1.87z" fill="#fff" stroke="#fff" stroke-width=".0938"/>
</svg>
