<?xml version='1.0' encoding='utf-8'?>
<svg xmlns="http://www.w3.org/2000/svg" version="1.1" width="600px" height="976px" viewBox="0 0 600 976"> <rect x="0" y="0" width="600" height="976" fill="rgb(255,255,255)"/> <g id="layer1"> <g style="fill:rgb(0,0,0); fill-opacity:1.0; stroke-linejoin: miter"> <path d="M535.717,399.03516C536.8427,399.03516,537.0971,399.30563,537.32336,399.85822C537.50574,400.37457,537.18616,401.88068,536.57385,403.16156C535.45984,405.43256,533.7147,411.1778,532.69727,415.64044C532.48596,416.74075,532.0419,417.7299,531.69763,417.85147C531.6863,417.85626,531.6736,417.8586,531.65967,417.8586C531.3222,417.8586,530.2467,416.47864,529.21875,414.77863C526.9574,410.95148,521.702,404.29144,520.478,403.62067C517.8557,402.22394,520.9491,400.89935,530.27747,399.63702C533.11115,399.2383,534.74133,399.03516,535.717,399.03516 Z M119.4049,413.85892C119.711784,413.85892,119.85104,414.13107,119.86042,414.6595C119.86861,415.1181,120.16055,415.51477,120.44731,415.51477C120.44915,415.51477,120.45098,415.51474,120.45282,415.5147C120.45422,415.51468,120.455635,415.51468,120.45704,415.51468C120.801056,415.51468,121.04328,416.25842,121.05957,417.1779C121.07703,418.15884,121.3819,419.07693,121.67352,419.2449C122.022766,419.41177,122.26489,420.0425,122.27411,420.5618C122.283325,421.0811,123.127014,423.08633,124.084045,424.97415C125.098816,426.861,125.88379,428.80948,125.893005,429.32877C125.90326,429.9058,126.08557,430.42215,126.37622,430.53238C126.957275,430.75296,128.87653,434.81693,128.89496,435.85562C128.90309,436.3148,129.13867,436.71307,129.36838,436.71307C129.36957,436.71307,129.37076,436.71307,129.37195,436.71304C129.37274,436.71304,129.37354,436.713,129.37434,436.713C129.9543,436.713,131.86215,440.42227,131.88263,441.57474C131.89076,442.0341,132.1264,442.43207,132.3561,442.43207C132.35725,442.43207,132.3584,442.43207,132.35956,442.43204C132.36021,442.43204,132.36087,442.432,132.36154,442.432C132.8839,442.432,134.84865,446.0833,134.86603,447.0629C134.8744,447.53357,115.842476,447.94235,103.427986,447.94235C97.57747,447.94235,93.19663,447.85156,92.9709,447.6337C92.206436,446.83926,93.829544,443.9821,95.88228,442.56033C96.96529,441.79068,97.81239,440.7366,97.74544,440.2183C97.53645,438.2018,97.80861,437.2736,99.16481,435.6332C100.44329,434.07928,100.78822,433.38525,100.30638,433.38477L100.305374,433.38477C100.169685,433.38492,99.968735,433.4398,99.70491,433.5457C99.44975,433.6481,99.25346,433.70535,99.11748,433.70535C98.61202,433.70535,98.93967,432.91418,100.17409,430.709C102.41243,426.7443,105.24738,423.8655,106.97846,423.83475C106.99846,423.83438,107.01839,423.83423,107.03824,423.83423C107.820435,423.83423,108.48407,424.10672,108.491035,424.50064C108.49157,424.53064,108.50655,424.5452,108.535,424.5452C108.83489,424.5452,110.6306,422.9251,112.75208,420.67325C115.07386,418.1498,116.99787,415.98004,116.99378,415.74933C116.99067,415.57623,117.44306,415.04877,118.01301,414.63446C118.65593,414.11267,119.10857,413.85892,119.4049,413.85892 Z M129.55026,452.3141C133.0676,452.3141,134.8654,452.49,134.67897,452.78073C134.45436,453.13095,131.34248,453.41708,127.18788,453.4908C126.55704,453.502,125.95004,453.50748,125.373375,453.50748C122.15224,453.50748,119.87724,453.3373,119.676285,453.0471C119.43941,452.70493,122.089615,452.4271,127.167435,452.33688C128.03273,452.3215,128.82777,452.3141,129.55026,452.3141 Z M518.25323,596.62085C518.9373,596.6359,518.12225,602.63086,517.1803,604.7208L516.29297,606.7567L516.521,603.34717C516.66125,601.4977,517.0325,599.6439,517.3158,599.35034C517.6559,598.99805,517.93115,598.2427,517.9209,597.6658C517.91064,597.0893,518.07513,596.62476,518.24805,596.62085 Z M516.0806,608.5006C516.1473,608.5006,516.211,608.57025,516.27,608.7196C516.3927,609.12146,516.23083,609.7594,515.9474,610.053C515.7971,610.2087,515.6899,610.28754,515.6214,610.28754C515.4832,610.28754,515.5029,609.96655,515.6455,609.308C515.7923,608.7993,515.9427,608.5006,516.0806,608.5006 Z M508.09946,583.0256C508.378,583.03595,508.3512,584.7578,507.9928,587.91394C507.05722,596.6573,506.90335,600.0783,507.4186,600.0783C507.44864,600.0783,507.48096,600.0667,507.5155,600.0438C507.534,600.03156,507.5517,600.0253,507.56863,600.0248L507.5737,600.0248C508.12393,600.0435,507.8325,606.1532,507.19128,607.7842C506.96863,608.2499,506.99426,609.6925,507.18994,610.95874L507.57715,613.26074L507.9452,611.234C508.21423,610.13257,508.47107,608.3386,508.68335,607.296C508.839,606.3119,509.22766,605.4392,509.5161,605.4341C509.51804,605.434,509.51996,605.434,509.52188,605.434C509.92072,605.434,509.98996,606.1813,509.7798,607.2765C509.56738,608.3192,509.20032,610.4037,508.9972,611.9657C508.73535,613.47107,508.4713,614.8611,508.30127,615.03723C508.29218,615.0435,508.2798,615.04663,508.26422,615.04663C507.9868,615.04663,506.70355,614.06244,505.2578,612.667C501.67432,609.152,501.63306,610.0762,505.6964,595.1122C506.61792,591.7479,507.3601,588.04065,507.3396,586.8867C507.3191,585.73267,507.46777,584.3446,507.6316,583.82214C507.83047,583.28973,507.98523,583.0296,508.09436,583.0256 Z M522.49084,613.96326C522.52484,613.96326,522.5613,613.98566,522.59814,614.0331C522.7743,614.2031,522.84143,614.7213,522.6754,615.1283C522.61176,615.30774,522.5464,615.3925,522.4895,615.3925C522.39905,615.3925,522.32996,615.17804,522.323,614.7883C522.2685,614.28656,522.3618,613.96326,522.49084,613.96326 Z M511.025,613.0792C511.0299,613.0792,511.034,613.08075,511.03723,613.08386C511.33496,613.59814,510.60046,620.99927,510.19666,621.0065L510.194,621.0065C509.44656,621.0065,509.46344,615.41907,510.24683,614.0792C510.61865,613.5272,510.941,613.0792,511.025,613.0792 Z M525.7773,630.99536C526.179,630.99536,526.4978,632.0581,526.4099,633.6481C526.21594,635.7295,524.83484,639.21716,524.14233,639.2295L524.1421,639.2295C523.97003,639.22644,524.83563,632.75214,525.1653,631.8231C525.36383,631.2503,525.5805,630.99536,525.7773,630.99536 Z M135.98657,763.3683C136.58676,763.3683,137.02264,763.5382,137.02826,763.85425C137.03748,764.37366,134.75092,765.62634,133.8277,765.6428C133.82594,765.6429,133.8242,765.6429,133.82246,765.6429C133.25294,765.6429,133.62697,763.9717,134.31323,763.72925C134.88324,763.4842,135.49094,763.3683,135.98657,763.3683 Z M326.31555,130.51244C318.30765,130.51244,310.7098,135.45747,306.51596,144.0978C305.01328,147.24135,304.42227,152.96608,304.9338,159.01784L305.4371,164.60767L303.5886,164.52527C303.31918,164.50223,303.08575,164.48897,302.88208,164.48897C301.8182,164.48897,301.5669,164.85062,301.24942,166.06738C300.25742,169.8178,303.7244,179.35135,305.9274,179.35135C306.00668,179.35135,306.08432,179.339,306.16006,179.3136C306.28302,179.26721,306.39413,179.24135,306.49643,179.24135C307.062,179.24135,307.35785,180.03192,307.89078,182.51524C308.32956,184.4702,309.1207,186.76476,309.65335,187.5056C310.42398,188.64659,310.68442,190.31578,310.70566,194.75987C310.76303,197.9912,310.54105,201.74706,310.27823,203.19467L309.80502,205.8005L307.09604,206.02182C304.79105,206.23581,304.3325,206.41733,304.34885,207.34042C304.36118,208.03293,303.68307,208.85287,302.65372,209.3906C301.33878,210.10666,300.9451,210.69101,300.96768,211.9603C300.99326,213.40305,300.70993,213.69662,298.29764,214.37436C296.74673,214.806,295.14346,215.52707,294.63235,215.9979C294.17795,216.40988,293.4916,216.76852,293.14536,216.77463C292.04904,216.79416,286.38638,222.95541,284.82187,225.8691C283.03482,229.24873,282.2957,233.12923,282.13226,240.17406C282.03906,244.67783,280.9587,248.853,279.70767,249.91415C279.48,250.09128,278.87802,251.94907,278.28122,254.09543C277.7432,256.29843,277.08145,258.04172,276.85068,258.04575C276.56223,258.05087,276.41885,259.72726,276.45572,261.80466C276.49252,263.87875,276.75223,265.5461,277.04022,265.5461L277.04242,265.5461C277.33163,265.5461,278.0672,268.01303,278.6403,271.05893C279.58975,275.77524,279.6669,276.87045,279.06705,278.84372C278.62802,280.1213,278.01474,281.34433,277.67264,281.5814C277.33047,281.81818,276.6285,284.54352,276.1058,287.612C275.58414,290.73834,274.93674,293.28937,274.6483,293.2945C274.35977,293.29962,274.15152,294.5733,274.17917,296.1313C274.23654,299.3626,273.31192,302.55377,272.33096,302.57123C271.98477,302.57733,271.30258,303.16656,270.8522,303.8095C270.40286,304.51007,269.7258,305.38788,269.38577,305.7403C269.04672,306.15033,268.31607,307.25995,267.81528,308.3078C267.31332,309.29803,266.0159,310.99493,264.93893,312.11078C263.86215,313.22662,262.9603,314.45477,262.96646,314.80096C262.99515,316.4168,259.45114,321.61676,257.73434,322.45538C254.58737,324.0119,247.22269,338.34195,247.29953,342.66983C247.34973,345.49728,245.78094,351.4127,243.67322,356.24078C241.06671,362.23236,241.27362,364.13348,244.76666,365.80292C247.02852,366.90134,249.19812,367.44458,251.30025,367.44458C252.71523,367.44458,254.09962,367.19843,255.461,366.70978C256.58398,366.2771,257.45392,366.04977,258.10416,366.04977C259.5453,366.04977,259.90735,367.16635,259.55347,369.6386C259.24414,371.7221,258.8506,372.3062,256.34033,373.9671L253.48792,375.8648L249.87653,374.024C247.88469,373.00055,246.4239,372.48935,245.561,372.48935C245.3892,372.48935,245.24112,372.50958,245.11725,372.5501C245.00307,372.59045,244.87297,372.6098,244.72942,372.6098C243.35852,372.6098,240.76152,370.84473,239.10426,368.732C238.6891,368.10443,237.2765,366.57098,236.04323,365.3808C234.80898,364.13275,233.80745,362.99615,233.80336,362.76544C233.80025,362.59235,233.15126,361.7956,232.38673,361.00116C229.27327,357.9395,227.91835,356.4051,227.91121,356.00116C227.90712,355.77045,227.25801,354.97382,226.4936,354.17926C221.02779,348.67734,219.08675,346.634,219.08266,346.40317C219.07954,346.23007,217.96376,345.1533,216.61615,344.0226C215.26837,342.89224,213.6261,341.42056,212.97803,340.6818C212.33105,340.00052,210.86084,338.46817,209.80066,337.2748C208.68378,336.1403,205.91742,333.13016,203.62201,330.6314C198.97021,325.46136,188.51784,315.43036,183.83296,311.64618C182.13393,310.23346,180.43495,308.8205,180.08363,308.53827C178.49898,307.0656,173.946,304.20258,171.7358,303.26068C171.03725,302.9267,170.15736,302.13434,169.7411,301.4489C169.02406,300.07635,168.43373,299.3366,166.55147,297.3498C165.90433,296.66864,164.48984,295.01984,163.36887,293.65436C162.2479,292.28888,160.42844,290.58966,159.26108,289.86005C158.09268,289.0727,155.57968,287.32794,153.64987,285.91925C151.72006,284.51056,149.90671,283.1574,149.55637,282.93268C148.50464,282.14432,138.86766,277.82294,138.2699,277.82294C138.26918,277.82294,138.2685,277.82297,138.2678,277.82297C138.26314,277.82306,138.25848,277.8231,138.25383,277.8231C137.91371,277.8231,137.62888,277.5995,137.62383,277.3149C137.60948,276.50717,123.28722,272.8364,119.35937,272.67514C118.08892,272.6401,114.56396,272.4139,111.50158,272.23752C110.7845,272.19116,109.89595,272.1696,108.87973,272.1696C101.952126,272.1696,89.09152,273.1723,84.176155,274.16574C73.537,276.37497,71.35353,276.9332,69.00619,278.0139C67.57491,278.67416,64.42379,279.99985,62.015648,280.90854C55.077724,283.51385,40.386086,294.79926,40.433205,297.45343C40.46706,299.35886,38.421192,299.8626,30.143978,299.8626C29.647207,299.8626,29.12799,299.8608,28.585432,299.85736C19.578663,299.7287,19.29015,299.73383,12.785454,297.48273C9.426294,296.32355,6.510095,295.4485,5.968003,295.4485C5.919646,295.4485,5.8901806,295.45544,5.880978,295.4698C5.7098355,295.5882,5.9509244,296.16107,6.421749,296.6723C7.4217315,297.80722,13.712294,301.95578,14.420221,301.95578C14.42127,301.95578,14.422307,301.95578,14.423331,301.95575C14.428105,301.95566,14.432863,301.95563,14.437606,301.95563C15.407375,301.95563,15.720137,303.72388,14.807548,304.08478C14.509053,304.20276,13.060436,304.26785,11.145794,304.26785C10.118707,304.26785,8.957514,304.2491,7.7678175,304.20978C2.3973374,304.07416,-0.7875972,303.4959,-8.500972,301.4394C-8.877068,301.3403,-9.165057,301.29245,-9.368237,301.29242L-9.36833,301.29242C-10.606087,301.29248,-8.695568,303.0694,-4.3818946,305.86847C0.34838846,308.9593,12.170647,314.8676,18.85564,317.5196C23.272814,319.2304,23.683886,319.62726,23.315905,321.654C22.071398,329.5838,21.226976,334.04337,20.030262,338.16263C19.814491,338.97217,19.768497,339.29413,20.115599,339.29413C20.29074,339.29413,20.565962,339.21216,20.969957,339.0695L22.289904,338.64212L22.063343,348.63193C21.930838,354.17535,21.577871,360.29987,21.323172,362.2093C21.01171,364.17743,20.960928,367.81476,21.178091,370.2928C21.396292,372.82855,21.934072,383.61285,22.297718,394.34247C22.997486,414.2437,22.911793,415.91913,20.878592,418.4373C20.371572,419.13895,20.349722,421.15945,20.86321,427.32645C21.299673,432.39822,21.399038,437.9954,21.082205,442.90726C20.867483,447.06705,20.448235,455.96347,20.220879,462.66318C19.797295,474.5611,19.805473,475.02264,21.08178,478.6364C21.80999,480.64374,23.189507,483.56305,24.197073,485.04596C26.151886,488.00873,33.35892,494.96555,34.412468,494.96555C34.41386,494.96555,34.415245,494.96555,34.416615,494.9655C34.418922,494.96548,34.421234,494.96545,34.423553,494.96545C34.82726,494.96545,35.410923,495.5874,35.76946,496.38458C36.128242,497.18243,36.76966,497.80356,37.117115,497.80356C37.11881,497.80356,37.1205,497.80356,37.12218,497.80353C37.12387,497.8035,37.125572,497.8035,37.127285,497.8035C37.47636,497.8035,38.2904,498.4214,38.877853,499.15765C40.122128,500.65768,44.79602,501.91843,48.60878,501.91843C49.133728,501.91843,49.642353,501.89453,50.123455,501.84406C60.83866,500.67255,63.771217,500.04315,65.132545,498.69147C65.81168,497.92902,66.83897,497.27582,67.358315,497.26666C67.87766,497.2574,69.1359,496.60016,70.160194,495.77386C71.18449,494.94757,72.21189,494.29437,72.38499,494.29132C72.55808,494.28827,73.35563,493.69696,74.09348,492.99115C74.88803,492.22675,76.47708,490.6977,77.66934,489.57977L79.88388,487.52032L79.74112,482.732C79.68271,479.44293,79.36447,477.77472,78.83902,477.43768C78.431,477.21417,77.936615,475.3758,77.72043,472.95526C77.357086,468.74814,77.63541,468.1661,80.05478,467.89218C80.68857,467.8232,81.436615,467.69455,81.72409,467.63168C81.954926,467.62753,82.11575,466.9321,82.10245,466.18198C82.088104,465.3741,82.36221,464.56113,82.704315,464.3242C83.1608,464.02756,83.15671,463.79672,82.63229,463.51743C81.69882,462.95676,82.17819,460.6971,83.59311,459.11362C84.21652,458.46762,84.832855,457.4177,85.0524,456.77878C85.487274,455.27036,87.9194,452.45663,88.78494,452.44125C88.78883,452.4412,88.7927,452.44116,88.79655,452.44113L88.79743,452.44113C89.47682,452.4416,89.43323,453.49045,88.63608,457.0616C88.472565,457.80026,88.392426,458.16226,88.43417,458.16226C88.474304,458.16226,88.627045,457.8278,88.926605,457.17184C89.31827,456.47226,89.82736,455.88583,90.115875,455.8807C90.34671,455.87668,90.56619,455.23788,90.55289,454.48776C90.5322,453.32254,90.84499,452.818,92.1122,452.818C92.85315,452.818,93.920425,452.99048,95.43814,453.3043C97.35049,453.73215,103.60287,454.77548,109.33285,455.655C115.688194,456.62433,118.56527,456.98254,122.26525,456.98254C124.09136,456.98254,126.11792,456.89526,128.86201,456.7512L137.91615,456.30185L137.93874,457.57126C137.95204,458.3215,138.13844,459.06845,138.37337,459.29526C139.01942,459.91867,140.97652,466.11777,141.00624,467.79123C141.02058,468.5991,141.20808,469.40375,141.49861,469.51398C142.02205,469.73566,144.0226,475.12592,144.04512,476.39532C144.05533,476.96982,144.29224,477.42587,144.52208,477.42587C144.52309,477.42587,144.5241,477.42587,144.5251,477.42584L144.5266,477.42584C144.81615,477.42584,145.53394,478.91168,146.19923,480.6861C146.80898,482.52228,147.5301,484.12567,147.70638,484.29572C148.29262,484.80487,150.0315,488.46796,150.04584,489.27606C150.05298,489.67688,150.34341,490.01587,150.6298,490.01587C150.63194,490.01587,150.6341,490.01584,150.63623,490.0158C150.63766,490.01578,150.6391,490.01578,150.64053,490.01578C150.98444,490.01578,151.22664,490.75986,151.24396,491.73663C151.26038,492.65985,151.04388,493.47186,150.6977,493.4781C150.40924,493.48322,150.1463,494.9306,150.177,496.6618C150.23334,499.8354,149.08315,503.31915,147.98683,503.33856C147.64058,503.3448,147.41585,503.695,147.42305,504.09894C147.43947,505.02228,144.8343,507.83905,141.53267,510.43744C140.16725,511.55853,138.58229,513.3182,138.02272,514.3094C137.5218,515.3571,136.90248,516.23395,136.6717,516.2381C136.38313,516.2432,136.10487,516.8255,135.88734,517.57965C135.72658,518.2751,135.11134,519.38275,134.54555,520.0278C133.98085,520.7304,133.0306,522.47894,132.48024,523.98956C131.92982,525.49994,131.31667,526.72296,131.08583,526.727C130.85506,526.73114,130.52107,527.42975,130.36336,528.2984C130.1056,530.0345,129.06764,533.3431,128.28853,534.9731C127.67649,536.2534,127.911476,552.7465,128.54576,552.7465L128.54718,552.7465C128.89578,552.7465,131.04369,556.85876,131.05801,557.6659C131.06009,557.7814,131.7092,558.5779,132.53134,559.37146C133.35349,560.1649,134.00882,561.30774,134.01907,561.88477C134.03024,562.5164,134.21083,563.0306,134.49681,563.0306C134.49823,563.0306,134.49965,563.0305,134.50107,563.0305L134.50235,563.0305C134.73389,563.0305,135.27145,564.1161,135.69815,565.4337C136.48831,567.67065,136.4357,567.9602,135.41245,568.8441C134.7869,569.37476,133.88724,570.7184,133.3884,571.8816C132.94833,573.10144,132.32993,574.03613,131.9838,574.04224C131.69528,574.04736,131.30057,574.57385,131.07999,575.1549C130.91818,575.7927,130.23807,576.49756,129.66403,576.6809C129.09012,576.86426,128.40994,577.569,128.2482,578.2068C128.02762,578.78796,127.575165,579.3154,127.113556,579.3236C126.709625,579.3308,125.85538,579.98083,125.235016,580.80005C124.61459,581.619,123.81802,582.2682,123.47177,582.2743C123.12558,582.2804,122.73294,582.92236,122.51651,583.73425C122.35672,584.48755,121.67856,585.3076,121.104706,585.49097C120.53177,585.73206,120.02365,586.376,120.03494,587.01074C120.0452,587.58765,119.88132,588.1101,119.592804,588.11523C119.36197,588.1194,118.517975,589.34656,117.794464,590.8601C117.013275,592.37463,116.061005,594.0078,115.664276,594.4188C115.268524,594.8877,114.48532,596.28687,113.8165,597.62634C112.48178,600.4783,112.20352,601.0604,108.727394,606.83655C107.2125,609.2877,106.03861,611.44434,106.0427,611.67505C106.04685,611.906,105.76652,612.3727,105.42747,612.7827C104.296974,614.1304,98.74418,623.2334,98.753395,623.7528C98.75852,624.04126,98.5319,624.276,98.243385,624.2811C97.95487,624.28625,97.503456,624.8716,97.28495,625.56824C97.06748,626.3224,96.73362,627.021,96.563515,627.19714C95.652565,627.9059,93.69242,631.2886,93.706764,632.09644C93.71598,632.6157,93.43461,633.0248,93.14616,633.0299C92.799965,633.03613,92.124855,634.0293,91.5684,635.1935C91.07053,636.41455,88.13157,639.92993,85.12858,643.10016C82.06693,646.2137,79.580246,649.2017,79.588486,649.66327C79.5977,650.1827,79.25865,650.5927,78.9124,650.5988C78.04692,650.6142,70.39641,658.60004,68.20135,661.75616C66.39898,664.2701,64.01092,669.565,62.650322,674.207C59.870415,683.4339,63.146965,695.6702,72.109,709.5373C76.024956,715.5284,79.69378,720.6005,80.39129,720.87665C80.681816,720.987,80.86108,721.33,80.86724,721.67633C80.87237,721.9648,81.70684,723.4506,82.77111,724.8748C86.14623,729.6634,86.56249,730.3487,87.65026,733.10004C88.25371,734.6445,88.96588,735.8421,89.25559,735.8421L89.25744,735.8421C89.25927,735.84204,89.2611,735.84204,89.262924,735.84204C89.548965,735.84204,89.78404,736.2397,89.79217,736.6984C89.808586,737.62164,91.48571,741.0551,92.12969,741.56305C92.36352,741.7321,92.90545,742.9924,93.391594,744.36896C93.8778,745.74567,94.59179,746.9451,94.99877,747.11115C95.405754,747.27716,95.76324,747.9056,95.77349,748.4826C95.78478,749.1174,96.631516,751.29584,97.592636,753.41425C98.61052,755.4743,99.837326,759.5506,100.350204,762.42755C102.13086,771.68896,102.69006,773.9302,104.06445,776.5609C107.230225,782.5653,111.78949,785.7744,119.84802,787.7672C126.7475,789.4917,128.02618,789.9884,134.38232,793.6273L140.15637,796.98804L145.52582,797.06604C146.14311,797.0812,146.71185,797.0893,147.24014,797.0893C150.22057,797.0893,151.91257,796.8309,153.76294,796.1116C155.23349,795.56116,156.06657,795.30225,158.09288,795.30225C159.85904,795.30225,162.53171,795.49896,167.32312,795.87085C171.1573,796.17267,173.92238,796.35126,175.95164,796.35126C180.25488,796.35126,181.2494,795.5482,182.11377,793.4148C182.6095,792.0785,182.53326,791.0408,181.67017,787.9392C181.05621,785.8722,180.38867,784.037,180.15485,783.86804C179.92096,783.69885,179.38013,782.49634,179.01031,781.1754C178.58289,779.85547,177.86377,778.36743,177.39398,777.91406C176.92413,777.4606,176.50793,776.77527,176.50177,776.4291C176.4895,775.7367,174.75464,772.3042,174.16931,771.8528C173.99316,771.68274,173.10004,770.14014,172.14606,768.42554C169.4552,763.16296,167.40074,761.2369,163.63054,760.2072C161.83257,759.71967,160.03142,759.0589,159.6801,758.77655C159.32982,758.55194,157.76256,758.0601,156.19951,757.7994C154.6364,757.5385,151.74101,757.01263,149.83073,756.70026C148.54472,756.45715,147.63562,756.32886,146.82776,756.32886C145.70738,756.32886,144.78172,756.57556,143.31548,757.1047C141.65129,757.6536,140.39616,758.4841,140.40434,758.94574C140.41252,759.4073,140.01476,759.7607,139.5532,759.76886C139.54813,759.7689,139.54308,759.769,139.53802,759.769C138.97089,759.769,138.67717,759.19653,138.65587,757.9954C138.63628,756.89343,138.53548,756.478,138.16562,756.478C138.03197,756.478,137.86317,756.5323,137.65038,756.628C136.41666,757.1599,135.6182,757.4201,135.14825,757.4201C134.7672,757.4201,134.60213,757.249,134.59618,756.91315C134.58794,756.4515,133.40837,755.0295,132.05656,753.66815C130.15604,751.94525,129.05382,751.3208,127.75852,751.3208C127.73436,751.3208,127.71014,751.32104,127.68584,751.3215C127.642105,751.32227,127.59913,751.32263,127.55689,751.32263C126.42869,751.32263,125.83388,751.047,125.825,750.5463C125.817795,750.1425,125.401596,749.4572,124.932785,749.06146C124.464035,748.6657,124.04576,747.86505,124.03343,747.17267C124.0222,746.5379,123.544174,745.62286,122.95793,745.11383C122.37169,744.6048,121.48668,743.52386,120.95299,742.7253C119.767136,740.957,116.85295,732.86993,116.8253,731.31195C116.81505,730.7349,116.57298,730.10443,116.28142,729.93646C115.98979,729.7685,115.626144,728.79364,115.434555,727.7581C115.04332,725.2253,113.20775,719.3704,108.88335,706.6331C106.93236,700.7802,105.10185,695.2138,104.9124,694.29364C104.413864,692.22455,103.501205,689.5855,102.66264,687.86896C101.944565,686.43866,102.94566,681.0528,104.300766,679.3549C106.27733,676.89545,121.721115,665.712,132.50908,658.8826C133.70755,658.1108,135.58603,656.63434,136.60526,655.5196C137.62546,654.46246,138.64871,653.5784,138.87955,653.5744C139.39883,653.5651,141.37643,651.1635,141.36618,650.5865C141.36209,650.35565,141.87527,650.0003,142.44821,649.7592C143.07993,649.57477,143.75998,648.8702,143.92282,648.2901C144.08566,647.7099,144.76584,647.0052,145.33981,646.82184C145.91373,646.6385,146.5939,645.93365,146.75674,645.3537C146.91959,644.7736,147.59976,644.0688,148.17368,643.88544C148.74765,643.7022,149.42776,642.9974,149.59067,642.4172C149.75357,641.8372,150.43369,641.1325,151.00766,640.94916C151.58151,640.7657,152.26175,640.0611,152.42459,639.48096C152.6431,638.7844,153.49838,638.19214,154.76376,637.9386C155.85696,637.7461,156.71536,637.3268,156.71127,637.09607C156.70712,636.86523,158.31155,636.2018,160.2632,635.58997C162.2159,635.03577,164.50655,634.0138,165.35982,633.306C166.44289,632.5364,168.33675,631.92566,171.15913,631.5869C173.46309,631.31506,177.77846,630.5458,180.76674,629.8002C183.75496,629.0543,186.80397,628.48083,187.55415,628.4674C188.30421,628.4541,189.33882,628.20483,189.91078,627.906C191.7975,626.89136,195.12886,625.9663,198.18202,625.62366C199.85231,625.4208,201.75032,625.0408,202.37996,624.74097C204.27083,623.95703,207.94838,623.0259,210.99947,622.5676C212.61104,622.3082,215.36848,621.5665,217.14705,620.95776C218.92561,620.3489,222.20229,619.59814,224.44965,619.38513C226.69592,619.11426,228.53625,618.73535,228.53217,618.5045C228.52808,618.2737,229.72858,617.6173,231.2763,617.0128C232.76727,616.4668,235.11572,615.4437,236.48932,614.7844C238.72229,613.7637,240.16278,613.62256,248.87689,613.5255C254.302,613.48694,259.2047,613.2844,259.7199,613.0443C259.81448,613.006,259.9075,612.9854,260.00137,612.9854C260.64716,612.9854,261.334,613.9602,262.84686,616.8561C265.23486,621.3159,268.5417,628.761,268.555,629.5111C268.56012,629.79956,268.91656,630.3705,269.32776,630.76733C270.85767,632.41406,271.50775,633.2682,271.51288,633.55676C271.516,633.72986,272.6936,635.0365,274.1618,636.45337C276.6881,638.94836,278.10986,641.0009,278.9566,643.1794C279.1379,643.6926,279.54648,644.1449,279.83475,644.1449C279.83636,644.1449,279.83798,644.14484,279.8396,644.14484C279.84103,644.14484,279.84244,644.1448,279.84387,644.1448C280.13046,644.1448,280.36823,644.65784,280.37842,645.232C280.38867,645.809,280.74615,646.4377,281.21082,646.6026C281.67548,646.7674,282.3874,647.8515,282.81085,648.94073C283.23422,650.08496,283.82602,650.9964,284.05786,650.9964L284.0617,650.9964C284.6409,650.9964,286.32083,654.8253,286.3444,656.15094C286.35464,656.72797,286.76877,657.2978,287.23453,657.5203C287.69925,657.68524,288.11026,658.0821,288.11642,658.42816C288.12253,658.7745,288.66647,660.1501,289.26712,661.467C289.92545,662.7829,291.0668,665.3024,291.90652,667.0767C294.48703,672.62994,298.01144,679.3206,298.4761,679.48553C298.709,679.59686,298.8882,679.94,298.89438,680.2862C298.90048,680.6325,300.28098,683.60944,301.95602,686.9274C303.63113,690.2454,305.13828,693.85516,305.27408,695.00714C306.12167,700.4755,307.06198,704.6724,307.77286,705.6989C308.18802,706.3265,308.97617,708.44806,309.4736,710.45953C309.97104,712.4709,310.81882,714.707,311.29385,715.4489C313.42746,718.58563,321.42606,733.451,322.81473,736.8896C324.50613,741.1309,324.62668,741.4174,331.99408,762.9896C336.0124,774.751,337.67285,780.49365,338.20313,784.35144C338.65936,787.28723,339.23303,790.3362,339.5368,791.19653C340.80396,794.291,340.37067,799.1472,338.37848,803.9735C334.72888,812.985,333.50446,815.5464,331.362,818.41284C328.88147,821.7471,325.766,828.3247,325.79675,830.0558C325.80902,830.74817,323.85193,834.30396,321.4939,838.0399C311.66235,853.222,311.50262,853.97516,317.0315,856.5321C320.55582,858.20197,325.79636,859.03754,331.48148,859.03754C336.78275,859.03754,342.4706,858.311,347.51392,856.8566C353.71503,855.01495,355.43176,854.17633,357.41138,851.8901C358.71393,850.4816,361.35663,843.2773,362.59155,838.06055C363.18225,835.568,362.81787,831.3032,361.87622,830.2809C361.46405,829.82654,360.39264,827.9984,359.4964,826.2827C357.28656,822.1084,356.78735,816.74927,358.0923,812.2239C359.2921,808.27747,360.5937,806.8113,364.32172,805.47534C366.904,804.62134,367.35748,804.1515,368.74884,801.24084C371.0296,796.4094,371.372,792.9402,370.03638,785.9795C368.82825,779.7095,367.71783,775.6887,365.4165,769.6112C364.62958,767.54724,363.53552,764.4497,362.9278,762.7289C361.95026,759.687,361.34854,758.31244,357.3937,750.1285C352.65897,740.2846,350.53995,734.7233,349.04953,728.8046C345.62076,714.493,345.1758,712.1921,344.33688,703.95294C343.47842,694.6174,342.79343,691.8012,339.26535,681.6473C337.98813,677.9759,336.21115,672.17755,335.3419,668.7298C334.4158,665.34076,332.2446,656.8366,330.3895,649.8851C325.31363,630.5812,323.97177,623.2744,323.35983,611.568L322.77554,601.41956L327.6154,600.92944C331.75284,600.5535,334.87912,600.36993,337.48428,600.36993C339.8503,600.36993,341.78647,600.52136,343.65988,600.81775C345.30664,601.06226,349.90933,601.2182,354.84387,601.2182C356.15195,601.2182,357.48337,601.2073,358.7892,601.1841C368.19467,601.0171,371.71042,600.72375,379.5355,599.31494C393.8624,596.7517,395.45773,595.56885,396.4509,586.48914C396.9429,581.6896,397.61063,580.29236,399.3995,580.2606C400.0342,580.2494,401.23776,579.76624,402.03433,579.11707C403.916,577.81396,406.2675,576.964,412.07492,575.70654C414.5469,575.14307,418.39255,573.9204,420.68423,572.9562C422.9769,572.0497,425.9034,571.0741,427.22653,570.8198L429.64273,570.3728L433.59366,578.3259C437.00455,585.13403,442.71408,594.61426,445.0137,597.3441C445.4258,597.7986,447.0804,599.9625,448.73596,602.1842C450.3907,604.34827,451.98346,606.2826,452.15967,606.4525C452.3935,606.6216,453.27753,607.6449,454.10474,608.7268C456.1128,611.2886,457.7613,613.10645,459.8775,615.2622C461.40546,616.7936,461.6526,617.71277,462.6278,623.87146C463.21472,627.67065,463.98822,632.2169,464.30737,633.9429C465.83368,641.88104,466.97644,650.9808,467.1801,655.9412C467.4001,661.82477,467.1825,662.57904,463.03857,669.7524C460.01483,675.0008,459.40985,676.6855,458.80963,681.89105C458.11047,688.0219,454.95343,695.52386,449.83887,703.2917C441.68817,715.6154,438.99017,719.7038,437.86383,721.2823C432.7976,728.5296,431.04675,730.69635,426.5114,735.33685C418.9702,742.9744,415.55798,749.09564,413.7539,758.01685C412.15906,765.72205,405.5193,785.11865,401.79053,792.91943C399.06458,798.68225,398.2027,802.16077,399.2155,803.9321C400.0489,805.36035,399.99738,805.7075,397.956,817.5189C395.9651,828.9252,396.58838,831.5116,401.94305,834.01404C404.2245,835.1045,405.3761,835.40704,408.13962,835.40704C408.7609,835.40704,409.4636,835.3918,410.27893,835.3667C414.95172,835.22595,415.75555,834.98083,420.10297,832.76807C426.16718,829.71655,431.664,823.9624,434.89386,817.3248L437.0655,812.8417L436.56616,807.48254C436.28314,804.5438,435.93616,801.2599,435.91772,800.2213C435.77673,798.78064,435.06586,797.7543,432.7199,795.6603C429.08392,792.4347,428.6018,791.28906,427.9749,785.2394C427.27484,778.3253,428.33746,776.40173,434.19342,774.6238C436.71906,773.8286,436.94562,773.5936,437.93304,770.69006C438.47943,768.9487,440.93842,764.40295,443.35095,760.4927C445.8222,756.63934,449.01593,751.2144,450.46802,748.47577C451.92017,745.73724,455.39728,740.01874,458.09222,735.7574C460.84485,731.4948,463.08746,727.7609,463.0813,727.41473C463.07617,727.12616,463.30286,726.8912,463.5913,726.88605C463.87994,726.8809,464.61462,726.00214,465.23096,724.95233C465.84827,723.9599,467.9289,720.86383,469.78497,718.1181C471.64087,715.37225,474.0597,711.8083,475.12836,710.2308C476.1961,708.59564,478.50238,705.207,480.3039,702.6352C484.52185,696.3841,487.94647,690.95526,489.5645,687.80963C490.29016,686.41144,491.30005,684.7774,491.75146,684.1922C492.20276,683.607,492.93756,682.7281,493.3322,682.2016C493.68954,681.7876,494.0348,681.5892,494.3291,681.5892C494.82654,681.5892,495.17844,682.1561,495.19708,683.20746C495.2104,683.9576,496.4782,690.3421,498.0489,697.52924L500.8194,710.52496L500.6607,721.09064C500.51642,732.4643,500.03998,734.8969,495.73505,745.9981C494.13434,750.1247,488.08484,760.5065,487.27698,760.52075C486.98853,760.5259,486.773,761.3956,486.7915,762.4342C486.81708,763.87683,485.53503,766.43933,481.7755,772.50903C479.026,776.9447,476.7329,781.0835,476.74213,781.6029C476.78308,783.9109,482.70367,785.7683,491.36932,786.19165C492.124,786.23,492.90482,786.24896,493.70685,786.24896C499.16742,786.24896,505.61078,785.3706,511.47058,783.7567C516.8124,782.27673,518.7394,780.2799,520.4784,774.18835C521.1874,771.8668,521.9574,769.7175,522.23975,769.3662C522.85913,768.4895,521.4685,764.9354,519.15137,761.22473C516.3635,757.0029,514.71857,752.1258,515.0135,749.23444C515.15485,747.4427,516.10406,745.6364,518.9205,741.71906C524.1597,734.4687,524.11127,734.9891,520.81866,708.8422C518.3332,689.1458,517.429,683.73615,511.386,648.9799C510.74756,645.52814,510.76843,643.44977,511.38123,635.70435C512.0343,626.9768,513.34985,619.79614,514.3884,619.7777C514.61914,619.7737,514.83997,619.1925,514.82764,618.5C514.8176,617.93866,514.9248,617.56494,515.0602,617.56494C515.09174,617.56494,515.1249,617.5853,515.15845,617.6284C515.452,617.91174,515.31165,619.76135,513.9143,632.0807C513.4127,636.2095,513.45514,637.38635,514.4361,637.38635C514.6371,637.38635,514.87744,637.337,515.16064,637.2534C515.9066,637.0093,516.355,636.251,516.56006,634.8043C517.0736,631.21643,518.53015,625.4763,518.93396,625.4691C519.91504,625.45166,521.6836,621.03357,521.36536,619.36536C521.2219,618.4462,521.1575,618.03314,521.2858,618.0277L521.2911,618.0277C521.39825,618.03204,521.6308,618.2984,522.0476,618.7759C522.99133,619.9136,522.89,623.9558,521.83154,626.11035C521.55225,626.63464,521.3418,627.79297,521.35815,628.7162C521.3817,630.04333,520.64575,634.0968,518.83655,642.7293C518.68463,643.5657,518.7043,643.88727,519.02924,643.88727C519.15424,643.88727,519.3244,643.8397,519.54736,643.75555C519.684,643.69806,519.8245,643.6701,519.96484,643.6701C520.41284,643.6701,520.85944,643.95526,521.1764,644.4771C521.5886,645.10016,522.2834,645.6046,522.6886,645.6046C522.69147,645.6046,522.69434,645.6046,522.69714,645.60455L522.7041,645.60455C523.5037,645.61316,523.2843,649.5886,522.32135,653.6922C521.6277,656.56915,521.7563,657.72546,522.7174,657.72546C522.7246,657.72546,522.7319,657.7254,522.7392,657.7253C522.7433,657.7252,522.7474,657.72516,522.75146,657.72516C523.2641,657.72516,523.6152,658.2941,523.63153,659.21014C523.64703,660.0855,523.77057,660.4718,523.93994,660.4718C524.2619,660.4718,524.74963,659.0769,524.9775,656.99286C525.1784,655.31537,525.71136,652.8239,526.09174,651.48956C526.5298,650.1541,527.1133,647.25775,527.42163,645.11664C527.933,641.4134,531.07214,626.40796,532.371,621.5364C532.7378,620.1778,532.9797,619.5478,533.1024,619.53864L533.1077,619.53864C533.4092,619.5617,532.94965,623.5439,531.824,629.74243C529.41455,643.5804,528.11237,651.51154,528.1236,652.1462C528.14056,652.3467,528.1791,652.4416,528.2366,652.4416C528.92206,652.4416,532.2986,638.9299,533.7942,630.1692C534.88794,623.51196,538.02185,608.2179,540.3269,598.249C541.5062,593.14856,542.79175,587.527,543.1072,585.7897C543.4802,584.0515,543.9597,581.7919,544.2318,580.8635C544.5029,579.8773,545.7317,574.31433,546.8967,568.4061C548.1194,562.49695,549.60376,555.0823,550.2976,551.89526C554.60565,531.21234,559.39044,504.86444,561.38666,490.51434C561.74554,487.9682,562.3621,483.68597,562.8332,480.96466C563.24664,478.24457,563.9766,473.8448,564.4478,471.1236C565.22833,466.31882,566.24615,458.62387,570.3069,427.26712C571.3712,418.93643,572.395,411.5876,572.6166,411.06427C572.7794,410.4842,573.3281,405.6258,573.8098,400.2492L574.7908,390.4771L571.96606,384.17792C569.38025,378.33636,568.72925,377.42426,564.02783,372.7171C559.97266,368.633,557.98303,367.10992,554.4314,365.3836C549.6955,363.13815,546.30756,362.1006,542.747,362.1006C540.7496,362.1006,538.6979,362.42712,536.32336,363.0501C533.6803,363.73187,531.3845,364.4654,531.15674,364.64252C530.9878,364.8764,526.735,369.1657,521.7451,374.21808C516.52783,379.44806,511.15247,385.54633,509.2965,388.29218C506.82968,391.81406,505.859,392.90375,505.0031,392.90375C504.92154,392.90375,504.84097,392.89383,504.76025,392.87518C504.12354,392.7708,500.17615,391.51337,495.99683,390.2022C488.50818,387.79547,486.8853,387.42035,477.50577,385.79755C471.3736,384.7846,459.29703,383.6047,454.91367,383.6047C454.78644,383.6047,454.66568,383.6057,454.55173,383.60773C454.16373,383.61462,453.81467,383.62195,453.4986,383.62195C450.6186,383.62195,450.47983,383.0134,448.58542,375.92133C445.55814,364.71954,444.45895,361.33356,439.6628,348.02744C437.04935,340.62772,434.74194,334.20413,434.5606,333.7455C434.37927,333.28702,433.70978,331.3365,433.04126,329.44342C431.94727,326.346,423.39587,306.3532,415.45947,288.4853C411.8496,280.23776,411.6087,279.66464,409.6958,272.71445C406.8014,262.49155,405.41376,259.1108,400.65833,251.34518C399.8269,250.03232,398.737,247.1655,398.1798,245.03989C397.6803,242.9132,396.38037,237.97215,395.27097,234.00911C393.59927,227.63167,393.3975,226.01912,393.4042,219.90048C393.42648,214.64755,393.62338,212.73935,394.30246,211.9769C394.7549,211.44931,396.9838,210.1976,399.27658,209.29123C403.17368,207.72128,403.8641,207.59348,414.0177,207.2977C416.22787,207.23364,418.29156,207.2016,420.20648,207.2016C427.18866,207.2016,432.19266,207.62767,435.10687,208.4819C436.0351,208.75388,440.1546,209.95053,444.2163,211.1484C448.33585,212.34518,453.85538,214.38266,456.5322,215.60495L461.47794,217.82602L473.19162,217.61801C496.9641,217.13828,512.374,213.80539,529.1365,205.36899C546.6439,196.63084,559.9932,181.271,565.3953,163.68579C566.881,158.71274,566.9686,158.25348,565.853,158.2527L565.84735,158.2527C565.81915,158.25273,565.7902,158.25304,565.76056,158.25356C565.75214,158.25371,565.7438,158.25378,565.7355,158.25378C565.1768,158.25378,564.949,157.91486,565.1115,157.45692C565.2705,157.05553,564.72614,156.8769,562.2456,156.8769C560.4158,156.8769,557.5322,156.9741,553.1002,157.15077C550.34216,157.27551,547.6337,157.33847,544.95593,157.33847C533.3546,157.33847,522.3276,156.15671,510.32556,153.6968C501.5188,151.8329,483.41513,146.49757,476.67032,143.73146C467.88968,140.07777,452.97604,135.6094,445.62427,134.4125C444.8448,134.27094,443.12946,134.19617,441.04596,134.19617C439.25986,134.19617,437.20325,134.25111,435.2337,134.366C420.93164,135.08182,411.4179,135.6547,409.34473,135.9224C408.1927,136.05826,404.103,136.53506,400.24307,136.94998C396.3831,137.36478,391.43198,138.08768,389.30417,138.52945L385.39267,139.2914L385.24496,153.72438C385.15445,161.63379,385.04666,178.3169,384.97842,190.72801C384.9113,203.19687,384.74844,213.53195,384.63516,213.64938C384.62537,213.65953,384.60553,213.6645,384.5761,213.6645C384.09454,213.6645,381.0446,212.33354,377.4236,210.60263C373.64017,208.82285,368.00107,206.55637,364.86862,205.68857C361.79297,204.76193,358.8874,203.65903,358.4743,203.14694C357.73148,202.27675,354.11615,200.33505,353.40872,200.33505C353.3303,200.33505,353.2876,200.35892,353.2885,200.41075C353.2893,200.45609,353.25854,200.47748,353.20145,200.47748C352.96786,200.47748,352.29388,200.1191,351.54205,199.57591C350.63376,198.9424,349.9965,198.63567,349.25674,198.63567C348.61618,198.63567,347.89874,198.86569,346.86194,199.31273C346.73126,199.37589,346.60538,199.40868,346.47986,199.40868C345.89093,199.40868,345.31033,198.68669,344.28113,196.99205C342.73358,194.36424,342.67194,194.1345,343.29974,190.48692C343.60907,188.40355,344.25848,185.96776,344.64496,184.9796C345.09015,184.0482,345.6324,182.07603,345.8376,180.6294C346.2572,178.25525,346.42627,178.02148,347.9265,177.99487C350.46545,177.9497,352.77283,174.61865,353.49768,169.93042C354.20877,164.94872,353.6161,162.92902,351.25546,162.92902C351.2305,162.92902,351.20532,162.92923,351.17993,162.92969L349.4478,162.90259L349.51434,156.89857C349.59833,151.87526,349.39545,150.2051,348.3015,147.10756C345.93335,140.51173,340.98993,135.17374,334.53165,132.28688C331.8244,131.0874,329.04614,130.51244,326.31555,130.51244 Z"/> </g> </g> </svg>