<?xml version="1.0" encoding="UTF-8"?>
<svg width="1500" height="1920" version="1.1" viewBox="0 0 1500.0001 1920" xmlns="http://www.w3.org/2000/svg">
 <g transform="translate(0 867.64)">
  <path d="m658.5-426.25c-31.697 36.767-53.856 81.263-86.684 117.02-22.151 24.129-51.332 41.068-73.682 65.013-37.265 39.925-99.687 130.03-99.687 130.03s-52.552 12.723-78.016 21.671c-36.332 12.767-74.3 23.919-106.19 45.509-10.997 7.4455-22.71 16.067-28.172 28.172-9.5266 21.111-10.113 46.919-4.3341 69.347 9.3996 36.483 34.324 68.431 60.679 95.353 32.796 33.501 117.02 78.016 117.02 78.016l13.003 8.6686s-25.065 59.479-26.005 91.018c-0.3939 13.314-1.1055 29.958 8.6683 39.008 7.4954 6.9409 30.339 4.334 30.339 4.334s-0.2366 21.203 4.3345 30.339c2.7412 5.4831 10.657 7.3399 13.002 13.004 2.7643 6.6728 0 14.446 0 21.67 0 8.6678-2.9512 17.855 0 26.005 3.8412 10.61 16.18 16.147 21.671 26.005 8.8931 15.965 6.2441 37.489 17.337 52.011 6.3234 8.2787 16.273 13.619 26.005 17.337 9.5433 3.6453 21.202-0.23826 30.34 4.3331 14.62 7.3113 34.674 34.674 34.674 34.674s-34.15 10.636-47.676 21.672c-15.226 12.421-19.68 34.974-34.674 47.677-12.325 10.44-28.419 15.488-43.342 21.67-16.884 6.9936-39.372 4.1377-52.01 17.337-7.274 7.5972-8.1596 19.834-8.6683 30.339-0.4971 10.27 0.5035 21.391 5.5686 30.34 5.0124 8.8536 13.506 16.279 22.906 20.174 7.2626 3.0084 16.373-1.7409 23.536 1.4931 9.3091 4.206 19.324 11.729 21.671 21.67 2.0996 8.8933-5.6868 17.369-8.6682 26.007-7.008 20.301-21.733 39.201-21.671 60.679 0.047 16.91 5.7206 35.386 17.337 47.675 8.5337 9.0284 22.656 10.232 34.253 14.686 16.731 6.425 33.757 12.094 50.895 17.337 16.305 4.989 32.74 9.6129 49.359 13.423 19.272 4.4174 38.54 10.301 58.302 10.92 22.481 0.6988 45.144-2.8147 66.969-8.2485 18.108-4.5077 34.612-14.016 52.284-20.009 12.429-4.2139 25.592-6.2407 37.746-11.193 14.056-5.7278 26.678-14.497 40.27-21.249 21.417-10.64 65.013-30.34 65.013-30.34l60.679-30.34 30.34-17.337s43.382-23.041 65.013-34.674c9.9001-5.3242 19.822-10.61 29.645-16.074 17.173-9.5525 37.153-15.477 51.207-29.212 12.722-12.432 18.935-30.143 27.502-45.733 6.2242-11.323 11.959-22.923 17.337-34.672 7.8161-17.078 14.145-34.803 21.671-52.011 15.283-34.946 31.199-69.622 47.676-104.02 18.143-37.876 59.322-70.799 56.345-112.69-1.6192-22.787-20.88-42.446-39.008-56.345-34.088-26.137-121.36-43.342-121.36-43.342s51.122-37.275 52.01-65.013c1.1294-35.252-40.273-57.916-60.679-86.684-16.47-23.219-40.666-42.4-49.844-69.347-6.9903-20.525 1.6626-43.671-2.1668-65.013-8.8752-49.465-42.65-93.026-47.676-143.03-5.9692-59.374 21.671-177.7 21.671-177.7s15.669-219.53 21.671-329.4c1.8142-33.211 14.833-68.127 4.3344-99.687-6.4814-19.484-19.738-40.585-39.008-47.676-15.159-5.5783-33.479 0.9658-47.676 8.6685-123.97 67.26-192.12 206.57-290.39 307.73-4.2712 4.3967-9.0002 8.3603-13.002 13.003z" fill-rule="evenodd"/>
  <text x="504.41882" y="820.28583" fill="#000000" font-family="sans-serif" font-size="45px" letter-spacing="0px" stroke-width="1px" word-spacing="0px" style="line-height:125%">
   <tspan x="504.41882" y="820.28583"/>
  </text>
 </g>
</svg>
