<?xml version="1.0" encoding="UTF-8"?>
<svg viewBox="0 0 640 480" xmlns="http://www.w3.org/2000/svg">
 <g stroke="#000" stroke-width="2.5">
  <path d="m208 366.47l-3.69 3.387c-1.043 1.233-1.569 1.113-3.019 0.742-2.788-0.495-5.761 0.272-8.009 2.335-3.83 3.514-4.111 9.469-0.59599 13.299 3.513 3.829 9.495 4.086 13.324 0.57199 2.104-1.93 3.119-4.599 3.029-7.247-0.25301-1.577-0.492-2.17 0.664-3.231l3.986-3.658-5.689-6.199z"/>
  <path d="m221.12 272.07l-14.052 12.894 13.653 14.879-9.093 8.343-13.653-14.878-3.435 3.152-4.004 3.674-3.435 3.153 13.653 14.878-9.093 8.344-13.653-14.879-14.052 12.895 17.445 19.011 6.477-2.897 4.551 4.959-3.443 6.204 6.827 7.44 18.185-16.687 8.344 9.092 20.793-19.081-8.343-9.092 18.185-16.687-6.827-7.44-6.476 2.898-4.551-4.959 3.442-6.205-17.445-19.011z" fill-rule="evenodd"/>
  <path d="m454.42 146.09c-3.813-4.156-9.705-5.488-12.802-2.647-2 1.836-2.455 4.872-1.505 7.901l-2.764 2.536-3.84-4.185c-9.197 6.087-21.732 4.785-29.422-3.596-8.524-9.289-7.901-23.773 1.387-32.296 9.289-8.524 23.747-7.878 32.27 1.411 4.093 4.459 6.021 10.106 5.951 15.714l12.742-0.321c-0.74399-5.526 1.134-11.318 5.549-15.369 2.688-2.468 5.937-3.938 9.297-4.439 0.89801-0.134 1.808-0.211 2.713-0.206 0.13498 0 0.26099 0.013 0.396 0.017006 0.125 0.002998 0.24799-0.015007 0.37299-0.009003 0.52402 0.026001 1.061 0.095001 1.581 0.167 0.55902 0.078003 1.122 0.189 1.673 0.32 0.098999 0.023003 0.19702 0.037003 0.29501 0.061996 0.45099 0.116 0.88101 0.25301 1.323 0.40401 1.076 0.369 2.139 0.869 3.138 1.45 0.41699 0.243 0.83301 0.494 1.233 0.773 0.15601 0.10899 0.30301 0.228 0.45599 0.342 0.39499 0.296 0.77701 0.61 1.151 0.943 0.436 0.388 0.85901 0.782 1.262 1.22 0.009003 0.009003 0.016022 0.016998 0.024017 0.026001 0.40198 0.44 0.759 0.895 1.108 1.363 0.29898 0.401 0.57999 0.808 0.84 1.227 0.037994 0.060005 0.079987 0.118 0.117 0.178 0.011993 0.020004 0.035004 0.031998 0.046997 0.052002 0.063995 0.106 0.097992 0.223 0.16 0.329 0.229 0.40099 0.44699 0.806 0.642 1.219 0.49298 1.046 0.87598 2.122 1.152 3.226 0.025024 0.099998 0.063019 0.201 0.085999 0.301 0.10501 0.453 0.19501 0.918 0.26401 1.376 0.147 0.98901 0.216 1.965 0.19501 2.961-0.002991 0.132-0.011993 0.26399-0.016998 0.396-0.024017 0.564-0.070007 1.147-0.14801 1.706-0.001984 0.017014 0.001007 0.033005-0.001984 0.050003-0.076996 0.543-0.19 1.089-0.31799 1.624-0.78702 3.304-2.531 6.414-5.22 8.882-4.415 4.051-10.347 5.425-15.788 4.21l-1.413 12.668c5.594 0.411 11.054 2.816 15.146 7.275 8.524 9.289 7.927 23.75-1.361 32.273-9.289 8.523-23.773 7.901-32.297-1.387-7.69-8.382-7.912-20.981-1.059-29.623l-3.84-4.184 2.764-2.537c2.936 1.207 5.999 1.014 8-0.82201 3.096-2.841 2.274-8.826-1.539-12.981zm40.106-36.873c-0.51199-0.555-1.05-1.078-1.595-1.583-0.48502-0.448-0.97299-0.895-1.482-1.304-0.065002-0.051994-0.12601-0.105-0.19202-0.157-0.074982-0.059998-0.16501-0.101-0.241-0.159-0.513-0.396-1.031-0.779-1.564-1.135-0.56799-0.378-1.152-0.734-1.741-1.067-0.24802-0.14-0.5-0.272-0.75201-0.404-0.078979-0.042-0.164-0.069-0.24298-0.11-0.379-0.195-0.75601-0.394-1.142-0.57-0.24402-0.112-0.483-0.225-0.73001-0.329-0.27301-0.116-0.55301-0.227-0.82901-0.334-0.097992-0.036995-0.19498-0.074997-0.293-0.111-0.228-0.084999-0.45599-0.14999-0.685-0.228-0.444-0.153-0.871-0.325-1.321-0.454-0.42401-0.122-0.849-0.201-1.277-0.303-0.39801-0.094994-0.80301-0.198-1.204-0.27499-0.482-0.093002-0.96799-0.16901-1.454-0.236-0.354-0.050003-0.70602-0.085007-1.062-0.12-0.091003-0.009003-0.17999-0.028999-0.271-0.037003-0.33902-0.029999-0.67401-0.049995-1.014-0.068001-0.48999-0.027-0.97198-0.036995-1.463-0.037994-0.065979 0-0.13098-0.009003-0.198-0.009003-0.448 0.002998-0.89298 0.017998-1.342 0.042-0.40601 0.021004-0.81302 0.032997-1.218 0.071999-0.48999 0.047005-0.98599 0.137-1.473 0.209-0.44199 0.066002-0.88599 0.129-1.325 0.216-0.88599 0.176-1.763 0.394-2.633 0.656-0.44098 0.133-0.87399 0.285-1.309 0.44-0.42899 0.153-0.83899 0.318-1.262 0.492-0.083008 0.034004-0.16901 0.054001-0.25201 0.089005-2.869 1.215-5.587 2.937-8.013 5.164-2.299 2.11-4.136 4.517-5.566 7.105-1.207-2.151-2.662-4.198-4.403-6.094-12.187-13.281-32.859-14.194-46.14-2.007-13.28 12.187-14.17 32.885-1.983 46.166 7.437 8.104 18.044 11.584 28.192 10.292-4.664 4.15-11.555 4.868-17.708 6.733l-1.459 10.855-0.927 0.804c-0.319-0.72499-0.737-1.426-1.302-2.041-2.766-3.015-7.437-3.216-10.452-0.44899-3.015 2.766-3.241 7.46-0.47501 10.475 0.51099 0.55701 1.109 1.001 1.728 1.365l-191.35 174.82 11.069 12.063 190.59-175.65c0.31 0.648 0.70099 1.282 1.211 1.839 2.767 3.014 7.463 3.191 10.478 0.425s3.215-7.437 0.449-10.452c-0.565-0.615-1.227-1.092-1.922-1.472l0.88098-0.85501 10.94-0.523c2.385-5.97 3.692-12.774 8.226-17.065-2.157 10 0.39999 20.866 7.837 28.971 12.187 13.281 32.885 14.17 46.166 1.983s14.144-32.861 1.957-46.142c-1.74-1.897-3.654-3.522-5.694-4.91 2.701-1.203 5.257-2.826 7.556-4.935 2.427-2.227 4.375-4.787 5.833-7.541 0.040985-0.07901 0.067993-0.164 0.10901-0.24301 0.070984-0.13699 0.12399-0.276 0.19199-0.41399 0.133-0.268 0.28201-0.53001 0.40601-0.80101 0.048004-0.104 0.09201-0.213 0.138-0.317 0.050995-0.11499 0.11499-0.22499 0.164-0.34 0.194-0.457 0.362-0.927 0.53101-1.392 0.053986-0.148 0.116-0.29001 0.168-0.439 0.005005-0.016006-0.003998-0.035004 0.001984-0.050003 0.046997-0.13701 0.097015-0.27701 0.142-0.41501 0.155-0.47899 0.30402-0.961 0.43402-1.446 0.010986-0.041 0.018982-0.080994 0.029999-0.12199 0.053986-0.205 0.10098-0.409 0.14999-0.614 0.11499-0.479 0.24701-0.966 0.336-1.45 0.108-0.59001 0.17999-1.205 0.25101-1.8 0.011993-0.108 0.026978-0.214 0.037994-0.321 0.065002-0.602 0.10098-1.177 0.12601-1.781 0.019989-0.449 0.009979-0.89099 0.007996-1.34-0.002014-0.445-0.018005-0.897-0.041016-1.342-0.016998-0.31499-0.031982-0.63-0.05899-0.945-0.015991-0.191-0.028992-0.383-0.049988-0.573-0.037018-0.346-0.080017-0.678-0.13-1.023-0.009003-0.067001-0.029999-0.133-0.041016-0.2-0.13098-0.869-0.29498-1.721-0.509-2.578-0.103-0.413-0.22098-0.845-0.34299-1.255-0.062988-0.208-0.129-0.422-0.19699-0.629-0.096008-0.296-0.17801-0.58701-0.284-0.88-0.17203-0.474-0.36301-0.923-0.561-1.389-0.117-0.276-0.26001-0.563-0.38602-0.836-0.26498-0.568-0.539-1.144-0.845-1.698-0.293-0.534-0.59399-1.06-0.92499-1.578-0.11301-0.178-0.23102-0.361-0.349-0.536-0.35901-0.537-0.74802-1.047-1.149-1.563-0.45898-0.592-0.92499-1.162-1.439-1.725-0.015991-0.016998-0.031982-0.034004-0.048004-0.051003-0.006989-0.009003-0.014984-0.017998-0.02298-0.026001z" fill-rule="evenodd"/>
 </g>
</svg>
